<svg width="416" height="495" viewBox="0 0 416 495" fill="none" xmlns="http://www.w3.org/2000/svg">
<path d="M82.0002 493.24C79.245 491.649 77.2348 489.028 76.4115 485.954C75.5883 482.881 76.0195 479.606 77.6103 476.85L93.6103 449.13C94.3822 447.735 95.4244 446.508 96.6759 445.521C97.9275 444.533 99.3632 443.804 100.899 443.378C102.436 442.951 104.041 442.835 105.623 443.036C107.204 443.237 108.73 443.752 110.111 444.549C111.491 445.346 112.699 446.41 113.664 447.68C114.628 448.949 115.331 450.398 115.729 451.941C116.127 453.485 116.214 455.093 115.984 456.67C115.754 458.248 115.212 459.764 114.39 461.13L98.3901 488.85C96.7984 491.605 94.1777 493.615 91.1042 494.439C88.0306 495.262 84.7559 494.831 82.0002 493.24Z" fill="#474E5D"/>
<path d="M308 101.79C306.165 100.729 304.825 98.9835 304.276 96.936C303.726 94.8885 304.012 92.7068 305.07 90.8699L349.07 14.6596C350.131 12.8217 351.879 11.4806 353.929 10.9311C355.978 10.3816 358.162 10.6688 360 11.7297C361.838 12.7906 363.18 14.5381 363.729 16.5879C364.279 18.6376 363.991 20.8217 362.93 22.6596L318.93 98.8699C317.868 100.706 316.12 102.046 314.07 102.593C312.02 103.141 309.837 102.852 308 101.79Z" fill="#474E5D"/>
<path d="M403.14 129L236.86 32.9999C241.062 25.7204 246.657 19.3398 253.325 14.2226C259.993 9.10534 267.604 5.35163 275.722 3.17592C283.841 1.00021 292.309 0.445065 300.642 1.54213C308.976 2.6392 317.011 5.36716 324.29 9.56996L379.71 41.57C386.99 45.7719 393.37 51.3666 398.488 58.0346C403.605 64.7026 407.358 72.3133 409.534 80.432C411.71 88.5508 412.265 97.0186 411.168 105.352C410.071 113.685 407.343 121.721 403.14 129Z" fill="#24B3C9"/>
<path d="M317.61 488.85L301.61 461.13C300.087 458.378 299.705 455.139 300.547 452.109C301.388 449.079 303.385 446.5 306.108 444.928C308.832 443.355 312.063 442.914 315.108 443.7C318.153 444.486 320.768 446.436 322.39 449.13L338.39 476.85C339.912 479.601 340.294 482.84 339.453 485.871C338.612 488.901 336.615 491.48 333.891 493.052C331.168 494.625 327.936 495.066 324.891 494.28C321.847 493.494 319.232 491.544 317.61 488.85Z" fill="#474E5D"/>
<path d="M97.0697 98.8699L53.0697 22.6596C52.0089 20.8217 51.7214 18.6376 52.2709 16.5879C52.8204 14.5381 54.1617 12.7906 55.9997 11.7297C57.8376 10.6688 60.0217 10.3816 62.0714 10.9311C64.1212 11.4806 65.8687 12.8217 66.9296 14.6596L110.93 90.8699C111.99 92.7078 112.278 94.8919 111.728 96.9416C111.179 98.9914 109.838 100.739 108 101.8C106.162 102.861 103.978 103.148 101.928 102.598C99.8781 102.049 98.1306 100.708 97.0697 98.8699Z" fill="#474E5D"/>
<path d="M179.14 32.9999L12.86 129C8.6572 121.721 5.92924 113.685 4.83217 105.352C3.7351 97.0186 4.29025 88.5508 6.46596 80.432C8.64167 72.3133 12.3954 64.7026 17.5126 58.0346C22.6298 51.3666 29.0104 45.7719 36.2899 41.57L91.7099 9.56996C98.9889 5.36716 107.024 2.6392 115.358 1.54213C123.691 0.445065 132.159 1.00021 140.278 3.17592C148.396 5.35163 156.007 9.10534 162.675 14.2226C169.343 19.3398 174.938 25.7204 179.14 32.9999Z" fill="#24B3C9"/>
<path d="M212 27H204V69H212V27Z" fill="#474E5D"/>
<path d="M208 43C216.837 43 224 35.8366 224 27C224 18.1634 216.837 11 208 11C199.163 11 192 18.1634 192 27C192 35.8366 199.163 43 208 43Z" fill="#474E5D"/>
<path d="M208 483C322.875 483 416 389.875 416 275C416 160.125 322.875 67 208 67C93.1248 67 0 160.125 0 275C0 389.875 93.1248 483 208 483Z" fill="#24B3C9"/>
<path d="M208 459C309.62 459 392 376.62 392 275C392 173.38 309.62 91 208 91C106.38 91 24 173.38 24 275C24 376.62 106.38 459 208 459Z" fill="#0399AF"/>
<path d="M208 443C300.784 443 376 367.784 376 275C376 182.216 300.784 107 208 107C115.216 107 40 182.216 40 275C40 367.784 115.216 443 208 443Z" fill="white"/>
<path d="M210 123H206V139H210V123Z" fill="#474E5D"/>
<path d="M210 411H206V427H210V411Z" fill="#474E5D"/>
<path d="M133.761 142.307L130.297 144.307L138.297 158.163L141.761 156.163L133.761 142.307Z" fill="#474E5D"/>
<path d="M277.759 391.72L274.294 393.72L282.294 407.577L285.759 405.577L277.759 391.72Z" fill="#474E5D"/>
<path d="M77.3696 197.332L75.3696 200.796L89.226 208.796L91.226 205.332L77.3696 197.332Z" fill="#474E5D"/>
<path d="M326.787 341.328L324.787 344.792L338.644 352.792L340.644 349.328L326.787 341.328Z" fill="#474E5D"/>
<path d="M72 273H56V277H72V273Z" fill="#474E5D"/>
<path d="M360 273H344V277H360V273Z" fill="#474E5D"/>
<path d="M89.2441 341.213L75.3877 349.213L77.3877 352.677L91.2441 344.677L89.2441 341.213Z" fill="#474E5D"/>
<path d="M338.668 197.206L324.812 205.206L326.812 208.67L340.668 200.67L338.668 197.206Z" fill="#474E5D"/>
<path d="M138.276 391.843L130.276 405.699L133.74 407.699L141.74 393.843L138.276 391.843Z" fill="#474E5D"/>
<path d="M282.272 142.425L274.272 156.282L277.737 158.282L285.737 144.425L282.272 142.425Z" fill="#474E5D"/>
<path d="M103.663 175.682L98.3096 181.627L229.103 299.394L234.456 293.449L103.663 175.682Z" fill="#474E5D"/>
<path d="M278.264 149.141L190.249 301.587L193.713 303.587L281.728 151.141L278.264 149.141Z" fill="#F93B2A"/>
<path d="M240 269H80V281H240V269Z" fill="#474E5D"/>
<path d="M208 283C212.418 283 216 279.418 216 275C216 270.582 212.418 267 208 267C203.582 267 200 270.582 200 275C200 279.418 203.582 283 208 283Z" fill="#F93B2A"/>
</svg>
