<svg width="112" height="113" viewBox="0 0 112 113" fill="none" xmlns="http://www.w3.org/2000/svg">
<path d="M95.5938 89.25L94.2812 85.75H80.2812L78.9688 89.25C63.8444 92.0631 67.4516 87.5503 62.5625 112H112C107.113 87.5612 110.701 92.0609 95.5938 89.25Z" fill="#BBFFFE"/>
<path d="M90.125 91.4375L88.1562 89.4688L86.1875 91.4375L87.3535 92.6035L86.4062 112H89.9062L88.959 92.6035L90.125 91.4375Z" fill="#BBFFFE"/>
<path d="M89.25 91.4375L87.2812 89.4688L85.3125 91.4375L86.4785 92.6035L85.5312 112H89.0312L88.084 92.6035L89.25 91.4375Z" fill="#F05146"/>
<path d="M87.2812 89.4688L90.1491 92.3365L95.515 89.0421L94.2812 85.75H93.8438L87.2812 89.4688Z" fill="#BBFFFE"/>
<path d="M90.1492 92.3369L91.0001 92.5381L95.6398 89.9131C109.069 92.0065 105.617 94.7256 108.5 112.007H112C107.113 87.5068 110.701 92.0678 95.5938 89.2568L94.2813 85.7568H93.8438L92.4198 86.5641L93.8438 90.0794L90.1492 92.3369Z" fill="#BBFFFE"/>
<path d="M80.7188 80.5V85.75L87.2812 89.4688L93.8438 85.75V80.5H80.7188Z" fill="#FFC0BB"/>
<path d="M92.0938 86.7409L93.8438 85.75V80.5H92.0938V86.7409Z" fill="#FFC0BB"/>
<path d="M97.7812 70C97.7812 63.4134 93.4062 59.5 87.2812 59.5C81.5062 59.5 76.8206 63.0831 76.7812 69.9081V70C76.7812 76.8972 81.4909 84.4375 87.2812 84.4375C93.0716 84.4375 97.7812 76.8687 97.7812 70Z" fill="#FFC0BB"/>
<path d="M87.2812 59.5C86.8438 59.5 86.4062 59.5219 85.9688 59.5634C91.3937 60.0884 95.1562 63.8969 95.1562 70C95.1562 76.3438 91.1531 83.2825 85.9688 84.3085C86.401 84.3943 86.8406 84.4375 87.2812 84.4375C93.0869 84.4375 97.7812 76.8687 97.7812 70C97.7812 63.4134 93.4062 59.5 87.2812 59.5Z" fill="#FFC0BB"/>
<path d="M87.2813 59.5C81.5063 59.5 76.8228 63.081 76.7812 69.9038C79.0612 71.2205 81.7526 71.6327 84.3221 71.0586C86.8917 70.4845 89.1517 68.966 90.6544 66.8041C91.2892 68.1455 92.2901 69.2802 93.5417 70.0774C94.7933 70.8747 96.2448 71.3021 97.7288 71.3104C98.2909 63.746 93.6688 59.5 87.2813 59.5Z" fill="black"/>
<path d="M97.7288 71.3125C98.291 63.7481 93.6688 59.5 87.2813 59.5C86.8438 59.5 86.4063 59.524 85.9863 59.5656C91.6913 60.1234 95.491 64.295 95.13 70.851C95.9638 71.1511 96.8427 71.3072 97.7288 71.3125Z" fill="black"/>
<path d="M33.0312 89.25L31.7188 85.75H17.7188L16.4062 89.25C1.28188 92.0631 4.88906 87.5503 0 112H49.4375C44.5506 87.5612 48.1381 92.0609 33.0312 89.25Z" fill="#BBFFFE"/>
<path d="M27.5625 91.4375L25.5938 89.4688L23.625 91.4375L24.791 92.6035L23.8438 112H27.3438L26.3965 92.6035L27.5625 91.4375Z" fill="#BBFFFE"/>
<path d="M26.6875 91.4375L24.7188 89.4688L22.75 91.4375L23.916 92.6035L22.9688 112H26.4688L25.5215 92.6035L26.6875 91.4375Z" fill="#F05146"/>
<path d="M24.7188 89.4688L27.5866 92.3365L32.9525 89.0421L31.7188 85.75H31.2812L24.7188 89.4688Z" fill="#BBFFFE"/>
<path d="M27.5867 92.3369L28.4376 92.5381L33.0773 89.9131C46.5063 92.0065 43.0545 94.7256 45.9376 112.007H49.4376C44.5507 87.5068 48.1382 92.0678 33.0313 89.2568L31.7188 85.7568H31.2813L29.8573 86.5641L31.2813 90.0794L27.5867 92.3369Z" fill="#BBFFFE"/>
<path d="M18.1562 80.5V85.75L24.7188 89.4688L31.2812 85.75V80.5H18.1562Z" fill="#FFC0BB"/>
<path d="M29.5312 86.7409L31.2812 85.75V80.5H29.5312V86.7409Z" fill="#FFC0BB"/>
<path d="M35.2188 70C35.2188 63.4134 30.8438 59.5 24.7188 59.5C18.9437 59.5 14.2581 63.0831 14.2188 69.9081V70C14.2188 76.8972 18.9284 84.4375 24.7188 84.4375C30.5091 84.4375 35.2188 76.8687 35.2188 70Z" fill="#FFC0BB"/>
<path d="M24.7188 59.5C24.2812 59.5 23.8438 59.5219 23.4062 59.5634C28.8312 60.0884 32.5938 63.8969 32.5938 70C32.5938 76.3438 28.5906 83.2825 23.4062 84.3085C23.8385 84.3943 24.2781 84.4375 24.7188 84.4375C30.5244 84.4375 35.2188 76.8687 35.2188 70C35.2188 63.4134 30.8438 59.5 24.7188 59.5Z" fill="#FFC0BB"/>
<path d="M24.7188 59.5C18.9438 59.5 14.2603 63.081 14.2188 69.9038C16.4987 71.2205 19.1901 71.6327 21.7596 71.0586C24.3292 70.4845 26.5892 68.966 28.0919 66.8041C28.7267 68.1455 29.7276 69.2802 30.9792 70.0774C32.2308 70.8747 33.6823 71.3021 35.1663 71.3104C35.7284 63.746 31.1063 59.5 24.7188 59.5Z" fill="black"/>
<path d="M35.1663 71.3125C35.7285 63.7481 31.1063 59.5 24.7188 59.5C24.2813 59.5 23.8438 59.524 23.4238 59.5656C29.1288 60.1234 32.9285 64.295 32.5675 70.851C33.4013 71.1511 34.2802 71.3072 35.1663 71.3125Z" fill="black"/>
<path d="M26.6875 52.5C27.654 52.5 28.4375 51.7165 28.4375 50.75C28.4375 49.7835 27.654 49 26.6875 49C25.721 49 24.9375 49.7835 24.9375 50.75C24.9375 51.7165 25.721 52.5 26.6875 52.5Z" fill="#F05146"/>
<path d="M33.6875 44.625C35.6205 44.625 37.1875 43.058 37.1875 41.125C37.1875 39.192 35.6205 37.625 33.6875 37.625C31.7545 37.625 30.1875 39.192 30.1875 41.125C30.1875 43.058 31.7545 44.625 33.6875 44.625Z" fill="#F05146"/>
<path d="M40.6875 32.8125C49.1444 32.8125 56 25.9569 56 17.5C56 9.04314 49.1444 2.1875 40.6875 2.1875C32.2306 2.1875 25.375 9.04314 25.375 17.5C25.375 25.9569 32.2306 32.8125 40.6875 32.8125Z" fill="#F05146"/>
<path fill-rule="evenodd" clip-rule="evenodd" d="M46.5631 26.2896L40.705 20.4337L34.8294 26.3071L31.8806 23.3584L37.7366 17.5002L31.8806 11.6421L34.8294 8.69336L40.6875 14.5493L46.5456 8.69336L49.4944 11.6421L43.6384 17.5002L49.4944 23.3584L46.5631 26.2896Z" fill="white"/>
<path d="M85.3125 52.5C86.279 52.5 87.0625 51.7165 87.0625 50.75C87.0625 49.7835 86.279 49 85.3125 49C84.346 49 83.5625 49.7835 83.5625 50.75C83.5625 51.7165 84.346 52.5 85.3125 52.5Z" fill="#3CB2B0"/>
<path d="M78.3125 46.8125C80.2455 46.8125 81.8125 45.2455 81.8125 43.3125C81.8125 41.3795 80.2455 39.8125 78.3125 39.8125C76.3795 39.8125 74.8125 41.3795 74.8125 43.3125C74.8125 45.2455 76.3795 46.8125 78.3125 46.8125Z" fill="#3CB2B0"/>
<path d="M71.3125 35C80.9775 35 88.8125 27.165 88.8125 17.5C88.8125 7.83502 80.9775 0 71.3125 0C61.6475 0 53.8125 7.83502 53.8125 17.5C53.8125 27.165 61.6475 35 71.3125 35Z" fill="#3CB2B0"/>
<path d="M62.3809 19.8539L67.4406 16.7411L69.814 21.1402C69.814 21.1402 74.7578 10.8589 79.8546 8.83984C79.8546 8.83984 78.3234 10.6883 80.244 15.4964C80.244 15.4964 76.7812 15.8071 70.1246 26.1605C70.1246 26.1605 66.5437 21.7614 62.3809 19.8539Z" fill="white"/>
</svg>
