<svg width="112" height="112" viewBox="0 0 112 112" fill="none" xmlns="http://www.w3.org/2000/svg">
<path d="M112 52.5H105V112H112V52.5Z" fill="#F05146"/>
<path d="M101.5 66.5H94.5V112H101.5V66.5Z" fill="#F05146"/>
<path d="M91 80.5H84V112H91V80.5Z" fill="#3CB2B0"/>
<path d="M80.5 73.5H73.5V112H80.5V73.5Z" fill="#3CB2B0"/>
<path d="M70 87.5H63V112H70V87.5Z" fill="#3CB2B0"/>
<path d="M59.5 98H52.5V112H59.5V98Z" fill="#59D9D7"/>
<path d="M49 91H42V112H49V91Z" fill="#59D9D7"/>
<path d="M38.5 105H31.5V112H38.5V105Z" fill="#59D9D7"/>
<path d="M28 98H21V112H28V98Z" fill="#BBFFFE"/>
<path d="M17.5 105H10.5V112H17.5V105Z" fill="#BBFFFE"/>
<path d="M7 108.5H0V112H7V108.5Z" fill="#BBFFFE"/>
<path d="M3.66624 98.8313L3.11499 97.1687L13.5581 93.7059L24.4737 86.4478L34.7834 93.3144L45.29 79.3122L55.8862 86.3734L65.835 76.4247L76.7987 61.81L87.1872 68.8078L107.406 41.7091V0H109.156V42.2909L87.5919 71.1922L77.1991 64.19L67.1606 77.5753L56.1072 88.6266L45.6969 81.6878L35.1903 95.6856L24.4716 88.5522L14.3325 95.2941L3.66624 98.8313Z" fill="black"/>
<path d="M3.5 101.5C5.433 101.5 7 99.933 7 98C7 96.067 5.433 94.5 3.5 94.5C1.567 94.5 0 96.067 0 98C0 99.933 1.567 101.5 3.5 101.5Z" fill="#BBFFFE"/>
<path d="M3.5 99.75C4.4665 99.75 5.25 98.9665 5.25 98C5.25 97.0335 4.4665 96.25 3.5 96.25C2.5335 96.25 1.75 97.0335 1.75 98C1.75 98.9665 2.5335 99.75 3.5 99.75Z" fill="white"/>
<path d="M14 98C15.933 98 17.5 96.433 17.5 94.5C17.5 92.567 15.933 91 14 91C12.067 91 10.5 92.567 10.5 94.5C10.5 96.433 12.067 98 14 98Z" fill="#BBFFFE"/>
<path d="M14 96.25C14.9665 96.25 15.75 95.4665 15.75 94.5C15.75 93.5335 14.9665 92.75 14 92.75C13.0335 92.75 12.25 93.5335 12.25 94.5C12.25 95.4665 13.0335 96.25 14 96.25Z" fill="white"/>
<path d="M24.5 91C26.433 91 28 89.433 28 87.5C28 85.567 26.433 84 24.5 84C22.567 84 21 85.567 21 87.5C21 89.433 22.567 91 24.5 91Z" fill="#BBFFFE"/>
<path d="M24.5 89.25C25.4665 89.25 26.25 88.4665 26.25 87.5C26.25 86.5335 25.4665 85.75 24.5 85.75C23.5335 85.75 22.75 86.5335 22.75 87.5C22.75 88.4665 23.5335 89.25 24.5 89.25Z" fill="white"/>
<path d="M35 98C36.933 98 38.5 96.433 38.5 94.5C38.5 92.567 36.933 91 35 91C33.067 91 31.5 92.567 31.5 94.5C31.5 96.433 33.067 98 35 98Z" fill="#59D9D7"/>
<path d="M35 96.25C35.9665 96.25 36.75 95.4665 36.75 94.5C36.75 93.5335 35.9665 92.75 35 92.75C34.0335 92.75 33.25 93.5335 33.25 94.5C33.25 95.4665 34.0335 96.25 35 96.25Z" fill="white"/>
<path d="M45.5 84C47.433 84 49 82.433 49 80.5C49 78.567 47.433 77 45.5 77C43.567 77 42 78.567 42 80.5C42 82.433 43.567 84 45.5 84Z" fill="#59D9D7"/>
<path d="M45.5 82.25C46.4665 82.25 47.25 81.4665 47.25 80.5C47.25 79.5335 46.4665 78.75 45.5 78.75C44.5335 78.75 43.75 79.5335 43.75 80.5C43.75 81.4665 44.5335 82.25 45.5 82.25Z" fill="white"/>
<path d="M56 91C57.933 91 59.5 89.433 59.5 87.5C59.5 85.567 57.933 84 56 84C54.067 84 52.5 85.567 52.5 87.5C52.5 89.433 54.067 91 56 91Z" fill="#59D9D7"/>
<path d="M56 89.25C56.9665 89.25 57.75 88.4665 57.75 87.5C57.75 86.5335 56.9665 85.75 56 85.75C55.0335 85.75 54.25 86.5335 54.25 87.5C54.25 88.4665 55.0335 89.25 56 89.25Z" fill="white"/>
<path d="M66.5 80.5C68.433 80.5 70 78.933 70 77C70 75.067 68.433 73.5 66.5 73.5C64.567 73.5 63 75.067 63 77C63 78.933 64.567 80.5 66.5 80.5Z" fill="#3CB2B0"/>
<path d="M66.5 78.75C67.4665 78.75 68.25 77.9665 68.25 77C68.25 76.0335 67.4665 75.25 66.5 75.25C65.5335 75.25 64.75 76.0335 64.75 77C64.75 77.9665 65.5335 78.75 66.5 78.75Z" fill="white"/>
<path d="M77 66.5C78.933 66.5 80.5 64.933 80.5 63C80.5 61.067 78.933 59.5 77 59.5C75.067 59.5 73.5 61.067 73.5 63C73.5 64.933 75.067 66.5 77 66.5Z" fill="#3CB2B0"/>
<path d="M77 64.75C77.9665 64.75 78.75 63.9665 78.75 63C78.75 62.0335 77.9665 61.25 77 61.25C76.0335 61.25 75.25 62.0335 75.25 63C75.25 63.9665 76.0335 64.75 77 64.75Z" fill="white"/>
<path d="M87.5 73.5C89.433 73.5 91 71.933 91 70C91 68.067 89.433 66.5 87.5 66.5C85.567 66.5 84 68.067 84 70C84 71.933 85.567 73.5 87.5 73.5Z" fill="#3CB2B0"/>
<path d="M87.5 71.75C88.4665 71.75 89.25 70.9665 89.25 70C89.25 69.0335 88.4665 68.25 87.5 68.25C86.5335 68.25 85.75 69.0335 85.75 70C85.75 70.9665 86.5335 71.75 87.5 71.75Z" fill="white"/>
<path d="M98 59.5C99.933 59.5 101.5 57.933 101.5 56C101.5 54.067 99.933 52.5 98 52.5C96.067 52.5 94.5 54.067 94.5 56C94.5 57.933 96.067 59.5 98 59.5Z" fill="#F05146"/>
<path d="M98 57.75C98.9665 57.75 99.75 56.9665 99.75 56C99.75 55.0335 98.9665 54.25 98 54.25C97.0335 54.25 96.25 55.0335 96.25 56C96.25 56.9665 97.0335 57.75 98 57.75Z" fill="white"/>
<path d="M108.5 45.5C110.433 45.5 112 43.933 112 42C112 40.067 110.433 38.5 108.5 38.5C106.567 38.5 105 40.067 105 42C105 43.933 106.567 45.5 108.5 45.5Z" fill="#F05146"/>
<path d="M108.5 43.75C109.466 43.75 110.25 42.9665 110.25 42C110.25 41.0335 109.466 40.25 108.5 40.25C107.534 40.25 106.75 41.0335 106.75 42C106.75 42.9665 107.534 43.75 108.5 43.75Z" fill="white"/>
<path d="M51.625 31.5H107.625V3.5H51.625L65.625 17.5L51.625 31.5Z" fill="#F05146"/>
</svg>
