<svg width="112" height="112" viewBox="0 0 112 112" fill="none" xmlns="http://www.w3.org/2000/svg">
<g clip-path="url(#clip0)">
<path d="M59.4803 47.1817C58.0954 61.6646 47.744 73.5302 33.1322 73.5302C18.5205 73.5302 16.76 45.8789 12.0068 32.1119C7.19489 18.0281 18.5322 20.8331 33.1322 20.8331C47.7322 20.8331 61.6164 24.6944 59.4803 47.1817Z" fill="black"/>
<path d="M23.0034 75.7369L29.9396 92.9075L31.1367 70.8311L23.0034 75.7369Z" fill="#FCA84C"/>
<path d="M11.8773 63.2845V55.3976L17.0647 48.1678L12.7105 43.3324L21.7593 35.8327C20.5856 34.7295 15.5038 33.8023 14.0602 33.1216L12.0533 32.1592L7.35876 41.5484C6.88669 42.5053 6.63046 43.5541 6.60815 44.6208C6.58584 45.6875 6.79801 46.7461 7.22966 47.7219C7.22966 47.7219 0.9155 59.0476 0.539937 59.4584C0.304619 59.7632 0.147882 60.1211 0.0835415 60.5008C0.0192013 60.8804 0.0492337 61.27 0.170992 61.6353C0.292749 62.0006 0.502494 62.3303 0.781737 62.5954C1.06098 62.8605 1.40115 63.0528 1.77225 63.1554C2.82588 63.3745 3.90844 63.4181 4.97628 63.2845L4.69461 67.3923C5.52038 67.7096 6.37264 67.9531 7.24139 68.12H7.45265H7.24139C6.99331 68.1126 6.74701 68.1641 6.52263 68.2702C6.29825 68.3762 6.10216 68.5339 5.9504 68.7303C4.57724 70.526 6.71326 70.702 6.52548 71.7114C6.50633 72.812 6.58884 73.9121 6.77194 74.9976C6.82868 75.5452 6.99399 76.076 7.25821 76.559C7.52242 77.0419 7.88024 77.4674 8.31076 77.8105C8.74127 78.1536 9.23585 78.4075 9.7656 78.5573C10.2953 78.7071 10.8496 78.7498 11.3961 78.6829L12.288 78.5655L14.3771 66.113L11.8773 63.2845Z" fill="#FACB88"/>
<path d="M54.7503 92.9072L45.1969 70.3378L44.6922 70.2087C43.3804 69.8591 42.1806 69.1777 41.2084 68.2301C40.2361 67.2825 39.5241 66.1006 39.1409 64.7982L38.7301 63.2842L31.1836 70.8308L30.01 92.9072H54.7503Z" fill="#FFB45A"/>
<path d="M35.5499 52.6866C30.8554 52.2759 30.6324 57.9446 28.2499 53.8603L24.1304 38.7788C23.4732 37.6756 22.6751 34.8588 16.8304 33.9434L12.711 43.3326L17.0652 48.1681L11.8777 55.4447V63.3317L14.3775 66.125L12.2885 78.5306C14.178 78.2841 16.2671 78.0024 17.9336 77.7325L23.0037 75.7373L24.2713 74.9744L31.137 70.8314L38.7305 63.2848L35.5499 52.6866Z" fill="#F9C172"/>
<path d="M30.6672 52.4755C30.6672 52.4755 31.6531 46.7715 35.6786 46.7715C40.6901 46.7715 41.2534 50.4333 41.2534 53.3557C41.2534 57.3931 37.9672 64.0477 33.6952 64.4468C31.254 64.6698 29.6814 60.4681 29.7518 60.3624C29.8222 60.2568 30.6672 52.4755 30.6672 52.4755Z" fill="#F9C172"/>
<path d="M27.3343 52.745C26.994 51.8765 25.8203 49.2475 30.421 37.6048C31.3461 35.2942 31.824 32.8289 31.8294 30.3399V20H35.3503V30.3634C35.3469 33.2995 34.7812 36.2078 33.6837 38.9311C30.5149 46.9941 30.2097 50.5151 30.5149 51.3249L27.3343 52.745Z" fill="#3CB2B0"/>
<path d="M44.3163 52.6862C44.3163 54.4201 43.8022 56.1152 42.8388 57.557C41.8755 58.9987 40.5063 60.1224 38.9043 60.786C37.3023 61.4496 35.5396 61.6232 33.8389 61.2849C32.1383 60.9466 30.5761 60.1116 29.35 58.8855C28.1239 57.6594 27.289 56.0972 26.9507 54.3966C26.6124 52.6959 26.786 50.9331 27.4496 49.3311C28.1131 47.7291 29.2368 46.3598 30.6786 45.3965C32.1203 44.4331 33.8153 43.9189 35.5493 43.9189C37.8735 43.9221 40.1016 44.8467 41.7451 46.4902C43.3886 48.1337 44.3132 50.3619 44.3163 52.6862Z" fill="#59D9D7"/>
<path d="M40.1148 52.6865C40.1241 53.5915 39.8642 54.4787 39.3683 55.2357C38.8723 55.9926 38.1626 56.5851 37.3292 56.9379C36.4959 57.2906 35.5765 57.3878 34.6878 57.2169C33.7991 57.0461 32.9812 56.615 32.338 55.9784C31.6949 55.3419 31.2554 54.5285 31.0754 53.6416C30.8954 52.7547 30.983 51.8343 31.3271 50.9974C31.6712 50.1604 32.2563 49.4446 33.0081 48.9408C33.7599 48.437 34.6444 48.168 35.5493 48.168C36.7521 48.1679 37.9062 48.6425 38.7611 49.4885C39.6159 50.3346 40.1024 51.4838 40.1148 52.6865Z" fill="#BDE2E5"/>
<path d="M12.7104 70.268C12.3992 70.2758 12.0975 70.1596 11.8719 69.945C11.6463 69.7304 11.5152 69.435 11.5074 69.1237C11.4997 68.8124 11.6159 68.5108 11.8304 68.2852C12.045 68.0596 12.3405 67.9285 12.6517 67.9207C12.7574 67.9207 23.2145 67.2987 28.5662 63.543C32.9204 60.4797 34.4344 53.7429 34.4344 53.6725C34.4668 53.5184 34.5292 53.3721 34.6181 53.2421C34.7069 53.1121 34.8206 53.0009 34.9524 52.9148C35.0843 52.8287 35.2318 52.7694 35.3866 52.7403C35.5414 52.7113 35.7004 52.713 35.8545 52.7453C36.0086 52.7777 36.1549 52.8401 36.2849 52.929C36.4149 53.0179 36.5261 53.1315 36.6122 53.2634C36.6983 53.3952 36.7576 53.5428 36.7867 53.6975C36.8157 53.8523 36.814 54.0113 36.7817 54.1655C36.7113 54.4706 35.0916 61.8646 29.9981 65.456C24.1299 69.599 13.3207 70.2328 12.863 70.2563L12.7104 70.268Z" fill="#BBFFFE"/>
<path d="M14.9876 72.0402H11.8892C11.1089 72.0371 10.3614 71.7258 9.80959 71.174C9.25781 70.6222 8.94645 69.8747 8.94336 69.0943V69.0943C8.94335 68.312 9.25334 67.5614 9.80546 67.0071C10.3576 66.4528 11.1068 66.1398 11.8892 66.1367H14.9876C15.7699 66.1398 16.5192 66.4528 17.0713 67.0071C17.6234 67.5614 17.9334 68.312 17.9334 69.0943V69.0943C17.9303 69.8747 17.619 70.6222 17.0672 71.174C16.5154 71.7258 15.7679 72.0371 14.9876 72.0402V72.0402Z" fill="#BDE2E5"/>
<path d="M103.832 47.1816C103.832 50.6437 103.15 54.0719 101.824 57.2702C100.499 60.4685 98.5557 63.3742 96.1065 65.8212C93.6574 68.2681 90.75 70.2085 87.5506 71.5312C84.3512 72.854 80.9225 73.5333 77.4604 73.5302C62.9073 73.5302 61.4403 53.578 57.1331 39.6702C53.1192 26.6778 62.9308 20.833 77.4604 20.833C80.9225 20.8299 84.3512 21.5092 87.5506 22.8319C90.75 24.1547 93.6574 26.095 96.1065 28.542C98.5557 30.989 100.499 33.8947 101.824 37.093C103.15 40.2913 103.832 43.7195 103.832 47.1816V47.1816Z" fill="black"/>
<path d="M59.8556 55.6676L65.982 49.5411L62.285 45.8206V35.7858C61.1544 34.6722 59.8453 33.7559 58.412 33.0747L56.4051 32.1123C56.4051 32.1123 54.0579 37.7576 53.3889 39.6002C51.9218 43.9545 51.6402 45.6093 52.2152 48.2383C53.2833 52.933 45.2556 59.0125 44.88 59.4585C44.6447 59.7632 44.488 60.1212 44.4236 60.5008C44.3593 60.8805 44.3893 61.2701 44.5111 61.6354C44.6328 62.0007 44.8426 62.3304 45.1218 62.5955C45.4011 62.8606 45.7412 63.0529 46.1123 63.1555C48.6826 63.4841 50.044 63.578 50.044 63.578C50.0322 64.3939 49.8355 65.1964 49.4689 65.9253C48.3305 67.7328 50.8421 68.1201 51.6402 68.1201H51.8397H51.6402C51.3905 68.1137 51.1429 68.1655 50.9167 68.2714C50.6906 68.3773 50.4923 68.5345 50.3374 68.7304C48.9643 70.5261 51.1003 70.7021 50.9125 71.7115C50.7247 72.7208 49.4455 76.6878 51.7693 78.1079C53.1307 78.9412 58.3064 78.3309 62.332 77.6854L67.3903 75.6902L59.8556 63.8245V55.6676Z" fill="#FACB88"/>
<path d="M89.0555 70.2097C87.7421 69.8608 86.5404 69.1798 85.5662 68.2323C84.5919 67.2847 83.8778 66.1025 83.4925 64.7992L83.0465 63.2852L75.4883 70.8318L74.3147 92.9082H99.1019L89.5602 70.3388L89.0555 70.2097Z" fill="#F9C172"/>
<path d="M79.9007 52.6868C77.608 52.4854 75.3961 51.7419 73.4473 50.5175C71.4986 49.2932 69.8688 47.623 68.6925 45.6448L64.6551 38.779C64.0093 37.6814 63.2199 36.6749 62.3079 35.7861V45.8209L66.04 49.5649L59.855 55.6679V63.8835L67.3193 75.7961L75.4526 70.8902L83.0108 63.3436L79.9007 52.6868Z" fill="#F9C172"/>
<path d="M67.3669 75.7369L74.2914 92.9075L75.4885 70.8311L67.3669 75.7369Z" fill="#FFB45A"/>
<path d="M75.019 52.4755C75.019 52.4755 76.0166 46.7715 80.0422 46.7715C85.0419 46.7715 85.6169 50.4333 85.6169 53.3557C85.6169 57.3931 82.319 64.0477 78.047 64.4468C75.6176 64.6698 74.0332 60.4681 74.1036 60.3624C74.174 60.2568 75.019 52.4755 75.019 52.4755Z" fill="#F9C172"/>
<path d="M71.6977 52.745C71.3104 51.8765 70.1485 49.224 74.7726 37.6283C75.7022 35.319 76.1803 32.8528 76.181 30.3634V20H79.7019V30.3634C79.7025 33.2988 79.1408 36.2071 78.0471 38.9311C74.8313 47.0176 74.5262 50.5268 74.9135 51.3249L71.6977 52.745Z" fill="#3CB2B0"/>
<path d="M88.6682 52.6862C88.6682 54.4201 88.154 56.1152 87.1906 57.557C86.2273 58.9987 84.8581 60.1224 83.2561 60.786C81.6541 61.4496 79.8914 61.6232 78.1907 61.2849C76.4901 60.9466 74.9279 60.1116 73.7018 58.8855C72.4758 57.6594 71.6408 56.0972 71.3025 54.3966C70.9642 52.6959 71.1378 50.9331 71.8014 49.3311C72.4649 47.7291 73.5886 46.3598 75.0304 45.3965C76.4721 44.4331 78.1671 43.9189 79.9011 43.9189C82.2263 43.9189 84.4562 44.8426 86.1003 46.4868C87.7445 48.131 88.6682 50.3609 88.6682 52.6862Z" fill="#59D9D7"/>
<path d="M84.502 52.6867C84.5112 53.5901 84.2523 54.4759 83.7578 55.2321C83.2634 55.9882 82.5557 56.5807 81.7244 56.9345C80.8931 57.2882 79.9756 57.3874 79.0879 57.2194C78.2002 57.0514 77.3823 56.6238 76.7377 55.9907C76.0932 55.3577 75.6509 54.5476 75.467 53.6631C75.283 52.7786 75.3656 51.8593 75.7044 51.0218C76.0431 50.1842 76.6227 49.466 77.3698 48.958C78.1169 48.45 78.9979 48.1751 79.9013 48.1681C81.1102 48.1587 82.2734 48.6292 83.1358 49.4762C83.9983 50.3233 84.4896 51.4779 84.502 52.6867V52.6867Z" fill="#BDE2E5"/>
<path d="M57.0741 70.268C56.7728 70.2684 56.4828 70.1528 56.2643 69.9453C56.0458 69.7377 55.9156 69.454 55.9005 69.153C55.8845 68.8436 55.9915 68.5404 56.1981 68.3095C56.4048 68.0786 56.6944 67.9389 57.0037 67.9207C57.1093 67.9207 67.5664 67.2987 72.9182 63.543C77.2607 60.4915 78.7864 53.7429 78.7864 53.6725C78.8187 53.5184 78.8812 53.3721 78.97 53.2421C79.0589 53.1121 79.1725 53.0009 79.3044 52.9148C79.4363 52.8287 79.5838 52.7694 79.7386 52.7403C79.8934 52.7113 80.0524 52.713 80.2065 52.7453C80.3606 52.7777 80.5068 52.8401 80.6368 52.929C80.7669 53.0179 80.8781 53.1315 80.9642 53.2634C81.0503 53.3952 81.1096 53.5428 81.1386 53.6975C81.1677 53.8523 81.166 54.0113 81.1336 54.1655C81.1336 54.4706 79.4554 61.8646 74.35 65.456C68.4819 69.599 57.6727 70.2328 57.215 70.2563L57.0741 70.268Z" fill="#BBFFFE"/>
<path d="M59.3394 72.0402H56.2527C55.4715 72.0402 54.7222 71.7299 54.1697 71.1774C53.6173 70.6249 53.3069 69.8756 53.3069 69.0943V69.0943C53.3054 68.7065 53.3804 68.3222 53.5278 67.9634C53.6751 67.6046 53.8919 67.2785 54.1656 67.0037C54.4393 66.7289 54.7645 66.5109 55.1227 66.3621C55.4809 66.2133 55.8649 66.1367 56.2527 66.1367H59.3394C59.7272 66.1367 60.1113 66.2133 60.4694 66.3621C60.8276 66.5109 61.1529 66.7289 61.4266 67.0037C61.7003 67.2785 61.917 67.6046 62.0644 67.9634C62.2117 68.3222 62.2868 68.7065 62.2852 69.0943V69.0943C62.2852 69.8756 61.9748 70.6249 61.4224 71.1774C60.87 71.7299 60.1207 72.0402 59.3394 72.0402V72.0402Z" fill="#BDE2E5"/>
<path d="M97.5526 31.7363C97.5526 31.7363 107.928 38.3792 107.411 63.8358C107.404 72.3064 108.96 80.7056 112 88.6117C112 88.6117 99.4657 88.6117 89.8771 88.6117H80.042C83.7716 81.2794 84.9841 72.9234 83.4925 64.8334L97.5526 31.7363Z" fill="black"/>
</g>
<defs>
<clipPath id="clip0">
<rect width="112" height="72.9075" fill="white" transform="translate(0 20)"/>
</clipPath>
</defs>
</svg>
