<svg width="112" height="113" viewBox="0 0 112 113" fill="none" xmlns="http://www.w3.org/2000/svg">
<path d="M0 79.6277L25.8135 69.5648L79.8467 79.8464C109.44 68.9917 107.612 69.5648 108.504 69.5648C112.004 69.5648 113.33 74.1806 110.355 76.0357C86.8382 90.7122 88.3105 89.8393 87.6039 90.1259C60.5194 101.005 61.2785 101.064 58.9466 100.648L33.4941 96.2292C29.1845 95.4741 24.7579 95.7403 20.5699 97.0066C16.382 98.2729 12.5495 100.504 9.38033 103.52L0 112.004V79.6277Z" fill="#EFC2A3"/>
<path d="M67.6949 77.7509C72.4813 77.6984 79.3875 78.9213 83.6314 81.3713C88.6629 84.2786 85.399 89.6995 80.5294 89.612C74.5377 89.5048 68.5634 88.2644 62.5738 88.5182C58.0695 88.7019 53.8912 90.1873 49.4723 90.6729C44.8259 91.1848 39.4948 88.4722 35.1743 87.1728C30.0838 85.6415 24.6061 83.9308 24.523 77.5693C24.4595 72.6626 28.4037 69.0378 33.1333 68.7031C38.4753 68.3202 44.9462 69.7159 49.6233 72.3957C55.5451 75.7799 60.7034 77.8275 67.6949 77.7509Z" fill="#E6AB91"/>
<path d="M65.9449 76.0011C70.7313 75.9486 77.6375 77.1715 81.8814 79.6216C86.9129 82.5289 83.649 87.9497 78.7794 87.8622C72.7877 87.755 66.8134 86.5147 60.8238 86.7684C56.3195 86.9522 52.1412 88.4375 47.7223 88.9232C45.5347 89.1638 22.8999 85.5565 22.773 75.8174C22.7095 70.9106 26.6537 67.2858 31.3833 66.9511C36.7253 66.5683 43.1962 67.964 47.8733 70.6437C53.7951 74.0301 58.9534 76.0777 65.9449 76.0011Z" fill="#EFC2A3"/>
<path d="M84.399 83.3469C84.2237 82.9121 83.9624 82.5171 83.6309 82.1856C83.2994 81.8541 82.9044 81.5928 82.4696 81.4175L79.6257 80.3237C79.1994 80.1513 78.7433 80.0646 78.2835 80.0685C77.8236 80.0724 77.3691 80.1668 76.9458 80.3464C76.5224 80.526 76.1386 80.7872 75.8162 81.1151C75.4938 81.443 75.2391 81.8312 75.0668 82.2575C74.8944 82.6838 74.8077 83.1399 74.8116 83.5997C74.8155 84.0596 74.91 84.5141 75.0895 84.9375C75.2691 85.3608 75.5303 85.7446 75.8582 86.067C76.1861 86.3894 76.5743 86.644 77.0006 86.8164L79.6257 87.8249C82.3405 87.5033 84.3706 85.4842 84.399 83.3469Z" fill="#FBEAE4"/>
<path d="M71.7531 71.7529C78.5189 71.7529 84.0036 66.2682 84.0036 59.5024C84.0036 52.7367 78.5189 47.252 71.7531 47.252C64.9874 47.252 59.5027 52.7367 59.5027 59.5024C59.5027 66.2682 64.9874 71.7529 71.7531 71.7529Z" fill="#FFCA10"/>
<path d="M71.7526 69.7119C77.3912 69.7119 81.9621 65.1409 81.9621 59.5024C81.9621 53.8639 77.3912 49.293 71.7526 49.293C66.1141 49.293 61.5432 53.8639 61.5432 59.5024C61.5432 65.1409 66.1141 69.7119 71.7526 69.7119Z" fill="#FFA200"/>
<path d="M62.0549 60.0122C62.0533 58.0241 62.6328 56.0788 63.7222 54.4157C64.8115 52.7526 66.3632 51.4442 68.1864 50.6514C70.0096 49.8586 72.0248 49.6159 73.984 49.9533C75.9433 50.2907 77.7613 51.1934 79.2143 52.5503C78.2806 51.5486 77.1546 50.7452 75.9037 50.188C74.6527 49.6308 73.3024 49.3313 71.9332 49.3072C70.564 49.2832 69.204 49.5352 67.9342 50.0481C66.6645 50.561 65.5111 51.3244 64.5427 52.2927C63.5744 53.2611 62.811 54.4145 62.2981 55.6842C61.7851 56.954 61.5332 58.314 61.5572 59.6832C61.5813 61.0524 61.8808 62.4028 62.438 63.6537C62.9952 64.9047 63.7986 66.0306 64.8003 66.9643C63.0359 65.0794 62.0544 62.594 62.0549 60.0122Z" fill="#FF6C00"/>
<path d="M71.485 67.1587V65.4633C70.3912 65.4283 69.2843 65.1133 68.6543 64.6954L69.1268 63.0526C69.9527 63.5422 70.8925 63.807 71.8525 63.8204C72.9463 63.8204 73.7032 63.2801 73.7032 62.44C73.7032 61.6547 73.0929 61.1472 71.8 60.6769C69.9646 60.0206 68.7768 59.174 68.7768 57.5508C68.7768 56.0457 69.8246 54.8929 71.59 54.5801V52.8672H73.0229V54.4904C73.858 54.5015 74.68 54.6988 75.4292 55.0679L74.9567 56.6758C74.2237 56.2904 73.4091 56.0863 72.581 56.0807C71.3581 56.0807 70.9206 56.7108 70.9206 57.3058C70.9206 58.0211 71.5507 58.4236 73.036 59.0165C74.9917 59.7515 75.8667 60.6944 75.8667 62.2497C75.8667 63.7351 74.8342 65.0455 72.9135 65.3583V67.1587H71.485Z" fill="#FF6C00"/>
<path d="M70.9755 66.6491V64.9538C69.8817 64.9188 68.7726 64.6037 68.1448 64.1859L68.6151 62.543C69.4412 63.0322 70.3809 63.2968 71.3409 63.3109C72.4346 63.3109 73.1937 62.7706 73.1937 61.9305C73.1937 61.1452 72.5812 60.6377 71.2883 60.1673C69.4551 59.5111 68.2673 58.6645 68.2673 57.0391C68.2673 55.5362 69.3151 54.3834 71.0783 54.0683V52.3555H72.5112V53.9808C73.3464 53.991 74.1687 54.1883 74.9175 54.5584L74.445 56.164C73.7117 55.7799 72.8971 55.5767 72.0693 55.5712C70.8464 55.5712 70.4089 56.2012 70.4089 56.7941C70.4089 57.5116 71.0368 57.9141 72.5221 58.507C74.48 59.2398 75.3528 60.1848 75.3528 61.738C75.3528 63.2234 74.3225 64.5337 72.3996 64.8488V66.6491H70.9755Z" fill="#FFCA10"/>
<path d="M69.1275 36.751H67.3774V45.5013H69.1275V36.751Z" fill="#FFA200"/>
<path d="M76.1275 33.251H74.3774V42.0013H76.1275V33.251Z" fill="#FFA200"/>
<path d="M50.7521 42.0018C56.5513 42.0018 61.2525 37.3006 61.2525 31.5014C61.2525 25.7022 56.5513 21.001 50.7521 21.001C44.9529 21.001 40.2517 25.7022 40.2517 31.5014C40.2517 37.3006 44.9529 42.0018 50.7521 42.0018Z" fill="#FFCA10"/>
<path d="M50.7518 40.2516C55.5845 40.2516 59.5021 36.334 59.5021 31.5013C59.5021 26.6686 55.5845 22.751 50.7518 22.751C45.9191 22.751 42.0015 26.6686 42.0015 31.5013C42.0015 36.334 45.9191 40.2516 50.7518 40.2516Z" fill="#FFA200"/>
<path d="M42.4391 31.9382C42.4412 30.2355 42.9402 28.5705 43.8746 27.1471C44.8091 25.7238 46.1385 24.604 47.6999 23.925C49.2613 23.246 50.9869 23.0373 52.6652 23.3244C54.3435 23.6116 55.9015 24.3822 57.1484 25.5417C56.3551 24.6543 55.3891 23.938 54.3094 23.4367C53.2298 22.9355 52.0592 22.6598 50.8694 22.6265C49.6795 22.5932 48.4954 22.803 47.3894 23.2431C46.2834 23.6832 45.2788 24.3443 44.4372 25.186C43.5955 26.0276 42.9344 27.0322 42.4943 28.1382C42.0542 29.2442 41.8444 30.4283 41.8777 31.6182C41.911 32.808 42.1867 33.9786 42.6879 35.0582C43.1892 36.1378 43.9055 37.1039 44.7929 37.8972C43.2798 36.282 42.4382 34.1514 42.4391 31.9382Z" fill="#FF6C00"/>
<path d="M50.533 38.0639V36.6114C49.5901 36.5808 48.6473 36.3117 48.1069 35.9551L48.5117 34.5463C49.2197 34.9655 50.0252 35.1918 50.848 35.2026C51.7908 35.2026 52.4362 34.7388 52.4362 34.0213C52.4362 33.3475 51.9112 32.9122 50.8042 32.5075C49.2314 31.9387 48.2119 31.2212 48.2119 29.8277C48.2119 28.5392 49.111 27.5504 50.6183 27.2813V25.8135H51.8455V27.207C52.5629 27.2151 53.2693 27.3841 53.9128 27.7014L53.5081 29.0773C52.8791 28.7491 52.181 28.5751 51.4715 28.5698C50.4214 28.5698 50.0473 29.108 50.0473 29.6177C50.0473 30.2324 50.5877 30.5758 51.8609 31.0856C53.5365 31.7134 54.2869 32.5228 54.2869 33.855C54.2869 35.1282 53.4119 36.2614 51.7559 36.5217V38.0639H50.533Z" fill="#FF6C00"/>
<path d="M50.0955 37.6264V36.1739C49.1526 36.1433 48.2098 35.8742 47.6694 35.5176L48.0742 34.1088C48.7822 34.528 49.5877 34.7543 50.4105 34.7651C51.3533 34.7651 51.9987 34.3013 51.9987 33.5838C51.9987 32.91 51.4737 32.4747 50.3667 32.07C48.7939 31.5012 47.7744 30.7837 47.7744 29.3902C47.7744 28.1017 48.6735 27.1129 50.1808 26.8438V25.376H51.408V26.7695C52.1254 26.7776 52.8318 26.9466 53.4753 27.2639L53.0706 28.6398C52.4416 28.3116 51.7435 28.1376 51.034 28.1323C49.9839 28.1323 49.6098 28.6705 49.6098 29.1802C49.6098 29.7949 50.1502 30.1383 51.4234 30.6481C53.099 31.2759 53.8494 32.0853 53.8494 33.4175C53.8494 34.6907 52.9744 35.8239 51.3184 36.0842V37.6264H50.0955Z" fill="#FFCA10"/>
<path d="M48.1268 10.5H46.3767V19.2503H48.1268V10.5Z" fill="#FFA200"/>
<path d="M55.1268 7H53.3767V15.7503H55.1268V7Z" fill="#FFA200"/>
<path d="M89.253 31.5007C94.0857 31.5007 98.0033 27.583 98.0033 22.7503C98.0033 17.9177 94.0857 14 89.253 14C84.4203 14 80.5027 17.9177 80.5027 22.7503C80.5027 27.583 84.4203 31.5007 89.253 31.5007Z" fill="#FFCA10"/>
<path d="M89.2529 30.0414C93.2797 30.0414 96.5441 26.777 96.5441 22.7502C96.5441 18.7234 93.2797 15.459 89.2529 15.459C85.2261 15.459 81.9617 18.7234 81.9617 22.7502C81.9617 26.777 85.2261 30.0414 89.2529 30.0414Z" fill="#FFA200"/>
<path d="M82.3255 23.1162C82.3252 21.6973 82.7394 20.3091 83.5171 19.1223C84.2948 17.9354 85.4022 17.0015 86.7033 16.4353C88.0044 15.8691 89.4425 15.6952 90.8411 15.935C92.2397 16.1748 93.5378 16.8178 94.576 17.7851C93.9097 17.0668 93.1055 16.4902 92.2113 16.0899C91.3171 15.6896 90.3514 15.4738 89.3719 15.4554C88.3923 15.437 87.4191 15.6163 86.5105 15.9827C85.6019 16.3491 84.7766 16.895 84.0838 17.5877C83.3911 18.2805 82.8452 19.1058 82.4788 20.0144C82.1124 20.9231 81.9331 21.8962 81.9515 22.8757C81.9699 23.8553 82.1857 24.821 82.586 25.7152C82.9863 26.6094 83.5629 27.4136 84.2812 28.0798C83.0223 26.7339 82.323 24.9592 82.3255 23.1162Z" fill="#FF6C00"/>
<path d="M89.0631 28.2192V27.0095C88.3538 27 87.6584 26.8111 87.0417 26.4604L87.3786 25.2857C87.9682 25.6363 88.6397 25.8257 89.3256 25.8347C90.111 25.8347 90.6382 25.4497 90.6382 24.8503C90.6382 24.2881 90.2007 23.925 89.2775 23.5903C87.965 23.1156 87.1205 22.5162 87.1205 21.3568C87.1205 20.2827 87.8687 19.4579 89.1287 19.2348V18.0098H90.1525V19.1714C90.75 19.1776 91.3384 19.3182 91.8741 19.5826L91.5372 20.7311C91.0134 20.4561 90.4313 20.3106 89.8397 20.3067C88.9646 20.3067 88.654 20.7442 88.654 21.1818C88.654 21.6915 89.1046 21.9802 90.1656 22.4024C91.5613 22.9275 92.1869 23.6012 92.1869 24.7125C92.1869 25.7735 91.4498 26.7098 90.0781 26.9329V28.2192H89.0631Z" fill="#FF6C00"/>
<path d="M88.6976 27.8537V26.644C87.9882 26.6353 87.2926 26.4463 86.6763 26.0949L87.0132 24.9224C87.6033 25.2718 88.2744 25.4611 88.9601 25.4715C89.7454 25.4715 90.2836 25.0843 90.2836 24.4849C90.2836 23.9248 89.8461 23.5617 88.9229 23.2248C87.6104 22.7501 86.7638 22.1507 86.7638 20.9913C86.7638 19.9172 87.5119 19.0947 88.772 18.8693V17.6465H89.7958V18.8125C90.3934 18.8189 90.982 18.9603 91.5174 19.2259L91.1805 20.3722C90.6565 20.0977 90.0745 19.9523 89.483 19.9478C88.6079 19.9478 88.2994 20.3985 88.2994 20.8229C88.2994 21.3347 88.7479 21.6213 89.8089 22.0457C91.2068 22.5707 91.8302 23.2445 91.8302 24.3536C91.8302 25.4146 91.0952 26.3509 89.7214 26.5762V27.8603L88.6976 27.8537Z" fill="#FFCA10"/>
<path d="M93.6285 3.5H91.8784V12.2503H93.6285V3.5Z" fill="#FFA200"/>
<path d="M86.6287 0H84.8787V8.75033H86.6287V0Z" fill="#FFA200"/>
</svg>
