<svg width="112" height="112" viewBox="0 0 112 112" fill="none" xmlns="http://www.w3.org/2000/svg">
<path d="M64.2896 29.1914L47.4912 34.0908L60.7198 79.4464L77.5181 74.547L64.2896 29.1914Z" fill="#F05146"/>
<path d="M41.6109 13.9306L24.8125 18.8301L43.9204 84.3437L60.7188 79.4443L41.6109 13.9306Z" fill="#CADDFF"/>
<path d="M19.3462 0.084914L2.54785 4.98438L27.1235 89.245L43.9219 84.3456L19.3462 0.084914Z" fill="#5479F7"/>
<path d="M87.9293 48.1203C101.217 48.1203 111.989 37.3482 111.989 24.0601C111.989 10.7721 101.217 0 87.9293 0C74.6412 0 63.8691 10.7721 63.8691 24.0601C63.8691 37.3482 74.6412 48.1203 87.9293 48.1203Z" fill="#CADDFF"/>
<path d="M87.9287 24.0605H111.989C111.99 27.2244 111.366 30.3574 110.154 33.2798C108.941 36.2022 107.164 38.8566 104.924 41.0908L87.9287 24.0605Z" fill="#5479F7"/>
<path d="M87.9287 24.0601V0H87.9397C101.138 0 112 10.8621 112 24.0601H87.9287Z" fill="#F05146"/>
<path d="M83.9918 47.2451H80.4922V92.7407H83.9918V47.2451Z" fill="black"/>
<path d="M83.9919 92.7403L80.6738 91.6248L95.1624 48.498L97.9906 51.0725L83.9919 92.7403Z" fill="black"/>
<path d="M69.9928 47.2451H66.4932V92.7407H69.9928V47.2451Z" fill="black"/>
<path d="M55.9948 47.2451H52.4951V92.7407H55.9948V47.2451Z" fill="black"/>
<path d="M41.9958 47.2451H38.4961V92.7407H41.9958V47.2451Z" fill="black"/>
<path d="M27.9977 47.2451H24.498V92.7407H27.9977V47.2451Z" fill="black"/>
<path d="M28.581 106.739H83.9916V103.239H27.5596L28.581 106.739Z" fill="black"/>
<path d="M83.9922 89.2402H24.498V92.7399H83.9922V89.2402Z" fill="black"/>
<path d="M83.9914 75.2422H26.2471V78.7418H83.9914V75.2422Z" fill="black"/>
<path d="M92.7407 61.2432H17.498V64.7428H92.7407V61.2432Z" fill="black"/>
<path d="M97.9906 46.917H12.249V51.0728H97.9906V46.917Z" fill="black"/>
<path d="M10.7899 33.2461H0V36.7458H8.16516L10.7899 33.2461Z" fill="black"/>
<path d="M32.2252 106.739L10.7898 33.2461L8.16504 36.7458L28.5811 106.739H32.2252Z" fill="black"/>
<path d="M75.2425 111.989C79.1081 111.989 82.2418 108.855 82.2418 104.99C82.2418 101.124 79.1081 97.9902 75.2425 97.9902C71.3769 97.9902 68.2432 101.124 68.2432 104.99C68.2432 108.855 71.3769 111.989 75.2425 111.989Z" fill="black"/>
<path d="M40.2464 111.989C44.112 111.989 47.2457 108.855 47.2457 104.99C47.2457 101.124 44.112 97.9902 40.2464 97.9902C36.3808 97.9902 33.2471 101.124 33.2471 104.99C33.2471 108.855 36.3808 111.989 40.2464 111.989Z" fill="black"/>
</svg>
