<svg width="112" height="112" viewBox="0 0 112 112" fill="none" xmlns="http://www.w3.org/2000/svg">
<path d="M98 0H14V112H98V0Z" fill="#E8EBF0"/>
<path d="M17.5 0C13.787 0 10.226 1.47499 7.60049 4.10049C4.97499 6.726 3.5 10.287 3.5 14C3.5 24.5328 11.8125 23.7125 11.8125 31.5C12.2766 31.5 12.7217 31.6844 13.0499 32.0126C13.3781 32.3408 13.5625 32.7859 13.5625 33.25C13.5625 33.7141 13.3781 34.1592 13.0499 34.4874C12.7217 34.8156 12.2766 35 11.8125 35C12.2766 35 12.7217 35.1844 13.0499 35.5126C13.3781 35.8408 13.5625 36.2859 13.5625 36.75C13.5625 37.2141 13.3781 37.6592 13.0499 37.9874C12.7217 38.3156 12.2766 38.5 11.8125 38.5C11.8125 38.9641 11.9969 39.4092 12.3251 39.7374C12.6533 40.0656 13.0984 40.25 13.5625 40.25C13.5625 40.7141 13.7469 41.1592 14.0751 41.4874C14.4033 41.8156 14.8484 42 15.3125 42H19.6875C20.1516 42 20.5967 41.8156 20.9249 41.4874C21.2531 41.1592 21.4375 40.7141 21.4375 40.25C20.9735 39.3217 20.8971 38.2471 21.2253 37.2626C21.5535 36.278 22.2593 35.4642 23.1875 35C22.7234 35 22.2783 34.8156 21.9501 34.4874C21.6219 34.1592 21.4375 33.7141 21.4375 33.25C21.4375 32.7859 21.6219 32.3408 21.9501 32.0126C22.2783 31.6844 22.7234 31.5 23.1875 31.5C23.1875 23.6491 31.5 24.5766 31.5 14C31.5 10.287 30.025 6.726 27.3995 4.10049C24.774 1.47499 21.213 0 17.5 0Z" fill="#D8DBE1"/>
<path d="M63 96.25H21V98H63V96.25Z" fill="#474E5D"/>
<path d="M91 91.875H21V93.625H91V91.875Z" fill="#474E5D"/>
<path d="M91 87.5H21V89.25H91V87.5Z" fill="#474E5D"/>
<path d="M91 83.125H21V84.875H91V83.125Z" fill="#474E5D"/>
<path d="M91 58.1875H69.125V70.4375H91V58.1875Z" fill="#5479F7"/>
<path d="M89.25 59.9375H70.875V68.6875H89.25V59.9375Z" fill="#E8EBF0"/>
<path d="M87.5 61.6875H72.625V63.4375H87.5V61.6875Z" fill="#474E5D"/>
<path d="M87.5 65.1875H72.625V66.9375H87.5V65.1875Z" fill="#474E5D"/>
<path d="M42.875 58.1875H21V70.4375H42.875V58.1875Z" fill="#5479F7"/>
<path d="M41.125 59.9375H22.75V68.6875H41.125V59.9375Z" fill="#E8EBF0"/>
<path d="M39.375 65.1875H24.5V66.9375H39.375V65.1875Z" fill="#474E5D"/>
<path d="M39.375 61.6875H24.5V63.4375H39.375V61.6875Z" fill="#474E5D"/>
<path d="M80.0625 50.3125H31.9375V52.0625H80.0625V50.3125Z" fill="#474E5D"/>
<path d="M80.9375 50.3125H79.1875V55.5625H80.9375V50.3125Z" fill="#474E5D"/>
<path d="M32.8125 50.3125H31.0625V55.5625H32.8125V50.3125Z" fill="#474E5D"/>
<path d="M56.875 46.8125H55.125V50.3125H56.875V46.8125Z" fill="#474E5D"/>
<path d="M66.9375 31.9375H45.0625V44.1875H66.9375V31.9375Z" fill="#F05146"/>
<path d="M65.1875 33.6875H46.8125V42.4375H65.1875V33.6875Z" fill="#E8EBF0"/>
<path d="M63.4375 38.9375H48.5625V40.6875H63.4375V38.9375Z" fill="#474E5D"/>
<path d="M63.4375 35.4375H48.5625V37.1875H63.4375V35.4375Z" fill="#474E5D"/>
<path d="M63 17.5H21V19.25H63V17.5Z" fill="#474E5D"/>
<path d="M91 13.125H21V14.875H91V13.125Z" fill="#474E5D"/>
<path d="M91 7H21V10.5H91V7Z" fill="#F05146"/>
<path d="M112 21H105V15.75C105 15.2859 105.184 14.8408 105.513 14.5126C105.841 14.1844 106.286 14 106.75 14H110.25C110.714 14 111.159 14.1844 111.487 14.5126C111.816 14.8408 112 15.2859 112 15.75V21Z" fill="#474E5D"/>
<path d="M112 21H110.25V14C110.714 14 111.159 14.1844 111.487 14.5126C111.816 14.8408 112 15.2859 112 15.75V21Z" fill="#2E3544"/>
<path d="M112 21H105V28H112V21Z" fill="#E8EBF0"/>
<path d="M112 21H110.25V28H112V21Z" fill="#D8DBE1"/>
<path d="M112 28H105V84H112V28Z" fill="#5479F7"/>
<path d="M112 28H110.25V84H112V28Z" fill="#5479F7"/>
<path d="M106.75 91L105 84H112L110.25 91H106.75Z" fill="#E8EBF0"/>
<path d="M110.25 91H109.375L110.25 84H112L110.25 91Z" fill="#D8DBE1"/>
<path d="M108.5 98L106.75 91H110.25L108.5 98Z" fill="#474E5D"/>
<path d="M110.25 91L108.5 98L109.375 91H110.25Z" fill="#2E3544"/>
<path d="M106.75 14.875C106.518 14.875 106.295 14.9672 106.131 15.1313C105.967 15.2954 105.875 15.5179 105.875 15.75V21H107.188V14.875H106.75Z" fill="#606776"/>
<path d="M107.188 21H105.875V28H107.188V21Z" fill="white"/>
<path d="M107.188 84V28H105.875V84H107.188Z" fill="#5479F7"/>
<path d="M107.844 91L107.188 84H105.875L107.188 91H107.844Z" fill="white"/>
<path d="M108.5 98L107.844 91H107.188L108.5 98Z" fill="#606776"/>
<path d="M17.9375 40.25C17.9375 40.7141 17.7531 41.1592 17.4249 41.4874C17.0967 41.8156 16.6516 42 16.1875 42H11.8125C11.3484 42 10.9033 41.8156 10.5751 41.4874C10.2469 41.1592 10.0625 40.7141 10.0625 40.25H17.9375Z" fill="#ABB2C1"/>
<path d="M19.6875 38.5C19.6875 38.9641 19.5031 39.4092 19.1749 39.7374C18.8467 40.0656 18.4016 40.25 17.9375 40.25H10.0625C9.59837 40.25 9.15328 40.0656 8.82509 39.7374C8.4969 39.4092 8.3125 38.9641 8.3125 38.5H19.6875Z" fill="#2E3544"/>
<path d="M19.6875 38.5C19.6875 38.0359 19.5031 37.5908 19.1749 37.2626C18.8467 36.9344 18.4016 36.75 17.9375 36.75H10.0625C9.59837 36.75 9.15328 36.9344 8.82509 37.2626C8.4969 37.5908 8.3125 38.0359 8.3125 38.5H19.6875Z" fill="#474E5D"/>
<path d="M19.6875 35C19.6875 35.4641 19.5031 35.9092 19.1749 36.2374C18.8467 36.5656 18.4016 36.75 17.9375 36.75H10.0625C9.59837 36.75 9.15328 36.5656 8.82509 36.2374C8.4969 35.9092 8.3125 35.4641 8.3125 35H19.6875Z" fill="#2E3544"/>
<path d="M19.6875 35C19.6875 34.5359 19.5031 34.0908 19.1749 33.7626C18.8467 33.4344 18.4016 33.25 17.9375 33.25H10.0625C9.59837 33.25 9.15328 33.4344 8.82509 33.7626C8.4969 34.0908 8.3125 34.5359 8.3125 35H19.6875Z" fill="#474E5D"/>
<path d="M19.6875 31.5C19.6875 31.9641 19.5031 32.4092 19.1749 32.7374C18.8467 33.0656 18.4016 33.25 17.9375 33.25H10.0625C9.59837 33.25 9.15328 33.0656 8.82509 32.7374C8.4969 32.4092 8.3125 31.9641 8.3125 31.5C8.3125 23.7125 0 24.5328 0 14C0 10.287 1.47499 6.726 4.10049 4.10049C6.726 1.47499 10.287 0 14 0C17.713 0 21.274 1.47499 23.8995 4.10049C26.525 6.726 28 10.287 28 14C28 24.5766 19.6875 23.6491 19.6875 31.5Z" fill="#FFA200"/>
<path d="M10.0625 32.375C9.83044 32.375 9.60789 32.2828 9.44379 32.1187C9.2797 31.9546 9.1875 31.7321 9.1875 31.5C9.1875 23.1875 0.875 24.1237 0.875 14C0.875 10.519 2.25779 7.18064 4.7192 4.71923C7.18061 2.25781 10.519 0.875 14 0.875C17.481 0.875 20.8194 2.25781 23.2808 4.71923C25.7422 7.18064 27.125 10.519 27.125 14C27.125 24.1675 18.8125 23.1175 18.8125 31.5C18.8125 31.7321 18.7203 31.9546 18.5562 32.1187C18.3921 32.2828 18.1696 32.375 17.9375 32.375H10.0625Z" fill="#FFCA10"/>
<path d="M2.625 14C2.625 22.9688 10.3557 22.1725 10.9091 30.625H11.8606C11.4756 22.1725 6.125 22.9688 6.125 14C6.125 7.72844 9.65781 2.625 14 2.625C10.9842 2.62847 8.09298 3.82804 5.96051 5.96051C3.82804 8.09298 2.62847 10.9842 2.625 14Z" fill="#FFFF74"/>
<path d="M14 4.17239e-07C13.415 -0.000142417 12.8305 0.0363875 12.25 0.109375C15.6333 0.535628 18.7447 2.18205 21.0002 4.7396C23.2556 7.29715 24.5001 10.59 24.5 14C24.5 24.5766 16.1875 23.6491 16.1875 31.5C16.1875 31.9641 16.0031 32.4092 15.6749 32.7374C15.3467 33.0656 14.9016 33.25 14.4375 33.25H17.9375C18.4016 33.25 18.8467 33.0656 19.1749 32.7374C19.5031 32.4092 19.6875 31.9641 19.6875 31.5C19.6875 23.6491 28 24.5766 28 14C28 10.287 26.525 6.726 23.8995 4.10049C21.274 1.47499 17.713 4.17239e-07 14 4.17239e-07Z" fill="#FFA200"/>
</svg>
