<svg width="112" height="112" viewBox="0 0 112 112" fill="none" xmlns="http://www.w3.org/2000/svg">
<path d="M112 7H0V77H112V7Z" fill="#5479F7"/>
<path d="M108.5 10.5H3.5V73.5H108.5V10.5Z" fill="#99B9FF"/>
<path d="M64.3125 29.75L63 26.25H49L47.6875 29.75C32.5631 32.5631 36.1703 28.0503 31.2812 52.5H80.7188C75.8319 28.0612 79.4194 32.5609 64.3125 29.75Z" fill="#E8EBF0"/>
<path d="M58.8438 31.9375L56.875 29.9688L54.9062 31.9375L56.0722 33.1035L55.125 52.5H58.625L57.6778 33.1035L58.8438 31.9375Z" fill="#D8DBE1"/>
<path d="M57.9688 31.9375L56 29.9688L54.0312 31.9375L55.1972 33.1035L54.25 52.5H57.75L56.8028 33.1035L57.9688 31.9375Z" fill="#F05146"/>
<path d="M56 29.9688L58.8678 32.8366L64.2338 29.5422L63 26.25H62.5625L56 29.9688Z" fill="#E8EBF0"/>
<path d="M58.8682 32.8369L59.7191 33.0381L64.3588 30.4131C77.7879 32.5065 74.336 35.2256 77.2191 52.5068H80.7191C75.8322 28.0068 79.4197 32.5678 64.3129 29.7568L63.0004 26.2568H62.5629L61.1388 27.064L62.5629 30.5793L58.8682 32.8369Z" fill="#D8DBE1"/>
<path d="M49.4375 21V26.25L56 29.9688L62.5625 26.25V21H49.4375Z" fill="#EFC2A3"/>
<path d="M60.8125 27.2409L62.5625 26.25V21H60.8125V27.2409Z" fill="#E6AB91"/>
<path d="M66.5 10.5C66.5 3.91344 62.125 0 56 0C50.225 0 45.5394 3.58314 45.5 10.4081V10.5C45.5 17.3972 50.2097 24.9375 56 24.9375C61.7903 24.9375 66.5 17.3687 66.5 10.5Z" fill="#EFC2A3"/>
<path d="M56 0C55.5625 0 55.125 0.0218835 54.6875 0.063446C60.1125 0.588446 63.875 4.39687 63.875 10.5C63.875 16.8438 59.8719 23.7825 54.6875 24.8084C55.1197 24.8942 55.5593 24.9375 56 24.9375C61.8056 24.9375 66.5 17.3687 66.5 10.5C66.5 3.91344 62.125 0 56 0Z" fill="#E6AB91"/>
<path d="M56 0C50.225 0 45.5416 3.58095 45.5 10.4038C47.7799 11.7205 50.4714 12.1327 53.0409 11.5586C55.6104 10.9844 57.8704 9.46595 59.3731 7.30404C60.0079 8.64541 61.0088 9.78011 62.2605 10.5774C63.5121 11.3747 64.9635 11.8021 66.4475 11.8103C67.0097 4.24593 62.3875 0 56 0Z" fill="#474E5D"/>
<path d="M66.4476 11.8125C67.0098 4.24812 62.3876 0 56.0001 0C55.5626 0 55.1251 0.0240732 54.7051 0.0656357C60.4101 0.623448 64.2098 4.79498 63.8488 11.3509C64.6826 11.6511 65.5614 11.8072 66.4476 11.8125Z" fill="#2E3544"/>
<path d="M80.5 112.001H31.5L28 59.501H84L80.5 112.001Z" fill="#474E5D"/>
<path d="M83.7659 63.001L84 59.501H28L28.2341 63.001H83.7659Z" fill="#2E3544"/>
<path d="M91 52.501H21V59.501H91V52.501Z" fill="#474E5D"/>
<path d="M40.4688 53.3756C40.2367 53.3756 40.0141 53.2834 39.85 53.1193C39.6859 52.9552 39.5938 52.7326 39.5938 52.5006V48.0271C39.5959 47.044 39.9271 46.0899 40.5344 45.3168L46.3444 37.9581C46.4894 37.7759 46.7009 37.6588 46.9323 37.6326C47.1636 37.6063 47.396 37.673 47.5781 37.818C47.7603 37.9631 47.8774 38.1746 47.9036 38.4059C47.9299 38.6373 47.8632 38.8696 47.7181 39.0518L41.9081 46.4105C41.544 46.8742 41.3453 47.4463 41.3438 48.0359V52.5006C41.3438 52.7326 41.2516 52.9552 41.0875 53.1193C40.9234 53.2834 40.7008 53.3756 40.4688 53.3756Z" fill="#474E5D"/>
<path d="M42.8857 45.5006C42.4925 45.5015 42.1107 45.3688 41.8029 45.1243C41.6222 44.9821 41.4714 44.8056 41.359 44.605C41.2466 44.4044 41.1749 44.1836 41.1479 43.9552C41.1208 43.7269 41.1391 43.4955 41.2016 43.2742C41.264 43.0529 41.3695 42.8461 41.5119 42.6656L45.6682 37.4156C45.9559 37.0512 46.3766 36.8161 46.8377 36.762C47.2988 36.7078 47.7626 36.8391 48.1269 37.1268C48.4913 37.4146 48.7264 37.8353 48.7805 38.2964C48.8347 38.7575 48.7034 39.2212 48.4157 39.5856L44.2704 44.8356C44.1053 45.0444 43.8948 45.2129 43.6549 45.3281C43.4149 45.4434 43.1519 45.5023 42.8857 45.5006Z" fill="#474E5D"/>
<path d="M71.5313 53.3755C71.2992 53.3755 71.0767 53.2833 70.9126 53.1192C70.7485 52.9551 70.6563 52.7326 70.6563 52.5005V48.0271C70.6548 47.4375 70.4561 46.8654 70.0919 46.4018L64.2819 39.043C64.1369 38.8609 64.0702 38.6285 64.0964 38.3971C64.1227 38.1658 64.2398 37.9543 64.4219 37.8093C64.6041 37.6643 64.8364 37.5975 65.0678 37.6238C65.2992 37.65 65.5107 37.7671 65.6557 37.9493L71.4657 45.3081C72.073 46.0812 72.4041 47.0352 72.4063 48.0183V52.5005C72.4063 52.7326 72.3141 52.9551 72.15 53.1192C71.9859 53.2833 71.7634 53.3755 71.5313 53.3755Z" fill="#474E5D"/>
<path d="M69.1254 45.5006C68.8617 45.5018 68.6013 45.4433 68.3634 45.3297C68.1255 45.2161 67.9164 45.0501 67.7516 44.8444L63.6063 39.5944C63.4638 39.4139 63.3582 39.2073 63.2956 38.9861C63.233 38.7649 63.2146 38.5335 63.2414 38.3052C63.2683 38.0769 63.3398 37.8561 63.4519 37.6554C63.5641 37.4547 63.7146 37.2781 63.895 37.1356C64.0754 36.9931 64.2821 36.8875 64.5033 36.8249C64.7245 36.7623 64.9559 36.7439 65.1842 36.7707C65.4125 36.7976 65.6333 36.8691 65.834 36.9812C66.0347 37.0934 66.2113 37.244 66.3538 37.4244L70.51 42.6744C70.6525 42.8549 70.7579 43.0617 70.8204 43.283C70.8829 43.5043 70.9011 43.7357 70.8741 43.964C70.8471 44.1924 70.7753 44.4131 70.6629 44.6137C70.5506 44.8143 70.3997 44.9908 70.2191 45.1331C69.9071 45.3768 69.5212 45.5065 69.1254 45.5006Z" fill="#474E5D"/>
</svg>
