<svg width="482" height="501" viewBox="0 0 482 501" fill="none" xmlns="http://www.w3.org/2000/svg">
<path d="M129.23 400.83H88.3604V443.99H129.23V400.83Z" stroke="#F05146" stroke-width="12.17" stroke-linecap="round" stroke-linejoin="round"/>
<path d="M217.22 363.391H176.35V444.001H217.22V363.391Z" stroke="#F05146" stroke-width="12.17" stroke-linecap="round" stroke-linejoin="round"/>
<path d="M305.22 309.78H264.34V444H305.22V309.78Z" stroke="#F05146" stroke-width="12.17" stroke-linecap="round" stroke-linejoin="round"/>
<path d="M352.33 236.15V444H393.2V236.15" stroke="#F05146" stroke-width="12.17" stroke-linecap="round" stroke-linejoin="round"/>
<path d="M6.08984 493.96H475.48" stroke="#1E5ABE" stroke-width="12.17" stroke-linecap="round" stroke-linejoin="round"/>
<path d="M324 187.53C309.69 201.03 294.08 221.89 294.47 248.42H321.24" stroke="#1E5ABE" stroke-width="12.17" stroke-linecap="round" stroke-linejoin="round"/>
<path d="M421.48 187.53C435.79 201.03 451.41 221.89 451.02 248.42H424.25" stroke="#1E5ABE" stroke-width="12.17" stroke-linecap="round" stroke-linejoin="round"/>
<path d="M418 203.32C448.91 83.1301 372.79 7 372.79 7C372.79 7 296.66 83.1301 327.57 203.32" stroke="#1E5ABE" stroke-width="12.17" stroke-linecap="round" stroke-linejoin="round"/>
<path d="M337.77 63.5098H407.76" stroke="#1E5ABE" stroke-width="12.17" stroke-linecap="round" stroke-linejoin="round"/>
<path d="M372.77 112.09C379.745 112.09 385.4 106.436 385.4 99.4602C385.4 92.4848 379.745 86.8301 372.77 86.8301C365.794 86.8301 360.14 92.4848 360.14 99.4602C360.14 106.436 365.794 112.09 372.77 112.09Z" stroke="#1E5ABE" stroke-width="12.17" stroke-linecap="round" stroke-linejoin="round"/>
<path d="M385.4 145.7C385.402 143.199 384.662 140.754 383.274 138.674C381.886 136.594 379.912 134.972 377.602 134.014C375.292 133.056 372.75 132.805 370.297 133.292C367.844 133.78 365.591 134.984 363.822 136.752C362.054 138.52 360.85 140.774 360.363 143.227C359.875 145.679 360.126 148.222 361.084 150.532C362.042 152.842 363.664 154.816 365.744 156.204C367.824 157.592 370.269 158.332 372.77 158.33C376.119 158.327 379.33 156.996 381.698 154.628C384.066 152.26 385.397 149.049 385.4 145.7V145.7Z" stroke="#1E5ABE" stroke-width="12.17" stroke-linecap="round" stroke-linejoin="round"/>
<path d="M374.876 204.264C381.761 203.147 386.436 196.659 385.319 189.774C384.201 182.889 377.714 178.213 370.828 179.331C363.943 180.448 359.267 186.936 360.385 193.821C361.503 200.706 367.99 205.382 374.876 204.264Z" stroke="#1E5ABE" stroke-width="12.17" stroke-linecap="round" stroke-linejoin="round"/>
<path d="M142.74 233.75L148.59 227.91" stroke="#1E5ABE" stroke-width="12.17" stroke-linecap="round" stroke-linejoin="round"/>
<path d="M174.29 202.21L180.14 196.36" stroke="#1E5ABE" stroke-width="12.17" stroke-linecap="round" stroke-linejoin="round"/>
<path d="M180.14 233.75L174.29 227.91" stroke="#1E5ABE" stroke-width="12.17" stroke-linecap="round" stroke-linejoin="round"/>
<path d="M148.59 202.21L142.74 196.36" stroke="#1E5ABE" stroke-width="12.17" stroke-linecap="round" stroke-linejoin="round"/>
<path d="M215.98 101.34L214.37 99.7305" stroke="#1E5ABE" stroke-width="12.17" stroke-linecap="round" stroke-linejoin="round"/>
<path d="M238.94 124.301L237.34 122.69" stroke="#1E5ABE" stroke-width="12.17" stroke-linecap="round" stroke-linejoin="round"/>
<path d="M215.98 122.69L214.37 124.301" stroke="#1E5ABE" stroke-width="12.17" stroke-linecap="round" stroke-linejoin="round"/>
<path d="M238.94 99.7305L237.34 101.34" stroke="#1E5ABE" stroke-width="12.17" stroke-linecap="round" stroke-linejoin="round"/>
<path d="M75.5203 46.3704L73.9102 44.7705" stroke="#1E5ABE" stroke-width="12.17" stroke-linecap="round" stroke-linejoin="round"/>
<path d="M98.48 69.3403L96.8799 67.7305" stroke="#1E5ABE" stroke-width="12.17" stroke-linecap="round" stroke-linejoin="round"/>
<path d="M75.5203 67.7305L73.9102 69.3403" stroke="#1E5ABE" stroke-width="12.17" stroke-linecap="round" stroke-linejoin="round"/>
<path d="M98.48 44.7705L96.8799 46.3704" stroke="#1E5ABE" stroke-width="12.17" stroke-linecap="round" stroke-linejoin="round"/>
<path d="M38.8799 284.541L37.27 282.94" stroke="#1E5ABE" stroke-width="12.17" stroke-linecap="round" stroke-linejoin="round"/>
<path d="M61.8403 307.51L60.2402 305.9" stroke="#1E5ABE" stroke-width="12.17" stroke-linecap="round" stroke-linejoin="round"/>
<path d="M38.8799 305.9L37.27 307.51" stroke="#1E5ABE" stroke-width="12.17" stroke-linecap="round" stroke-linejoin="round"/>
<path d="M61.8403 282.94L60.2402 284.541" stroke="#1E5ABE" stroke-width="12.17" stroke-linecap="round" stroke-linejoin="round"/>
</svg>
