<svg width="19" height="18" viewBox="0 0 19 18" fill="none" xmlns="http://www.w3.org/2000/svg">
<path d="M9.06221 7.52633C9.54229 7.5287 10.0123 7.38851 10.4126 7.12352C10.8129 6.85853 11.1256 6.48066 11.311 6.03781C11.4963 5.59495 11.5461 5.10703 11.4539 4.63587C11.3617 4.16472 11.1317 3.73154 10.7931 3.39123C10.4544 3.05091 10.0224 2.81877 9.5517 2.72424C9.08101 2.6297 8.59285 2.67701 8.14908 2.86018C7.7053 3.04335 7.32589 3.35413 7.05892 3.75314C6.79194 4.15215 6.64942 4.62144 6.64941 5.10153C6.64888 5.74271 6.90253 6.35796 7.35479 6.81247C7.80705 7.26698 8.42103 7.52368 9.06221 7.52633Z" fill="white"/>
<path d="M16.905 10.6415C16.8799 10.5013 16.8057 10.3746 16.6957 10.2841C16.5858 10.1936 16.4472 10.1451 16.3048 10.1473H12.5556L13.3558 9.07299C14.1841 7.99007 14.5984 6.64703 14.5242 5.28574C14.3262 2.32477 11.9054 0 9.01242 0C6.11947 0 3.69867 2.32477 3.5006 5.28574C3.42417 6.64604 3.83563 7.98898 4.66098 9.07299L5.46125 10.1473H1.81005C1.66764 10.1451 1.52908 10.1936 1.41912 10.2841C1.30917 10.3746 1.23499 10.5013 1.20985 10.6415L0.00945404 17.2937C-0.00620999 17.3809 -0.0023722 17.4705 0.0206918 17.556C0.0437559 17.6416 0.085474 17.721 0.142851 17.7885C0.200229 17.856 0.271842 17.91 0.352551 17.9465C0.433259 17.9831 0.52106 18.0013 0.609652 17.9999H17.5152C17.6038 18.0013 17.6916 17.9831 17.7723 17.9465C17.853 17.91 17.9246 17.856 17.982 17.7885C18.0394 17.721 18.0811 17.6416 18.1042 17.556C18.1272 17.4705 18.1311 17.3809 18.1154 17.2937L16.905 10.6415ZM4.701 5.36777C4.83504 3.32109 6.48559 1.2004 9.01242 1.2004C11.5392 1.2004 13.1898 3.32109 13.3278 5.36577C13.3835 6.44108 13.0536 7.50098 12.3975 8.35475L9.01242 12.8842L5.6273 8.35475C4.97119 7.50098 4.6413 6.44108 4.697 5.36577L4.701 5.36777ZM1.32789 16.8055L2.31221 11.3537H6.36555L8.53226 14.2447C8.58813 14.3196 8.66072 14.3805 8.74426 14.4224C8.82779 14.4643 8.91996 14.4861 9.01342 14.4861C9.10688 14.4861 9.19905 14.4643 9.28258 14.4224C9.36612 14.3805 9.43871 14.3196 9.49458 14.2447L11.6633 11.3477H15.8127L16.797 16.8055H1.32789Z" fill="white"/>
</svg>
