<svg width="115" height="115" viewBox="0 0 115 115" fill="none" xmlns="http://www.w3.org/2000/svg">
<g clip-path="url(#clip0)">
<rect width="115" height="115" rx="6" fill="white"/>
<rect x="-13" y="67" width="36" height="36" stroke="black" stroke-opacity="0.21" stroke-width="2"/>
<circle cx="100" cy="29" r="19.5" stroke="#F05146" stroke-opacity="0.45" stroke-width="5"/>
<path d="M6.75781 56L8.15767 52.0561H13.6548L15.0547 56H16.3075L11.5455 42.9091H10.267L5.50497 56H6.75781ZM8.54119 50.9822L10.8615 44.4624H10.951L13.2713 50.9822H8.54119ZM24.9112 48.3359C24.4318 46.9169 23.3835 46.0476 21.5874 46.0476C19.6058 46.0476 18.1676 47.179 18.1676 48.7962C18.1676 50.1129 18.9666 51.0078 20.6733 51.4169L22.2777 51.8004C23.358 52.0561 23.8757 52.6122 23.8757 53.3984C23.8757 54.4212 22.8977 55.1818 21.3892 55.1818C20.0469 55.1818 19.2095 54.5746 18.9347 53.4112L17.8416 53.6797C18.1868 55.3161 19.4844 56.2045 21.4084 56.2045C23.5689 56.2045 25.0518 55.0156 25.0518 53.3473C25.0518 52.0369 24.2273 51.1612 22.5845 50.7585L21.1016 50.3942C19.8807 50.0874 19.3118 49.5952 19.3118 48.745C19.3118 47.7479 20.2642 47.0511 21.5874 47.0511C22.9105 47.0511 23.5625 47.7479 23.8693 48.63L24.9112 48.3359ZM34.1397 48.3359C33.6603 46.9169 32.612 46.0476 30.8159 46.0476C28.8343 46.0476 27.3961 47.179 27.3961 48.7962C27.3961 50.1129 28.1951 51.0078 29.9018 51.4169L31.5062 51.8004C32.5865 52.0561 33.1042 52.6122 33.1042 53.3984C33.1042 54.4212 32.1262 55.1818 30.6177 55.1818C29.2754 55.1818 28.438 54.5746 28.1632 53.4112L27.0701 53.6797C27.4153 55.3161 28.7129 56.2045 30.6369 56.2045C32.7974 56.2045 34.2804 55.0156 34.2804 53.3473C34.2804 52.0369 33.4558 51.1612 31.813 50.7585L30.3301 50.3942C29.1092 50.0874 28.5403 49.5952 28.5403 48.745C28.5403 47.7479 29.4927 47.0511 30.8159 47.0511C32.139 47.0511 32.791 47.7479 33.0978 48.63L34.1397 48.3359ZM40.7411 56.2045C42.7099 56.2045 44.033 55.1371 44.4805 53.9034L43.4002 53.5518C43.0231 54.4339 42.1346 55.1626 40.7411 55.1626C38.734 55.1626 37.462 53.6989 37.4109 51.4297H44.7234V50.8672C44.7234 47.5881 42.6971 46.0476 40.5685 46.0476C38.0245 46.0476 36.2667 48.1761 36.2667 51.1484C36.2667 54.1271 37.9925 56.2045 40.7411 56.2045ZM37.4173 50.4261C37.5387 48.598 38.7724 47.0831 40.5685 47.0831C42.3263 47.0831 43.56 48.5341 43.56 50.4261H37.4173ZM53.8272 48.3359C53.3478 46.9169 52.2995 46.0476 50.5034 46.0476C48.5218 46.0476 47.0836 47.179 47.0836 48.7962C47.0836 50.1129 47.8826 51.0078 49.5893 51.4169L51.1937 51.8004C52.274 52.0561 52.7917 52.6122 52.7917 53.3984C52.7917 54.4212 51.8137 55.1818 50.3052 55.1818C48.9629 55.1818 48.1255 54.5746 47.8507 53.4112L46.7576 53.6797C47.1028 55.3161 48.4004 56.2045 50.3244 56.2045C52.4849 56.2045 53.9679 55.0156 53.9679 53.3473C53.9679 52.0369 53.1433 51.1612 51.5005 50.7585L50.0176 50.3942C48.7967 50.0874 48.2278 49.5952 48.2278 48.745C48.2278 47.7479 49.1802 47.0511 50.5034 47.0511C51.8265 47.0511 52.4785 47.7479 52.7853 48.63L53.8272 48.3359ZM63.0558 48.3359C62.5763 46.9169 61.5281 46.0476 59.7319 46.0476C57.7504 46.0476 56.3121 47.179 56.3121 48.7962C56.3121 50.1129 57.1112 51.0078 58.8178 51.4169L60.4222 51.8004C61.5025 52.0561 62.0202 52.6122 62.0202 53.3984C62.0202 54.4212 61.0423 55.1818 59.5337 55.1818C58.1914 55.1818 57.354 54.5746 57.0792 53.4112L55.9862 53.6797C56.3313 55.3161 57.6289 56.2045 59.5529 56.2045C61.7134 56.2045 63.1964 55.0156 63.1964 53.3473C63.1964 52.0369 62.3718 51.1612 60.729 50.7585L59.2461 50.3942C58.0252 50.0874 57.4563 49.5952 57.4563 48.745C57.4563 47.7479 58.4087 47.0511 59.7319 47.0511C61.055 47.0511 61.707 47.7479 62.0138 48.63L63.0558 48.3359ZM65.6877 56H66.8255V49.7102C66.8255 48.1825 67.8418 47.0959 69.2033 47.0959C70.5456 47.0959 71.3255 47.9908 71.3255 49.3203V56H72.4888V49.5376C72.4888 48.125 73.3326 47.0959 74.8283 47.0959C76.1259 47.0959 76.9888 47.8757 76.9888 49.4226V56H78.1266V49.4226C78.1266 47.2237 76.9952 46.054 75.1735 46.054C73.7417 46.054 72.7061 46.7507 72.2651 47.8374H72.182C71.7473 46.7251 70.8844 46.054 69.5293 46.054C68.2445 46.054 67.2857 46.674 66.8958 47.6903H66.7935V46.1818H65.6877V56ZM85.1083 56.2045C87.0771 56.2045 88.4002 55.1371 88.8477 53.9034L87.7674 53.5518C87.3903 54.4339 86.5018 55.1626 85.1083 55.1626C83.1012 55.1626 81.8292 53.6989 81.7781 51.4297H89.0906V50.8672C89.0906 47.5881 87.0643 46.0476 84.9357 46.0476C82.3917 46.0476 80.6339 48.1761 80.6339 51.1484C80.6339 54.1271 82.3597 56.2045 85.1083 56.2045ZM81.7844 50.4261C81.9059 48.598 83.1396 47.0831 84.9357 47.0831C86.6935 47.0831 87.9272 48.5341 87.9272 50.4261H81.7844ZM92.7356 49.8636C92.7356 48.1506 93.8606 47.0959 95.4075 47.0959C96.916 47.0959 97.8876 48.1058 97.8876 49.7102V56H99.0254V49.6399C99.0254 47.3132 97.6767 46.054 95.6951 46.054C94.2569 46.054 93.2662 46.7188 92.8059 47.7223H92.7037V46.1818H91.5978V56H92.7356V49.8636ZM105.889 46.1818H103.811V43.8295H102.667V46.1818H101.203V47.1726H102.667V53.7053C102.667 55.3097 103.933 56.147 105.192 56.147C105.665 56.147 105.985 56.0575 106.202 55.9744L105.959 54.9453C105.799 54.9901 105.595 55.0348 105.294 55.0348C104.521 55.0348 103.811 54.6705 103.811 53.4368V47.1726H105.889V46.1818Z" fill="black"/>
<path d="M6.29119 74H8.66264V69.206H11.0788L13.6484 74H16.2947L13.4631 68.8097C15.0036 68.1896 15.8153 66.8729 15.8153 65.0959C15.8153 62.5966 14.2045 60.9091 11.2003 60.9091H6.29119V74ZM8.66264 67.2372V62.8906H10.8359C12.6065 62.8906 13.3991 63.7024 13.3991 65.0959C13.3991 66.4893 12.6065 67.2372 10.8487 67.2372H8.66264ZM22.1019 74.1918C24.3903 74.1918 25.9627 73.0732 26.3718 71.3665L24.2113 71.1236C23.8981 71.9545 23.131 72.3892 22.1339 72.3892C20.6381 72.3892 19.6474 71.4048 19.6282 69.7237H26.4677V69.0142C26.4677 65.5689 24.3967 64.054 21.9805 64.054C19.168 64.054 17.3335 66.1186 17.3335 69.1484C17.3335 72.2294 19.1424 74.1918 22.1019 74.1918ZM19.6346 68.1641C19.7049 66.9112 20.6317 65.8565 22.0124 65.8565C23.342 65.8565 24.2369 66.8281 24.2496 68.1641H19.6346ZM28.4252 77.6818H30.7392V72.4531H30.835C31.1994 73.169 31.9601 74.1726 33.6476 74.1726C35.9615 74.1726 37.6937 72.3381 37.6937 69.1037C37.6937 65.831 35.9103 64.054 33.6412 64.054C31.9089 64.054 31.1866 65.0959 30.835 65.8054H30.7008V64.1818H28.4252V77.6818ZM30.6944 69.0909C30.6944 67.1861 31.5126 65.9524 33.002 65.9524C34.5424 65.9524 35.3351 67.2628 35.3351 69.0909C35.3351 70.9318 34.5297 72.2741 33.002 72.2741C31.5254 72.2741 30.6944 70.9957 30.6944 69.0909ZM43.9579 74.1918C46.8343 74.1918 48.6625 72.1655 48.6625 69.1293C48.6625 66.0866 46.8343 64.054 43.9579 64.054C41.0815 64.054 39.2534 66.0866 39.2534 69.1293C39.2534 72.1655 41.0815 74.1918 43.9579 74.1918ZM43.9707 72.3381C42.3791 72.3381 41.5993 70.919 41.5993 69.1229C41.5993 67.3267 42.3791 65.8885 43.9707 65.8885C45.5368 65.8885 46.3166 67.3267 46.3166 69.1229C46.3166 70.919 45.5368 72.3381 43.9707 72.3381ZM50.6264 74H52.9403V68.228C52.9403 66.9815 53.88 66.0994 55.152 66.0994C55.5419 66.0994 56.0277 66.1697 56.2259 66.2337V64.1051C56.0149 64.0668 55.6506 64.0412 55.3949 64.0412C54.2699 64.0412 53.3303 64.6804 52.9723 65.8182H52.87V64.1818H50.6264V74ZM63.1932 64.1818H61.2564V61.8295H58.9425V64.1818H57.549V65.9716H58.9425V71.4304C58.9297 73.2777 60.272 74.1854 62.0107 74.1342C62.669 74.1151 63.1229 73.9872 63.3722 73.9041L62.9822 72.0952C62.8544 72.1271 62.5923 72.1847 62.3047 72.1847C61.723 72.1847 61.2564 71.9801 61.2564 71.0469V65.9716H63.1932V64.1818ZM66.5538 74.1406C67.3081 74.1406 67.9537 73.5142 67.96 72.7344C67.9537 71.9673 67.3081 71.3409 66.5538 71.3409C65.774 71.3409 65.1412 71.9673 65.1475 72.7344C65.1412 73.5142 65.774 74.1406 66.5538 74.1406Z" fill="#F05146"/>
</g>
<defs>
<clipPath id="clip0">
<rect width="115" height="115" rx="6" fill="white"/>
</clipPath>
</defs>
</svg>
