<svg width="115" height="115" viewBox="0 0 115 115" fill="none" xmlns="http://www.w3.org/2000/svg">
<rect width="115" height="115" rx="6" fill="white"/>
<path d="M29.0204 21H32.9835V20.2734H29.8394V14.2364H29.0204V21ZM35.6387 21.1189C36.5238 21.1189 36.9862 20.6433 37.1447 20.3131H37.1843V21H37.9637V17.6578C37.9637 16.0462 36.7352 15.8612 36.0879 15.8612C35.3217 15.8612 34.4498 16.1254 34.0535 17.0501L34.7933 17.3143C34.965 16.9445 35.3712 16.5482 36.1143 16.5482C36.8309 16.5482 37.1843 16.9279 37.1843 17.5786V17.605C37.1843 17.9815 36.8012 17.9484 35.8765 18.0673C34.9353 18.1895 33.9082 18.3976 33.9082 19.5601C33.9082 20.5509 34.6744 21.1189 35.6387 21.1189ZM35.7576 20.4187C35.1367 20.4187 34.6876 20.1413 34.6876 19.5997C34.6876 19.0053 35.2292 18.8203 35.8369 18.7411C36.1671 18.7014 37.0522 18.6089 37.1843 18.4504V19.1638C37.1843 19.7979 36.6823 20.4187 35.7576 20.4187ZM42.5832 18.926C42.5832 19.8771 41.8566 20.3131 41.2754 20.3131C40.6281 20.3131 40.1657 19.8375 40.1657 19.0977V15.9273H39.3863V19.1506C39.3863 20.4452 40.0732 21.0661 41.0244 21.0661C41.7906 21.0661 42.2926 20.6565 42.5303 20.1413H42.5832V21H43.3626V15.9273H42.5832V18.926ZM45.5695 17.9484C45.5695 17.0634 46.1177 16.5614 46.8641 16.5614C47.5874 16.5614 48.0266 17.0336 48.0266 17.8295V21H48.806V17.7767C48.806 16.4821 48.1158 15.8612 47.0887 15.8612C46.3225 15.8612 45.8469 16.2047 45.6091 16.7199H45.5431V15.9273H44.7901V21H45.5695V17.9484ZM52.291 21.1057C53.4139 21.1057 54.1537 20.4187 54.2858 19.5205H53.5064C53.3611 20.0753 52.8987 20.4055 52.291 20.4055C51.3663 20.4055 50.7719 19.6393 50.7719 18.4636C50.7719 17.3143 51.3795 16.5614 52.291 16.5614C52.978 16.5614 53.3875 16.9841 53.5064 17.4464H54.2858C54.1537 16.4953 53.3479 15.8612 52.2778 15.8612C50.904 15.8612 49.9925 16.9445 49.9925 18.4901C49.9925 20.0092 50.8643 21.1057 52.291 21.1057ZM56.2046 17.9484C56.2046 17.0634 56.7693 16.5614 57.5388 16.5614C58.272 16.5614 58.7145 17.0237 58.7145 17.8295V21H59.4939V17.7767C59.4939 16.4722 58.8004 15.8612 57.7634 15.8612C56.9642 15.8612 56.5084 16.1948 56.2706 16.7199H56.2046V14.2364H55.4252V21H56.2046V17.9484ZM64.4601 14.2364H63.6411V21H64.4601V14.2364ZM66.7761 17.9484C66.7761 17.0634 67.3243 16.5614 68.0707 16.5614C68.7939 16.5614 69.2332 17.0336 69.2332 17.8295V21H70.0126V17.7767C70.0126 16.4821 69.3223 15.8612 68.2952 15.8612C67.529 15.8612 67.0535 16.2047 66.8157 16.7199H66.7496V15.9273H65.9967V21H66.7761V17.9484ZM73.3523 21.1057C74.3298 21.1057 74.6601 20.498 74.8318 20.2206H74.9243V21H75.6773V14.2364H74.8979V16.7331H74.8318C74.6601 16.4689 74.3563 15.8612 73.3655 15.8612C72.0841 15.8612 71.199 16.8784 71.199 18.4768C71.199 20.0885 72.0841 21.1057 73.3523 21.1057ZM73.458 20.4055C72.4804 20.4055 71.9784 19.5469 71.9784 18.4636C71.9784 17.3936 72.4672 16.5614 73.458 16.5614C74.4091 16.5614 74.9111 17.3276 74.9111 18.4636C74.9111 19.6129 74.3959 20.4055 73.458 20.4055ZM79.3398 21.1057C80.3702 21.1057 81.1232 20.5905 81.361 19.8243L80.608 19.6129C80.4098 20.1413 79.9508 20.4055 79.3398 20.4055C78.425 20.4055 77.7942 19.8144 77.7579 18.7278H81.4402V18.3976C81.4402 16.5085 80.3174 15.8612 79.2605 15.8612C77.8867 15.8612 76.9752 16.9445 76.9752 18.5033C76.9752 20.0621 77.8735 21.1057 79.3398 21.1057ZM77.7579 18.0541C77.8107 17.2648 78.3689 16.5614 79.2605 16.5614C80.106 16.5614 80.6476 17.1955 80.6476 18.0541H77.7579ZM83.0709 15.9273H82.1726L83.7842 18.4636L82.1726 21H83.0709L84.2862 19.0317L85.5016 21H86.3999L84.7618 18.4636L86.3999 15.9273H85.5016L84.2862 18.0013L83.0709 15.9273Z" fill="black"/>
<path d="M49.5178 66.3533C50.9027 66.3533 51.9183 65.3306 51.9183 63.9386C51.9183 62.5288 50.9382 61.4954 49.603 61.4954C49.1129 61.4954 48.6371 61.6694 48.3388 61.9073H48.2962L48.5518 59.7624H51.5916V58.9812H47.8132L47.3729 62.5607L48.1967 62.6602C48.4986 62.4435 49.0135 62.2873 49.4609 62.2908C50.3878 62.2979 51.0661 63.0011 51.0661 63.9528C51.0661 64.8867 50.4126 65.5721 49.5178 65.5721C48.772 65.5721 48.179 65.0927 48.1115 64.4357H47.2592C47.3125 65.5437 48.2678 66.3533 49.5178 66.3533ZM55.7012 66.3533C57.3063 66.3533 58.2296 64.9933 58.2296 62.6175C58.2296 60.2596 57.2921 58.8817 55.7012 58.8817C54.1103 58.8817 53.1728 60.2596 53.1728 62.6175C53.1728 64.9933 54.0961 66.3533 55.7012 66.3533ZM55.7012 65.5721C54.6429 65.5721 54.025 64.5103 54.025 62.6175C54.025 60.7283 54.65 59.6488 55.7012 59.6488C56.7523 59.6488 57.3773 60.7283 57.3773 62.6175C57.3773 64.5103 56.7594 65.5721 55.7012 65.5721ZM63.2864 64.8903C63.2864 65.6857 63.7836 66.3533 64.7069 66.3533C65.6159 66.3533 66.1131 65.6857 66.1131 64.8903V64.5067C66.1131 63.7113 65.6301 63.0437 64.7069 63.0437C63.7978 63.0437 63.2864 63.7113 63.2864 64.5067V64.8903ZM59.6642 60.7283C59.6642 61.5238 60.1614 62.1914 61.0847 62.1914C61.9938 62.1914 62.4909 61.5238 62.4909 60.7283V60.3448C62.4909 59.5494 62.008 58.8817 61.0847 58.8817C60.1756 58.8817 59.6642 59.5494 59.6642 60.3448V60.7283ZM59.9341 66.2539H60.7438L65.7438 58.9812H64.9341L59.9341 66.2539ZM64.0108 64.5067C64.0108 64.0664 64.2097 63.6545 64.7069 63.6545C65.2182 63.6545 65.3887 64.0664 65.3887 64.5067V64.8903C65.3887 65.3306 65.204 65.7425 64.7069 65.7425C64.1955 65.7425 64.0108 65.3306 64.0108 64.8903V64.5067ZM60.3887 60.3448C60.3887 59.9045 60.5875 59.4925 61.0847 59.4925C61.5961 59.4925 61.7665 59.9045 61.7665 60.3448V60.7283C61.7665 61.1687 61.5819 61.5806 61.0847 61.5806C60.5733 61.5806 60.3887 61.1687 60.3887 60.7283V60.3448Z" fill="black"/>
<path d="M58.0079 88C53.0631 88.0016 48.2288 86.5367 44.1165 83.7906C40.0043 81.0445 36.7987 77.1406 34.9053 72.5726C33.0119 68.0046 32.5157 62.9776 33.4794 58.1276C34.4431 53.2776 36.8235 48.8222 40.3195 45.3251C43.8155 41.828 48.2701 39.4462 53.1198 38.481C57.9696 37.5157 62.9967 38.0103 67.5653 39.9023C72.1339 41.7942 76.0388 44.9985 78.7862 49.1099C81.5336 53.2213 83 58.0551 83 63C82.9937 69.6271 80.3589 75.9811 75.6735 80.6679C70.9882 85.3547 64.635 87.9916 58.0079 88ZM58.0079 40.9635C53.6473 40.962 49.3841 42.2537 45.7578 44.6754C42.1314 47.0971 39.3047 50.5398 37.6352 54.5682C35.9657 58.5966 35.5285 63.0297 36.3788 67.3066C37.2292 71.5835 39.3288 75.5122 42.4123 78.5956C45.4957 81.6791 49.4244 83.7788 53.7013 84.6291C57.9782 85.4794 62.4113 85.0422 66.4397 83.3727C70.4681 81.7033 73.9109 78.8766 76.3325 75.2502C78.7542 71.6238 80.0459 67.3606 80.0444 63C80.0381 57.1575 77.7144 51.5561 73.5831 47.4248C69.4518 43.2936 63.8504 40.9698 58.0079 40.9635V40.9635Z" fill="#D1DBFF"/>
<path d="M58.3965 38V40.9561C64.1809 41.0656 69.6914 43.4362 73.7434 47.5583C77.7954 51.6804 80.0654 57.2249 80.0654 63C80.0654 68.7751 77.7954 74.3196 73.7434 78.4417C69.6914 82.5638 64.1809 84.9344 58.3965 85.0439V88C64.9616 87.8833 71.2184 85.1981 75.8199 80.5224C80.4214 75.8467 82.9997 69.5544 82.9997 63C82.9997 56.4456 80.4214 50.1533 75.8199 45.4776C71.2184 40.8019 64.9616 38.1167 58.3965 38V38Z" fill="#F05146"/>
<path d="M71.3864 103H73.0384V102.761H71.652V100.091H71.3864V103ZM74.1932 103.05C74.5568 103.05 74.7784 102.848 74.8693 102.655H74.8849V103H75.1378V101.518C75.1378 100.933 74.6974 100.788 74.3636 100.788C74.0298 100.788 73.6861 100.92 73.5384 101.277L73.7784 101.364C73.858 101.176 74.0554 101.016 74.3707 101.016C74.7017 101.016 74.8849 101.197 74.8849 101.496V101.547C74.8849 101.712 74.6804 101.714 74.3139 101.76C73.821 101.821 73.4759 101.959 73.4759 102.391C73.4759 102.811 73.7969 103.05 74.1932 103.05ZM74.2273 102.818C73.9418 102.818 73.7287 102.666 73.7287 102.402C73.7287 102.138 73.9446 102.027 74.3139 101.982C74.4929 101.96 74.8111 101.92 74.8849 101.848V102.163C74.8849 102.521 74.6307 102.818 74.2273 102.818ZM77.1967 102.166C77.1967 102.567 76.8956 102.783 76.6001 102.783C76.2848 102.783 76.0632 102.557 76.0632 102.216V100.818H75.8104V102.232C75.8104 102.749 76.1087 103.028 76.5277 103.028C76.8473 103.028 77.0746 102.862 77.1768 102.638H77.1967V103H77.4496V100.818H77.1967V102.166ZM78.3718 101.636C78.3718 101.256 78.6218 101.021 78.9656 101.021C79.3008 101.021 79.5167 101.246 79.5167 101.602V103H79.7695V101.587C79.7695 101.07 79.4698 100.79 79.0295 100.79C78.7099 100.79 78.4897 100.938 78.3874 101.161H78.3647V100.818H78.119V103H78.3718V101.636ZM81.2876 103.045C81.7422 103.045 82.0618 102.759 82.12 102.364H81.8643C81.8061 102.642 81.5774 102.814 81.2876 102.814C80.8601 102.814 80.5774 102.442 80.5774 101.911C80.5774 101.382 80.8686 101.018 81.2876 101.018C81.5987 101.018 81.8089 101.219 81.8629 101.466H82.1186C82.0589 101.061 81.7209 100.788 81.2834 100.788C80.7124 100.788 80.3232 101.263 80.3232 101.919C80.3232 102.57 80.701 103.045 81.2876 103.045ZM82.9148 101.636C82.9148 101.256 83.1705 101.021 83.5199 101.021C83.858 101.021 84.0739 101.243 84.0739 101.602V103H84.3281V101.587C84.3281 101.067 84.027 100.79 83.5838 100.79C83.2543 100.79 83.0398 100.935 82.9375 101.161H82.9148V100.091H82.6619V103H82.9148V101.636ZM86.1218 103H86.3761V100.818H86.1218V103ZM86.2511 100.443C86.3548 100.443 86.4414 100.361 86.4414 100.261C86.4414 100.162 86.3548 100.08 86.2511 100.08C86.1474 100.08 86.0621 100.162 86.0621 100.261C86.0621 100.361 86.1474 100.443 86.2511 100.443ZM87.2976 101.636C87.2976 101.256 87.5476 101.021 87.8913 101.021C88.2266 101.021 88.4425 101.246 88.4425 101.602V103H88.6953V101.587C88.6953 101.07 88.3956 100.79 87.9553 100.79C87.6357 100.79 87.4155 100.938 87.3132 101.161H87.2905V100.818H87.0447V103H87.2976V101.636ZM90.1467 103.045C90.543 103.045 90.7276 102.794 90.8171 102.595H90.8469V103H91.0941V100.091H90.8398V101.234H90.8171C90.7305 101.038 90.5501 100.788 90.1509 100.788C89.6126 100.788 89.2489 101.243 89.2489 101.915C89.2489 102.592 89.6112 103.045 90.1467 103.045ZM90.1765 102.814C89.7418 102.814 89.5032 102.419 89.5032 101.911C89.5032 101.408 89.739 101.018 90.1765 101.018C90.6026 101.018 90.8441 101.388 90.8441 101.911C90.8441 102.438 90.5998 102.814 90.1765 102.814ZM92.6964 103.045C93.1339 103.045 93.4279 102.808 93.5273 102.534L93.2873 102.456C93.2035 102.652 93.006 102.814 92.6964 102.814C92.2504 102.814 91.9677 102.489 91.9563 101.984H93.5813V101.859C93.5813 101.131 93.131 100.788 92.658 100.788C92.0927 100.788 91.7021 101.261 91.7021 101.922C91.7021 102.584 92.0856 103.045 92.6964 103.045ZM91.9577 101.761C91.9847 101.355 92.2589 101.018 92.658 101.018C93.0487 101.018 93.3228 101.341 93.3228 101.761H91.9577ZM94.2362 100.818H93.9435L94.6367 101.909L93.9435 103H94.2362L94.7987 102.099L95.3612 103H95.6552L94.9535 101.909L95.6552 100.818H95.3612L94.7987 101.749L94.2362 100.818Z" fill="black"/>
<path d="M101.29 103.12C102.367 103.12 103.24 102.247 103.24 101.17C103.24 100.093 102.367 99.2197 101.29 99.2197C100.213 99.2197 99.3398 100.093 99.3398 101.17C99.3398 102.247 100.213 103.12 101.29 103.12Z" fill="#F05146"/>
<path d="M33.1583 26.0158H34.1885V29H34.4854V26.0158H35.5156V25.7491H33.1583V26.0158ZM36.4077 27.4761C36.4077 27.0507 36.6934 26.7888 37.0839 26.7888C37.4617 26.7888 37.7029 27.0364 37.7029 27.438V29H37.9871V27.4206C37.9871 26.8396 37.6506 26.5301 37.1553 26.5301C36.787 26.5301 36.5474 26.692 36.4331 26.9444H36.4077V25.7491H36.1251V29H36.4077V27.4761ZM38.7343 29H39.0185V26.5618H38.7343V29ZM38.8788 26.1428C38.9947 26.1428 39.0915 26.0507 39.0915 25.9396C39.0915 25.8285 38.9947 25.7364 38.8788 25.7364C38.7629 25.7364 38.6677 25.8285 38.6677 25.9396C38.6677 26.0507 38.7629 26.1428 38.8788 26.1428ZM41.4039 27.0968C41.2848 26.7444 41.0245 26.5285 40.5784 26.5285C40.0864 26.5285 39.7292 26.8094 39.7292 27.211C39.7292 27.538 39.9276 27.7603 40.3515 27.8619L40.7499 27.9571C41.0181 28.0206 41.1467 28.1587 41.1467 28.3539C41.1467 28.6079 40.9039 28.7968 40.5292 28.7968C40.1959 28.7968 39.988 28.646 39.9197 28.3571L39.6483 28.4238C39.734 28.8302 40.0562 29.0508 40.534 29.0508C41.0705 29.0508 41.4388 28.7555 41.4388 28.3412C41.4388 28.0158 41.234 27.7984 40.8261 27.6984L40.4578 27.6079C40.1546 27.5317 40.0133 27.4095 40.0133 27.1983C40.0133 26.9507 40.2499 26.7777 40.5784 26.7777C40.907 26.7777 41.0689 26.9507 41.1451 27.1698L41.4039 27.0968ZM43.3178 29H43.602V26.5618H43.3178V29ZM43.4623 26.1428C43.5782 26.1428 43.675 26.0507 43.675 25.9396C43.675 25.8285 43.5782 25.7364 43.4623 25.7364C43.3464 25.7364 43.2512 25.8285 43.2512 25.9396C43.2512 26.0507 43.3464 26.1428 43.4623 26.1428ZM45.9874 27.0968C45.8683 26.7444 45.608 26.5285 45.1619 26.5285C44.6699 26.5285 44.3127 26.8094 44.3127 27.211C44.3127 27.538 44.5111 27.7603 44.935 27.8619L45.3334 27.9571C45.6016 28.0206 45.7302 28.1587 45.7302 28.3539C45.7302 28.6079 45.4874 28.7968 45.1127 28.7968C44.7794 28.7968 44.5714 28.646 44.5032 28.3571L44.2318 28.4238C44.3175 28.8302 44.6397 29.0508 45.1175 29.0508C45.654 29.0508 46.0223 28.7555 46.0223 28.3412C46.0223 28.0158 45.8175 27.7984 45.4096 27.6984L45.0413 27.6079C44.7381 27.5317 44.5968 27.4095 44.5968 27.1983C44.5968 26.9507 44.8334 26.7777 45.1619 26.7777C45.4905 26.7777 45.6524 26.9507 45.7286 27.1698L45.9874 27.0968ZM48.095 29.9143C48.3998 29.9143 48.6236 29.7397 48.7537 29.3857L49.7871 26.5666L49.4792 26.5618L48.7553 28.627H48.7331L48.0093 26.5618H47.7029L48.5998 29.0238L48.5109 29.2714C48.3759 29.6397 48.1855 29.7048 47.8982 29.6143L47.822 29.8635C47.8791 29.8905 47.9839 29.9143 48.095 29.9143ZM51.1987 29.0508C51.8304 29.0508 52.2717 28.5349 52.2717 27.792C52.2717 27.0444 51.8304 26.5285 51.1987 26.5285C50.5669 26.5285 50.1256 27.0444 50.1256 27.792C50.1256 28.5349 50.5669 29.0508 51.1987 29.0508ZM51.1987 28.7921C50.6923 28.7921 50.4097 28.3381 50.4097 27.792C50.4097 27.246 50.6923 26.7856 51.1987 26.7856C51.705 26.7856 51.9876 27.246 51.9876 27.792C51.9876 28.3381 51.705 28.7921 51.1987 28.7921ZM54.4412 28.0682C54.4412 28.5159 54.1047 28.7571 53.7745 28.7571C53.4222 28.7571 53.1745 28.5047 53.1745 28.1238V26.5618H52.892V28.1412C52.892 28.719 53.2253 29.0317 53.6936 29.0317C54.0507 29.0317 54.3047 28.846 54.419 28.5952H54.4412V29H54.7238V26.5618H54.4412V28.0682ZM55.4718 29H55.7544V27.4253C55.7544 27.0634 56.0322 26.8015 56.4131 26.8015C56.4877 26.8015 56.5576 26.8142 56.583 26.8174V26.5301C56.5449 26.5285 56.4798 26.5253 56.4338 26.5253C56.1274 26.5253 55.8655 26.6904 55.7671 26.9364H55.7464V26.5618H55.4718V29ZM58.6049 25.7491H58.3223V29H58.6049V25.7491ZM60.0335 29.0556C60.4399 29.0556 60.6875 28.8302 60.7891 28.6143H60.8065V29H61.0891V27.3444C61.0891 26.6904 60.597 26.5285 60.224 26.5285C59.851 26.5285 59.4668 26.6761 59.3017 27.0745L59.57 27.1714C59.6589 26.9618 59.8795 26.7825 60.2319 26.7825C60.6018 26.7825 60.8065 26.9856 60.8065 27.319V27.3761C60.8065 27.5603 60.578 27.5634 60.1684 27.6142C59.6176 27.6825 59.2319 27.8365 59.2319 28.319C59.2319 28.7889 59.5906 29.0556 60.0335 29.0556ZM60.0716 28.7968C59.7525 28.7968 59.5144 28.627 59.5144 28.3317C59.5144 28.0365 59.7557 27.9127 60.1684 27.8619C60.3684 27.8381 60.724 27.7936 60.8065 27.7127V28.065C60.8065 28.4651 60.5224 28.7968 60.0716 28.7968ZM63.39 28.0682C63.39 28.5159 63.0535 28.7571 62.7233 28.7571C62.3709 28.7571 62.1233 28.5047 62.1233 28.1238V26.5618H61.8407V28.1412C61.8407 28.719 62.1741 29.0317 62.6423 29.0317C62.9995 29.0317 63.2535 28.846 63.3677 28.5952H63.39V29H63.6725V26.5618H63.39V28.0682ZM64.7031 27.4761C64.7031 27.0507 64.9825 26.7888 65.3666 26.7888C65.7412 26.7888 65.9825 27.0396 65.9825 27.438V29H66.2651V27.4206C66.2651 26.8428 65.9301 26.5301 65.4381 26.5301C65.0809 26.5301 64.8349 26.6952 64.7206 26.9444H64.6952V26.5618H64.4206V29H64.7031V27.4761ZM67.9616 29.0508C68.4695 29.0508 68.8267 28.7301 68.8918 28.2889H68.606C68.5409 28.6 68.2854 28.7921 67.9616 28.7921C67.4838 28.7921 67.1679 28.3762 67.1679 27.7825C67.1679 27.192 67.4933 26.7856 67.9616 26.7856C68.3092 26.7856 68.5441 27.0095 68.6044 27.2857H68.8902C68.8235 26.8333 68.4457 26.5285 67.9568 26.5285C67.3187 26.5285 66.8837 27.0587 66.8837 27.792C66.8837 28.519 67.306 29.0508 67.9616 29.0508ZM69.7799 27.4761C69.7799 27.0507 70.0656 26.7888 70.4561 26.7888C70.8339 26.7888 71.0752 27.0364 71.0752 27.438V29H71.3593V27.4206C71.3593 26.8396 71.0228 26.5301 70.5275 26.5301C70.1593 26.5301 69.9196 26.692 69.8053 26.9444H69.7799V25.7491H69.4973V29H69.7799V27.4761ZM73.3637 29H73.6479V26.5618H73.3637V29ZM73.5082 26.1428C73.6241 26.1428 73.7209 26.0507 73.7209 25.9396C73.7209 25.8285 73.6241 25.7364 73.5082 25.7364C73.3923 25.7364 73.2971 25.8285 73.2971 25.9396C73.2971 26.0507 73.3923 26.1428 73.5082 26.1428ZM74.6777 27.4761C74.6777 27.0507 74.957 26.7888 75.3412 26.7888C75.7158 26.7888 75.9571 27.0396 75.9571 27.438V29H76.2396V27.4206C76.2396 26.8428 75.9047 26.5301 75.4126 26.5301C75.0555 26.5301 74.8094 26.6952 74.6951 26.9444H74.6697V26.5618H74.3951V29H74.6777V27.4761ZM77.8615 29.0508C78.3044 29.0508 78.5107 28.7698 78.6108 28.5476H78.6441V29H78.9203V25.7491H78.6361V27.0269H78.6108C78.5139 26.8079 78.3123 26.5285 77.8663 26.5285C77.2647 26.5285 76.8583 27.0364 76.8583 27.7873C76.8583 28.5444 77.2631 29.0508 77.8615 29.0508ZM77.8949 28.7921C77.4091 28.7921 77.1424 28.3508 77.1424 27.7825C77.1424 27.2206 77.4059 26.7856 77.8949 26.7856C78.3711 26.7856 78.6409 27.1983 78.6409 27.7825C78.6409 28.3714 78.3679 28.7921 77.8949 28.7921ZM80.7108 29.0508C81.1997 29.0508 81.5283 28.7857 81.6394 28.4793L81.3712 28.392C81.2775 28.6111 81.0569 28.7921 80.7108 28.7921C80.2124 28.7921 79.8965 28.4286 79.8838 27.865H81.6997V27.7254C81.6997 26.911 81.1966 26.5285 80.668 26.5285C80.0362 26.5285 79.5997 27.0571 79.5997 27.7952C79.5997 28.5349 80.0283 29.0508 80.7108 29.0508ZM79.8854 27.6158C79.9156 27.1618 80.2219 26.7856 80.668 26.7856C81.1045 26.7856 81.4108 27.146 81.4108 27.6158H79.8854ZM82.4315 26.5618H82.1045L82.8792 27.7809L82.1045 29H82.4315L83.0601 27.9936L83.6887 29H84.0173L83.2331 27.7809L84.0173 26.5618H83.6887L83.0601 27.6015L82.4315 26.5618Z" fill="black"/>
</svg>
