<svg width="115" height="115" viewBox="0 0 115 115" fill="none" xmlns="http://www.w3.org/2000/svg">
<rect width="115" height="115" rx="6" fill="white"/>
<path d="M30.9937 17.9273H31.7863C31.75 16.9068 30.8087 16.1439 29.5009 16.1439C28.2063 16.1439 27.1891 16.8969 27.1891 18.033C27.1891 18.9445 27.8496 19.4861 28.9065 19.7899L29.7387 20.0277C30.4521 20.2259 31.0862 20.4768 31.0862 21.1506C31.0862 21.8903 30.3728 22.3791 29.4349 22.3791C28.629 22.3791 27.9157 22.0224 27.8496 21.2562H27.0042C27.0835 22.3659 27.9817 23.1189 29.4349 23.1189C30.9937 23.1189 31.8788 22.2602 31.8788 21.1638C31.8788 19.8956 30.6766 19.4861 29.9765 19.3011L29.2896 19.1162C28.7876 18.9841 27.9817 18.7199 27.9817 17.9933C27.9817 17.346 28.5762 16.8705 29.4745 16.8705C30.2935 16.8705 30.9144 17.2602 30.9937 17.9273ZM35.3258 17.9273H34.2426V16.7119H33.4632V17.9273H32.697V18.5878H33.4632V21.7582C33.4632 22.6433 34.1765 23.0661 34.837 23.0661C35.1277 23.0661 35.3126 23.0132 35.4183 22.9736L35.2598 22.2734C35.1937 22.2866 35.088 22.3131 34.9163 22.3131C34.5728 22.3131 34.2426 22.2074 34.2426 21.5469V18.5878H35.3258V17.9273ZM36.4982 23H37.2776V19.7899C37.2776 19.103 37.8192 18.601 38.559 18.601C38.7671 18.601 38.9817 18.6406 39.0346 18.6538V17.8612C38.9454 17.8546 38.7407 17.848 38.6251 17.848C38.0174 17.848 37.489 18.1915 37.304 18.6935H37.2512V17.9273H36.4982V23ZM41.9309 23.1057C42.9613 23.1057 43.7143 22.5905 43.9521 21.8243L43.1991 21.6129C43.0009 22.1413 42.5419 22.4055 41.9309 22.4055C41.0161 22.4055 40.3853 21.8144 40.349 20.7278H44.0313V20.3976C44.0313 18.5085 42.9085 17.8612 41.8517 17.8612C40.4778 17.8612 39.5663 18.9445 39.5663 20.5033C39.5663 22.0621 40.4646 23.1057 41.9309 23.1057ZM40.349 20.0541C40.4018 19.2648 40.96 18.5614 41.8517 18.5614C42.6971 18.5614 43.2387 19.1955 43.2387 20.0541H40.349ZM45.9964 19.9484C45.9964 19.0634 46.5446 18.5614 47.291 18.5614C48.0142 18.5614 48.4535 19.0336 48.4535 19.8295V23H49.2329V19.7767C49.2329 18.4821 48.5426 17.8612 47.5155 17.8612C46.7494 17.8612 46.2738 18.2047 46.036 18.7199H45.9699V17.9273H45.217V23H45.9964V19.9484ZM52.7047 25.008C53.92 25.008 54.8976 24.4531 54.8976 23.1453V17.9273H54.1446V18.7331H54.0653C53.8936 18.4689 53.5766 17.8612 52.5858 17.8612C51.3044 17.8612 50.4193 18.8784 50.4193 20.4372C50.4193 22.0224 51.344 22.9207 52.5726 22.9207C53.5634 22.9207 53.8804 22.3395 54.0521 22.0621H54.1182V23.0925C54.1182 23.9379 53.5237 24.321 52.7047 24.321C51.7833 24.321 51.4596 23.8355 51.2516 23.5548L50.6307 23.9908C50.9477 24.5225 51.5719 25.008 52.7047 25.008ZM52.6783 22.2206C51.7007 22.2206 51.1987 21.4808 51.1987 20.424C51.1987 19.3936 51.6875 18.5614 52.6783 18.5614C53.6294 18.5614 54.1314 19.3276 54.1314 20.424C54.1314 21.5469 53.6162 22.2206 52.6783 22.2206ZM58.5304 17.9273H57.4472V16.7119H56.6678V17.9273H55.9016V18.5878H56.6678V21.7582C56.6678 22.6433 57.3811 23.0661 58.0416 23.0661C58.3322 23.0661 58.5172 23.0132 58.6229 22.9736L58.4643 22.2734C58.3983 22.2866 58.2926 22.3131 58.1209 22.3131C57.7774 22.3131 57.4472 22.2074 57.4472 21.5469V18.5878H58.5304V17.9273ZM60.5912 19.9484C60.5912 19.0634 61.1559 18.5614 61.9254 18.5614C62.6586 18.5614 63.1011 19.0237 63.1011 19.8295V23H63.8805V19.7767C63.8805 18.4722 63.187 17.8612 62.15 17.8612C61.3508 17.8612 60.895 18.1948 60.6572 18.7199H60.5912V16.2364H59.8118V23H60.5912V19.9484ZM68.8996 19.0634C68.6552 18.3434 68.107 17.8612 67.103 17.8612C66.033 17.8612 65.2404 18.4689 65.2404 19.3276C65.2404 20.0277 65.6565 20.4967 66.5878 20.7146L67.4333 20.9128C67.9452 21.0317 68.1862 21.2761 68.1862 21.6261C68.1862 22.0621 67.7239 22.4187 66.9973 22.4187C66.3599 22.4187 65.9603 22.1446 65.8216 21.5997L65.0818 21.7847C65.2635 22.6466 65.9735 23.1057 67.0105 23.1057C68.1896 23.1057 68.9921 22.4617 68.9921 21.5865C68.9921 20.8798 68.5495 20.4339 67.6446 20.2126L66.8916 20.0277C66.2906 19.8791 66.0198 19.6776 66.0198 19.2879C66.0198 18.852 66.4821 18.5349 67.103 18.5349C67.7833 18.5349 68.0641 18.9114 68.1995 19.2615L68.8996 19.0634ZM74.2737 23.1189C75.1588 23.1189 75.6211 22.6433 75.7797 22.3131H75.8193V23H76.5987V19.6578C76.5987 18.0462 75.3701 17.8612 74.7228 17.8612C73.9566 17.8612 73.0848 18.1254 72.6885 19.0501L73.4282 19.3143C73.6 18.9445 74.0062 18.5482 74.7493 18.5482C75.4659 18.5482 75.8193 18.9279 75.8193 19.5786V19.605C75.8193 19.9815 75.4362 19.9484 74.5115 20.0673C73.5702 20.1895 72.5431 20.3976 72.5431 21.5601C72.5431 22.5509 73.3093 23.1189 74.2737 23.1189ZM74.3926 22.4187C73.7717 22.4187 73.3226 22.1413 73.3226 21.5997C73.3226 21.0053 73.8642 20.8203 74.4718 20.7411C74.8021 20.7014 75.6872 20.6089 75.8193 20.4504V21.1638C75.8193 21.7979 75.3173 22.4187 74.3926 22.4187ZM78.8007 19.9484C78.8007 19.0634 79.3489 18.5614 80.0953 18.5614C80.8185 18.5614 81.2578 19.0336 81.2578 19.8295V23H82.0372V19.7767C82.0372 18.4821 81.3469 17.8612 80.3198 17.8612C79.5536 17.8612 79.0781 18.2047 78.8403 18.7199H78.7742V17.9273H78.0213V23H78.8007V19.9484ZM85.3769 23.1057C86.3544 23.1057 86.6847 22.498 86.8564 22.2206H86.9489V23H87.7019V16.2364H86.9225V18.7331H86.8564C86.6847 18.4689 86.3809 17.8612 85.3901 17.8612C84.1087 17.8612 83.2236 18.8784 83.2236 20.4768C83.2236 22.0885 84.1087 23.1057 85.3769 23.1057ZM85.4826 22.4055C84.505 22.4055 84.003 21.5469 84.003 20.4636C84.003 19.3936 84.4918 18.5614 85.4826 18.5614C86.4337 18.5614 86.9357 19.3276 86.9357 20.4636C86.9357 21.6129 86.4205 22.4055 85.4826 22.4055ZM17.5589 34H18.3779V31.358H19.8575C19.9169 31.358 19.973 31.358 20.0292 31.3547L21.4559 34H22.407L20.8779 31.206C21.7399 30.9121 22.1428 30.2087 22.1428 29.3104C22.1428 28.1148 21.4295 27.2364 19.8442 27.2364H17.5589V34ZM18.3779 30.6182V27.9629H19.8178C20.9143 27.9629 21.337 28.4979 21.337 29.3104C21.337 30.1228 20.9143 30.6182 19.831 30.6182H18.3779ZM25.4743 34.1057C26.5047 34.1057 27.2577 33.5905 27.4954 32.8243L26.7425 32.6129C26.5443 33.1413 26.0853 33.4055 25.4743 33.4055C24.5595 33.4055 23.9287 32.8144 23.8924 31.7278H27.5747V31.3976C27.5747 29.5085 26.4518 28.8612 25.395 28.8612C24.0212 28.8612 23.1096 29.9445 23.1096 31.5033C23.1096 33.0621 24.0079 34.1057 25.4743 34.1057ZM23.8924 31.0541C23.9452 30.2648 24.5033 29.5614 25.395 29.5614C26.2405 29.5614 26.7821 30.1955 26.7821 31.0541H23.8924ZM30.8211 34.1057C31.944 34.1057 32.6838 33.4187 32.8159 32.5205H32.0365C31.8911 33.0753 31.4288 33.4055 30.8211 33.4055C29.8964 33.4055 29.3019 32.6393 29.3019 31.4636C29.3019 30.3143 29.9096 29.5614 30.8211 29.5614C31.5081 29.5614 31.9176 29.9841 32.0365 30.4464H32.8159C32.6838 29.4953 31.8779 28.8612 30.8079 28.8612C29.434 28.8612 28.5225 29.9445 28.5225 31.4901C28.5225 33.0092 29.3944 34.1057 30.8211 34.1057ZM36.016 34.1057C37.3899 34.1057 38.3146 33.0621 38.3146 31.4901C38.3146 29.9048 37.3899 28.8612 36.016 28.8612C34.6422 28.8612 33.7175 29.9048 33.7175 31.4901C33.7175 33.0621 34.6422 34.1057 36.016 34.1057ZM36.016 33.4055C34.9724 33.4055 34.4969 32.5072 34.4969 31.4901C34.4969 30.4729 34.9724 29.5614 36.016 29.5614C37.0596 29.5614 37.5352 30.4729 37.5352 31.4901C37.5352 32.5072 37.0596 33.4055 36.016 33.4055ZM39.5044 34H40.2838V30.8295C40.2838 30.0865 40.8254 29.5614 41.4331 29.5614C42.0242 29.5614 42.437 29.9478 42.437 30.5257V34H43.2297V30.6974C43.2297 30.0435 43.6392 29.5614 44.3525 29.5614C44.9073 29.5614 45.3829 29.8553 45.3829 30.605V34H46.1623V30.605C46.1623 29.4127 45.5216 28.8612 44.6167 28.8612C43.8902 28.8612 43.3585 29.1948 43.0975 29.7199H43.0447C42.7937 29.1783 42.3512 28.8612 41.6841 28.8612C41.0235 28.8612 40.5348 29.1783 40.3234 29.7199H40.2573V28.9273H39.5044V34ZM47.5874 34H48.3668V30.8295C48.3668 30.0865 48.9084 29.5614 49.5161 29.5614C50.1072 29.5614 50.52 29.9478 50.52 30.5257V34H51.3127V30.6974C51.3127 30.0435 51.7222 29.5614 52.4355 29.5614C52.9904 29.5614 53.4659 29.8553 53.4659 30.605V34H54.2453V30.605C54.2453 29.4127 53.6046 28.8612 52.6997 28.8612C51.9732 28.8612 51.4415 29.1948 51.1806 29.7199H51.1277C50.8767 29.1783 50.4342 28.8612 49.7671 28.8612C49.1066 28.8612 48.6178 29.1783 48.4064 29.7199H48.3404V28.9273H47.5874V34ZM57.7972 34.1057C58.8276 34.1057 59.5806 33.5905 59.8184 32.8243L59.0654 32.6129C58.8673 33.1413 58.4082 33.4055 57.7972 33.4055C56.8824 33.4055 56.2516 32.8144 56.2153 31.7278H59.8977V31.3976C59.8977 29.5085 58.7748 28.8612 57.718 28.8612C56.3441 28.8612 55.4326 29.9445 55.4326 31.5033C55.4326 33.0621 56.3309 34.1057 57.7972 34.1057ZM56.2153 31.0541C56.2681 30.2648 56.8263 29.5614 57.718 29.5614C58.5634 29.5614 59.105 30.1955 59.105 31.0541H56.2153ZM61.8627 30.9484C61.8627 30.0634 62.4109 29.5614 63.1573 29.5614C63.8805 29.5614 64.3198 30.0336 64.3198 30.8295V34H65.0992V30.7767C65.0992 29.4821 64.4089 28.8612 63.3819 28.8612C62.6157 28.8612 62.1401 29.2047 61.9023 29.7199H61.8363V28.9273H61.0833V34H61.8627V30.9484ZM68.4389 34.1057C69.4165 34.1057 69.7467 33.498 69.9184 33.2206H70.0109V34H70.7639V27.2364H69.9845V29.7331H69.9184C69.7467 29.4689 69.4429 28.8612 68.4521 28.8612C67.1707 28.8612 66.2856 29.8784 66.2856 31.4768C66.2856 33.0885 67.1707 34.1057 68.4389 34.1057ZM68.5446 33.4055C67.567 33.4055 67.065 32.5469 67.065 31.4636C67.065 30.3936 67.5538 29.5614 68.5446 29.5614C69.4957 29.5614 69.9977 30.3276 69.9977 31.4636C69.9977 32.6129 69.4825 33.4055 68.5446 33.4055ZM73.7923 34.1189C74.6774 34.1189 75.1398 33.6433 75.2983 33.3131H75.3379V34H76.1173V30.6578C76.1173 29.0462 74.8888 28.8612 74.2415 28.8612C73.4753 28.8612 72.6034 29.1254 72.2071 30.0501L72.9469 30.3143C73.1186 29.9445 73.5248 29.5482 74.2679 29.5482C74.9846 29.5482 75.3379 29.9279 75.3379 30.5786V30.605C75.3379 30.9815 74.9548 30.9484 74.0301 31.0673C73.0889 31.1895 72.0618 31.3976 72.0618 32.5601C72.0618 33.5509 72.828 34.1189 73.7923 34.1189ZM73.9112 33.4187C73.2904 33.4187 72.8412 33.1413 72.8412 32.5997C72.8412 32.0053 73.3828 31.8203 73.9905 31.7411C74.3207 31.7014 75.2058 31.6089 75.3379 31.4504V32.1638C75.3379 32.7979 74.8359 33.4187 73.9112 33.4187ZM79.746 28.9273H78.6628V27.7119H77.8834V28.9273H77.1172V29.5878H77.8834V32.7582C77.8834 33.6433 78.5967 34.0661 79.2572 34.0661C79.5479 34.0661 79.7328 34.0132 79.8385 33.9736L79.68 33.2734C79.6139 33.2866 79.5082 33.3131 79.3365 33.3131C78.993 33.3131 78.6628 33.2074 78.6628 32.5469V29.5878H79.746V28.9273ZM80.9184 34H81.6978V28.9273H80.9184V34ZM81.3147 28.0818C81.6186 28.0818 81.8696 27.844 81.8696 27.5534C81.8696 27.2628 81.6186 27.025 81.3147 27.025C81.0109 27.025 80.7599 27.2628 80.7599 27.5534C80.7599 27.844 81.0109 28.0818 81.3147 28.0818ZM85.1862 34.1057C86.56 34.1057 87.4847 33.0621 87.4847 31.4901C87.4847 29.9048 86.56 28.8612 85.1862 28.8612C83.8123 28.8612 82.8876 29.9048 82.8876 31.4901C82.8876 33.0621 83.8123 34.1057 85.1862 34.1057ZM85.1862 33.4055C84.1426 33.4055 83.667 32.5072 83.667 31.4901C83.667 30.4729 84.1426 29.5614 85.1862 29.5614C86.2298 29.5614 86.7053 30.4729 86.7053 31.4901C86.7053 32.5072 86.2298 33.4055 85.1862 33.4055ZM89.4539 30.9484C89.4539 30.0634 90.0021 29.5614 90.7485 29.5614C91.4718 29.5614 91.911 30.0336 91.911 30.8295V34H92.6904V30.7767C92.6904 29.4821 92.0002 28.8612 90.9731 28.8612C90.2069 28.8612 89.7313 29.2047 89.4935 29.7199H89.4275V28.9273H88.6745V34H89.4539V30.9484ZM97.7078 30.0634C97.4634 29.3434 96.9152 28.8612 95.9112 28.8612C94.8412 28.8612 94.0486 29.4689 94.0486 30.3276C94.0486 31.0277 94.4647 31.4967 95.396 31.7146L96.2415 31.9128C96.7534 32.0317 96.9945 32.2761 96.9945 32.6261C96.9945 33.0621 96.5321 33.4187 95.8055 33.4187C95.1681 33.4187 94.7685 33.1446 94.6298 32.5997L93.8901 32.7847C94.0717 33.6466 94.7817 34.1057 95.8187 34.1057C96.9978 34.1057 97.8003 33.4617 97.8003 32.5865C97.8003 31.8798 97.3577 31.4339 96.4528 31.2126L95.6999 31.0277C95.0988 30.8791 94.828 30.6776 94.828 30.2879C94.828 29.852 95.2903 29.5349 95.9112 29.5349C96.5915 29.5349 96.8723 29.9114 97.0077 30.2615L97.7078 30.0634Z" fill="black"/>
<path d="M13.6538 67.0133C13.6538 67.3326 13.5361 67.5856 13.3005 67.7723C13.0667 67.959 12.7553 68.0523 12.3662 68.0523C11.8986 68.0523 11.54 68.0009 11.2905 67.8979V67.631C11.5662 67.7479 11.9178 67.8063 12.3452 67.8063C12.6593 67.8063 12.9079 67.7348 13.0911 67.5917C13.2761 67.4469 13.3686 67.2576 13.3686 67.0238C13.3686 66.879 13.338 66.7595 13.277 66.6652C13.2159 66.5693 13.1164 66.482 12.9786 66.4035C12.8408 66.325 12.6384 66.2404 12.3714 66.1496C11.9806 66.0153 11.7101 65.8705 11.5601 65.7152C11.4118 65.5582 11.3376 65.3497 11.3376 65.0897C11.3376 64.8035 11.4493 64.5706 11.6726 64.3909C11.8977 64.2094 12.1865 64.1187 12.5389 64.1187C12.8983 64.1187 13.236 64.1868 13.5518 64.3229L13.4549 64.5532C13.1374 64.4206 12.8338 64.3543 12.5441 64.3543C12.2615 64.3543 12.0364 64.4197 11.8689 64.5505C11.7014 64.6814 11.6177 64.8594 11.6177 65.0845C11.6177 65.2258 11.643 65.3418 11.6936 65.4325C11.7459 65.5233 11.8305 65.6053 11.9474 65.6786C12.0643 65.7501 12.265 65.8365 12.5494 65.9377C12.8477 66.0406 13.0719 66.1409 13.222 66.2386C13.372 66.3346 13.4811 66.4445 13.5491 66.5684C13.6189 66.6905 13.6538 66.8388 13.6538 67.0133ZM15.1482 67.822C15.3123 67.822 15.4553 67.8081 15.5775 67.7802V67.9895C15.4518 68.0314 15.307 68.0523 15.143 68.0523C14.8918 68.0523 14.7059 67.9852 14.5855 67.8508C14.4669 67.7165 14.4076 67.5054 14.4076 67.2175V65.3802H13.9862V65.2284L14.4076 65.1106L14.5384 64.4668H14.6719V65.1551H15.5068V65.3802H14.6719V67.1808C14.6719 67.3989 14.7103 67.5603 14.7871 67.665C14.8638 67.7697 14.9842 67.822 15.1482 67.822ZM17.3127 65.1002C17.433 65.1002 17.5622 65.1124 17.7 65.1368L17.6503 65.3854C17.5316 65.3558 17.4086 65.3409 17.2813 65.3409C17.0387 65.3409 16.8398 65.4439 16.6845 65.6498C16.5292 65.8557 16.4516 66.1156 16.4516 66.4297V68H16.1925V65.1551H16.4123L16.4385 65.6681H16.4568C16.5737 65.4587 16.6985 65.3121 16.8311 65.2284C16.9637 65.1429 17.1242 65.1002 17.3127 65.1002ZM19.43 68.0523C19.0164 68.0523 18.6937 67.925 18.4616 67.6702C18.2313 67.4155 18.1161 67.0587 18.1161 66.5998C18.1161 66.1462 18.2278 65.7832 18.4511 65.5111C18.6745 65.2371 18.9754 65.1002 19.3541 65.1002C19.6891 65.1002 19.9534 65.2171 20.1471 65.4509C20.3407 65.6847 20.4376 66.0022 20.4376 66.4035V66.6129H18.3883C18.3918 67.0037 18.4825 67.3021 18.6605 67.508C18.8402 67.7139 19.0967 67.8168 19.43 67.8168C19.5922 67.8168 19.7344 67.8055 19.8566 67.7828C19.9804 67.7601 20.1366 67.7112 20.325 67.6362V67.8718C20.1645 67.9415 20.0162 67.9887 19.8801 68.0131C19.744 68.0393 19.594 68.0523 19.43 68.0523ZM19.3541 65.3305C19.0801 65.3305 18.8603 65.4212 18.6945 65.6027C18.5288 65.7824 18.4319 66.0423 18.404 66.3826H20.1628C20.1628 66.0528 20.0912 65.7955 19.9482 65.6105C19.8051 65.4238 19.6071 65.3305 19.3541 65.3305ZM23.2066 68V66.1549C23.2066 65.8687 23.1464 65.6611 23.026 65.532C22.9056 65.4011 22.7189 65.3357 22.4659 65.3357C22.1257 65.3357 21.8762 65.4221 21.7174 65.5948C21.5604 65.7658 21.4818 66.0441 21.4818 66.4297V68H21.2227V65.1551H21.4426L21.4923 65.5451H21.508C21.693 65.2485 22.0218 65.1002 22.4947 65.1002C23.1403 65.1002 23.463 65.4465 23.463 66.1392V68H23.2066ZM26.6037 65.1551V65.3357L26.0148 65.3723C26.1718 65.5678 26.2504 65.7824 26.2504 66.0162C26.2504 66.2901 26.1588 66.5126 25.9755 66.6836C25.7941 66.8528 25.5498 66.9374 25.2427 66.9374C25.1136 66.9374 25.0229 66.9322 24.9705 66.9217C24.8676 66.9758 24.7891 67.0395 24.735 67.1128C24.6809 67.1861 24.6539 67.2637 24.6539 67.3457C24.6539 67.4364 24.6879 67.5027 24.7559 67.5446C24.8257 67.5865 24.9418 67.6074 25.104 67.6074H25.6013C25.9101 67.6074 26.1465 67.6702 26.3105 67.7959C26.4746 67.9197 26.5566 68.1038 26.5566 68.3481C26.5566 68.6482 26.4344 68.8794 26.1902 69.0416C25.9476 69.2057 25.6013 69.2877 25.1511 69.2877C24.7935 69.2877 24.516 69.2187 24.3189 69.0809C24.1235 68.9431 24.0257 68.7511 24.0257 68.5051C24.0257 68.3097 24.0859 68.1474 24.2063 68.0183C24.3285 67.8892 24.4933 67.8011 24.701 67.754C24.6155 67.7173 24.5466 67.6659 24.4942 67.5996C24.4436 67.5315 24.4183 67.4539 24.4183 67.3666C24.4183 67.1765 24.5396 67.009 24.7821 66.8641C24.6164 66.7961 24.4872 66.6897 24.3948 66.5448C24.3023 66.3983 24.2561 66.2308 24.2561 66.0423C24.2561 65.7579 24.3459 65.5302 24.5256 65.3593C24.7071 65.1865 24.9514 65.1002 25.2584 65.1002C25.4451 65.1002 25.5899 65.1185 25.6929 65.1551H26.6037ZM24.3005 68.4816C24.3005 68.8724 24.5911 69.0678 25.1721 69.0678C25.9188 69.0678 26.2922 68.8296 26.2922 68.3533C26.2922 68.1823 26.2338 68.0585 26.1169 67.9817C26 67.9049 25.8107 67.8665 25.5489 67.8665H25.0831C24.5614 67.8665 24.3005 68.0715 24.3005 68.4816ZM24.5178 66.0423C24.5178 66.2622 24.5841 66.4332 24.7167 66.5553C24.851 66.6757 25.0299 66.7359 25.2532 66.7359C25.4905 66.7359 25.672 66.6757 25.7976 66.5553C25.9249 66.4349 25.9886 66.2604 25.9886 66.0319C25.9886 65.7893 25.9232 65.6079 25.7923 65.4875C25.6632 65.3654 25.4818 65.3043 25.248 65.3043C25.0211 65.3043 24.8423 65.3697 24.7114 65.5006C24.5823 65.6297 24.5178 65.8103 24.5178 66.0423ZM29.1738 68V66.1549C29.1738 65.8687 29.1136 65.6611 28.9932 65.532C28.8728 65.4011 28.6861 65.3357 28.4331 65.3357C28.0929 65.3357 27.8433 65.4221 27.6846 65.5948C27.5275 65.7658 27.449 66.0441 27.449 66.4297V68H27.1899V63.9277H27.449V65.2232L27.4359 65.587H27.4543C27.5607 65.416 27.695 65.2921 27.8573 65.2153C28.0196 65.1385 28.2211 65.1002 28.4619 65.1002C29.1074 65.1002 29.4302 65.4465 29.4302 66.1392V68H29.1738ZM31.1026 67.822C31.2666 67.822 31.4097 67.8081 31.5318 67.7802V67.9895C31.4062 68.0314 31.2614 68.0523 31.0974 68.0523C30.8461 68.0523 30.6603 67.9852 30.5399 67.8508C30.4213 67.7165 30.362 67.5054 30.362 67.2175V65.3802H29.9406V65.2284L30.362 65.1106L30.4928 64.4668H30.6263V65.1551H31.4612V65.3802H30.6263V67.1808C30.6263 67.3989 30.6647 67.5603 30.7414 67.665C30.8182 67.7697 30.9386 67.822 31.1026 67.822ZM33.9109 67.2593C33.9109 67.5141 33.814 67.7104 33.6204 67.8482C33.4267 67.9843 33.1519 68.0523 32.7959 68.0523C32.4156 68.0523 32.1137 67.9939 31.8904 67.877V67.597C32.1765 67.74 32.4784 67.8116 32.7959 67.8116C33.0768 67.8116 33.2897 67.7653 33.4345 67.6729C33.5811 67.5786 33.6544 67.4539 33.6544 67.2986C33.6544 67.1555 33.5959 67.0351 33.479 66.9374C33.3639 66.8397 33.1737 66.7437 32.9085 66.6495C32.6241 66.5466 32.4243 66.4585 32.3091 66.3852C32.194 66.3102 32.1067 66.2264 32.0474 66.1339C31.9898 66.0397 31.9611 65.9254 31.9611 65.7911C31.9611 65.5782 32.05 65.4099 32.228 65.286C32.4077 65.1621 32.6581 65.1002 32.9791 65.1002C33.2862 65.1002 33.5776 65.1577 33.8533 65.2729L33.7564 65.5084C33.4773 65.3933 33.2182 65.3357 32.9791 65.3357C32.7471 65.3357 32.563 65.3741 32.4269 65.4509C32.2908 65.5276 32.2228 65.6341 32.2228 65.7702C32.2228 65.9185 32.2751 66.0371 32.3798 66.1261C32.4862 66.2151 32.693 66.3145 33.0001 66.4245C33.2566 66.5169 33.4433 66.6007 33.5602 66.6757C33.6771 66.749 33.7643 66.8327 33.8219 66.927C33.8812 67.0212 33.9109 67.132 33.9109 67.2593Z" fill="#6D6E71"/>
<path d="M11.8087 91.3329V93H11.5418V89.1737H12.4525C12.9271 89.1737 13.2778 89.2618 13.5046 89.438C13.7315 89.6125 13.8449 89.876 13.8449 90.2284C13.8449 90.4849 13.7768 90.7012 13.6407 90.8775C13.5064 91.0537 13.3014 91.1802 13.0257 91.257L14.0647 93H13.7454L12.7588 91.3329H11.8087ZM11.8087 91.1025H12.5389C12.8617 91.1025 13.1121 91.031 13.29 90.8879C13.468 90.7431 13.557 90.5302 13.557 90.2493C13.557 89.958 13.4698 89.746 13.2953 89.6134C13.1208 89.4808 12.8364 89.4145 12.4421 89.4145H11.8087V91.1025ZM15.813 93.0523C15.3995 93.0523 15.0767 92.925 14.8446 92.6702C14.6143 92.4155 14.4992 92.0587 14.4992 91.5998C14.4992 91.1462 14.6108 90.7832 14.8342 90.5111C15.0575 90.2371 15.3585 90.1002 15.7371 90.1002C16.0721 90.1002 16.3364 90.2171 16.5301 90.4509C16.7238 90.6847 16.8206 91.0022 16.8206 91.4035V91.6129H14.7714C14.7749 92.0037 14.8656 92.3021 15.0436 92.508C15.2233 92.7139 15.4798 92.8168 15.813 92.8168C15.9753 92.8168 16.1175 92.8055 16.2396 92.7828C16.3635 92.7601 16.5196 92.7112 16.7081 92.6362V92.8718C16.5476 92.9415 16.3993 92.9887 16.2632 93.0131C16.1271 93.0393 15.977 93.0523 15.813 93.0523ZM15.7371 90.3305C15.4632 90.3305 15.2433 90.4212 15.0776 90.6027C14.9118 90.7824 14.815 91.0423 14.7871 91.3826H16.5458C16.5458 91.0528 16.4743 90.7955 16.3312 90.6105C16.1881 90.4238 15.9901 90.3305 15.7371 90.3305ZM18.7416 93.0523C18.3351 93.0523 18.0167 92.9241 17.7864 92.6676C17.5561 92.4111 17.4409 92.0535 17.4409 91.5946C17.4409 91.1235 17.5604 90.7571 17.7995 90.4954C18.0385 90.2319 18.3656 90.1002 18.7809 90.1002C19.0269 90.1002 19.2625 90.1429 19.4875 90.2284L19.4169 90.4587C19.1709 90.3767 18.9571 90.3357 18.7757 90.3357C18.4267 90.3357 18.1624 90.4439 17.9827 90.6602C17.8029 90.8748 17.7131 91.1845 17.7131 91.5893C17.7131 91.9732 17.8029 92.2742 17.9827 92.4923C18.1624 92.7086 18.4136 92.8168 18.7364 92.8168C18.9946 92.8168 19.2345 92.7706 19.4561 92.6781V92.9189C19.2747 93.0079 19.0365 93.0523 18.7416 93.0523ZM22.5078 91.5736C22.5078 92.0377 22.3952 92.4007 22.1702 92.6624C21.9451 92.9224 21.6345 93.0523 21.2384 93.0523C20.9889 93.0523 20.7691 92.9921 20.5789 92.8718C20.3887 92.7514 20.243 92.5786 20.1418 92.3536C20.0406 92.1285 19.99 91.8685 19.99 91.5736C19.99 91.1095 20.1026 90.7483 20.3277 90.4901C20.5527 90.2301 20.8616 90.1002 21.2541 90.1002C21.645 90.1002 21.9512 90.2319 22.1728 90.4954C22.3961 90.7571 22.5078 91.1165 22.5078 91.5736ZM20.2622 91.5736C20.2622 91.9645 20.3477 92.2698 20.5187 92.4896C20.6914 92.7077 20.9348 92.8168 21.2489 92.8168C21.563 92.8168 21.8055 92.7077 21.9765 92.4896C22.1492 92.2698 22.2356 91.9645 22.2356 91.5736C22.2356 91.1811 22.1483 90.8766 21.9739 90.6602C21.8011 90.4439 21.5577 90.3357 21.2437 90.3357C20.9296 90.3357 20.6871 90.4439 20.5161 90.6602C20.3468 90.8748 20.2622 91.1793 20.2622 91.5736ZM26.8497 93V91.1339C26.8497 90.8565 26.7956 90.6541 26.6874 90.5268C26.5792 90.3994 26.4135 90.3357 26.1902 90.3357C25.8988 90.3357 25.6833 90.416 25.5437 90.5765C25.4041 90.737 25.3343 90.9891 25.3343 91.3329V93H25.07V91.0554C25.07 90.5756 24.8502 90.3357 24.4105 90.3357C24.1121 90.3357 23.8949 90.4229 23.7588 90.5974C23.6227 90.7702 23.5546 91.0476 23.5546 91.4297V93H23.2955V90.1551H23.5102L23.5651 90.5451H23.5808C23.6593 90.4037 23.771 90.2947 23.9158 90.2179C24.0606 90.1394 24.2203 90.1002 24.3948 90.1002C24.8432 90.1002 25.1311 90.2685 25.2584 90.6053H25.2689C25.3614 90.443 25.4853 90.3183 25.6405 90.231C25.7976 90.1438 25.9755 90.1002 26.1745 90.1002C26.485 90.1002 26.718 90.183 26.8732 90.3488C27.0285 90.5145 27.1062 90.778 27.1062 91.1392V93H26.8497ZM31.5816 93V91.1339C31.5816 90.8565 31.5275 90.6541 31.4193 90.5268C31.3111 90.3994 31.1454 90.3357 30.922 90.3357C30.6307 90.3357 30.4152 90.416 30.2756 90.5765C30.136 90.737 30.0662 90.9891 30.0662 91.3329V93H29.8019V91.0554C29.8019 90.5756 29.582 90.3357 29.1423 90.3357C28.844 90.3357 28.6268 90.4229 28.4907 90.5974C28.3546 90.7702 28.2865 91.0476 28.2865 91.4297V93H28.0274V90.1551H28.242L28.297 90.5451H28.3127C28.3912 90.4037 28.5029 90.2947 28.6477 90.2179C28.7925 90.1394 28.9522 90.1002 29.1266 90.1002C29.5751 90.1002 29.8629 90.2685 29.9903 90.6053H30.0008C30.0933 90.443 30.2171 90.3183 30.3724 90.231C30.5295 90.1438 30.7074 90.1002 30.9063 90.1002C31.2169 90.1002 31.4498 90.183 31.6051 90.3488C31.7604 90.5145 31.838 90.778 31.838 91.1392V93H31.5816ZM33.9082 93.0523C33.4947 93.0523 33.1719 92.925 32.9399 92.6702C32.7096 92.4155 32.5944 92.0587 32.5944 91.5998C32.5944 91.1462 32.7061 90.7832 32.9294 90.5111C33.1527 90.2371 33.4537 90.1002 33.8323 90.1002C34.1673 90.1002 34.4317 90.2171 34.6254 90.4509C34.819 90.6847 34.9159 91.0022 34.9159 91.4035V91.6129H32.8666C32.8701 92.0037 32.9608 92.3021 33.1388 92.508C33.3185 92.7139 33.575 92.8168 33.9082 92.8168C34.0705 92.8168 34.2127 92.8055 34.3348 92.7828C34.4587 92.7601 34.6149 92.7112 34.8033 92.6362V92.8718C34.6428 92.9415 34.4945 92.9887 34.3584 93.0131C34.2223 93.0393 34.0723 93.0523 33.9082 93.0523ZM33.8323 90.3305C33.5584 90.3305 33.3386 90.4212 33.1728 90.6027C33.0071 90.7824 32.9102 91.0423 32.8823 91.3826H34.6411C34.6411 91.0528 34.5695 90.7955 34.4264 90.6105C34.2834 90.4238 34.0853 90.3305 33.8323 90.3305ZM37.6848 93V91.1549C37.6848 90.8687 37.6246 90.6611 37.5043 90.532C37.3839 90.4011 37.1972 90.3357 36.9442 90.3357C36.6039 90.3357 36.3544 90.4221 36.1957 90.5948C36.0386 90.7658 35.9601 91.0441 35.9601 91.4297V93H35.701V90.1551H35.9209L35.9706 90.5451H35.9863C36.1712 90.2485 36.5001 90.1002 36.973 90.1002C37.6185 90.1002 37.9413 90.4465 37.9413 91.1392V93H37.6848ZM39.9042 90.1002C40.1101 90.1002 40.2881 90.1377 40.4381 90.2127C40.5882 90.2877 40.7225 90.416 40.8412 90.5974H40.8569C40.8464 90.3776 40.8412 90.1621 40.8412 89.951V88.9277H41.0977V93H40.9275L40.8621 92.5655H40.8412C40.6248 92.8901 40.3142 93.0523 39.9095 93.0523C39.5169 93.0523 39.2168 92.9302 39.0091 92.6859C38.8015 92.4417 38.6977 92.0857 38.6977 91.6181C38.6977 91.1261 38.8006 90.7501 39.0065 90.4901C39.2124 90.2301 39.5116 90.1002 39.9042 90.1002ZM39.9042 90.3357C39.5936 90.3357 39.3598 90.4448 39.2028 90.6629C39.0475 90.881 38.9699 91.1976 38.9699 91.6129C38.9699 92.419 39.2831 92.822 39.9095 92.822C40.2305 92.822 40.466 92.7287 40.6161 92.542C40.7661 92.3553 40.8412 92.0473 40.8412 91.6181V91.5736C40.8412 91.1339 40.767 90.8181 40.6187 90.6262C40.4721 90.4325 40.234 90.3357 39.9042 90.3357ZM43.7829 93L43.7175 92.5498H43.6965C43.5535 92.733 43.406 92.863 43.2542 92.9398C43.1042 93.0148 42.9262 93.0523 42.7203 93.0523C42.4411 93.0523 42.2239 92.9808 42.0686 92.8377C41.9133 92.6947 41.8357 92.4966 41.8357 92.2436C41.8357 91.9662 41.9509 91.7507 42.1812 91.5972C42.4132 91.4436 42.7482 91.3625 43.1862 91.3538L43.7279 91.3381V91.1496C43.7279 90.8792 43.673 90.6751 43.563 90.5372C43.4531 90.3994 43.276 90.3305 43.0318 90.3305C42.7683 90.3305 42.4952 90.4037 42.2126 90.5503L42.1157 90.3252C42.4281 90.1787 42.7369 90.1054 43.0422 90.1054C43.3545 90.1054 43.5875 90.1865 43.741 90.3488C43.8963 90.5111 43.9739 90.764 43.9739 91.1078V93H43.7829ZM42.736 92.8168C43.0396 92.8168 43.2786 92.7304 43.4531 92.5577C43.6294 92.3832 43.7175 92.1416 43.7175 91.8327V91.5527L43.2202 91.5736C42.8206 91.5928 42.5354 91.6556 42.3644 91.7621C42.1951 91.8668 42.1105 92.0308 42.1105 92.2541C42.1105 92.4321 42.1646 92.5708 42.2728 92.6702C42.3827 92.7679 42.5371 92.8168 42.736 92.8168ZM45.6489 92.822C45.813 92.822 45.956 92.8081 46.0782 92.7802V92.9895C45.9525 93.0314 45.8077 93.0523 45.6437 93.0523C45.3925 93.0523 45.2066 92.9852 45.0863 92.8508C44.9676 92.7165 44.9083 92.5054 44.9083 92.2175V90.3802H44.4869V90.2284L44.9083 90.1106L45.0391 89.4668H45.1726V90.1551H46.0075V90.3802H45.1726V92.1808C45.1726 92.3989 45.211 92.5603 45.2878 92.665C45.3645 92.7697 45.4849 92.822 45.6489 92.822ZM46.9523 93H46.6932V90.1551H46.9523V93ZM46.6566 89.3647C46.6566 89.1972 46.7115 89.1135 46.8214 89.1135C46.8755 89.1135 46.9174 89.1353 46.9471 89.1789C46.9785 89.2225 46.9942 89.2845 46.9942 89.3647C46.9942 89.4432 46.9785 89.5052 46.9471 89.5505C46.9174 89.5959 46.8755 89.6186 46.8214 89.6186C46.7115 89.6186 46.6566 89.534 46.6566 89.3647ZM50.2604 91.5736C50.2604 92.0377 50.1479 92.4007 49.9228 92.6624C49.6977 92.9224 49.3872 93.0523 48.9911 93.0523C48.7416 93.0523 48.5217 92.9921 48.3316 92.8718C48.1414 92.7514 47.9957 92.5786 47.8945 92.3536C47.7933 92.1285 47.7427 91.8685 47.7427 91.5736C47.7427 91.1095 47.8552 90.7483 48.0803 90.4901C48.3054 90.2301 48.6142 90.1002 49.0068 90.1002C49.3976 90.1002 49.7038 90.2319 49.9254 90.4954C50.1488 90.7571 50.2604 91.1165 50.2604 91.5736ZM48.0149 91.5736C48.0149 91.9645 48.1004 92.2698 48.2714 92.4896C48.4441 92.7077 48.6875 92.8168 49.0016 92.8168C49.3156 92.8168 49.5582 92.7077 49.7291 92.4896C49.9019 92.2698 49.9882 91.9645 49.9882 91.5736C49.9882 91.1811 49.901 90.8766 49.7265 90.6602C49.5538 90.4439 49.3104 90.3357 48.9963 90.3357C48.6823 90.3357 48.4397 90.4439 48.2688 90.6602C48.0995 90.8748 48.0149 91.1793 48.0149 91.5736ZM53.032 93V91.1549C53.032 90.8687 52.9718 90.6611 52.8514 90.532C52.7311 90.4011 52.5444 90.3357 52.2914 90.3357C51.9511 90.3357 51.7016 90.4221 51.5429 90.5948C51.3858 90.7658 51.3073 91.0441 51.3073 91.4297V93H51.0482V90.1551H51.268L51.3178 90.5451H51.3335C51.5184 90.2485 51.8473 90.1002 52.3202 90.1002C52.9657 90.1002 53.2885 90.4465 53.2885 91.1392V93H53.032ZM55.9737 92.2593C55.9737 92.5141 55.8769 92.7104 55.6832 92.8482C55.4896 92.9843 55.2148 93.0523 54.8588 93.0523C54.4785 93.0523 54.1766 92.9939 53.9533 92.877V92.597C54.2394 92.74 54.5413 92.8116 54.8588 92.8116C55.1397 92.8116 55.3526 92.7653 55.4974 92.6729C55.644 92.5786 55.7173 92.4539 55.7173 92.2986C55.7173 92.1555 55.6588 92.0351 55.5419 91.9374C55.4268 91.8397 55.2366 91.7437 54.9714 91.6495C54.687 91.5466 54.4872 91.4585 54.372 91.3852C54.2569 91.3102 54.1696 91.2264 54.1103 91.1339C54.0527 91.0397 54.0239 90.9254 54.0239 90.7911C54.0239 90.5782 54.1129 90.4099 54.2909 90.286C54.4706 90.1621 54.721 90.1002 55.042 90.1002C55.3491 90.1002 55.6405 90.1577 55.9162 90.2729L55.8193 90.5084C55.5402 90.3933 55.2811 90.3357 55.042 90.3357C54.81 90.3357 54.6259 90.3741 54.4898 90.4509C54.3537 90.5276 54.2857 90.6341 54.2857 90.7702C54.2857 90.9185 54.338 91.0371 54.4427 91.1261C54.5491 91.2151 54.7559 91.3145 55.063 91.4245C55.3195 91.5169 55.5061 91.6007 55.623 91.6757C55.7399 91.749 55.8272 91.8327 55.8848 91.927C55.9441 92.0212 55.9737 92.132 55.9737 92.2593Z" fill="#6D6E71"/>
<path d="M101.278 58H94.3125C92.1034 58 90.3125 59.7909 90.3125 62V69.5913C90.3125 71.8004 92.1034 73.5913 94.3125 73.5913H101.278C103.487 73.5913 105.278 71.8004 105.278 69.5913V62C105.278 59.7909 103.487 58 101.278 58Z" fill="#F93B2A"/>
<path d="M97.8605 65.8748H98.2243C98.4529 65.8713 98.6326 65.8111 98.7635 65.6942C98.8943 65.5773 98.9598 65.4194 98.9598 65.2205C98.9598 64.7738 98.7373 64.5505 98.2924 64.5505C98.083 64.5505 97.9155 64.6107 97.7899 64.7311C97.666 64.8497 97.6041 65.0076 97.6041 65.2048H97.1199C97.1199 64.9029 97.2298 64.6525 97.4496 64.4536C97.6712 64.253 97.9521 64.1527 98.2924 64.1527C98.6518 64.1527 98.9336 64.2477 99.1377 64.4379C99.3419 64.6281 99.4439 64.8924 99.4439 65.2309C99.4439 65.3967 99.3899 65.5572 99.2817 65.7125C99.1752 65.8678 99.0296 65.9838 98.8446 66.0606C99.054 66.1269 99.2154 66.2368 99.3288 66.3904C99.4439 66.5439 99.5015 66.7315 99.5015 66.953C99.5015 67.295 99.3899 67.5663 99.1665 67.767C98.9432 67.9676 98.6527 68.068 98.295 68.068C97.9373 68.068 97.6459 67.9711 97.4209 67.7775C97.1975 67.5838 97.0859 67.3282 97.0859 67.0106H97.5727C97.5727 67.2113 97.6381 67.3718 97.7689 67.4922C97.8998 67.6126 98.0752 67.6728 98.295 67.6728C98.5288 67.6728 98.7076 67.6117 98.8315 67.4896C98.9554 67.3674 99.0173 67.1921 99.0173 66.9635C99.0173 66.7419 98.9493 66.5718 98.8132 66.4532C98.6771 66.3345 98.4808 66.2735 98.2243 66.27H97.8605V65.8748Z" fill="white"/>
<path d="M101.278 83.334H94.3125C92.1034 83.334 90.3125 85.1248 90.3125 87.334V94.9253C90.3125 97.1344 92.1034 98.9253 94.3125 98.9253H101.278C103.487 98.9253 105.278 97.1344 105.278 94.9253V87.334C105.278 85.1248 103.487 83.334 101.278 83.334Z" fill="#5479F7"/>
<path d="M97.379 91.1051L97.5727 89.205H99.5251V89.6525H97.9836L97.8684 90.6916C98.0551 90.5816 98.2671 90.5267 98.5044 90.5267C98.8516 90.5267 99.1273 90.6418 99.3314 90.8721C99.5355 91.1007 99.6376 91.4104 99.6376 91.8012C99.6376 92.1938 99.5312 92.5035 99.3183 92.7304C99.1072 92.9554 98.8115 93.068 98.4311 93.068C98.0943 93.068 97.8195 92.9746 97.6067 92.7879C97.3938 92.6012 97.2726 92.343 97.2429 92.0132H97.7009C97.7306 92.2313 97.8082 92.3962 97.9338 92.5079C98.0595 92.6178 98.2252 92.6728 98.4311 92.6728C98.6562 92.6728 98.8324 92.596 98.9598 92.4425C99.0889 92.2889 99.1534 92.0769 99.1534 91.8065C99.1534 91.5517 99.0836 91.3476 98.9441 91.1941C98.8062 91.0388 98.6221 90.9611 98.3918 90.9611C98.1807 90.9611 98.015 91.0074 97.8946 91.0998L97.7663 91.2045L97.379 91.1051Z" fill="white"/>
</svg>
