<svg width="456" height="456" viewBox="0 0 456 456" fill="none" xmlns="http://www.w3.org/2000/svg">
<path d="M327.087 355.065C248.784 420.751 96.9289 423.874 59.9799 386.033C30.7468 356.084 9.63701 317.675 2.54902 273.011C-14.5183 165.352 56.1744 61.0264 153.159 20.4205C239.779 -15.829 369.715 -4.68208 422.872 60.8006C428.638 67.8996 458.945 106.776 455.767 158.149C455.347 165.901 454.005 173.575 451.769 181.01C444.036 206.311 356.37 330.486 327.087 355.065Z" fill="#CADDFF"/>
<path d="M452.011 180.338L368.057 240.368C364.549 242.873 360.298 244.12 355.993 243.905C351.688 243.69 347.582 242.026 344.342 239.184L339.088 234.569C336.05 231.903 332.246 230.269 328.221 229.902C324.196 229.535 320.159 230.454 316.689 232.526L59.9468 385.972C64.7602 390.896 69.7902 395.582 75.0369 400.032C109.97 429.684 153.748 437.185 198.017 442.77C272.559 452.171 368.943 441.608 401.998 385.394C418.829 356.756 408.057 335.761 412.391 291.702C413.448 280.919 414.594 272.779 417.386 261.561C427.735 220.09 444.301 205.716 452.011 180.338Z" fill="#99B9FF"/>
<path d="M370.15 350.456V351.684C368.953 351.636 367.752 351.61 366.548 351.607C319.311 351.607 281.019 389.817 281.019 436.971C281.019 439.648 281.151 442.297 281.393 444.913C277.013 433.132 270.093 422.46 261.126 413.653C252.159 404.846 241.364 398.121 229.506 393.953C217.649 389.786 205.02 388.279 192.514 389.539C180.009 390.799 167.935 394.795 157.147 401.245C156.599 401.572 155.962 401.721 155.326 401.67C154.69 401.62 154.084 401.373 153.595 400.964C142.42 391.602 128.3 386.482 113.721 386.507C99.6868 386.589 86.079 391.34 75.043 400.011C109.899 429.751 153.721 448.531 197.99 454.115C199.774 454.341 201.586 454.545 203.414 454.732C211.273 455.525 218.917 452.458 227.399 452.529C233.341 452.562 240 455.894 246.124 455.564C250.221 455.347 254.347 455.05 258.499 454.672C267.729 453.829 276.183 450.145 285.436 448.525C291.78 447.424 298.951 448.586 305.179 447.121C353.732 435.688 397.356 413.444 412.32 381.534C426.386 351.541 409.368 334.203 412.408 291.764L412.166 291.846C399.927 296.017 389.298 303.909 381.765 314.417C374.231 324.926 370.171 337.526 370.15 350.456Z" fill="#CADDFF"/>
<path d="M130.755 356.508C130.573 356.508 130.396 356.449 130.252 356.338C130.107 356.227 130.003 356.072 129.956 355.896C129.909 355.72 129.922 355.534 129.991 355.365C130.061 355.197 130.184 355.057 130.342 354.966L141.302 348.578C141.396 348.523 141.499 348.487 141.607 348.472C141.714 348.457 141.824 348.463 141.929 348.491C142.034 348.518 142.133 348.566 142.219 348.631C142.306 348.697 142.379 348.779 142.434 348.872C142.489 348.966 142.525 349.069 142.54 349.177C142.554 349.285 142.548 349.394 142.521 349.499C142.493 349.604 142.446 349.703 142.38 349.79C142.315 349.876 142.233 349.949 142.139 350.004L131.174 356.398C131.046 356.469 130.902 356.507 130.755 356.508Z" fill="#CADDFF"/>
<path d="M122.869 374.655C122.688 374.654 122.513 374.594 122.369 374.484C122.226 374.374 122.122 374.22 122.075 374.046C122.027 373.871 122.038 373.686 122.106 373.519C122.174 373.351 122.295 373.21 122.45 373.118L150.158 356.959C150.252 356.904 150.355 356.869 150.463 356.854C150.57 356.839 150.68 356.845 150.785 356.872C150.89 356.9 150.989 356.948 151.075 357.013C151.162 357.079 151.235 357.16 151.29 357.254C151.345 357.348 151.381 357.451 151.396 357.559C151.411 357.666 151.404 357.776 151.377 357.881C151.349 357.986 151.302 358.085 151.236 358.171C151.171 358.258 151.089 358.331 150.995 358.386L123.282 374.544C123.157 374.617 123.014 374.655 122.869 374.655Z" fill="#CADDFF"/>
<path d="M248.888 221.439C173.53 224.804 97.9416 224.81 22.5788 221.439H21.9014C28.7043 170.655 29.9103 119.277 25.4977 68.2299L21.9014 26.5667C97.5017 22.2434 173.287 22.2434 248.888 26.5667L244.184 59.3576C236.44 113.254 238.031 168.082 248.888 221.439Z" fill="white"/>
<path d="M135.392 224.81C97.6835 224.81 59.9855 223.978 22.5464 222.315H21.8635C21.7491 222.309 21.6372 222.279 21.5347 222.228C21.4322 222.177 21.3415 222.105 21.2681 222.017C21.1947 221.93 21.1402 221.827 21.1081 221.717C21.076 221.608 21.0669 221.492 21.0815 221.379C27.8607 170.648 29.0667 119.327 24.6778 68.3342L21.0815 26.671C21.0709 26.561 21.0826 26.45 21.116 26.3446C21.1494 26.2393 21.2037 26.1417 21.2757 26.0579C21.3477 25.9741 21.436 25.9057 21.5351 25.8567C21.6342 25.8078 21.7421 25.7794 21.8524 25.7733C97.4862 21.461 173.304 21.461 248.938 25.7733C249.052 25.7786 249.164 25.8085 249.265 25.8607C249.367 25.913 249.456 25.9864 249.527 26.0762C249.601 26.1638 249.655 26.266 249.687 26.3761C249.718 26.4862 249.725 26.6017 249.709 26.715L245 59.5224C237.284 113.325 238.873 168.054 249.698 221.318C249.721 221.435 249.719 221.555 249.691 221.671C249.664 221.787 249.611 221.895 249.538 221.989C249.465 222.083 249.373 222.161 249.267 222.216C249.162 222.271 249.046 222.303 248.927 222.309C211.262 223.967 173.322 224.81 135.392 224.81ZM22.8383 220.674C97.5072 223.978 173.217 223.978 247.892 220.674C237.193 167.52 235.664 112.928 243.37 59.2581L247.947 27.3539C172.958 23.1105 97.7887 23.1105 22.7997 27.3539L26.3245 68.169C30.6973 118.98 29.5283 170.116 22.8383 220.674Z" fill="black"/>
<path d="M168.788 152.895H96.2178C92.8933 152.895 90.1982 155.59 90.1982 158.914V158.942C90.1982 162.266 92.8933 164.961 96.2178 164.961H168.788C172.113 164.961 174.808 162.266 174.808 158.942V158.914C174.808 155.59 172.113 152.895 168.788 152.895Z" fill="#CADDFF"/>
<path d="M152.574 181.968H112.431C109.107 181.968 106.412 184.663 106.412 187.987V188.015C106.412 191.339 109.107 194.034 112.431 194.034H152.574C155.899 194.034 158.594 191.339 158.594 188.015V187.987C158.594 184.663 155.899 181.968 152.574 181.968Z" fill="#CADDFF"/>
<path d="M192.878 51.9883L142.21 43.7713C141.802 43.7013 141.383 43.7501 141.003 43.9119C140.622 44.0737 140.296 44.3417 140.064 44.6838C139.832 45.0259 139.703 45.4277 139.693 45.8411C139.682 46.2546 139.792 46.6622 140.007 47.0152L148.268 60.4972L80.3238 101.929C79.837 102.227 79.4881 102.705 79.3539 103.26C79.2197 103.814 79.311 104.399 79.6078 104.887L95.5185 130.887C95.8161 131.374 96.2946 131.722 96.8491 131.857C97.4036 131.991 97.9888 131.9 98.476 131.603L166.437 90.1489L174.698 103.653C174.912 104.004 175.222 104.286 175.591 104.466C175.961 104.646 176.374 104.717 176.782 104.67C177.19 104.624 177.576 104.461 177.895 104.201C178.214 103.942 178.452 103.597 178.581 103.207L194.552 54.7696C194.646 54.4768 194.677 54.1673 194.642 53.8617C194.606 53.5561 194.506 53.2617 194.347 52.9982C194.189 52.7347 193.976 52.5082 193.722 52.334C193.469 52.1598 193.181 52.0419 192.878 51.9883Z" fill="#5479F7"/>
<path d="M89.7695 322.379C88.1584 322.379 86.6133 321.739 85.4741 320.6C84.3349 319.46 83.6948 317.915 83.6948 316.304C83.6948 314.693 84.3349 313.148 85.4741 312.009C86.6133 310.87 88.1584 310.229 89.7695 310.229C89.9886 310.229 90.1986 310.317 90.3536 310.471C90.5085 310.626 90.5956 310.837 90.5956 311.056C90.5956 311.275 90.5085 311.485 90.3536 311.64C90.1986 311.795 89.9886 311.882 89.7695 311.882C88.8981 311.882 88.0462 312.14 87.3217 312.624C86.5971 313.108 86.0324 313.796 85.6989 314.602C85.3654 315.407 85.2783 316.292 85.4483 317.147C85.6183 318.002 86.0379 318.787 86.6541 319.403C87.2703 320.019 88.0552 320.439 88.9099 320.609C89.7645 320.779 90.6505 320.692 91.4556 320.358C92.2606 320.025 92.9488 319.46 93.4329 318.735C93.917 318.011 94.1754 317.159 94.1754 316.288C94.1754 316.069 94.2625 315.858 94.4174 315.703C94.5723 315.549 94.7824 315.461 95.0015 315.461C95.2206 315.461 95.4306 315.549 95.5856 315.703C95.7405 315.858 95.8276 316.069 95.8276 316.288C95.8319 317.086 95.6784 317.877 95.3759 318.616C95.0734 319.355 94.628 320.027 94.065 320.593C93.502 321.159 92.8326 321.608 92.0954 321.914C91.3583 322.221 90.5678 322.379 89.7695 322.379Z" fill="black"/>
<path d="M80.3573 432.24C80.187 432.24 80.0211 432.186 79.8837 432.086C52.6864 412.789 30.1136 387.694 13.7953 358.612C13.7421 358.517 13.7081 358.413 13.6952 358.305C13.6824 358.197 13.691 358.088 13.7204 357.983C13.7498 357.879 13.7995 357.781 13.8667 357.696C13.9339 357.61 14.0172 357.539 14.1119 357.486C14.2067 357.433 14.311 357.399 14.4189 357.386C14.5268 357.373 14.6361 357.381 14.7407 357.411C14.8452 357.44 14.943 357.49 15.0284 357.557C15.1138 357.624 15.185 357.708 15.2381 357.802C31.4382 386.664 53.8433 411.569 80.8365 430.72C80.9811 430.821 81.0896 430.965 81.1462 431.132C81.2027 431.299 81.2043 431.48 81.1507 431.648C81.0972 431.816 80.9914 431.963 80.8486 432.066C80.7058 432.17 80.5336 432.225 80.3573 432.223V432.24Z" fill="black"/>
<path d="M53.0129 433.275C52.8119 433.281 52.6159 433.212 52.4622 433.083C42.0232 424.46 32.3847 414.912 23.6641 404.555C23.5232 404.387 23.4547 404.169 23.4739 403.951C23.493 403.733 23.5981 403.531 23.766 403.39C23.934 403.249 24.151 403.18 24.3695 403.199C24.5879 403.219 24.7899 403.324 24.9308 403.492C33.5868 413.772 43.1533 423.25 53.514 431.811C53.5981 431.879 53.6677 431.964 53.7188 432.06C53.7699 432.155 53.8016 432.26 53.8119 432.369C53.8221 432.477 53.8107 432.586 53.7785 432.689C53.7463 432.793 53.694 432.889 53.6243 432.973C53.5496 433.063 53.4564 433.137 53.3511 433.19C53.2457 433.242 53.1304 433.271 53.0129 433.275Z" fill="black"/>
<path d="M339.38 280.572C337.897 280.569 336.432 280.248 335.084 279.631C333.455 278.897 332.049 277.747 331.006 276.297C329.962 274.846 329.319 273.147 329.142 271.37C328.986 269.94 328.476 268.571 327.657 267.389C326.838 266.207 325.737 265.248 324.453 264.599C323.169 263.951 321.744 263.633 320.306 263.676C318.869 263.719 317.464 264.12 316.221 264.843L293.399 278.094C293.305 278.157 293.199 278.201 293.088 278.221C292.976 278.242 292.862 278.24 292.752 278.214C292.641 278.189 292.537 278.141 292.446 278.074C292.355 278.006 292.279 277.921 292.222 277.823C292.165 277.725 292.129 277.616 292.116 277.504C292.103 277.392 292.114 277.278 292.146 277.169C292.179 277.061 292.234 276.96 292.307 276.874C292.381 276.788 292.471 276.718 292.573 276.668L315.39 263.411C316.871 262.551 318.545 262.074 320.257 262.025C321.97 261.975 323.668 262.354 325.197 263.127C326.726 263.9 328.038 265.043 329.014 266.451C329.989 267.86 330.597 269.49 330.783 271.193C330.944 272.682 331.49 274.102 332.366 275.316C333.243 276.53 334.42 277.495 335.782 278.116C337.144 278.737 338.645 278.993 340.136 278.859C341.627 278.724 343.057 278.205 344.287 277.351L402.395 237.004C402.484 236.942 402.585 236.898 402.691 236.875C402.797 236.852 402.907 236.85 403.014 236.87C403.121 236.889 403.223 236.93 403.314 236.988C403.406 237.047 403.484 237.124 403.546 237.213C403.608 237.302 403.652 237.403 403.675 237.509C403.698 237.615 403.699 237.725 403.68 237.832C403.661 237.939 403.62 238.041 403.561 238.132C403.503 238.223 403.426 238.302 403.337 238.364L345.234 278.716C343.519 279.92 341.475 280.568 339.38 280.572Z" fill="black"/>
<path d="M48.6511 101.032C48.5091 101.033 48.3693 100.997 48.2456 100.928C48.1218 100.858 48.0186 100.757 47.9461 100.635C47.8319 100.449 47.7961 100.225 47.8466 100.012C47.8972 99.7994 48.0301 99.6155 48.216 99.5005L89.4222 74.2382C89.5147 74.1814 89.6176 74.1435 89.7248 74.1264C89.8321 74.1094 89.9417 74.1137 90.0473 74.139C90.1529 74.1643 90.2524 74.2102 90.3402 74.274C90.4281 74.3378 90.5026 74.4183 90.5594 74.5108C90.6162 74.6034 90.6541 74.7063 90.6711 74.8135C90.6882 74.9208 90.684 75.0303 90.6586 75.1359C90.6333 75.2415 90.5874 75.3411 90.5236 75.429C90.4598 75.5169 90.3793 75.5913 90.2867 75.6481L49.0807 100.91C48.9512 100.989 48.8026 101.031 48.6511 101.032Z" fill="black"/>
<path d="M135.921 125.573C135.78 125.572 135.641 125.535 135.518 125.466C135.394 125.396 135.291 125.297 135.216 125.176C135.102 124.989 135.067 124.765 135.119 124.552C135.171 124.34 135.305 124.156 135.491 124.042L149.618 115.379C149.805 115.264 150.03 115.228 150.243 115.28C150.456 115.331 150.641 115.464 150.755 115.651C150.87 115.838 150.906 116.063 150.854 116.277C150.803 116.49 150.669 116.674 150.483 116.789L136.356 125.452C136.225 125.531 136.074 125.573 135.921 125.573Z" fill="black"/>
<path d="M72.1455 70.8678C71.965 70.8687 71.7892 70.8106 71.6449 70.7022C71.5006 70.5938 71.3957 70.4411 71.3464 70.2675C71.2971 70.0939 71.306 69.9089 71.3717 69.7408C71.4374 69.5728 71.5564 69.4308 71.7104 69.3367L93.3985 56.0419C93.5854 55.9273 93.8103 55.8916 94.0236 55.9427C94.2368 55.9938 94.4211 56.1276 94.5357 56.3146C94.6504 56.5015 94.6861 56.7264 94.6349 56.9396C94.5838 57.1529 94.45 57.3372 94.263 57.4518L72.5751 70.7466C72.4456 70.8254 72.297 70.8673 72.1455 70.8678Z" fill="black"/>
<path d="M76.6287 346.181C76.4467 346.182 76.2698 346.122 76.1253 346.011C75.9808 345.9 75.877 345.745 75.8299 345.569C75.7828 345.393 75.7951 345.207 75.8649 345.039C75.9346 344.87 76.0579 344.73 76.2157 344.639L98.1405 331.89C98.2343 331.83 98.3392 331.791 98.4487 331.773C98.5582 331.755 98.6703 331.759 98.7781 331.785C98.886 331.812 98.9874 331.859 99.0763 331.926C99.1653 331.992 99.24 332.076 99.2959 332.172C99.3518 332.268 99.3878 332.374 99.4017 332.484C99.4157 332.594 99.4073 332.706 99.3771 332.813C99.3469 332.92 99.2954 333.019 99.2259 333.106C99.1563 333.192 99.07 333.264 98.9721 333.316L77.0473 346.066C76.9206 346.141 76.776 346.181 76.6287 346.181Z" fill="black"/>
<path d="M130.755 423.356C130.573 423.357 130.396 423.297 130.252 423.186C130.107 423.075 130.003 422.92 129.956 422.744C129.909 422.568 129.922 422.382 129.991 422.214C130.061 422.046 130.184 421.905 130.342 421.814L141.307 415.437C141.497 415.327 141.723 415.298 141.935 415.354C142.146 415.411 142.327 415.55 142.436 415.74C142.546 415.93 142.576 416.155 142.519 416.367C142.462 416.579 142.323 416.759 142.133 416.869L131.174 423.241C131.047 423.316 130.903 423.356 130.755 423.356Z" fill="black"/>
<path d="M282.153 91.6471C284.543 91.6471 286.481 89.7066 286.481 87.3128C286.481 84.9191 284.543 82.9785 282.153 82.9785C279.762 82.9785 277.824 84.9191 277.824 87.3128C277.824 89.7066 279.762 91.6471 282.153 91.6471Z" fill="#99B9FF"/>
<path d="M404.836 424.981C404.631 424.973 404.436 424.893 404.285 424.755C404.131 424.598 404.045 424.388 404.045 424.168C404.045 423.949 404.131 423.738 404.285 423.582L406.884 420.867C406.958 420.785 407.048 420.719 407.148 420.672C407.248 420.625 407.356 420.599 407.466 420.595C407.577 420.591 407.687 420.609 407.79 420.648C407.893 420.688 407.987 420.747 408.067 420.823C408.147 420.899 408.211 420.991 408.255 421.092C408.298 421.193 408.322 421.302 408.323 421.412C408.324 421.523 408.303 421.632 408.261 421.734C408.219 421.836 408.158 421.929 408.079 422.007L405.48 424.727C405.397 424.814 405.297 424.881 405.186 424.925C405.074 424.968 404.955 424.987 404.836 424.981Z" fill="black"/>
<path d="M395.737 434.492C395.575 434.492 395.416 434.445 395.281 434.355C395.146 434.266 395.04 434.139 394.977 433.99C394.914 433.841 394.895 433.676 394.925 433.517C394.954 433.357 395.03 433.21 395.142 433.094L397.741 430.378C397.814 430.291 397.903 430.219 398.005 430.168C398.106 430.116 398.217 430.086 398.33 430.08C398.444 430.073 398.557 430.09 398.664 430.129C398.771 430.168 398.868 430.229 398.95 430.308C399.032 430.386 399.097 430.481 399.141 430.586C399.185 430.691 399.206 430.804 399.205 430.917C399.203 431.031 399.178 431.143 399.13 431.246C399.083 431.35 399.016 431.442 398.931 431.518L396.331 434.239C396.254 434.319 396.162 434.382 396.06 434.426C395.958 434.469 395.848 434.492 395.737 434.492Z" fill="black"/>
<path d="M398.286 425.125C398.179 425.125 398.073 425.104 397.974 425.064C397.874 425.023 397.784 424.963 397.708 424.888L395.07 422.288C394.922 422.133 394.841 421.927 394.842 421.712C394.844 421.498 394.929 421.293 395.079 421.14C395.229 420.987 395.432 420.899 395.646 420.893C395.861 420.887 396.069 420.965 396.227 421.11L398.865 423.715C398.981 423.827 399.061 423.972 399.096 424.13C399.13 424.288 399.117 424.452 399.058 424.603C398.999 424.753 398.897 424.883 398.765 424.976C398.632 425.069 398.476 425.121 398.314 425.125H398.286Z" fill="black"/>
<path d="M407.545 434.227C407.438 434.228 407.331 434.207 407.232 434.167C407.133 434.126 407.043 434.066 406.966 433.991L404.328 431.391C404.247 431.316 404.181 431.226 404.135 431.125C404.089 431.024 404.064 430.915 404.061 430.804C404.058 430.693 404.077 430.583 404.118 430.48C404.159 430.377 404.219 430.283 404.297 430.204C404.375 430.124 404.468 430.062 404.57 430.019C404.672 429.977 404.782 429.955 404.893 429.956C405.004 429.957 405.113 429.98 405.215 430.024C405.317 430.068 405.409 430.132 405.485 430.213L408.129 432.818C408.244 432.933 408.323 433.08 408.354 433.24C408.386 433.4 408.37 433.566 408.307 433.717C408.245 433.868 408.139 433.997 408.003 434.088C407.868 434.179 407.708 434.227 407.545 434.227Z" fill="black"/>
<path d="M427.922 406.993C427.204 406.993 426.492 406.859 425.823 406.597C425.087 406.315 424.414 405.887 423.846 405.339C423.279 404.791 422.827 404.134 422.519 403.408C421.895 401.959 421.86 400.324 422.423 398.85C422.985 397.377 424.101 396.18 425.531 395.516C426.232 395.198 426.989 395.024 427.758 395.004C428.528 394.984 429.293 395.119 430.009 395.4C430.746 395.683 431.418 396.111 431.985 396.659C432.553 397.207 433.005 397.863 433.313 398.589C433.938 400.038 433.972 401.673 433.41 403.147C432.847 404.621 431.732 405.817 430.301 406.481C429.553 406.819 428.742 406.994 427.922 406.993ZM427.922 396.656C427.336 396.656 426.758 396.782 426.225 397.025C425.191 397.512 424.387 398.382 423.982 399.45C423.577 400.519 423.604 401.703 424.055 402.753C424.275 403.277 424.598 403.751 425.005 404.147C425.412 404.544 425.894 404.854 426.424 405.06C426.936 405.261 427.483 405.356 428.032 405.341C428.582 405.326 429.123 405.2 429.623 404.972C430.657 404.485 431.462 403.616 431.866 402.547C432.271 401.478 432.245 400.294 431.793 399.245C431.476 398.482 430.941 397.83 430.256 397.369C429.57 396.909 428.764 396.661 427.938 396.656H427.922Z" fill="black"/>
<path d="M303.901 58.895C303.682 58.8942 303.473 58.8071 303.317 58.6526L300.916 56.2459C300.835 56.1703 300.77 56.0791 300.725 55.9778C300.68 55.8764 300.655 55.767 300.653 55.6561C300.651 55.5452 300.672 55.435 300.713 55.3321C300.755 55.2293 300.817 55.1358 300.895 55.0574C300.974 54.9789 301.067 54.9171 301.17 54.8756C301.273 54.834 301.383 54.8136 301.494 54.8156C301.605 54.8175 301.714 54.8418 301.816 54.8869C301.917 54.9321 302.008 54.9972 302.084 55.0784L304.485 57.4851C304.562 57.5614 304.624 57.6523 304.666 57.7525C304.707 57.8527 304.729 57.9603 304.729 58.0689C304.729 58.1775 304.707 58.285 304.666 58.3852C304.624 58.4854 304.562 58.5763 304.485 58.6526C304.33 58.8071 304.12 58.8942 303.901 58.895Z" fill="black"/>
<path d="M312.3 67.2996C312.192 67.3004 312.084 67.2794 311.984 67.2378C311.883 67.1962 311.792 67.1348 311.716 67.0573L309.315 64.6561C309.234 64.5805 309.169 64.4892 309.124 64.3879C309.079 64.2866 309.054 64.1772 309.052 64.0663C309.05 63.9553 309.071 63.8452 309.112 63.7423C309.154 63.6394 309.216 63.546 309.294 63.4675C309.373 63.3891 309.466 63.3273 309.569 63.2857C309.672 63.2442 309.782 63.2238 309.893 63.2257C310.004 63.2277 310.113 63.252 310.215 63.2971C310.316 63.3423 310.407 63.4074 310.483 63.4885L312.884 65.8897C312.961 65.9661 313.023 66.057 313.064 66.1572C313.106 66.2574 313.128 66.3649 313.128 66.4735C313.128 66.5821 313.106 66.6896 313.064 66.7899C313.023 66.8901 312.961 66.981 312.884 67.0573C312.808 67.1348 312.717 67.1962 312.617 67.2378C312.516 67.2794 312.409 67.3004 312.3 67.2996Z" fill="black"/>
<path d="M301.5 67.2996C301.392 67.3001 301.284 67.279 301.184 67.2373C301.084 67.1957 300.993 67.1345 300.917 67.0573C300.763 66.9017 300.677 66.692 300.677 66.4735C300.677 66.255 300.763 66.0453 300.917 65.8897L303.318 63.4885C303.393 63.4074 303.485 63.3423 303.586 63.2971C303.687 63.252 303.797 63.2277 303.908 63.2257C304.019 63.2238 304.129 63.2442 304.232 63.2857C304.334 63.3273 304.428 63.3891 304.506 63.4675C304.585 63.546 304.647 63.6394 304.688 63.7423C304.73 63.8452 304.75 63.9553 304.748 64.0663C304.746 64.1772 304.722 64.2866 304.677 64.3879C304.632 64.4892 304.567 64.5805 304.485 64.6561L302.084 67.0573C302.009 67.1353 301.918 67.197 301.817 67.2387C301.717 67.2803 301.609 67.3011 301.5 67.2996Z" fill="black"/>
<path d="M309.899 58.8948C309.736 58.8947 309.576 58.8461 309.441 58.7554C309.305 58.6646 309.199 58.5356 309.137 58.3848C309.074 58.2339 309.058 58.0679 309.09 57.9077C309.121 57.7476 309.2 57.6005 309.315 57.4849L311.717 55.0782C311.872 54.9248 312.082 54.8389 312.3 54.8389C312.519 54.8389 312.729 54.9248 312.884 55.0782C312.961 55.1545 313.023 55.2454 313.065 55.3457C313.107 55.4459 313.128 55.5534 313.128 55.662C313.128 55.7706 313.107 55.8781 313.065 55.9783C313.023 56.0785 312.961 56.1695 312.884 56.2458L310.483 58.6525C310.406 58.7295 310.316 58.7905 310.215 58.8321C310.115 58.8737 310.008 58.895 309.899 58.8948Z" fill="black"/>
<path d="M325.485 330.447C324.943 330.447 324.407 330.344 323.904 330.144C323.351 329.931 322.846 329.608 322.42 329.196C321.994 328.783 321.656 328.289 321.426 327.742C320.956 326.653 320.93 325.423 321.354 324.315C321.778 323.207 322.618 322.309 323.695 321.811C324.222 321.571 324.792 321.439 325.371 321.424C325.95 321.409 326.526 321.511 327.065 321.723C327.618 321.937 328.122 322.26 328.547 322.673C328.973 323.085 329.312 323.579 329.544 324.124C330.015 325.213 330.042 326.444 329.618 327.552C329.193 328.66 328.353 329.559 327.275 330.056C326.713 330.312 326.102 330.445 325.485 330.447ZM324.383 323.326C323.7 323.646 323.17 324.22 322.903 324.925C322.637 325.631 322.656 326.412 322.957 327.104C323.102 327.448 323.315 327.759 323.582 328.019C323.85 328.279 324.167 328.483 324.515 328.618C324.85 328.748 325.208 328.811 325.567 328.801C325.927 328.792 326.281 328.711 326.608 328.563C327.292 328.245 327.823 327.672 328.09 326.967C328.356 326.262 328.337 325.481 328.035 324.79C327.89 324.446 327.677 324.134 327.409 323.873C327.141 323.612 326.824 323.407 326.476 323.27C326.141 323.14 325.783 323.078 325.424 323.087C325.065 323.097 324.711 323.178 324.383 323.326Z" fill="black"/>
<path d="M412.622 72.4153C425.996 72.4153 436.838 61.5907 436.838 48.2379C436.838 34.8851 425.996 24.0605 412.622 24.0605C399.248 24.0605 388.406 34.8851 388.406 48.2379C388.406 61.5907 399.248 72.4153 412.622 72.4153Z" fill="white"/>
<path d="M412.622 73.2413C407.679 73.2337 402.848 71.7608 398.741 69.0087C394.635 66.2567 391.436 62.349 389.549 57.7795C387.663 53.2101 387.173 48.184 388.142 43.3363C389.111 38.4886 391.496 34.0371 394.994 30.5441C398.493 27.0512 402.948 24.6737 407.797 23.712C412.646 22.7504 417.671 23.2478 422.238 25.1413C426.804 27.0349 430.707 30.2397 433.453 34.3507C436.199 38.4616 437.664 43.2942 437.664 48.2378C437.652 54.8722 435.009 61.231 430.314 65.9187C425.619 70.6063 419.257 73.2398 412.622 73.2413ZM412.622 24.8866C408.005 24.8942 403.494 26.2702 399.659 28.8407C395.824 31.4112 392.837 35.0608 391.076 39.3284C389.314 43.5959 388.857 48.2899 389.763 52.817C390.668 57.3442 392.895 61.5014 396.162 64.7632C399.43 68.0251 403.591 70.2453 408.119 71.1432C412.648 72.0411 417.341 71.5764 421.606 69.8079C425.87 68.0393 429.515 65.0463 432.079 61.2071C434.643 57.3678 436.012 52.8546 436.012 48.2378C436 42.0416 433.531 36.103 429.146 31.7253C424.761 27.3475 418.818 24.888 412.622 24.8866Z" fill="black"/>
<path d="M378.3 49.0586C378.081 49.0586 377.871 48.9715 377.716 48.8166C377.561 48.6617 377.474 48.4516 377.474 48.2325C377.457 42.2505 378.978 36.3647 381.891 31.1397C384.803 25.9146 389.01 21.5256 394.106 18.3935C394.292 18.281 394.515 18.2465 394.727 18.2974C394.938 18.3483 395.121 18.4805 395.236 18.6654C395.35 18.8503 395.387 19.0729 395.339 19.285C395.29 19.497 395.16 19.6813 394.976 19.7979C390.12 22.7826 386.111 26.965 383.336 31.9442C380.56 36.9233 379.111 42.532 379.126 48.2325C379.126 48.4516 379.039 48.6617 378.884 48.8166C378.729 48.9715 378.519 49.0586 378.3 49.0586Z" fill="black"/>
<path d="M412.622 83.3365C403.51 83.3564 394.749 79.8217 388.202 73.4838C388.052 73.3303 387.968 73.1242 387.967 72.9094C387.966 72.6946 388.049 72.4879 388.198 72.3331C388.347 72.1784 388.55 72.0877 388.765 72.0805C388.98 72.0732 389.189 72.1499 389.348 72.2942C393.223 76.0288 397.939 78.7761 403.099 80.3041C408.259 81.8322 413.711 82.0963 418.995 81.0739C424.278 80.0516 429.238 77.7728 433.456 74.4302C437.673 71.0876 441.025 66.7792 443.227 61.8688C443.267 61.7633 443.328 61.6671 443.406 61.5861C443.485 61.5052 443.579 61.4411 443.683 61.3979C443.787 61.3547 443.899 61.3333 444.012 61.3351C444.125 61.3368 444.236 61.3616 444.339 61.4079C444.441 61.4542 444.534 61.5211 444.61 61.6044C444.686 61.6877 444.744 61.7858 444.78 61.8924C444.817 61.999 444.832 62.1121 444.823 62.2245C444.814 62.337 444.783 62.4464 444.73 62.5462C441.951 68.7373 437.442 73.9934 431.746 77.6819C426.049 81.3704 419.408 83.334 412.622 83.3365Z" fill="black"/>
<path d="M444.852 37.2345C444.681 37.2348 444.515 37.182 444.375 37.0833C444.236 36.9846 444.131 36.8449 444.075 36.6838C442.409 32.1876 439.801 28.0997 436.425 24.6942C436.28 24.537 436.202 24.3294 436.206 24.1154C436.211 23.9013 436.299 23.6975 436.451 23.5468C436.603 23.3962 436.808 23.3104 437.022 23.3077C437.236 23.305 437.443 23.3854 437.598 23.5322C441.141 27.1037 443.877 31.393 445.623 36.111C445.699 36.3162 445.691 36.5435 445.6 36.7428C445.509 36.9422 445.343 37.0972 445.138 37.1739C445.046 37.2097 444.95 37.2301 444.852 37.2345Z" fill="black"/>
<path d="M406.366 49.4986L412.039 56.5095L419.87 38.9795L406.366 49.4986Z" fill="white"/>
<path d="M412.038 57.3193C411.915 57.3193 411.794 57.2922 411.682 57.2398C411.571 57.1875 411.473 57.1112 411.394 57.0164L405.721 50C405.645 49.9169 405.587 49.8189 405.55 49.7122C405.513 49.6055 405.498 49.4924 405.506 49.3798C405.515 49.2672 405.546 49.1575 405.598 49.0575C405.651 48.9575 405.723 48.8693 405.811 48.7984C405.899 48.7275 406.001 48.6753 406.109 48.6452C406.218 48.615 406.332 48.6075 406.444 48.6231C406.556 48.6387 406.663 48.677 406.76 48.7358C406.856 48.7945 406.94 48.8724 407.005 48.9647L411.835 54.9291L419.11 38.6438C419.148 38.5362 419.208 38.4377 419.286 38.3544C419.364 38.2711 419.458 38.2048 419.563 38.1598C419.668 38.1148 419.781 38.092 419.895 38.0928C420.009 38.0936 420.122 38.1181 420.226 38.1647C420.33 38.2112 420.423 38.2789 420.5 38.3633C420.577 38.4477 420.635 38.5472 420.672 38.6553C420.708 38.7635 420.722 38.878 420.712 38.9916C420.702 39.1053 420.668 39.2157 420.613 39.3157L412.782 56.8512C412.722 56.9791 412.632 57.09 412.518 57.1737C412.405 57.2574 412.272 57.3113 412.132 57.3304L412.038 57.3193Z" fill="black"/>
<path d="M59.4896 170.424C61.6005 170.424 63.3116 168.715 63.3116 166.608C63.3116 164.5 61.6005 162.791 59.4896 162.791C57.3787 162.791 55.6675 164.5 55.6675 166.608C55.6675 168.715 57.3787 170.424 59.4896 170.424Z" fill="#99B9FF"/>
<path d="M412.622 140.685C425.996 140.685 436.838 129.86 436.838 116.507C436.838 103.155 425.996 92.3301 412.622 92.3301C399.248 92.3301 388.406 103.155 388.406 116.507C388.406 129.86 399.248 140.685 412.622 140.685Z" fill="white"/>
<path d="M412.622 141.511C407.677 141.505 402.845 140.032 398.737 137.28C394.628 134.528 391.428 130.619 389.54 126.048C387.653 121.478 387.162 116.45 388.131 111.601C389.101 106.752 391.486 102.299 394.985 98.8045C398.485 95.3105 402.941 92.9323 407.792 91.9706C412.643 91.009 417.67 91.5069 422.237 93.4016C426.805 95.2963 430.709 98.5026 433.455 102.615C436.201 106.728 437.666 111.562 437.664 116.508C437.651 123.142 435.008 129.5 430.313 134.187C425.618 138.874 419.256 141.508 412.622 141.511ZM412.622 93.1509C408.004 93.1574 403.492 94.5328 399.655 97.1032C395.818 99.6737 392.83 103.324 391.067 107.592C389.304 111.861 388.847 116.556 389.752 121.085C390.656 125.613 392.884 129.772 396.151 133.035C399.419 136.298 403.581 138.519 408.111 139.418C412.641 140.317 417.335 139.852 421.601 138.083C425.867 136.314 429.513 133.321 432.078 129.481C434.643 125.64 436.012 121.126 436.012 116.508C436.001 110.311 433.532 104.372 429.147 99.9931C424.762 95.6144 418.819 93.1538 412.622 93.1509Z" fill="black"/>
<path d="M423.009 117.78H401.486C401.267 117.78 401.057 117.693 400.902 117.538C400.747 117.383 400.66 117.173 400.66 116.954C400.66 116.735 400.747 116.525 400.902 116.37C401.057 116.215 401.267 116.128 401.486 116.128H423.02C423.239 116.128 423.449 116.215 423.604 116.37C423.759 116.525 423.846 116.735 423.846 116.954C423.846 117.173 423.759 117.383 423.604 117.538C423.449 117.693 423.239 117.78 423.02 117.78H423.009Z" fill="#99B9FF"/>
<path d="M412.623 208.948C425.997 208.948 436.839 198.124 436.839 184.771C436.839 171.418 425.997 160.594 412.623 160.594C399.249 160.594 388.407 171.418 388.407 184.771C388.407 198.124 399.249 208.948 412.623 208.948Z" fill="white"/>
<path d="M412.623 209.774C407.679 209.767 402.849 208.294 398.742 205.542C394.635 202.79 391.437 198.882 389.55 194.313C387.663 189.743 387.174 184.717 388.143 179.87C389.112 175.022 391.496 170.57 394.995 167.077C398.493 163.584 402.948 161.207 407.797 160.245C412.646 159.284 417.672 159.781 422.238 161.675C426.805 163.568 430.708 166.773 433.453 170.884C436.199 174.995 437.665 179.827 437.665 184.771C437.653 191.405 435.01 197.764 430.315 202.452C425.62 207.14 419.257 209.773 412.623 209.774ZM412.623 161.42C408.006 161.427 403.495 162.803 399.66 165.374C395.825 167.944 392.838 171.594 391.076 175.862C389.315 180.129 388.858 184.823 389.763 189.35C390.669 193.877 392.896 198.035 396.163 201.296C399.43 204.558 403.591 206.778 408.12 207.676C412.648 208.574 417.342 208.11 421.606 206.341C425.871 204.573 429.515 201.58 432.08 197.74C434.644 193.901 436.012 189.388 436.012 184.771C436.004 178.573 433.536 172.632 429.15 168.251C424.765 163.871 418.821 161.41 412.623 161.409V161.42Z" fill="black"/>
<path d="M423.01 186.743H401.487C401.268 186.743 401.058 186.656 400.903 186.501C400.748 186.346 400.661 186.136 400.661 185.917C400.661 185.698 400.748 185.488 400.903 185.333C401.058 185.178 401.268 185.091 401.487 185.091H423.021C423.24 185.091 423.45 185.178 423.605 185.333C423.76 185.488 423.847 185.698 423.847 185.917C423.847 186.136 423.76 186.346 423.605 186.501C423.45 186.656 423.24 186.743 423.021 186.743H423.01Z" fill="#99B9FF"/>
<path d="M257.911 89.5561C259.411 79.7853 252.926 70.6819 243.426 69.2231C233.925 67.7643 225.008 74.5025 223.507 84.2733C222.007 94.044 228.492 103.147 237.992 104.606C247.492 106.065 256.41 99.3269 257.911 89.5561Z" fill="white"/>
<path d="M240.621 106.215C238.574 106.212 236.541 105.866 234.607 105.19C232.241 104.368 230.064 103.075 228.209 101.391C226.354 99.7061 224.859 97.664 223.813 95.3871C219.346 85.8484 223.301 74.2829 232.625 69.6071C235.377 68.2201 238.434 67.5485 241.514 67.6544C244.594 67.7603 247.598 68.6402 250.248 70.2129C250.344 70.2672 250.427 70.34 250.494 70.4269C250.561 70.5138 250.61 70.6132 250.638 70.7193C250.666 70.8253 250.673 70.9359 250.658 71.0445C250.642 71.1532 250.606 71.2577 250.55 71.3521C250.494 71.4464 250.42 71.5287 250.332 71.594C250.244 71.6594 250.143 71.7066 250.037 71.7328C249.93 71.7591 249.82 71.7638 249.711 71.7468C249.603 71.7298 249.499 71.6914 249.406 71.6338C246.99 70.1983 244.252 69.3952 241.444 69.299C238.636 69.2027 235.849 69.8163 233.341 71.0831C224.804 75.3623 221.191 85.953 225.283 94.6877C226.241 96.7687 227.61 98.6341 229.308 100.171C231.006 101.709 232.998 102.886 235.164 103.632C237.278 104.369 239.52 104.671 241.754 104.52C243.989 104.37 246.17 103.77 248.167 102.756C256.703 98.4823 260.316 87.8861 256.224 79.1569C256.131 78.9583 256.121 78.7309 256.196 78.5248C256.271 78.3188 256.424 78.1509 256.623 78.0582C256.822 77.9654 257.049 77.9554 257.255 78.0303C257.461 78.1052 257.629 78.2588 257.722 78.4575C262.188 87.9962 258.234 99.5617 248.91 104.237C246.339 105.534 243.501 106.211 240.621 106.215Z" fill="black"/>
<path d="M244.031 97.1049L242.985 94.8745C241.619 95.5144 240.126 95.8364 238.617 95.8162L238.017 92.7266C239.498 92.8029 240.975 92.5016 242.307 91.8509C243.613 91.201 244.268 90.2317 243.827 89.2955C243.387 88.3592 242.412 88.194 240.44 88.4749C237.593 88.8549 235.368 88.5245 234.3 86.2719C233.336 84.2067 233.997 81.866 236.222 80.1532L235.181 77.9503L237.428 76.8213L238.392 78.8866C239.544 78.3309 240.802 78.0268 242.082 77.9944L242.66 80.9794C241.384 80.9815 240.126 81.2753 238.981 81.8385C237.488 82.582 237.329 83.4907 237.626 84.1406C237.984 84.9116 239.019 85.0052 241.321 84.7794C244.51 84.3994 246.218 85.1374 247.203 87.2467C248.189 89.3561 247.572 91.8454 245.155 93.6353L246.256 96.0255L244.031 97.1049Z" fill="#5479F7"/>
<path d="M89.4019 231.445C93.9982 218.775 87.7364 204.881 75.4157 200.411C63.095 195.941 49.381 202.589 44.7847 215.258C40.1884 227.928 46.4503 241.822 58.771 246.291C71.0917 250.761 84.8056 244.114 89.4019 231.445Z" fill="white"/>
<path d="M66.6715 249.317C62.2305 249.318 57.8728 248.111 54.065 245.826C51.1684 244.093 48.6512 241.794 46.6639 239.066C44.6767 236.338 43.2603 233.236 42.4995 229.948C39.1951 216.13 47.5609 201.938 61.1475 198.314C65.1633 197.224 69.389 197.167 73.4328 198.147C77.4765 199.127 81.2072 201.113 84.2785 203.92C84.4189 204.071 84.4976 204.27 84.4991 204.476C84.5007 204.682 84.4248 204.882 84.2867 205.035C84.1486 205.188 83.9581 205.285 83.7528 205.304C83.5474 205.324 83.342 205.267 83.177 205.143C80.3102 202.525 76.8294 200.673 73.0567 199.757C69.284 198.842 65.3415 198.893 61.5937 199.905C48.8661 203.303 41.0292 216.609 44.1243 229.563C44.8343 232.643 46.1593 235.548 48.0199 238.103C49.8806 240.658 52.2384 242.811 54.9517 244.432C57.6054 246.02 60.5522 247.055 63.6155 247.476C66.6788 247.897 69.7955 247.696 72.779 246.883C85.5121 243.485 93.3492 230.179 90.2485 217.226C90.2236 217.12 90.2196 217.011 90.237 216.904C90.2543 216.797 90.2926 216.694 90.3496 216.602C90.4067 216.509 90.4813 216.429 90.5694 216.366C90.6574 216.302 90.757 216.257 90.8626 216.232C90.9682 216.207 91.0777 216.203 91.1848 216.22C91.2919 216.238 91.3944 216.276 91.4868 216.333C91.5791 216.39 91.6593 216.465 91.7227 216.553C91.7862 216.641 91.8317 216.74 91.8566 216.846C95.1611 230.659 86.7953 244.851 73.2086 248.48C71.0753 249.043 68.8777 249.324 66.6715 249.317Z" fill="black"/>
<path d="M68.7149 237.884L67.9329 234.618C65.9306 235.094 63.8467 235.113 61.8362 234.673L61.8858 230.383C63.8442 230.885 65.8973 230.885 67.8557 230.383C69.7833 229.871 70.9178 228.764 70.6094 227.387C70.301 226.01 69.0177 225.548 66.3136 225.355C62.3979 225.085 59.523 224.022 58.7244 220.69C58.003 217.667 59.5286 214.737 62.9707 213.051L62.1941 209.785L65.4985 208.904L66.22 211.928C67.9117 211.502 69.6747 211.442 71.3914 211.752L71.3419 215.899C69.6386 215.544 67.8763 215.587 66.1925 216.025C63.9895 216.615 63.5214 217.766 63.7472 218.729C64.0226 219.831 65.3994 220.266 68.511 220.602C72.8784 220.971 74.9492 222.425 75.6706 225.52C76.3921 228.615 74.8997 231.76 71.1822 233.484L72.0193 236.986L68.7149 237.884Z" fill="#5479F7"/>
<path d="M116.298 287.79C121.709 280.006 119.955 269.427 112.38 264.162C104.805 258.897 94.2782 260.939 88.8673 268.723C83.4563 276.507 85.2103 287.086 92.785 292.351C100.36 297.616 110.887 295.575 116.298 287.79Z" fill="white"/>
<path d="M102.287 294.192H102.205C99.8402 294.19 97.5 293.712 95.3238 292.787C93.1476 291.861 91.18 290.508 89.5379 288.806C87.8606 287.07 86.5511 285.013 85.688 282.759C84.8249 280.505 84.426 278.1 84.5152 275.687C84.8181 265.576 93.1894 257.381 103.191 257.381H103.268C106.24 257.385 109.163 258.137 111.766 259.57C114.37 261.002 116.571 263.068 118.165 265.576C118.276 265.76 118.31 265.981 118.26 266.19C118.21 266.399 118.081 266.581 117.9 266.697C117.718 266.812 117.499 266.852 117.288 266.809C117.078 266.765 116.892 266.641 116.772 266.463C115.327 264.188 113.331 262.314 110.969 261.016C108.608 259.717 105.957 259.035 103.262 259.033H103.191C94.0705 259.033 86.4427 266.512 86.1674 275.737C86.0869 277.928 86.4493 280.113 87.2328 282.161C88.0163 284.208 89.205 286.077 90.7275 287.655C92.2176 289.2 94.0039 290.429 95.9797 291.269C97.9554 292.108 100.08 292.54 102.227 292.54H102.298C111.419 292.54 119.046 285.061 119.322 275.836C119.323 275.727 119.346 275.62 119.39 275.52C119.434 275.42 119.497 275.33 119.576 275.255C119.655 275.18 119.748 275.122 119.85 275.083C119.952 275.045 120.061 275.028 120.17 275.032C120.389 275.039 120.597 275.133 120.748 275.293C120.899 275.453 120.98 275.666 120.974 275.886C120.66 285.997 112.289 294.192 102.287 294.192Z" fill="black"/>
<path d="M101.126 285.93L101.197 283.568C99.7461 283.517 98.3251 283.14 97.0391 282.466L97.8652 279.558C99.1056 280.257 100.501 280.636 101.924 280.66C103.329 280.66 104.303 280.109 104.336 279.123C104.369 278.137 103.593 277.576 101.786 276.92C99.176 276.012 97.4136 274.761 97.4852 272.349C97.5513 270.146 99.1374 268.45 101.781 267.943L101.852 265.575H104.265L104.204 267.778C105.432 267.803 106.641 268.088 107.751 268.615L106.952 271.424C105.859 270.871 104.653 270.575 103.428 270.559C101.831 270.559 101.291 271.248 101.269 271.947C101.269 272.768 102.089 273.297 104.16 274.101C107.062 275.158 108.203 276.529 108.136 278.771C108.07 281.012 106.484 282.868 103.615 283.353L103.543 285.892L101.126 285.93Z" fill="#5479F7"/>
<path d="M301.181 367.836C298.581 356.238 296.841 344.98 296.841 344.98L201.563 374.99C197.769 385.818 199.911 419.38 201.013 433.456C201.393 438.413 202.279 445.909 203.414 454.72C217.68 456.068 232.027 456.335 246.333 455.519C246.696 447.445 246.619 440.77 246.856 437.603C247.638 427.139 250.893 414.511 250.893 414.511C253.79 420.294 256.549 437.736 258.499 454.638C274.085 453.129 289.891 450.783 305.179 447.087C305.074 445.281 306 389.37 301.181 367.836Z" fill="black"/>
<path d="M288.349 374.081C281.922 374.081 276.751 371.063 273.931 365.314C273.877 365.216 273.843 365.108 273.832 364.997C273.821 364.885 273.832 364.773 273.866 364.666C273.899 364.559 273.954 364.461 274.027 364.376C274.1 364.291 274.189 364.222 274.29 364.172C274.39 364.123 274.5 364.095 274.611 364.089C274.723 364.083 274.835 364.1 274.94 364.139C275.045 364.178 275.141 364.237 275.222 364.314C275.303 364.391 275.368 364.484 275.412 364.587C279.267 372.462 287.765 374.588 298.13 370.265C298.331 370.187 298.555 370.19 298.754 370.275C298.952 370.36 299.11 370.519 299.193 370.718C299.275 370.917 299.277 371.141 299.197 371.342C299.116 371.542 298.961 371.703 298.764 371.79C295.477 373.233 291.938 374.012 288.349 374.081Z" fill="#CADDFF"/>
<path d="M247.445 392.118C247.312 392.119 247.181 392.087 247.063 392.026C246.945 391.964 246.844 391.875 246.768 391.765C243.271 386.809 243.59 379.181 243.607 378.862C243.617 378.643 243.714 378.437 243.876 378.289C244.038 378.141 244.252 378.064 244.471 378.074C244.69 378.084 244.897 378.181 245.044 378.343C245.192 378.506 245.269 378.72 245.259 378.939C245.259 379.016 244.951 386.297 248.117 390.818C248.206 390.941 248.258 391.086 248.269 391.237C248.281 391.388 248.25 391.54 248.18 391.674C248.11 391.809 248.005 391.921 247.875 392C247.746 392.078 247.597 392.119 247.445 392.118Z" fill="#CADDFF"/>
<path d="M350.565 132.617L338.482 124.576C338.026 124.273 337.513 124.066 336.975 123.968C336.436 123.87 335.883 123.882 335.349 124.004C334.816 124.126 334.312 124.355 333.87 124.678C333.428 125.001 333.056 125.41 332.777 125.881C303.527 174.71 255.244 194.354 239.818 199.581C236.756 200.619 233.452 200.707 230.34 199.834L224.551 198.226L203.711 203.998L200.49 208.321C196.549 213.62 191.375 217.878 185.416 220.724L182.023 222.343C182.023 222.343 167.522 231.32 159.796 242.373C153.104 251.934 144.347 299.903 164.323 325.579C166.297 328.126 169.037 329.972 172.139 330.845C175.241 331.718 178.542 331.573 181.555 330.43C188.357 327.831 193.506 325.556 198.044 318.755C198.529 318.033 198.287 374.991 198.287 374.991C239.493 390.929 300.757 343.599 300.757 343.599C286.493 307.294 280.55 279.713 278.138 261.456C277.218 254.539 278.214 247.502 281.017 241.112C283.821 234.722 288.325 229.224 294.038 225.218C337.304 194.955 349.761 148.439 352.273 136.813C352.444 136.023 352.372 135.2 352.068 134.451C351.763 133.702 351.239 133.063 350.565 132.617Z" fill="#5479F7"/>
<path d="M216.841 240.192C216.621 240.19 216.411 240.102 216.256 239.946C216.101 239.79 216.015 239.58 216.015 239.36L216.042 224.49C216.042 224.271 216.129 224.061 216.284 223.906C216.439 223.751 216.649 223.664 216.868 223.664C217.087 223.664 217.297 223.751 217.452 223.906C217.607 224.061 217.694 224.271 217.694 224.49L217.667 239.36C217.668 239.469 217.647 239.577 217.606 239.678C217.564 239.779 217.504 239.87 217.427 239.948C217.35 240.025 217.259 240.086 217.158 240.128C217.058 240.17 216.95 240.192 216.841 240.192Z" fill="black"/>
<path d="M220.878 221.324C220.878 220.977 220.981 220.639 221.173 220.351C221.366 220.063 221.639 219.838 221.959 219.706C222.279 219.573 222.631 219.538 222.971 219.606C223.311 219.673 223.623 219.84 223.868 220.085C224.113 220.33 224.279 220.642 224.347 220.982C224.415 221.322 224.38 221.674 224.247 221.994C224.115 222.314 223.89 222.587 223.602 222.78C223.314 222.972 222.976 223.075 222.629 223.075C222.165 223.075 221.719 222.89 221.391 222.562C221.062 222.234 220.878 221.788 220.878 221.324Z" fill="black"/>
<path d="M338.047 127.005C337.816 126.6 337.695 126.143 337.695 125.678C337.695 125.212 337.816 124.755 338.047 124.35C338.68 123.249 339.743 121.437 341.269 118.733C343.967 113.974 346.451 105.515 349.981 101.968C353.511 98.4215 366.79 87.0598 369.698 87.4729C372.606 87.8859 372.391 91.2014 369.488 94.0817C366.586 96.9621 362.648 100.294 362.648 100.294C362.648 100.294 365.138 99.2587 368.04 101.533C370.942 103.808 368.756 105.906 370.364 106.974C372.418 108.346 372.76 110.653 371.978 111.992C370.199 115.037 365.628 111.843 364.879 117.064C364.361 120.693 361.299 124.014 354.172 128.145C352.269 129.261 350.589 130.719 349.216 132.446C348.937 132.799 348.568 133.07 348.149 133.231C347.729 133.392 347.274 133.436 346.831 133.36C344.981 133.037 343.228 132.296 341.706 131.195C340.184 130.094 338.933 128.661 338.047 127.005Z" fill="white"/>
<path d="M347.244 134.241C347.05 134.241 346.857 134.224 346.666 134.192C344.692 133.843 342.824 133.051 341.202 131.875C339.58 130.698 338.247 129.168 337.303 127.401C337.011 126.87 336.86 126.272 336.864 125.665C336.869 125.059 337.03 124.464 337.331 123.937C337.947 122.885 338.983 121.062 340.553 118.325C341.612 116.322 342.57 114.267 343.422 112.168C345.201 108.021 347.035 103.736 349.397 101.379C350.901 99.8806 365.98 86.1287 369.775 86.6574C370.358 86.7005 370.917 86.9125 371.382 87.2674C371.848 87.6224 372.2 88.105 372.396 88.6566C372.947 90.3584 372.06 92.666 370.033 94.6817C368.381 96.3339 366.437 98.0797 365.022 99.3189C366.301 99.5344 367.503 100.079 368.508 100.899C369.18 101.371 369.715 102.011 370.06 102.756C370.406 103.5 370.548 104.323 370.474 105.14C370.474 105.917 370.474 106.115 370.782 106.302C373.206 107.916 373.641 110.736 372.655 112.421C371.669 114.106 370.072 114.282 368.767 114.453C367.115 114.673 366.013 114.822 365.661 117.207C365.11 121.205 361.767 124.697 354.547 128.882C352.725 129.944 351.117 131.335 349.805 132.985C349.497 133.371 349.108 133.684 348.665 133.901C348.222 134.118 347.737 134.234 347.244 134.241ZM338.774 126.602C339.597 128.152 340.762 129.494 342.181 130.526C343.6 131.558 345.235 132.254 346.963 132.561C347.26 132.615 347.565 132.586 347.847 132.478C348.128 132.371 348.375 132.188 348.56 131.95C349.999 130.139 351.762 128.611 353.759 127.445C360.495 123.54 363.579 120.407 364.069 116.981C364.587 113.363 366.905 113.054 368.596 112.834C369.912 112.663 370.744 112.509 371.273 111.606C371.801 110.703 371.702 108.891 369.912 107.696C368.855 106.996 368.86 105.966 368.866 105.14C368.938 104.577 368.852 104.005 368.617 103.488C368.381 102.971 368.006 102.53 367.533 102.216C365.082 100.294 363.05 101.059 362.962 101.114C362.779 101.189 362.576 101.196 362.389 101.134C362.201 101.072 362.042 100.945 361.941 100.776C361.839 100.607 361.801 100.407 361.833 100.213C361.866 100.018 361.968 99.8417 362.119 99.7154C362.163 99.6824 366.068 96.411 368.91 93.5527C370.678 91.7903 371.168 90.105 370.871 89.2184C370.768 88.9607 370.591 88.7391 370.363 88.5814C370.135 88.4237 369.865 88.3368 369.587 88.3317C367.434 88.0288 355.362 97.8264 350.587 102.59C348.456 104.716 346.682 108.852 344.969 112.856C344.096 115.013 343.111 117.124 342.017 119.178C340.464 121.932 339.401 123.755 338.785 124.807C338.63 125.081 338.548 125.389 338.546 125.703C338.544 126.017 338.622 126.327 338.774 126.602Z" fill="black"/>
<path d="M240.881 318.011L202.07 329.527C201.291 329.759 200.451 329.673 199.735 329.287C199.02 328.901 198.487 328.246 198.254 327.467L182.905 275.918C182.789 275.532 182.752 275.127 182.793 274.727C182.835 274.326 182.955 273.938 183.147 273.584C183.339 273.23 183.598 272.917 183.911 272.664C184.224 272.41 184.584 272.221 184.97 272.107L223.78 260.585C224.56 260.354 225.4 260.442 226.115 260.829C226.831 261.216 227.364 261.871 227.597 262.651L242.946 314.2C243.061 314.586 243.099 314.99 243.057 315.391C243.016 315.791 242.895 316.18 242.704 316.534C242.512 316.888 242.252 317.2 241.939 317.454C241.626 317.707 241.267 317.897 240.881 318.011Z" fill="white"/>
<path d="M211.267 318.308L207.247 319.503C207.107 319.546 206.961 319.56 206.816 319.545C206.671 319.53 206.53 319.486 206.402 319.417C206.274 319.347 206.161 319.253 206.069 319.139C205.978 319.025 205.91 318.895 205.87 318.754L204.724 314.899C204.681 314.759 204.667 314.612 204.681 314.467C204.696 314.321 204.739 314.18 204.809 314.051C204.879 313.922 204.973 313.809 205.087 313.717C205.201 313.625 205.333 313.557 205.473 313.517L209.488 312.327C209.628 312.284 209.775 312.269 209.92 312.283C210.065 312.298 210.206 312.341 210.335 312.41C210.464 312.479 210.577 312.573 210.669 312.686C210.761 312.8 210.83 312.931 210.871 313.071L212.011 316.926C212.054 317.066 212.069 317.212 212.055 317.358C212.04 317.503 211.998 317.644 211.928 317.773C211.859 317.901 211.765 318.015 211.651 318.107C211.538 318.199 211.407 318.267 211.267 318.308Z" fill="#5479F7"/>
<path d="M220.542 315.422L216.527 316.611C216.387 316.655 216.241 316.67 216.095 316.655C215.95 316.641 215.809 316.598 215.68 316.529C215.551 316.46 215.438 316.366 215.346 316.252C215.254 316.139 215.185 316.008 215.144 315.868L211.289 303.003C211.247 302.863 211.233 302.717 211.248 302.572C211.263 302.427 211.306 302.286 211.376 302.158C211.446 302.03 211.54 301.917 211.654 301.826C211.768 301.734 211.898 301.666 212.038 301.626L216.059 300.431C216.198 300.389 216.345 300.375 216.49 300.39C216.635 300.404 216.776 300.448 216.904 300.518C217.032 300.587 217.145 300.682 217.236 300.795C217.327 300.909 217.395 301.04 217.436 301.18L221.291 314.045C221.333 314.185 221.347 314.331 221.332 314.476C221.317 314.621 221.274 314.762 221.204 314.89C221.134 315.018 221.04 315.131 220.926 315.222C220.812 315.314 220.682 315.381 220.542 315.422Z" fill="#5479F7"/>
<path d="M218.371 274.057L214.348 275.251C213.762 275.425 213.428 276.042 213.602 276.628L224.459 313.211C224.633 313.797 225.249 314.131 225.835 313.957L229.858 312.763C230.444 312.589 230.779 311.973 230.605 311.387L219.747 274.804C219.573 274.218 218.957 273.883 218.371 274.057Z" fill="#5479F7"/>
<path d="M181.456 286.889C183.62 284.378 185.251 284.08 185.251 284.08L186.638 288.453C186.638 288.453 199.685 273.39 206.316 282.626C210.441 288.376 196.497 299.099 192.548 305.383C190.345 308.908 186.985 314.073 181.819 313.677C178.196 313.402 176.582 312.162 175.635 309.326C174.39 305.603 177.92 302.067 177.716 297.21C177.491 291.488 178.768 290.006 181.456 286.889Z" fill="white"/>
<path d="M182.398 314.514C182.194 314.514 181.985 314.514 181.77 314.514C177.876 314.211 175.937 312.835 174.858 309.602C174.104 307.333 174.858 305.234 175.668 302.993C176.317 301.203 176.989 299.347 176.901 297.271C176.648 291.213 178.135 289.467 180.828 286.344C183.119 283.69 184.904 283.299 185.102 283.265C185.298 283.229 185.501 283.264 185.673 283.365C185.845 283.467 185.975 283.627 186.038 283.816L186.996 286.834C189.37 284.367 195.593 278.535 201.2 278.793C203.529 278.904 205.474 280.022 206.988 282.131C210.243 286.664 204.157 293.316 198.782 299.204C196.541 301.649 194.426 303.962 193.275 305.813C191.204 309.106 187.8 314.514 182.398 314.514ZM184.733 285.166C183.718 285.745 182.819 286.509 182.084 287.418C179.424 290.491 178.328 291.769 178.553 297.194C178.653 299.6 177.893 301.699 177.221 303.549C176.488 305.581 175.855 307.333 176.428 309.057C177.292 311.639 178.669 312.598 181.896 312.846C186.688 313.209 189.921 308.032 191.859 304.931C193.104 302.949 195.268 300.581 197.565 298.075C202.268 292.936 208.123 286.548 205.644 283.1C204.427 281.398 202.946 280.534 201.128 280.451H200.831C194.729 280.451 187.338 288.9 187.261 288.988C187.165 289.099 187.042 289.182 186.904 289.23C186.765 289.277 186.617 289.287 186.473 289.258C186.33 289.228 186.198 289.161 186.089 289.065C185.98 288.968 185.898 288.845 185.851 288.707L184.733 285.166Z" fill="black"/>
<path d="M226.479 252.578C226.38 252.577 226.281 252.56 226.187 252.528C225.982 252.449 225.817 252.293 225.728 252.093C225.638 251.892 225.631 251.665 225.708 251.46L230.042 239.894C230.079 239.791 230.136 239.697 230.21 239.616C230.284 239.535 230.373 239.47 230.472 239.424C230.571 239.378 230.679 239.352 230.788 239.348C230.897 239.344 231.006 239.362 231.109 239.4C231.211 239.438 231.305 239.496 231.385 239.571C231.464 239.646 231.529 239.736 231.573 239.836C231.618 239.935 231.643 240.043 231.645 240.152C231.648 240.262 231.629 240.371 231.59 240.473L227.255 252.038C227.196 252.196 227.09 252.333 226.951 252.429C226.813 252.525 226.648 252.577 226.479 252.578Z" fill="white"/>
<path d="M231.177 257.27C231.011 257.268 230.851 257.216 230.715 257.122C230.58 257.027 230.476 256.895 230.416 256.74C230.357 256.586 230.345 256.418 230.383 256.257C230.42 256.096 230.505 255.95 230.626 255.838L249.059 238.875C249.224 238.757 249.426 238.704 249.628 238.725C249.83 238.747 250.017 238.842 250.153 238.992C250.289 239.143 250.365 239.338 250.366 239.541C250.368 239.744 250.294 239.94 250.16 240.092L231.727 257.05C231.578 257.19 231.381 257.268 231.177 257.27Z" fill="white"/>
<path d="M220.332 214.621L216.906 215.722C216.411 215.882 217.22 225.162 216.719 225.233C212.737 225.817 200.197 225.889 203.501 214.07C204.443 210.668 204.366 207.064 203.281 203.705L198.528 188.879L219.693 182.116L226.352 202.934C226.725 204.097 226.866 205.321 226.765 206.538C226.665 207.755 226.325 208.94 225.766 210.026C225.207 211.112 224.439 212.076 223.507 212.865C222.574 213.653 221.495 214.25 220.332 214.621Z" fill="white"/>
<path d="M213.685 226.253C210.722 226.253 206.415 225.702 203.926 222.882C202.026 220.723 201.607 217.683 202.681 213.845C203.583 210.591 203.511 207.144 202.472 203.931L197.713 189.128C197.648 188.917 197.668 188.69 197.769 188.494C197.819 188.398 197.887 188.312 197.97 188.242C198.053 188.172 198.15 188.119 198.253 188.087L219.412 181.324C219.517 181.291 219.626 181.279 219.735 181.289C219.844 181.298 219.95 181.33 220.046 181.381C220.142 181.433 220.228 181.503 220.297 181.587C220.366 181.672 220.417 181.77 220.448 181.874L227.128 202.698C227.533 203.964 227.685 205.299 227.574 206.624C227.464 207.949 227.093 209.24 226.483 210.422C225.874 211.604 225.037 212.654 224.021 213.513C223.005 214.371 221.831 215.021 220.563 215.425L217.568 216.383C217.507 217.188 217.567 219.137 217.617 220.497C217.777 225.195 217.799 225.917 216.818 226.065C215.779 226.198 214.732 226.26 213.685 226.253ZM199.542 189.408L204.041 203.447C205.18 206.961 205.259 210.732 204.267 214.291C203.358 217.557 203.661 220.079 205.165 221.792C207.654 224.617 212.919 224.832 216.031 224.485C216.069 223.653 216.031 221.891 215.97 220.531C215.811 215.805 215.822 215.188 216.637 214.93L220.062 213.828C221.124 213.492 222.11 212.949 222.962 212.232C223.814 211.514 224.515 210.635 225.027 209.646C225.539 208.656 225.85 207.575 225.943 206.465C226.036 205.355 225.909 204.238 225.57 203.177L219.143 183.135L199.542 189.408Z" fill="black"/>
<path d="M223.835 189.612L201.122 196.871L194.789 177.121C194.178 175.214 193.95 173.205 194.116 171.209C194.283 169.213 194.841 167.269 195.759 165.489C196.677 163.709 197.937 162.128 199.467 160.835C200.997 159.542 202.766 158.564 204.675 157.956L214.34 154.866C215.631 154.453 217.034 154.57 218.239 155.189C219.445 155.808 220.356 156.881 220.773 158.17L228.164 181.235C228.698 182.92 228.543 184.748 227.731 186.319C226.92 187.889 225.519 189.073 223.835 189.612Z" fill="white"/>
<path d="M201.123 197.697C200.95 197.699 200.781 197.648 200.64 197.549C200.499 197.45 200.392 197.309 200.335 197.146L194.002 177.38C193.358 175.37 193.117 173.252 193.292 171.148C193.467 169.044 194.055 166.995 195.023 165.119C195.991 163.243 197.319 161.576 198.932 160.213C200.545 158.851 202.41 157.82 204.422 157.179L214.087 154.089C215.589 153.612 217.219 153.749 218.619 154.472C220.019 155.195 221.075 156.444 221.555 157.945L228.952 180.993C229.252 181.931 229.365 182.92 229.283 183.902C229.201 184.884 228.927 185.84 228.475 186.716C228.023 187.591 227.403 188.369 226.651 189.005C225.898 189.641 225.027 190.122 224.089 190.422L215.888 193.021C213.116 193.913 210.185 194.204 207.291 193.875C207.183 193.863 207.078 193.83 206.982 193.777C206.886 193.724 206.802 193.654 206.734 193.568C206.596 193.397 206.532 193.177 206.556 192.958C206.58 192.739 206.69 192.538 206.862 192.4C207.034 192.262 207.254 192.198 207.473 192.222C210.135 192.527 212.831 192.26 215.381 191.44L223.598 188.813C224.33 188.58 225.008 188.205 225.594 187.709C226.18 187.214 226.663 186.607 227.015 185.925C227.367 185.243 227.581 184.498 227.645 183.733C227.709 182.968 227.621 182.198 227.387 181.467L219.997 158.413C219.643 157.335 218.878 156.441 217.868 155.925C216.858 155.409 215.685 155.313 214.605 155.659L204.934 158.749C203.128 159.323 201.453 160.247 200.005 161.469C198.557 162.691 197.364 164.186 196.494 165.87C195.625 167.553 195.096 169.392 194.937 171.28C194.779 173.168 194.994 175.069 195.571 176.873L201.905 196.623C201.949 196.748 201.963 196.882 201.944 197.014C201.925 197.146 201.875 197.271 201.798 197.379C201.721 197.487 201.618 197.575 201.5 197.635C201.381 197.695 201.25 197.726 201.117 197.724L201.123 197.697Z" fill="black"/>
<path d="M198.672 188.654L193.11 183.394C191.253 181.642 189.829 179.481 188.952 177.083L188.913 176.967C187.589 173.412 186.991 169.627 187.156 165.837C187.806 153.814 196.067 149.089 204.334 149.248H204.4C205.873 149.275 207.331 148.954 208.656 148.311C209.982 147.668 211.137 146.721 212.027 145.548L213.977 142.981C214.293 142.562 214.699 142.219 215.165 141.978C215.632 141.738 216.147 141.606 216.671 141.592C217.196 141.578 217.717 141.683 218.196 141.899C218.674 142.115 219.098 142.436 219.435 142.838C221.252 145.041 223.009 148.411 222.023 152.602L220.751 156.254L202.065 161.904C201.3 162.137 200.642 162.633 200.207 163.304C199.773 163.976 199.59 164.779 199.691 165.572L200.759 173.944C200.786 174.162 200.736 174.382 200.619 174.568C200.501 174.753 200.323 174.893 200.115 174.962L198.237 175.59L194.723 175.15L198.672 188.654Z" fill="black"/>
<path d="M198.264 175.59L196.612 174.627C196.055 174.304 195.403 174.184 194.768 174.285C194.132 174.386 193.551 174.703 193.121 175.182C192.691 175.662 192.44 176.274 192.409 176.917C192.377 177.56 192.568 178.194 192.949 178.713L194.095 180.261C195.059 181.563 196.39 182.547 197.917 183.086L199.746 183.73L198.264 175.59Z" fill="white"/>
</svg>
