<svg width="353" height="353" viewBox="0 0 353 353" fill="none" xmlns="http://www.w3.org/2000/svg">
<path d="M77.5671 15.2895C148.923 -22.67 244.521 16.7638 294.339 60.4851C308.569 72.9744 343.059 104.122 351.223 154.066C361.344 216.094 328.214 291.28 252.227 323.439C169.521 358.446 77.0502 325.27 33.7653 271.419C-6.7107 221.055 1.3896 161.756 4.2874 140.569C7.68088 115.717 17.7935 47.0891 77.5671 15.2895Z" fill="#CADDFF"/>
<path d="M234.773 46.1782C234.77 37.1546 237.442 28.3328 242.453 20.8284C247.464 13.3241 254.588 7.47431 262.924 4.01903C271.259 0.563744 280.433 -0.341839 289.283 1.41682C298.134 3.17547 306.264 7.51937 312.645 13.8991C319.027 20.2788 323.373 28.4077 325.134 37.2577C326.895 46.1077 325.992 55.2812 322.539 63.618C319.086 71.9547 313.239 79.0801 305.736 84.0931C298.233 89.106 289.411 91.7813 280.388 91.7804C268.293 91.7793 256.693 86.9748 248.139 78.4234C239.585 69.8719 234.777 58.2735 234.773 46.1782Z" fill="#99B9FF"/>
<path d="M243.751 46.1784C243.75 38.931 245.898 31.846 249.924 25.8197C253.95 19.7933 259.673 15.0961 266.368 12.3223C273.064 9.54839 280.432 8.8224 287.54 10.2361C294.648 11.6498 301.178 15.1397 306.302 20.2644C311.427 25.3891 314.917 31.9185 316.331 39.0267C317.744 46.135 317.019 53.5028 314.245 60.1984C311.471 66.894 306.774 72.6167 300.747 76.6426C294.721 80.6686 287.636 82.817 280.388 82.8161C270.672 82.8161 261.353 78.9561 254.482 72.0852C247.611 65.2143 243.751 55.8954 243.751 46.1784Z" fill="white"/>
<path d="M252.207 46.178C252.207 40.6032 253.86 35.1536 256.957 30.5184C260.055 25.8831 264.457 22.2705 269.608 20.1373C274.758 18.0041 280.426 17.4462 285.893 18.5341C291.361 19.622 296.383 22.3068 300.325 26.2491C304.266 30.1914 306.95 35.214 308.038 40.6818C309.125 46.1496 308.566 51.817 306.432 56.9672C304.298 62.1174 300.685 66.5191 296.049 69.6157C291.413 72.7123 285.963 74.3646 280.389 74.3638C276.687 74.3638 273.022 73.6347 269.603 72.2182C266.184 70.8017 263.077 68.7254 260.46 66.1081C257.843 63.4908 255.767 60.3835 254.351 56.9639C252.935 53.5443 252.206 49.8792 252.207 46.178Z" fill="#99B9FF"/>
<path d="M262.192 46.1781C262.192 42.5751 263.261 39.053 265.263 36.0572C267.264 33.0614 270.109 30.7265 273.438 29.3476C276.767 27.9688 280.43 27.6081 283.964 28.311C287.497 29.0139 290.743 30.7489 293.291 33.2966C295.839 35.8444 297.574 39.0903 298.277 42.6241C298.98 46.1579 298.619 49.8208 297.24 53.1495C295.861 56.4783 293.526 59.3234 290.53 61.3252C287.535 63.3269 284.013 64.3953 280.41 64.3953C275.578 64.3953 270.944 62.476 267.528 59.0596C264.112 55.6432 262.192 51.0096 262.192 46.1781Z" fill="white"/>
<path d="M270.449 46.1782C270.449 44.2125 271.032 42.2909 272.124 40.6564C273.217 39.022 274.769 37.7481 276.585 36.9958C278.401 36.2436 280.399 36.0467 282.327 36.4302C284.255 36.8137 286.026 37.7603 287.416 39.1503C288.806 40.5403 289.753 42.3113 290.136 44.2392C290.52 46.1672 290.323 48.1656 289.571 49.9817C288.819 51.7978 287.545 53.35 285.91 54.4422C284.276 55.5343 282.354 56.1172 280.388 56.1172C277.753 56.1161 275.225 55.0686 273.362 53.2049C271.498 51.3412 270.451 48.8138 270.449 46.1782Z" fill="#5479F7"/>
<path d="M238.764 28.1054C238.658 28.1057 238.554 28.0794 238.461 28.0289C238.368 27.9783 238.289 27.9052 238.232 27.8161C238.174 27.7271 238.14 27.625 238.132 27.5193C238.125 27.4137 238.144 27.3078 238.188 27.2115C242.882 16.7581 251.29 8.41985 261.781 3.81297C261.933 3.7601 262.098 3.76626 262.245 3.83021C262.392 3.89417 262.509 4.0112 262.573 4.15789C262.638 4.30459 262.644 4.47013 262.592 4.6214C262.539 4.77268 262.431 4.89853 262.29 4.97378C252.095 9.46047 243.926 17.5699 239.366 27.7325C239.314 27.8473 239.229 27.9441 239.122 28.0105C239.015 28.0768 238.89 28.1099 238.764 28.1054Z" fill="#5479F7"/>
<path d="M253.474 55.1811C253.338 55.1801 253.207 55.1361 253.098 55.0553C252.989 54.9746 252.908 54.8614 252.868 54.7321C252.008 51.9624 251.571 49.0787 251.572 46.1785C251.572 46.0099 251.638 45.8483 251.758 45.7291C251.877 45.6099 252.038 45.543 252.207 45.543C252.376 45.543 252.537 45.6099 252.656 45.7291C252.776 45.8483 252.843 46.0099 252.843 46.1785C252.839 48.9564 253.256 51.7188 254.08 54.3719C254.104 54.4521 254.113 54.5363 254.105 54.6198C254.097 54.7033 254.073 54.7844 254.034 54.8584C253.994 54.9324 253.941 54.998 253.876 55.0512C253.811 55.1044 253.736 55.1442 253.656 55.1684C253.596 55.1805 253.535 55.1847 253.474 55.1811Z" fill="#5479F7"/>
<path d="M307.998 41.12C307.852 41.1199 307.711 41.0692 307.598 40.9765C307.485 40.8838 307.408 40.7548 307.38 40.6117C306.104 34.45 302.763 28.9082 297.911 24.9025C297.843 24.8507 297.785 24.7857 297.743 24.7112C297.701 24.6368 297.674 24.5546 297.664 24.4694C297.654 24.3843 297.661 24.2981 297.686 24.2159C297.71 24.1337 297.751 24.0573 297.805 23.9913C297.86 23.9252 297.927 23.8709 298.003 23.8316C298.079 23.7923 298.163 23.7688 298.248 23.7625C298.334 23.7562 298.42 23.7672 298.501 23.795C298.582 23.8227 298.656 23.8665 298.72 23.9239C303.795 28.1137 307.289 33.9093 308.625 40.3532C308.656 40.5171 308.622 40.6868 308.529 40.8255C308.436 40.9642 308.293 41.0609 308.129 41.0946C308.087 41.1091 308.043 41.1176 307.998 41.12Z" fill="#5479F7"/>
<path d="M252.207 46.7963C252.038 46.7963 251.877 46.7294 251.758 46.6102C251.638 46.491 251.572 46.3294 251.572 46.1608C251.576 41.6244 252.649 37.1529 254.706 33.1095C256.763 29.0662 259.744 25.5649 263.408 22.8903C267.073 20.2156 271.316 18.4429 275.794 17.7162C280.271 16.9895 284.858 17.3293 289.179 18.708C289.34 18.7591 289.474 18.8719 289.551 19.0217C289.629 19.1715 289.644 19.3459 289.592 19.5065C289.541 19.6672 289.429 19.801 289.279 19.8785C289.129 19.9559 288.955 19.9707 288.794 19.9196C284.661 18.6012 280.276 18.2765 275.994 18.9719C271.712 19.6673 267.655 21.3632 264.152 23.9217C260.649 26.4802 257.799 29.8292 255.834 33.6964C253.869 37.5636 252.844 41.8399 252.842 46.1778C252.838 46.3434 252.769 46.5007 252.65 46.6162C252.532 46.7317 252.373 46.7964 252.207 46.7963Z" fill="#5479F7"/>
<path d="M352.656 61.2014C333.121 65.3702 327.529 47.8563 301.181 61.2014V27.8385C320.788 21.8015 332.672 30.8507 352.656 27.8385L345.301 44.3611L352.656 61.2014Z" fill="#5479F7"/>
<path d="M300.541 24.665H299.66C298.958 24.665 298.389 25.2341 298.389 25.936V109.438C298.389 110.14 298.958 110.709 299.66 110.709H300.541C301.243 110.709 301.812 110.14 301.812 109.438V25.936C301.812 25.2341 301.243 24.665 300.541 24.665Z" fill="black"/>
<path d="M282.807 345.309H263.183V104.101L282.607 102.729L282.807 345.309Z" fill="white"/>
<path d="M282.807 345.944H263.183C263.015 345.944 262.853 345.877 262.734 345.758C262.615 345.639 262.548 345.477 262.548 345.309V104.096C262.548 103.936 262.609 103.783 262.718 103.666C262.828 103.548 262.977 103.477 263.136 103.465L282.578 102.101C282.665 102.095 282.751 102.107 282.833 102.136C282.915 102.166 282.989 102.211 283.053 102.271C283.117 102.33 283.169 102.402 283.204 102.482C283.239 102.562 283.256 102.649 283.256 102.737L283.425 345.309C283.425 345.477 283.358 345.639 283.239 345.758C283.124 345.872 282.969 345.939 282.807 345.944ZM263.819 344.673H282.154L281.959 103.41L263.806 104.681L263.819 344.673Z" fill="black"/>
<path d="M335.421 345.309H282.807C282.697 345.309 282.608 345.186 282.608 345.033V103.012C282.608 102.855 282.701 102.732 282.811 102.736L335.429 105.516C335.535 105.516 335.615 105.643 335.615 105.791V345.033C335.615 345.186 335.535 345.309 335.421 345.309Z" fill="#99B9FF"/>
<path d="M335.42 345.944H282.806C282.69 345.944 282.574 345.92 282.467 345.874C282.36 345.827 282.263 345.759 282.184 345.674C282.104 345.588 282.043 345.487 282.004 345.377C281.966 345.267 281.95 345.15 281.959 345.033V103.012C281.958 102.884 281.982 102.757 282.031 102.639C282.08 102.522 282.152 102.415 282.243 102.325C282.32 102.249 282.413 102.191 282.514 102.153C282.616 102.115 282.724 102.098 282.832 102.105L335.45 104.88C335.672 104.903 335.877 105.01 336.024 105.18C336.17 105.349 336.247 105.567 336.238 105.791V345.033C336.247 345.147 336.232 345.262 336.195 345.37C336.158 345.478 336.1 345.578 336.024 345.663C335.947 345.748 335.854 345.817 335.751 345.865C335.647 345.913 335.535 345.94 335.42 345.944ZM283.243 344.673H334.98V106.13L283.243 103.397V344.673Z" fill="black"/>
<path d="M318.165 219.492C317.997 219.492 317.835 219.425 317.716 219.306C317.597 219.187 317.53 219.025 317.53 218.856V120.903C317.53 120.735 317.597 120.573 317.716 120.454C317.835 120.335 317.997 120.268 318.165 120.268C318.334 120.268 318.495 120.335 318.615 120.454C318.734 120.573 318.801 120.735 318.801 120.903V218.856C318.801 219.025 318.734 219.187 318.615 219.306C318.495 219.425 318.334 219.492 318.165 219.492Z" fill="#CADDFF"/>
<path d="M301.507 184.587C301.339 184.587 301.177 184.52 301.058 184.401C300.939 184.282 300.872 184.12 300.872 183.952V155.058C300.872 154.89 300.939 154.728 301.058 154.609C301.177 154.49 301.339 154.423 301.507 154.423C301.676 154.423 301.837 154.49 301.956 154.609C302.076 154.728 302.143 154.89 302.143 155.058V183.952C302.143 184.12 302.076 184.282 301.956 184.401C301.837 184.52 301.676 184.587 301.507 184.587Z" fill="#CADDFF"/>
<path d="M301.507 283.675C301.339 283.675 301.177 283.608 301.058 283.489C300.939 283.37 300.872 283.208 300.872 283.04V233.176C300.872 233.007 300.939 232.845 301.058 232.726C301.177 232.607 301.339 232.54 301.507 232.54C301.676 232.54 301.837 232.607 301.956 232.726C302.076 232.845 302.143 233.007 302.143 233.176V283.04C302.143 283.208 302.076 283.37 301.956 283.489C301.837 283.608 301.676 283.675 301.507 283.675Z" fill="#CADDFF"/>
<path d="M216.637 345.339H197.102V165.26L216.531 159.121L216.637 345.339Z" fill="white"/>
<path d="M216.636 345.974H197.102C196.933 345.973 196.772 345.905 196.653 345.787C196.535 345.668 196.467 345.507 196.466 345.338V165.259C196.465 165.124 196.508 164.992 196.589 164.883C196.669 164.774 196.782 164.694 196.911 164.654L216.34 158.515C216.436 158.481 216.539 158.47 216.641 158.485C216.742 158.499 216.838 158.538 216.921 158.597C217.004 158.657 217.072 158.735 217.118 158.826C217.165 158.917 217.188 159.018 217.187 159.121L217.293 345.338C217.292 345.507 217.225 345.668 217.107 345.787C217.045 345.849 216.972 345.897 216.891 345.93C216.81 345.962 216.723 345.977 216.636 345.974ZM197.737 344.703H216.001L215.895 159.989L197.737 165.725V344.703Z" fill="black"/>
<path d="M269.34 345.338H216.726C216.672 345.335 216.622 345.311 216.586 345.271C216.55 345.232 216.53 345.18 216.531 345.126V159.341C216.53 159.313 216.534 159.286 216.544 159.26C216.554 159.235 216.569 159.211 216.588 159.191C216.607 159.172 216.629 159.156 216.655 159.145C216.68 159.134 216.707 159.129 216.735 159.129L269.348 161.247C269.401 161.25 269.45 161.274 269.485 161.313C269.521 161.351 269.54 161.402 269.539 161.455V345.109C269.542 345.138 269.539 345.166 269.53 345.193C269.522 345.22 269.508 345.246 269.489 345.267C269.47 345.288 269.447 345.306 269.422 345.318C269.396 345.33 269.368 345.337 269.34 345.338Z" fill="#99B9FF"/>
<path d="M269.34 345.974H216.726C216.501 345.974 216.286 345.885 216.127 345.726C215.968 345.567 215.878 345.351 215.878 345.127V159.341C215.878 159.227 215.9 159.113 215.945 159.007C215.989 158.902 216.055 158.806 216.137 158.727C216.217 158.649 216.312 158.589 216.416 158.55C216.52 158.51 216.631 158.493 216.743 158.498L269.356 160.616C269.573 160.628 269.777 160.723 269.926 160.88C270.075 161.038 270.157 161.247 270.157 161.464V345.118C270.16 345.339 270.075 345.553 269.923 345.713C269.77 345.872 269.561 345.966 269.34 345.974ZM217.166 344.703H268.903V161.879L217.166 159.786V344.703Z" fill="black"/>
<path d="M243.048 256.63C242.879 256.63 242.717 256.563 242.598 256.444C242.479 256.324 242.412 256.163 242.412 255.994V173.509C242.412 173.34 242.479 173.178 242.598 173.059C242.717 172.94 242.879 172.873 243.048 172.873C243.216 172.873 243.378 172.94 243.497 173.059C243.616 173.178 243.683 173.34 243.683 173.509V255.994C243.683 256.163 243.616 256.324 243.497 256.444C243.378 256.563 243.216 256.63 243.048 256.63Z" fill="#CADDFF"/>
<path d="M229.156 201.064C228.987 201.064 228.826 200.997 228.707 200.877C228.587 200.758 228.521 200.597 228.521 200.428V186.367C228.521 186.198 228.587 186.037 228.707 185.918C228.826 185.798 228.987 185.731 229.156 185.731C229.325 185.731 229.486 185.798 229.605 185.918C229.724 186.037 229.791 186.198 229.791 186.367V200.428C229.791 200.597 229.724 200.758 229.605 200.877C229.486 200.997 229.325 201.064 229.156 201.064Z" fill="#CADDFF"/>
<path d="M229.156 294.347C228.987 294.347 228.826 294.28 228.707 294.161C228.587 294.042 228.521 293.88 228.521 293.712V223.69C228.521 223.522 228.587 223.36 228.707 223.241C228.826 223.122 228.987 223.055 229.156 223.055C229.325 223.055 229.486 223.122 229.605 223.241C229.724 223.36 229.791 223.522 229.791 223.69V293.72C229.789 293.887 229.721 294.047 229.602 294.164C229.483 294.282 229.323 294.347 229.156 294.347Z" fill="#CADDFF"/>
<path d="M256.939 228.775C256.771 228.775 256.609 228.708 256.49 228.589C256.371 228.469 256.304 228.308 256.304 228.139V214.087C256.304 213.918 256.371 213.756 256.49 213.637C256.609 213.518 256.771 213.451 256.939 213.451C257.108 213.451 257.27 213.518 257.389 213.637C257.508 213.756 257.575 213.918 257.575 214.087V228.144C257.574 228.311 257.506 228.472 257.387 228.59C257.268 228.708 257.107 228.775 256.939 228.775Z" fill="#CADDFF"/>
<path d="M150.932 345.338H131.508V241.839L150.932 237.577V345.338Z" fill="white"/>
<path d="M150.932 345.974H131.507C131.339 345.974 131.177 345.907 131.058 345.788C130.939 345.669 130.872 345.507 130.872 345.338V241.839C130.871 241.695 130.92 241.554 131.01 241.441C131.1 241.328 131.226 241.248 131.368 241.217L150.796 236.98C150.889 236.959 150.985 236.96 151.077 236.981C151.17 237.002 151.256 237.044 151.33 237.103C151.404 237.163 151.463 237.239 151.504 237.324C151.545 237.41 151.567 237.504 151.567 237.599V345.338C151.567 345.507 151.5 345.669 151.381 345.788C151.262 345.907 151.1 345.974 150.932 345.974ZM132.143 344.703H150.296V238.365L132.143 242.331V344.703Z" fill="black"/>
<path d="M203.939 345.339H150.932V237.806C150.931 237.777 150.937 237.748 150.948 237.72C150.959 237.693 150.975 237.668 150.996 237.648C151.017 237.627 151.042 237.611 151.07 237.6C151.097 237.59 151.127 237.585 151.156 237.586L203.939 239.365V345.339Z" fill="#99B9FF"/>
<path d="M204.575 345.974H150.296V237.806C150.296 237.692 150.319 237.579 150.364 237.474C150.408 237.369 150.474 237.274 150.556 237.195C150.638 237.115 150.736 237.054 150.843 237.013C150.949 236.973 151.063 236.954 151.177 236.959L204.558 238.746L204.575 345.974ZM151.567 344.703H203.304V239.967L151.567 238.234V344.703Z" fill="black"/>
<path d="M165.023 315.289C164.854 315.289 164.693 315.222 164.574 315.103C164.454 314.983 164.387 314.822 164.387 314.653V250.457C164.387 250.288 164.454 250.127 164.574 250.007C164.693 249.888 164.854 249.821 165.023 249.821C165.191 249.821 165.353 249.888 165.472 250.007C165.591 250.127 165.658 250.288 165.658 250.457V314.653C165.658 314.822 165.591 314.983 165.472 315.103C165.353 315.222 165.191 315.289 165.023 315.289Z" fill="#CADDFF"/>
<path d="M192.807 322.8C192.638 322.8 192.476 322.733 192.357 322.614C192.238 322.495 192.171 322.333 192.171 322.164V257.964C192.171 257.795 192.238 257.633 192.357 257.514C192.476 257.395 192.638 257.328 192.807 257.328C192.975 257.328 193.137 257.395 193.256 257.514C193.375 257.633 193.442 257.795 193.442 257.964V322.164C193.442 322.333 193.375 322.495 193.256 322.614C193.137 322.733 192.975 322.8 192.807 322.8Z" fill="#CADDFF"/>
<path d="M178.915 297.644C178.746 297.644 178.585 297.577 178.465 297.457C178.346 297.338 178.279 297.177 178.279 297.008V283.875C178.279 283.706 178.346 283.545 178.465 283.425C178.585 283.306 178.746 283.239 178.915 283.239C179.083 283.239 179.245 283.306 179.364 283.425C179.483 283.545 179.55 283.706 179.55 283.875V297.008C179.55 297.177 179.483 297.338 179.364 297.457C179.245 297.577 179.083 297.644 178.915 297.644Z" fill="#CADDFF"/>
<path d="M85.6032 345.339H65.9922V294.005L85.4168 290.175L85.6032 345.339Z" fill="white"/>
<path d="M85.6034 345.974H65.9924C65.8239 345.974 65.6622 345.907 65.5431 345.788C65.4239 345.669 65.3569 345.507 65.3569 345.339V294.017C65.3571 293.87 65.4083 293.727 65.5018 293.614C65.5953 293.5 65.7252 293.423 65.8696 293.394L85.2942 289.581C85.3862 289.563 85.4811 289.566 85.5721 289.589C85.663 289.611 85.7478 289.654 85.8203 289.714C85.8928 289.773 85.9512 289.848 85.9914 289.933C86.0315 290.018 86.0524 290.11 86.0525 290.204L86.2389 345.364C86.238 345.534 86.1712 345.696 86.0525 345.817C85.9287 345.926 85.7678 345.982 85.6034 345.974ZM66.6279 344.703H84.9637L84.7858 290.945L66.6279 294.53V344.703Z" fill="black"/>
<path d="M138.243 345.339H85.6034C85.554 345.339 85.5065 345.319 85.4716 345.284C85.4366 345.249 85.417 345.202 85.417 345.152V290.361C85.417 290.337 85.4218 290.313 85.4313 290.29C85.4407 290.268 85.4545 290.248 85.4718 290.231C85.4892 290.214 85.5098 290.2 85.5324 290.191C85.555 290.182 85.5791 290.178 85.6034 290.179L138.243 291.026C138.291 291.026 138.337 291.045 138.371 291.079C138.406 291.114 138.425 291.16 138.425 291.208V345.152C138.425 345.201 138.406 345.248 138.372 345.283C138.338 345.317 138.291 345.338 138.243 345.339Z" fill="#99B9FF"/>
<path d="M138.242 345.974H85.6031C85.3852 345.974 85.1761 345.887 85.022 345.733C84.8678 345.579 84.7812 345.37 84.7812 345.152V290.361C84.7844 290.141 84.8725 289.932 85.027 289.776C85.1858 289.625 85.3968 289.542 85.6159 289.543L138.255 290.39C138.47 290.394 138.674 290.481 138.825 290.634C138.976 290.787 139.06 290.993 139.06 291.208V345.152C139.06 345.369 138.974 345.578 138.821 345.732C138.668 345.886 138.46 345.973 138.242 345.974ZM86.0522 344.703H137.789V291.666L86.0522 290.818V344.703Z" fill="black"/>
<path d="M122.406 332.933C122.238 332.933 122.076 332.867 121.957 332.747C121.838 332.628 121.771 332.467 121.771 332.298V299.638C121.771 299.47 121.838 299.308 121.957 299.189C122.076 299.07 122.238 299.003 122.406 299.003C122.575 299.003 122.736 299.07 122.856 299.189C122.975 299.308 123.042 299.47 123.042 299.638V332.298C123.042 332.467 122.975 332.628 122.856 332.747C122.736 332.867 122.575 332.933 122.406 332.933Z" fill="#CADDFF"/>
<path d="M105.761 321.296C105.592 321.296 105.431 321.229 105.311 321.109C105.192 320.99 105.125 320.829 105.125 320.66V311.026C105.125 310.858 105.192 310.696 105.311 310.577C105.431 310.458 105.592 310.391 105.761 310.391C105.929 310.391 106.091 310.458 106.21 310.577C106.329 310.696 106.396 310.858 106.396 311.026V320.66C106.396 320.829 106.329 320.99 106.21 321.109C106.091 321.229 105.929 321.296 105.761 321.296Z" fill="#CADDFF"/>
<path d="M20.2465 345.339H0.635498V318.454L20.0601 315.179L20.2465 345.339Z" fill="white"/>
<path d="M20.2465 345.974H0.635483C0.466942 345.974 0.305305 345.907 0.186129 345.788C0.0669525 345.669 0 345.507 0 345.339L0 318.454C0.000740243 318.304 0.0541817 318.159 0.150983 318.044C0.247784 317.929 0.381788 317.852 0.529569 317.827L19.9542 314.552C20.0451 314.536 20.1384 314.54 20.2276 314.563C20.3168 314.587 20.3996 314.631 20.4703 314.69C20.541 314.749 20.5978 314.823 20.6367 314.907C20.6757 314.991 20.6957 315.082 20.6956 315.174L20.882 345.334C20.8809 345.503 20.8137 345.665 20.6949 345.784C20.5761 345.904 20.4151 345.972 20.2465 345.974ZM1.27097 344.703H19.6068L19.4288 315.929L1.27097 319.013V344.703Z" fill="black"/>
<path d="M72.868 345.339H20.2457C20.1441 345.339 20.0593 345.292 20.0593 345.237V315.28C20.0593 315.221 20.1441 315.179 20.25 315.179L72.8892 315.649C72.9866 315.649 73.0671 315.696 73.0671 315.751V345.237C73.0671 345.279 72.9866 345.339 72.868 345.339Z" fill="#99B9FF"/>
<path d="M72.8684 345.974H20.2462C20.1437 345.98 20.0409 345.966 19.9439 345.933C19.8469 345.899 19.7576 345.846 19.6811 345.777C19.6046 345.709 19.5425 345.626 19.4985 345.533C19.4544 345.44 19.4292 345.34 19.4243 345.237V315.28C19.425 315.187 19.444 315.095 19.4804 315.009C19.5167 314.923 19.5697 314.846 19.6361 314.78C19.8034 314.623 20.0254 314.538 20.2547 314.543L72.8939 315.013C72.9966 315.006 73.0999 315.019 73.1974 315.053C73.2949 315.086 73.3847 315.139 73.4614 315.207C73.5382 315.276 73.6002 315.36 73.6439 315.453C73.6876 315.546 73.712 315.648 73.7157 315.751V345.237C73.7105 345.342 73.6841 345.444 73.6382 345.539C73.5924 345.633 73.528 345.717 73.4489 345.786C73.3698 345.855 73.2776 345.907 73.1779 345.939C73.0781 345.971 72.9729 345.983 72.8684 345.974ZM20.6783 344.703H72.4448V316.28L20.6953 315.818L20.6783 344.703Z" fill="black"/>
<path d="M57.0495 338.844C56.881 338.844 56.7194 338.777 56.6002 338.658C56.481 338.539 56.4141 338.377 56.4141 338.208V320.351C56.4141 320.183 56.481 320.021 56.6002 319.902C56.7194 319.783 56.881 319.716 57.0495 319.716C57.2181 319.716 57.3797 319.783 57.4989 319.902C57.6181 320.021 57.685 320.183 57.685 320.351V338.208C57.685 338.377 57.6181 338.539 57.4989 338.658C57.3797 338.777 57.2181 338.844 57.0495 338.844Z" fill="#CADDFF"/>
<path d="M40.404 332.481C40.2355 332.481 40.0739 332.414 39.9547 332.295C39.8355 332.175 39.7686 332.014 39.7686 331.845V326.575C39.7686 326.406 39.8355 326.245 39.9547 326.126C40.0739 326.006 40.2355 325.939 40.404 325.939C40.5726 325.939 40.7342 326.006 40.8534 326.126C40.9726 326.245 41.0395 326.406 41.0395 326.575V331.845C41.0395 332.014 40.9726 332.175 40.8534 332.295C40.7342 332.414 40.5726 332.481 40.404 332.481Z" fill="#CADDFF"/>
<path d="M78.0254 262.45L76.1062 279.485L83.3507 282.502L86.0197 263.929L78.0254 262.45Z" fill="white"/>
<path d="M83.3512 283.137C83.2672 283.137 83.184 283.121 83.1055 283.091L75.861 280.074C75.7332 280.022 75.6263 279.928 75.5567 279.809C75.487 279.69 75.4585 279.551 75.4755 279.414L77.3946 262.378C77.4068 262.294 77.4355 262.214 77.4792 262.141C77.5228 262.068 77.5805 262.005 77.6488 261.955C77.719 261.904 77.7987 261.868 77.883 261.848C77.9674 261.828 78.0549 261.826 78.1403 261.84L86.1346 263.323C86.296 263.353 86.4395 263.444 86.5351 263.578C86.6306 263.711 86.6708 263.877 86.6473 264.039L83.9782 282.578C83.9652 282.675 83.9301 282.767 83.8758 282.848C83.8214 282.929 83.7492 282.996 83.6647 283.044C83.5703 283.102 83.4621 283.135 83.3512 283.137ZM76.7888 279.083L82.8386 281.6L85.3043 264.446L78.5809 263.2L76.7888 279.083Z" fill="black"/>
<path d="M74.4211 277.876C74.0662 280.294 73.8568 282.732 73.794 285.175C73.788 285.99 74.0822 286.78 74.6205 287.392C75.1588 288.005 75.9036 288.398 76.713 288.497C81.4453 289.107 92.1722 289.767 101.315 288.92C101.937 288.861 103.043 288.408 103.352 286.844C104.386 281.599 95.2607 280.312 85.2539 276.507C85.0623 276.435 84.8541 276.418 84.6533 276.458C84.4524 276.498 84.2671 276.595 84.1185 276.736L83.0382 277.803C82.5096 278.315 81.8418 278.66 81.1184 278.794C80.395 278.928 79.6481 278.846 78.9711 278.558L75.692 277.155C75.5619 277.101 75.4211 277.077 75.2803 277.085C75.1395 277.094 75.0026 277.134 74.8799 277.204C74.7572 277.273 74.652 277.37 74.5725 277.486C74.493 277.603 74.4412 277.736 74.4211 277.876Z" fill="#99B9FF"/>
<path d="M91.7904 289.967C86.7255 289.98 81.664 289.697 76.6321 289.119C75.668 289 74.7815 288.53 74.141 287.8C73.5005 287.07 73.1507 286.129 73.1581 285.158C73.2224 282.688 73.4332 280.223 73.7893 277.778C73.8228 277.541 73.9103 277.315 74.0453 277.117C74.1802 276.919 74.3588 276.755 74.5674 276.638C74.7759 276.52 75.0087 276.452 75.2477 276.439C75.4868 276.426 75.7256 276.468 75.9457 276.562L79.2248 277.964C79.7882 278.208 80.4113 278.278 81.0149 278.167C81.6184 278.055 82.1751 277.766 82.6141 277.337L83.6944 276.295C83.929 276.069 84.2235 275.913 84.5431 275.848C84.8628 275.783 85.1944 275.81 85.4992 275.927C87.8293 276.812 90.0704 277.549 92.2395 278.257C99.3103 280.578 104.894 282.413 103.992 286.98C103.644 288.742 102.373 289.475 101.386 289.564C98.2554 289.856 94.9679 289.967 91.7904 289.967ZM75.0476 277.964C74.7001 280.351 74.4936 282.756 74.429 285.167C74.4251 285.827 74.6636 286.465 75.0994 286.961C75.5352 287.457 76.1379 287.776 76.793 287.857C81.6693 288.48 92.2099 289.128 101.255 288.28C101.454 288.28 102.454 288.102 102.729 286.717C103.382 283.413 99.2256 281.879 91.8243 279.447C89.6425 278.731 87.3887 277.994 85.0458 277.096C84.9673 277.066 84.8818 277.059 84.7993 277.075C84.7169 277.092 84.6407 277.131 84.5798 277.189L83.4995 278.236C82.8819 278.834 82.1014 279.237 81.2558 279.394C80.4102 279.55 79.5372 279.454 78.7461 279.117L75.4628 277.714C75.422 277.698 75.3781 277.691 75.3343 277.694C75.2905 277.697 75.2478 277.709 75.2096 277.731C75.1713 277.752 75.1384 277.782 75.1133 277.818C75.0882 277.854 75.0715 277.896 75.0645 277.939L75.0476 277.964Z" fill="black"/>
<path d="M73.7987 284.769C73.7987 284.769 73.7987 285.044 73.7987 285.192C73.7927 286.008 74.0868 286.797 74.6251 287.409C75.1634 288.022 75.9082 288.415 76.7177 288.514C81.4499 289.124 92.1768 289.785 101.319 288.937C101.942 288.878 103.048 288.425 103.357 286.861C103.404 286.424 103.41 285.983 103.374 285.544L102.726 285.578C93.4905 286.032 84.2344 285.81 75.0315 284.913L73.7987 284.769Z" fill="white"/>
<path d="M91.7909 289.967C86.7259 289.98 81.6645 289.697 76.6325 289.119C75.6685 289 74.782 288.53 74.1415 287.8C73.501 287.07 73.1512 286.13 73.1586 285.158V284.735C73.1617 284.647 73.1825 284.561 73.2196 284.482C73.2567 284.402 73.3095 284.331 73.3746 284.273C73.4403 284.215 73.517 284.172 73.6 284.145C73.683 284.118 73.7707 284.108 73.8576 284.116L75.1031 284.239C84.2753 285.128 93.5001 285.349 102.704 284.9L103.352 284.866C103.435 284.861 103.518 284.872 103.596 284.899C103.675 284.926 103.747 284.969 103.809 285.024C103.871 285.079 103.921 285.146 103.957 285.22C103.993 285.295 104.013 285.376 104.018 285.459C104.057 285.962 104.042 286.468 103.971 286.967C103.624 288.73 102.353 289.463 101.366 289.551C98.2559 289.857 94.9683 289.967 91.7909 289.967ZM74.4422 285.472C74.5048 286.079 74.7715 286.646 75.1986 287.082C75.6257 287.517 76.188 287.795 76.7935 287.87C81.6698 288.492 92.2103 289.141 101.255 288.293C101.455 288.293 102.454 288.115 102.73 286.73C102.759 286.546 102.773 286.361 102.772 286.175C93.508 286.642 84.2221 286.431 74.9888 285.544L74.4422 285.472Z" fill="black"/>
<path d="M87.5503 282.828C87.3819 282.828 87.2205 282.761 87.1012 282.642C87.0418 282.583 86.9946 282.513 86.9624 282.436C86.9302 282.359 86.9136 282.276 86.9136 282.193C86.9136 282.109 86.9302 282.027 86.9624 281.949C86.9946 281.872 87.0418 281.802 87.1012 281.744L90.6133 278.232C90.672 278.172 90.7419 278.125 90.819 278.093C90.8961 278.061 90.9788 278.044 91.0624 278.044C91.1459 278.044 91.2286 278.061 91.3057 278.093C91.3828 278.125 91.4527 278.172 91.5114 278.232C91.6294 278.351 91.6956 278.513 91.6956 278.681C91.6956 278.849 91.6294 279.01 91.5114 279.13L87.9993 282.642C87.88 282.761 87.7187 282.828 87.5503 282.828Z" fill="black"/>
<path d="M90.9986 283.193C90.874 283.192 90.7522 283.156 90.6483 283.087C90.5444 283.018 90.463 282.92 90.4142 282.806C90.3654 282.691 90.3515 282.565 90.374 282.442C90.3966 282.319 90.4547 282.206 90.5411 282.116L93.3457 279.202C93.4028 279.139 93.472 279.088 93.5492 279.052C93.6263 279.016 93.7099 278.996 93.7949 278.994C93.8799 278.991 93.9646 279.005 94.044 279.035C94.1234 279.066 94.1959 279.112 94.2572 279.171C94.3184 279.23 94.3672 279.301 94.4007 279.379C94.4341 279.457 94.4515 279.541 94.4518 279.626C94.4522 279.711 94.4354 279.795 94.4026 279.874C94.3698 279.952 94.3216 280.023 94.2608 280.083L91.4562 283.002C91.3969 283.063 91.3257 283.112 91.247 283.144C91.1684 283.177 91.0838 283.194 90.9986 283.193Z" fill="black"/>
<path d="M104.339 150.182C104.339 150.182 99.9285 152.724 98.2084 167.751C96.4884 182.778 97.0603 200.453 85.0751 218.001C75.5005 232.015 76.3394 255.664 74.9498 271.165C74.9335 271.344 74.954 271.523 75.0101 271.693C75.0662 271.863 75.1566 272.02 75.2758 272.153C75.3951 272.287 75.5405 272.394 75.703 272.469C75.8656 272.544 76.0418 272.585 76.2207 272.589L85.4013 272.902C85.6822 272.909 85.9579 272.825 86.187 272.663C86.4161 272.5 86.5864 272.268 86.6723 272C88.3119 266.916 96.4715 242.412 105.635 228.202C115.324 213.188 127.098 174.208 127.098 174.208C127.098 174.208 124.916 164.353 124.611 154.91C124.306 145.467 104.339 150.182 104.339 150.182Z" fill="black"/>
<path d="M158.389 211.917L154.521 228.617L161.367 232.447L166.159 214.306L158.389 211.917Z" fill="white"/>
<path d="M161.367 233.082C161.259 233.083 161.152 233.055 161.058 233.002L154.207 229.189C154.087 229.122 153.993 229.017 153.937 228.891C153.882 228.765 153.87 228.624 153.902 228.49L157.77 211.789C157.79 211.705 157.828 211.625 157.88 211.555C157.931 211.485 157.997 211.427 158.072 211.383C158.148 211.339 158.231 211.312 158.318 211.301C158.404 211.291 158.492 211.299 158.575 211.323L166.345 213.717C166.502 213.766 166.633 213.874 166.712 214.017C166.791 214.161 166.811 214.33 166.769 214.488L161.977 232.629C161.954 232.723 161.909 232.81 161.845 232.884C161.782 232.958 161.703 233.015 161.613 233.053C161.534 233.078 161.45 233.088 161.367 233.082ZM155.245 228.295L160.965 231.494L165.388 214.734L158.872 212.726L155.245 228.295Z" fill="black"/>
<path d="M153.695 227.63C153.471 229.244 152.001 232.29 152.001 234.993C151.995 235.808 152.289 236.597 152.827 237.21C153.366 237.822 154.11 238.215 154.92 238.314C159.652 238.924 171.464 239.522 180.602 238.691C181.229 238.636 182.335 238.179 182.644 236.619C183.678 231.37 174.552 230.087 164.545 226.282C164.354 226.208 164.145 226.19 163.944 226.23C163.743 226.271 163.557 226.368 163.41 226.511L162.33 227.557C161.802 228.07 161.135 228.414 160.412 228.548C159.689 228.681 158.942 228.597 158.267 228.307L154.988 226.909C154.856 226.852 154.714 226.825 154.57 226.832C154.427 226.839 154.288 226.878 154.163 226.948C154.037 227.018 153.93 227.116 153.849 227.234C153.768 227.352 153.715 227.488 153.695 227.63Z" fill="#99B9FF"/>
<path d="M170.345 239.729C165.161 239.758 159.98 239.495 154.826 238.941C153.862 238.823 152.975 238.354 152.334 237.623C151.693 236.893 151.344 235.952 151.352 234.98C151.373 233.192 151.979 231.273 152.471 229.731C152.722 229.015 152.922 228.282 153.068 227.537C153.101 227.3 153.188 227.074 153.322 226.876C153.457 226.678 153.635 226.514 153.843 226.396C154.052 226.279 154.284 226.211 154.523 226.198C154.762 226.184 155 226.227 155.22 226.321L158.503 227.719C159.066 227.963 159.689 228.034 160.293 227.923C160.896 227.812 161.453 227.524 161.893 227.096L162.969 226.05C163.205 225.825 163.499 225.672 163.818 225.606C164.137 225.541 164.468 225.567 164.774 225.681C167.104 226.571 169.349 227.304 171.514 228.015C178.585 230.337 184.173 232.167 183.27 236.738C182.923 238.501 181.648 239.234 180.665 239.323C177.471 239.615 173.878 239.729 170.345 239.729ZM154.326 227.719C154.172 228.533 153.957 229.335 153.682 230.117C153.216 231.583 152.64 233.404 152.623 235.001C152.619 235.661 152.858 236.299 153.294 236.794C153.73 237.29 154.332 237.607 154.987 237.687C159.275 238.238 171.167 238.912 180.534 238.06C180.728 238.06 181.733 237.882 182.008 236.497C182.656 233.192 178.504 231.655 171.103 229.227C168.921 228.511 166.663 227.774 164.325 226.876C164.245 226.845 164.159 226.837 164.076 226.854C163.992 226.87 163.916 226.91 163.854 226.969L162.778 228.015C162.16 228.614 161.38 229.016 160.534 229.172C159.688 229.328 158.815 229.231 158.025 228.892L154.746 227.494C154.706 227.475 154.663 227.465 154.619 227.465C154.575 227.465 154.531 227.475 154.491 227.494C154.453 227.516 154.419 227.546 154.394 227.583C154.369 227.62 154.353 227.662 154.347 227.706L154.326 227.719Z" fill="black"/>
<path d="M152.242 234.477C152.242 234.477 152.242 234.748 152.242 234.879C152.236 235.695 152.53 236.485 153.068 237.098C153.606 237.711 154.351 238.105 155.161 238.205C159.893 238.811 171.455 239.522 180.58 238.692C181.207 238.637 182.313 238.179 182.622 236.62C182.677 236.175 182.688 235.725 182.656 235.277L182.008 235.307C172.773 235.765 163.516 235.544 154.313 234.646L152.242 234.477Z" fill="white"/>
<path d="M171.222 239.708C165.822 239.72 160.426 239.428 155.059 238.835C154.095 238.716 153.209 238.247 152.568 237.516C151.928 236.786 151.578 235.846 151.585 234.874V234.451C151.588 234.364 151.608 234.279 151.644 234.2C151.681 234.121 151.733 234.051 151.797 233.993C151.861 233.934 151.937 233.889 152.019 233.861C152.102 233.833 152.189 233.823 152.276 233.832L154.352 233.997C163.528 234.891 172.757 235.112 181.966 234.658L182.614 234.629C182.781 234.619 182.944 234.677 183.069 234.788C183.194 234.899 183.269 235.055 183.279 235.222C183.316 235.725 183.301 236.23 183.232 236.73C182.885 238.492 181.61 239.225 180.627 239.314C177.615 239.602 174.374 239.708 171.222 239.708ZM152.882 235.167C152.943 235.775 153.21 236.345 153.638 236.782C154.066 237.22 154.63 237.498 155.237 237.573C159.381 238.107 171.01 238.924 180.534 238.06C180.729 238.06 181.733 237.882 182.008 236.497C182.035 236.313 182.048 236.128 182.046 235.942C172.781 236.398 163.495 236.176 154.263 235.277L152.882 235.167Z" fill="black"/>
<path d="M166.829 232.587C166.703 232.587 166.58 232.549 166.476 232.48C166.371 232.41 166.29 232.311 166.242 232.195C166.194 232.078 166.181 231.951 166.206 231.828C166.23 231.704 166.291 231.591 166.379 231.502L169.887 227.99C169.946 227.931 170.016 227.884 170.094 227.852C170.171 227.82 170.253 227.803 170.337 227.803C170.421 227.803 170.503 227.819 170.581 227.851C170.658 227.882 170.728 227.929 170.788 227.988C170.847 228.047 170.894 228.117 170.926 228.194C170.958 228.271 170.975 228.354 170.975 228.438C170.975 228.521 170.959 228.604 170.927 228.682C170.895 228.759 170.849 228.829 170.79 228.888L167.278 232.4C167.158 232.519 166.997 232.586 166.829 232.587Z" fill="black"/>
<path d="M170.277 232.946C170.152 232.946 170.03 232.91 169.927 232.841C169.823 232.772 169.741 232.674 169.693 232.56C169.644 232.445 169.63 232.318 169.652 232.196C169.675 232.073 169.733 231.96 169.819 231.87L172.624 228.956C172.681 228.893 172.75 228.842 172.827 228.806C172.905 228.77 172.988 228.75 173.073 228.747C173.158 228.745 173.243 228.759 173.322 228.789C173.402 228.82 173.474 228.866 173.535 228.925C173.597 228.984 173.646 229.054 173.679 229.133C173.712 229.211 173.73 229.295 173.73 229.38C173.73 229.465 173.714 229.549 173.681 229.628C173.648 229.706 173.6 229.777 173.539 229.837L170.734 232.752C170.675 232.813 170.604 232.861 170.525 232.895C170.447 232.928 170.362 232.946 170.277 232.946Z" fill="black"/>
<path d="M122.014 176.855C122.014 176.855 142.633 175.233 165.65 162.875C166.328 162.51 166.769 163.633 166.353 164.285C165.197 166.12 164.578 168.865 162.854 173.559C160.736 179.334 156.232 209.206 154.754 218.505C154.722 218.702 154.732 218.905 154.785 219.098C154.837 219.291 154.93 219.471 155.058 219.626C155.185 219.78 155.344 219.905 155.524 219.993C155.704 220.081 155.901 220.13 156.101 220.136L164.951 220.424C165.224 220.433 165.494 220.363 165.728 220.221C165.962 220.08 166.15 219.874 166.269 219.627C169.463 212.976 190.311 160.621 189.515 150.868C188.667 140.328 176.619 141.031 171.598 140.7C166.408 140.37 119.328 149.174 119.328 149.174L122.014 176.855Z" fill="black"/>
<path d="M59.3128 161.46C60.0287 160.613 60.9481 159.613 61.7446 158.829C62.7698 157.816 66.1929 151.152 66.1929 151.152L72.1749 152.847C72.1749 152.847 69.3788 157.74 70.0567 160.176C70.6837 162.447 71.1794 167.239 67.8537 170.729C67.6449 170.898 67.4038 171.023 67.1453 171.096C66.8867 171.169 66.616 171.188 66.3497 171.153C65.4812 170.954 65.4642 169.747 65.8879 168.967L67.0868 166.756C67.111 166.712 67.1226 166.663 67.1202 166.613C67.1179 166.563 67.1017 166.515 67.0735 166.474C67.0453 166.433 67.0062 166.401 66.9607 166.381C66.9151 166.361 66.8649 166.355 66.8157 166.362C65.9176 166.489 63.9433 167.061 61.8759 169.611C60.2872 171.573 57.1352 175.966 56.076 175.224C54.1569 173.949 55.394 166.107 59.3128 161.46Z" fill="white"/>
<path d="M56.3172 175.966C56.0925 175.966 55.8734 175.897 55.6902 175.767C55.1225 175.377 54.7581 174.64 54.6141 173.581C54.1904 170.467 55.669 164.79 58.8083 161.049C59.5285 160.202 60.452 159.193 61.2782 158.376C61.973 157.689 64.3031 153.402 65.6079 150.864C65.6748 150.734 65.7847 150.63 65.9191 150.572C66.0534 150.513 66.2039 150.503 66.3451 150.542L72.3313 152.237C72.4242 152.263 72.5098 152.31 72.5817 152.375C72.6535 152.439 72.7098 152.519 72.7461 152.609C72.7825 152.698 72.798 152.795 72.7914 152.891C72.7849 152.987 72.7565 153.081 72.7084 153.165C71.967 154.461 70.1665 158.223 70.6452 160.011C71.5433 163.269 71.3951 167.908 68.2897 171.17C68.0034 171.422 67.6654 171.608 67.2995 171.716C66.9336 171.824 66.5485 171.85 66.1714 171.793C65.9412 171.738 65.7269 171.631 65.5453 171.48C65.3637 171.328 65.2198 171.137 65.125 170.92C64.988 170.557 64.9326 170.167 64.9626 169.78C64.9926 169.393 65.1074 169.017 65.2987 168.679L66.1078 167.192C65.1927 167.493 63.7989 168.23 62.3415 170.03C62.1043 170.318 61.8332 170.666 61.5408 171.039C59.2573 173.949 57.5669 175.966 56.3172 175.966ZM59.7996 161.845C56.9781 165.209 55.4995 170.53 55.8893 173.386C55.9086 173.852 56.0814 174.299 56.3807 174.657C57.1814 174.53 59.5454 171.522 60.5622 170.225C60.8587 169.848 61.1341 169.497 61.3756 169.204C63.5447 166.522 65.6545 165.874 66.7179 165.722C66.8837 165.698 67.0528 165.721 67.2062 165.788C67.3597 165.855 67.4915 165.963 67.587 166.101C67.6824 166.239 67.7376 166.4 67.7465 166.567C67.7554 166.734 67.7175 166.901 67.6372 167.048L66.4383 169.259C66.3421 169.426 66.2808 169.611 66.2582 169.803C66.2357 169.994 66.2522 170.189 66.307 170.373C66.3201 170.413 66.3436 170.447 66.3749 170.474C66.4062 170.501 66.4442 170.519 66.4849 170.526C66.7927 170.549 67.0999 170.473 67.3619 170.31C70.8994 166.594 69.6877 161.371 69.4124 160.363C68.8277 158.244 70.4249 154.779 71.2129 153.258L66.5146 151.906C65.6672 153.52 63.1253 158.35 62.1848 159.278C61.3968 160.062 60.4902 161.053 59.7954 161.866L59.7996 161.845Z" fill="black"/>
<path d="M202.749 86.2316L198.881 79.7158C198.246 78.6397 196.246 78.3177 195.246 79.0591C173.394 95.3529 150.144 88.7058 146.551 87.85C137.655 85.7317 133.151 85.4055 126.114 84.9776C115.824 84.3506 101.013 90.3029 91.0484 100.267C83.1218 108.198 69.5987 133.91 63.4684 151.771C63.3443 152.134 63.3547 152.53 63.4978 152.886C63.6408 153.242 63.907 153.535 64.2479 153.711L70.3994 156.906C70.7742 157.099 71.21 157.137 71.6127 157.012C72.0154 156.887 72.3526 156.608 72.5516 156.236C75.6824 150.339 89.2436 125.877 103.44 117.798C104.482 117.205 106.054 117.832 105.982 119.031C105.796 122.793 103.44 136.731 102.75 149.644C102.703 150.467 102.957 151.279 103.466 151.928C103.974 152.577 104.702 153.018 105.512 153.169L111.719 154.322C122.551 156.842 132.706 154.033 137.18 152.436C138.549 151.949 139.214 150.627 139.421 149.187C139.764 146.802 144.573 127.652 153.343 114.989C153.861 114.192 154.555 113.524 155.372 113.037C156.188 112.55 157.106 112.257 158.054 112.181C165.87 111.723 188.133 108.596 202.648 88.2397C202.858 87.951 202.979 87.6074 202.997 87.2508C203.015 86.8942 202.929 86.5401 202.749 86.2316Z" fill="#5479F7"/>
<path d="M197.424 81.6724C197.382 81.4348 197.402 81.1904 197.483 80.9631C197.564 80.7357 197.703 80.5334 197.886 80.376C198.381 79.9524 199.216 79.2364 200.427 78.1773C202.546 76.3047 205.24 72.5723 207.57 71.4539C209.9 70.3354 218.357 67.0309 219.708 67.7299C221.059 68.429 220.39 70.0219 218.471 70.9412C216.552 71.8606 214.052 72.8138 214.052 72.8138C214.052 72.8138 215.446 72.7333 216.48 74.3474C217.514 75.9616 216.082 76.6097 216.687 77.4105C217.458 78.4315 217.23 79.6219 216.615 80.143C215.222 81.3335 213.531 78.9822 212.269 81.414C211.392 83.1086 209.303 84.2017 205.122 85.0066C203.993 85.2305 202.916 85.6614 201.944 86.2776C201.747 86.4028 201.52 86.4724 201.286 86.4791C201.053 86.4858 200.822 86.4294 200.618 86.3157C199.768 85.8358 199.038 85.1681 198.484 84.3634C197.93 83.5588 197.568 82.6384 197.424 81.6724Z" fill="white"/>
<path d="M201.237 87.0997C200.909 87.1007 200.586 87.016 200.301 86.854C199.366 86.3304 198.563 85.6002 197.954 84.7191C197.345 83.838 196.944 82.8294 196.784 81.7701C196.725 81.4241 196.757 81.0688 196.876 80.7385C196.994 80.4082 197.196 80.1141 197.462 79.8849C197.958 79.4612 198.788 78.7495 200.004 77.6903C200.864 76.8962 201.681 76.0577 202.453 75.1781C204.046 73.4411 205.694 71.6405 207.291 70.8737C207.393 70.8229 218.009 66.1288 220.001 67.1583C220.313 67.2984 220.578 67.5256 220.764 67.8127C220.951 68.0997 221.05 68.4344 221.051 68.7766C221.051 69.7849 220.153 70.8314 218.747 71.505C217.798 71.9625 216.722 72.4201 215.862 72.7759C216.324 73.103 216.715 73.5193 217.014 74.0003C217.281 74.3716 217.446 74.8068 217.491 75.262C217.536 75.7172 217.461 76.1763 217.272 76.5931C217.141 76.9574 217.158 76.9744 217.192 77.0167C218.175 78.3216 217.874 79.9018 217.031 80.6178C216.188 81.3338 215.273 81.1347 214.599 80.9948C213.752 80.8169 213.328 80.7322 212.832 81.6981C211.833 83.6215 209.562 84.795 205.24 85.6212C204.189 85.8255 203.183 86.2218 202.275 86.7905C201.965 86.9893 201.605 87.0965 201.237 87.0997ZM219.081 68.2513C217.285 68.2513 210.608 70.7043 207.837 72.0261C206.461 72.687 204.897 74.3943 203.385 76.0466C202.584 76.9608 201.736 77.8319 200.843 78.6563C199.627 79.7197 198.792 80.4399 198.301 80.8593C198.202 80.9459 198.128 81.0566 198.085 81.1806C198.042 81.3046 198.031 81.4377 198.055 81.5668C198.186 82.4373 198.515 83.2664 199.014 83.991C199.514 84.7156 200.173 85.3166 200.94 85.7483C201.045 85.8048 201.164 85.8322 201.283 85.8278C201.402 85.8233 201.518 85.7871 201.618 85.7228C202.656 85.0705 203.805 84.6152 205.007 84.3799C208.909 83.6385 210.913 82.6598 211.714 81.1219C212.659 79.296 213.989 79.5756 214.87 79.7578C215.518 79.8933 215.874 79.9484 216.213 79.6603C216.438 79.3994 216.559 79.0655 216.554 78.7214C216.549 78.3773 216.419 78.0467 216.188 77.792C216.025 77.5563 215.929 77.2807 215.912 76.9948C215.894 76.709 215.954 76.4236 216.086 76.1694C216.206 75.935 216.257 75.6714 216.234 75.4091C216.211 75.1468 216.114 74.8963 215.955 74.6866C215.146 73.4157 214.103 73.4453 214.095 73.4453C213.944 73.453 213.795 73.4065 213.675 73.3142C213.555 73.2218 213.472 73.0896 213.441 72.9415C213.409 72.7933 213.432 72.6389 213.505 72.506C213.577 72.3731 213.695 72.2706 213.836 72.2167C213.858 72.2167 216.332 71.2677 218.204 70.3696C219.285 69.8485 219.785 69.1749 219.789 68.7639C219.789 68.6877 219.789 68.4885 219.424 68.2979C219.32 68.2612 219.209 68.2453 219.098 68.2513H219.081Z" fill="black"/>
<path d="M140.929 67.3066L129.368 86.4686C129.211 86.6889 127.512 86.6296 125.597 86.8202C124.703 86.9134 123.771 87.049 122.996 87.1761C122.86 87.2019 122.734 87.2671 122.635 87.3636C122.535 87.4602 122.466 87.5839 122.436 87.7192C122.407 87.8546 122.417 87.9958 122.467 88.1252C122.517 88.2546 122.603 88.3665 122.716 88.447L124.788 89.8197C129.111 92.7291 134.271 94.136 139.472 93.8232C140.846 93.7426 142.207 93.5038 143.526 93.1115L147.953 91.7177C148.098 91.6729 148.224 91.5832 148.313 91.4616C148.403 91.34 148.451 91.193 148.451 91.0419C148.451 90.8909 148.403 90.7439 148.313 90.6223C148.224 90.5007 148.098 90.411 147.953 90.3662L142.315 88.6716L147.076 78.5674L140.929 67.3066Z" fill="white"/>
<path d="M137.985 94.5264C133.157 94.4931 128.444 93.0469 124.428 90.3661L122.36 88.9935C122.135 88.8443 121.961 88.6308 121.859 88.3808C121.757 88.1308 121.733 87.856 121.79 87.5921C121.846 87.3283 121.981 87.0876 122.177 86.9015C122.372 86.7154 122.619 86.5926 122.886 86.549C123.864 86.388 124.754 86.2694 125.525 86.1889C126.296 86.1084 127.084 86.0702 127.694 86.0406C128.16 86.0194 128.673 85.9898 128.927 85.9559L140.366 66.9761C140.423 66.8809 140.505 66.8025 140.602 66.7489C140.7 66.6954 140.81 66.6685 140.921 66.6711C141.033 66.6734 141.142 66.7052 141.238 66.7632C141.334 66.8212 141.413 66.9034 141.467 67.0015L147.606 78.2623C147.651 78.3517 147.674 78.4504 147.674 78.5504C147.674 78.6504 147.651 78.749 147.606 78.8384L143.196 88.2775L148.131 89.773C148.406 89.8574 148.646 90.0276 148.817 90.2587C148.988 90.4897 149.08 90.7694 149.08 91.0567C149.08 91.3439 148.988 91.6236 148.817 91.8546C148.646 92.0857 148.406 92.2559 148.131 92.3403L143.704 93.7342C142.337 94.1425 140.926 94.3913 139.501 94.4756C139.006 94.5095 138.497 94.5264 137.985 94.5264ZM140.9 68.5818L129.91 86.7989L129.884 86.8413C129.609 87.2183 129.147 87.2395 127.766 87.3116C127.169 87.3412 126.423 87.3751 125.648 87.4556C124.873 87.5361 124.038 87.6462 123.085 87.803C123.07 87.803 123.055 87.8086 123.044 87.8188C123.033 87.8291 123.027 87.8431 123.026 87.8581C123.021 87.8723 123.022 87.8874 123.028 87.9012C123.033 87.9149 123.043 87.9266 123.055 87.9343L125.127 89.3027C129.34 92.1286 134.361 93.4989 139.425 93.2046C140.751 93.1287 142.063 92.8983 143.336 92.5183L147.763 91.1245C147.778 91.1214 147.792 91.1128 147.801 91.1003C147.81 91.0878 147.815 91.0722 147.814 91.0567C147.816 91.0404 147.812 91.0238 147.803 91.0104C147.793 90.997 147.779 90.9877 147.763 90.9846L142.124 89.29C142.036 89.2631 141.956 89.2178 141.887 89.1572C141.818 89.0966 141.763 89.022 141.726 88.9384C141.688 88.856 141.668 88.7664 141.668 88.6757C141.668 88.5851 141.688 88.4955 141.726 88.4131L146.348 78.597L140.9 68.5818Z" fill="black"/>
<path d="M146.089 78.9648C146.712 79.0429 147.34 79.0656 147.966 79.0326L149.106 78.9733C149.106 78.9733 155.651 78.126 156.702 76.4822C157.753 74.8384 155.533 68.9623 155.533 68.9623C156.545 68.1786 156.77 67.183 156.554 66.844C156.338 66.5051 154.88 65.9967 154.287 65.5731C153.804 65.2172 152.724 62.3957 152.258 61.184C152.258 61.184 151.411 56.4009 143.73 57.0237C126.148 58.4472 138.79 74.7156 138.79 74.7156C139.061 75.0333 139.341 75.3383 139.637 75.6222L146.089 78.9648Z" fill="white"/>
<path d="M147.432 79.6816C146.452 79.6835 145.475 79.5509 144.53 79.2876C144.372 79.2388 144.24 79.1304 144.16 78.9854C144.081 78.8404 144.061 78.6702 144.105 78.5109C144.15 78.3516 144.254 78.2158 144.397 78.1322C144.539 78.0486 144.709 78.0239 144.869 78.0632C145.872 78.3428 146.914 78.4559 147.953 78.3979L149.068 78.3386C151.665 77.9912 155.579 77.0676 156.189 76.1356C156.799 75.2036 155.833 71.5093 154.961 69.1876C154.913 69.061 154.907 68.9224 154.944 68.7921C154.98 68.6618 155.057 68.5466 155.164 68.4632C155.382 68.3174 155.569 68.1301 155.714 67.912C155.859 67.6939 155.96 67.4493 156.011 67.1922C155.737 67.0355 155.454 66.8941 155.164 66.7686C154.736 66.5793 154.323 66.3554 153.931 66.0992C153.461 65.7518 152.876 64.5317 151.686 61.439C151.672 61.402 151.662 61.3637 151.656 61.3246C151.622 61.1551 150.762 57.1177 143.802 57.6812C139.527 58.0286 136.811 59.2445 135.722 61.2949C133.875 64.7774 136.854 70.0519 138.637 73.2039L138.794 73.4878C138.84 73.5606 138.872 73.6421 138.885 73.7274C138.899 73.8126 138.896 73.8998 138.875 73.9836C138.854 74.0674 138.816 74.1461 138.764 74.2148C138.711 74.2835 138.645 74.3408 138.57 74.3832C138.495 74.4256 138.412 74.4522 138.326 74.4613C138.24 74.4705 138.153 74.4621 138.07 74.4366C137.988 74.4111 137.911 74.369 137.846 74.3129C137.78 74.2569 137.726 74.188 137.688 74.1105L137.527 73.8309C135.621 70.4417 132.443 64.7943 134.6 60.6976C135.905 58.2362 138.963 56.7957 143.7 56.4102C151.326 55.7959 152.728 60.3629 152.889 61.0196C154.054 64.0572 154.52 64.9172 154.706 65.0994C155.03 65.2995 155.367 65.4764 155.715 65.6289C156.469 65.989 156.905 66.2093 157.109 66.5271C157.494 67.1202 157.27 68.2471 156.299 69.1834C156.876 70.7933 158.308 75.2247 157.257 76.8516C156.105 78.6309 150.351 79.4782 149.207 79.6308H149.127L147.983 79.6901L147.432 79.6816Z" fill="black"/>
<path d="M140.141 54.9397C142.056 54.5584 144.242 54.8592 145.174 54.5414C146.682 54.0246 146.644 52.2918 148.771 52.1224C150.639 51.9741 152.376 52.3215 153.317 53.7492C153.482 54.0024 153.617 54.2739 153.719 54.5584C155.194 58.6 153.16 60.5489 152.258 61.1801C152.258 61.1801 146.568 63.9169 145.585 64.7007C144.666 65.4378 143.581 67.1875 144.174 69.7168C144.213 69.8798 144.197 70.0509 144.129 70.2039C144.06 70.3569 143.944 70.4834 143.797 70.5641C143.632 70.6571 143.438 70.6852 143.253 70.6429C143.068 70.6006 142.906 70.4909 142.798 70.3353C142.09 69.3185 140.544 67.3443 139.408 67.7934C138.07 68.3272 137.616 71.691 140.078 72.5256C140.253 72.5882 140.411 72.6933 140.537 72.8314C140.662 72.9695 140.752 73.1364 140.797 73.3173C140.843 73.4983 140.843 73.6877 140.798 73.8689C140.753 74.05 140.664 74.2172 140.539 74.3558C140.267 74.6501 139.916 74.8597 139.527 74.9596C139.139 75.0595 138.73 75.0455 138.349 74.9192C138.349 74.9192 132.223 70.5514 131.499 64.7939C130.774 59.0364 137.591 55.4396 140.141 54.9397Z" fill="black"/>
<path d="M197.911 19.2292C197.287 19.2336 196.674 19.0657 196.139 18.744C195.605 18.4223 195.17 17.9593 194.881 17.406C194.593 16.8527 194.463 16.2306 194.506 15.6082C194.548 14.9858 194.762 14.3872 195.123 13.8785C195.379 13.5115 195.704 13.1985 196.08 12.9573C196.456 12.716 196.877 12.5512 197.317 12.4724C197.757 12.3935 198.208 12.402 198.645 12.4976C199.081 12.5931 199.495 12.7737 199.862 13.029C200.229 13.2844 200.542 13.6095 200.783 13.9859C201.024 14.3622 201.189 14.7824 201.268 15.2224C201.347 15.6624 201.338 16.1137 201.243 16.5504C201.147 16.9871 200.967 17.4007 200.711 17.7676C200.456 18.1353 200.131 18.4489 199.755 18.6903C199.378 18.9317 198.957 19.0961 198.517 19.1742C198.317 19.2095 198.114 19.2279 197.911 19.2292ZM197.911 13.6878C197.566 13.6876 197.226 13.7706 196.92 13.93C196.614 14.0893 196.35 14.3201 196.153 14.6029C195.991 14.8321 195.877 15.0911 195.817 15.3647C195.756 15.6384 195.751 15.9213 195.8 16.1972C195.85 16.473 195.954 16.7363 196.106 16.9717C196.258 17.207 196.455 17.4099 196.686 17.5685C197.151 17.8921 197.725 18.0179 198.283 17.9182C198.84 17.8185 199.335 17.5014 199.658 17.0368C199.982 16.5722 200.108 15.9981 200.008 15.4407C199.908 14.8834 199.591 14.3885 199.127 14.0649C198.771 13.8216 198.35 13.6902 197.919 13.6878H197.911Z" fill="black"/>
<path d="M218.467 22.7875C218.336 22.7897 218.208 22.7515 218.099 22.6781C217.991 22.6047 217.908 22.4996 217.862 22.3772C217.815 22.2549 217.808 22.1212 217.84 21.9945C217.873 21.8677 217.944 21.7541 218.043 21.6691L220.111 19.9109C220.24 19.8145 220.401 19.771 220.562 19.7892C220.722 19.8074 220.869 19.8859 220.974 20.0088C221.079 20.1317 221.133 20.2899 221.125 20.4511C221.117 20.6123 221.048 20.7645 220.932 20.8768L218.882 22.6265C218.767 22.7279 218.62 22.785 218.467 22.7875Z" fill="black"/>
<path d="M211.981 28.316C211.85 28.3182 211.722 28.28 211.613 28.2065C211.505 28.1331 211.422 28.028 211.376 27.9057C211.329 27.7833 211.322 27.6497 211.354 27.5229C211.387 27.3962 211.458 27.2825 211.557 27.1975L213.612 25.4478C213.674 25.3873 213.748 25.3402 213.83 25.3095C213.911 25.2788 213.998 25.2651 214.085 25.2693C214.171 25.2734 214.256 25.2954 214.334 25.3337C214.413 25.3721 214.482 25.426 214.538 25.4922C214.594 25.5584 214.637 25.6355 214.662 25.7186C214.687 25.8018 214.695 25.8893 214.686 25.9756C214.676 26.062 214.648 26.1455 214.605 26.2208C214.562 26.2962 214.503 26.3619 214.434 26.4138L212.383 28.1635C212.271 28.2596 212.129 28.3135 211.981 28.316Z" fill="black"/>
<path d="M214.37 22.4529C214.278 22.4526 214.187 22.4324 214.104 22.3937C214.021 22.3549 213.947 22.2985 213.887 22.2284L212.137 20.1779C212.072 20.1168 212.02 20.0425 211.985 19.9598C211.95 19.8772 211.933 19.7881 211.935 19.6984C211.937 19.6087 211.958 19.5205 211.997 19.4395C212.035 19.3585 212.09 19.2866 212.159 19.2285C212.227 19.1704 212.307 19.1274 212.393 19.1024C212.479 19.0774 212.57 19.0708 212.658 19.0833C212.747 19.0957 212.832 19.1268 212.908 19.1746C212.984 19.2223 213.049 19.2856 213.099 19.3602L214.849 21.4149C214.903 21.4782 214.944 21.5516 214.97 21.6309C214.996 21.7102 215.006 21.7938 214.999 21.8769C214.992 21.96 214.969 22.041 214.931 22.1151C214.893 22.1893 214.841 22.2551 214.777 22.3089C214.663 22.4035 214.518 22.4545 214.37 22.4529Z" fill="black"/>
<path d="M219.878 28.9477C219.786 28.9475 219.695 28.9273 219.612 28.8885C219.528 28.8497 219.454 28.7933 219.395 28.7232L217.658 26.6896C217.545 26.5638 217.488 26.3985 217.497 26.23C217.507 26.0616 217.583 25.9039 217.709 25.7915C217.834 25.6791 218 25.6214 218.168 25.6309C218.337 25.6404 218.494 25.7165 218.607 25.8423L220.356 27.8928C220.414 27.9557 220.459 28.0297 220.488 28.1104C220.517 28.191 220.529 28.2766 220.524 28.3621C220.519 28.4476 220.496 28.5311 220.458 28.6077C220.42 28.6843 220.367 28.7524 220.301 28.8079C220.181 28.9035 220.031 28.9531 219.878 28.9477Z" fill="black"/>
<path d="M48.9372 266.203C48.7734 266.204 48.616 266.14 48.4982 266.026C48.3804 265.912 48.3115 265.757 48.306 265.593L48.2001 262.899C48.1943 262.73 48.2557 262.566 48.3709 262.442C48.486 262.318 48.6454 262.245 48.8144 262.238C48.8978 262.234 48.9811 262.247 49.0595 262.275C49.1379 262.304 49.2098 262.348 49.271 262.405C49.3322 262.462 49.3814 262.53 49.4157 262.606C49.4501 262.682 49.4689 262.765 49.471 262.848L49.5727 265.547C49.5784 265.715 49.5175 265.878 49.4032 266.001C49.2889 266.124 49.1305 266.197 48.9627 266.203H48.9372Z" fill="black"/>
<path d="M49.259 274.723C49.0944 274.722 48.9365 274.658 48.8181 274.543C48.6998 274.429 48.6301 274.273 48.6235 274.109L48.5218 271.414C48.519 271.33 48.533 271.246 48.5628 271.167C48.5927 271.089 48.6379 271.017 48.6959 270.956C48.7538 270.895 48.8233 270.846 48.9004 270.812C48.9774 270.778 49.0604 270.759 49.1446 270.758C49.228 270.754 49.3114 270.766 49.3898 270.795C49.4682 270.824 49.5401 270.868 49.6012 270.924C49.6624 270.981 49.7116 271.05 49.746 271.126C49.7803 271.202 49.7991 271.284 49.8013 271.368L49.903 274.062C49.9087 274.23 49.8479 274.394 49.7337 274.518C49.6195 274.642 49.4611 274.715 49.2929 274.723H49.259Z" fill="black"/>
<path d="M43.4423 269.326C43.2737 269.33 43.1107 269.266 42.9892 269.149C42.8676 269.032 42.7974 268.872 42.7941 268.703C42.7907 268.535 42.8544 268.372 42.9712 268.25C43.088 268.129 43.2483 268.059 43.4168 268.055L46.1155 267.954C46.2841 267.947 46.4482 268.008 46.5717 268.123C46.6953 268.238 46.7681 268.397 46.7743 268.566C46.7805 268.734 46.7195 268.898 46.6047 269.022C46.4899 269.145 46.3307 269.218 46.1621 269.225L43.4677 269.326H43.4423Z" fill="black"/>
<path d="M51.9575 269.021C51.789 269.021 51.6273 268.954 51.5081 268.834C51.389 268.715 51.322 268.554 51.322 268.385C51.322 268.217 51.389 268.055 51.5081 267.936C51.6273 267.817 51.789 267.75 51.9575 267.75L54.652 267.648C54.8205 267.642 54.9846 267.703 55.1081 267.818C55.2317 267.932 55.3046 268.092 55.3107 268.26C55.3169 268.429 55.2559 268.593 55.1411 268.716C55.0263 268.84 54.8671 268.913 54.6986 268.919L52.0041 269.021H51.9575Z" fill="black"/>
<path d="M34.9185 229.078C34.7963 229.078 34.6769 229.042 34.5741 228.976C34.4713 228.91 34.3895 228.816 34.338 228.706C23.1009 204.249 19.3212 177.023 23.4713 150.431C24.5125 143.704 26.0446 137.061 28.0552 130.557C28.1052 130.396 28.2172 130.261 28.3666 130.183C28.516 130.104 28.6905 130.088 28.8517 130.138C29.0129 130.188 29.1477 130.3 29.2264 130.449C29.305 130.599 29.3211 130.773 29.2711 130.934C27.2771 137.378 25.7591 143.96 24.7295 150.626C20.6145 176.972 24.359 203.947 35.4946 228.176C35.5383 228.273 35.5571 228.379 35.5494 228.485C35.5417 228.591 35.5077 228.693 35.4505 228.783C35.3933 228.873 35.3148 228.946 35.2219 228.998C35.129 229.05 35.0247 229.077 34.9185 229.078Z" fill="black"/>
<path d="M36.5198 232.443C36.4007 232.443 36.284 232.41 36.1828 232.347C36.0817 232.284 36.0003 232.194 35.9479 232.087C35.4014 230.977 34.8591 229.837 34.338 228.698C34.3032 228.622 34.2838 228.54 34.2807 228.456C34.2776 228.373 34.291 228.29 34.3202 228.211C34.3493 228.133 34.3935 228.061 34.4504 228C34.5072 227.939 34.5756 227.889 34.6515 227.855C34.7275 227.82 34.8095 227.8 34.893 227.797C34.9764 227.794 35.0597 227.808 35.138 227.837C35.2961 227.896 35.4244 228.015 35.4946 228.168C36.0072 229.287 36.5453 230.413 37.0875 231.519C37.161 231.67 37.1719 231.844 37.1179 232.002C37.064 232.161 36.9495 232.292 36.7994 232.367C36.7129 232.412 36.6175 232.438 36.5198 232.443Z" fill="black"/>
<path d="M28.3857 245.529C28.2688 245.529 28.1542 245.496 28.0547 245.435C27.9552 245.374 27.8747 245.286 27.8222 245.182C19.9597 229.833 14.7229 213.277 12.3291 196.199C9.83264 178.377 10.4058 160.26 14.0237 142.632C14.0404 142.55 14.0731 142.472 14.1198 142.403C14.1665 142.334 14.2264 142.274 14.296 142.228C14.3656 142.182 14.4437 142.151 14.5256 142.135C14.6075 142.119 14.6918 142.119 14.7736 142.136C14.8554 142.153 14.9331 142.185 15.0023 142.232C15.0714 142.279 15.1307 142.339 15.1767 142.408C15.2228 142.478 15.2546 142.556 15.2705 142.638C15.2864 142.72 15.286 142.804 15.2693 142.886C8.21542 177.494 13.0705 213.636 28.9322 244.601C29.0054 244.75 29.0176 244.922 28.9662 245.081C28.9148 245.239 28.8038 245.371 28.6568 245.448C28.5733 245.495 28.4808 245.522 28.3857 245.529Z" fill="black"/>
<path d="M19.3997 136.959C19.3184 136.958 19.238 136.943 19.1625 136.912L13.7355 134.722C13.632 134.681 13.5414 134.613 13.4725 134.525C13.4036 134.437 13.359 134.333 13.3432 134.223C13.3273 134.113 13.3407 134 13.382 133.897C13.4234 133.793 13.4912 133.702 13.5787 133.633L19.1667 129.265C19.2616 129.191 19.3758 129.145 19.4958 129.133C19.6158 129.121 19.7368 129.143 19.8446 129.198C19.9522 129.251 20.0423 129.334 20.1039 129.437C20.1656 129.54 20.1961 129.658 20.192 129.778L20.0352 136.34C20.0327 136.444 20.0052 136.544 19.955 136.634C19.9048 136.725 19.8335 136.801 19.7471 136.857C19.6434 136.924 19.5229 136.959 19.3997 136.959ZM15.2521 133.951L18.8066 135.387L18.9125 131.087L15.2521 133.951Z" fill="black"/>
<path d="M205.609 152.816C205.51 152.816 205.412 152.793 205.323 152.749C205.234 152.705 205.156 152.641 205.096 152.562C205.047 152.494 205.011 152.418 204.991 152.337C204.971 152.256 204.967 152.171 204.979 152.089C204.992 152.006 205.021 151.927 205.064 151.855C205.107 151.784 205.164 151.721 205.232 151.672L223.75 137.95C223.886 137.865 224.05 137.835 224.208 137.865C224.365 137.895 224.506 137.984 224.602 138.113C224.697 138.242 224.741 138.402 224.723 138.562C224.706 138.722 224.629 138.869 224.508 138.975L205.986 152.693C205.877 152.774 205.745 152.817 205.609 152.816Z" fill="black"/>
<path d="M177.648 128.668C177.548 128.668 177.451 128.645 177.362 128.601C177.273 128.557 177.195 128.493 177.135 128.414C177.085 128.347 177.05 128.27 177.03 128.189C177.009 128.108 177.006 128.023 177.018 127.941C177.031 127.858 177.06 127.779 177.103 127.707C177.146 127.636 177.203 127.574 177.271 127.524L224.538 92.5217C224.674 92.4317 224.839 92.3974 224.999 92.4257C225.16 92.454 225.303 92.5429 225.4 92.674C225.497 92.805 225.54 92.9682 225.519 93.1299C225.499 93.2916 225.418 93.4394 225.292 93.5427L178.025 128.545C177.916 128.626 177.783 128.669 177.648 128.668Z" fill="black"/>
<path d="M211.066 112.925C210.966 112.926 210.867 112.903 210.778 112.858C210.689 112.813 210.612 112.747 210.553 112.667C210.454 112.531 210.411 112.362 210.436 112.195C210.461 112.029 210.55 111.878 210.684 111.777L235.553 93.3694C235.689 93.2794 235.854 93.245 236.014 93.2734C236.175 93.3017 236.318 93.3906 236.415 93.5216C236.512 93.6527 236.555 93.8159 236.535 93.9776C236.514 94.1392 236.433 94.287 236.307 94.3904L211.455 112.798C211.343 112.883 211.206 112.927 211.066 112.925Z" fill="black"/>
<path d="M63.4045 156.688C62.9695 156.687 62.5385 156.605 62.1336 156.447C61.6913 156.275 61.288 156.016 60.9475 155.686C60.6069 155.355 60.336 154.96 60.1508 154.523C59.7723 153.65 59.7506 152.663 60.0902 151.774C60.4299 150.885 61.104 150.164 61.9683 149.766C62.1223 149.697 62.2973 149.692 62.455 149.752C62.6128 149.812 62.7402 149.932 62.8093 150.086C62.8784 150.24 62.8835 150.415 62.8235 150.572C62.7635 150.73 62.6434 150.857 62.4894 150.927C61.9274 151.185 61.4896 151.654 61.2701 152.233C61.0506 152.811 61.067 153.453 61.3159 154.019C61.4349 154.3 61.6085 154.554 61.8267 154.768C62.0449 154.981 62.3033 155.148 62.5869 155.261C62.8625 155.369 63.1571 155.421 63.4533 155.414C63.7495 155.407 64.0412 155.34 64.3111 155.218C64.8712 154.956 65.307 154.486 65.5261 153.908C65.7452 153.33 65.7304 152.689 65.4847 152.121C65.4447 152.044 65.4211 151.959 65.4153 151.872C65.4096 151.785 65.4219 151.697 65.4513 151.615C65.4808 151.533 65.5269 151.458 65.5867 151.394C65.6465 151.331 65.7187 151.28 65.7989 151.246C65.879 151.212 65.9654 151.194 66.0527 151.195C66.1399 151.195 66.2261 151.213 66.306 151.249C66.3858 151.284 66.4575 151.335 66.5166 151.399C66.5758 151.463 66.6211 151.539 66.6497 151.621C67.028 152.494 67.0497 153.48 66.71 154.369C66.3703 155.257 65.6963 155.977 64.8322 156.375C64.3837 156.579 63.8972 156.685 63.4045 156.688Z" fill="black"/>
<path d="M76.512 30.2619L77.6685 34.6976L82.6761 34.5324C83.1233 35.501 83.6505 36.4306 84.2521 37.3116L81.5492 41.5185L84.7732 44.7848L89.0098 42.1328C89.8799 42.7485 90.8012 43.2886 91.7636 43.7469L91.5305 48.7545L95.9705 49.9916L98.3217 45.5771C99.3861 45.6661 100.456 45.6661 101.52 45.5771L103.821 50.0297L108.256 48.8689L108.091 43.8655C109.06 43.4183 109.989 42.8912 110.87 42.2895L115.082 44.9882L118.344 41.7684L115.696 37.5319C116.311 36.648 116.851 35.7141 117.31 34.74L122.318 34.973L123.533 30.55L119.119 28.1945C119.208 27.1316 119.208 26.0631 119.119 25.0001L123.572 22.6997L122.436 18.281L117.429 18.4462C116.981 17.4789 116.451 16.5519 115.844 15.6755L118.543 11.4389L115.323 8.17254L111.086 10.8204C110.214 10.2087 109.293 9.66883 108.333 9.20626L108.549 4.23679L104.126 3.00395L101.77 7.41844C100.707 7.32941 99.6389 7.32941 98.5759 7.41844L96.2755 2.96582L91.8356 4.10969L92.005 9.1173C91.036 9.56357 90.1063 10.0908 89.2259 10.6933L84.9893 7.99461L81.7272 11.2144L84.375 15.4509C83.7684 16.3275 83.2356 17.2528 82.7821 18.2174L77.7787 17.9844L76.5628 22.4116L80.9773 24.7671C80.8861 25.83 80.8861 26.8987 80.9773 27.9615L76.512 30.2619ZM97.0677 15.0654C99.3274 14.4757 101.711 14.5693 103.918 15.3344C106.124 16.0995 108.054 17.5017 109.464 19.3637C110.873 21.2257 111.699 23.4639 111.836 25.7952C111.974 28.1265 111.417 30.4462 110.236 32.461C109.055 34.4757 107.303 36.0949 105.201 37.114C103.1 38.133 100.744 38.506 98.4306 38.1858C96.1173 37.8656 93.9509 36.8666 92.2054 35.3152C90.4599 33.7637 89.2136 31.7295 88.6243 29.4697C88.2324 27.9695 88.14 26.4068 88.3523 24.8708C88.5646 23.3349 89.0775 21.8559 89.8616 20.5182C90.6457 19.1805 91.6857 18.0105 92.9222 17.0749C94.1586 16.1393 95.5673 15.4564 97.0677 15.0654Z" fill="white"/>
<path d="M105.765 51.8003C105.649 51.8007 105.534 51.7688 105.435 51.7082C105.335 51.6477 105.255 51.5608 105.202 51.4572L103.083 47.3774C102.265 47.4282 101.444 47.4282 100.626 47.3774L98.4655 51.4275C98.397 51.5541 98.2878 51.654 98.1556 51.7108C98.0233 51.7677 97.8758 51.7784 97.7368 51.741L93.3138 50.5251C93.1753 50.4854 93.0541 50.4004 92.9696 50.2836C92.8851 50.1669 92.8422 50.0252 92.8478 49.8812L93.0639 45.293C92.3334 44.9223 91.626 44.5077 90.9456 44.0517L87.0479 46.4792C86.9255 46.5554 86.7808 46.5877 86.6376 46.5707C86.4944 46.5538 86.3612 46.4886 86.2599 46.386L83.0359 43.1239C82.9353 43.021 82.8725 42.8871 82.8579 42.7439C82.8433 42.6008 82.8777 42.4569 82.9554 42.3359L85.4296 38.4721C84.9818 37.792 84.5772 37.0846 84.2179 36.3539L79.6467 36.4725C79.5025 36.4779 79.3608 36.4338 79.2451 36.3475C79.1295 36.2611 79.0469 36.1378 79.0112 35.998L77.8419 31.5623C77.8063 31.4229 77.8187 31.2756 77.8772 31.1442C77.9356 31.0128 78.0366 30.9048 78.1639 30.8379L82.2437 28.7196C82.1928 27.9013 82.1928 27.0807 82.2437 26.2624L78.1978 24.1017C78.0701 24.0344 77.9693 23.9254 77.9123 23.7928C77.8552 23.6602 77.8453 23.512 77.8843 23.373L79.1002 18.9501C79.1384 18.8115 79.2224 18.69 79.3386 18.6053C79.4548 18.5207 79.5963 18.4779 79.7399 18.4841L84.3323 18.7001C84.7007 17.9693 85.1139 17.2619 85.5694 16.5819L83.1546 12.7096C83.0784 12.5872 83.0461 12.4425 83.0631 12.2993C83.08 12.1561 83.1451 12.0229 83.2478 11.9216L86.5141 8.69763C86.6166 8.59629 86.7506 8.53304 86.8939 8.5184C87.0373 8.50376 87.1813 8.5386 87.3021 8.61713L91.1616 11.0913C91.8428 10.6454 92.5502 10.2407 93.2799 9.87963L93.1274 5.29144C93.125 5.14467 93.1735 5.0016 93.2646 4.88653C93.3557 4.77146 93.4839 4.69149 93.6273 4.66019L98.063 3.49938C98.203 3.46273 98.3512 3.47461 98.4836 3.53309C98.6159 3.59157 98.7245 3.69319 98.7917 3.82135L100.91 7.90115C101.728 7.85026 102.549 7.85026 103.367 7.90115L105.528 3.85525C105.596 3.72809 105.705 3.6278 105.837 3.57083C105.97 3.51387 106.117 3.50361 106.256 3.54174L110.679 4.75763C110.818 4.79514 110.94 4.87903 111.025 4.99538C111.11 5.11174 111.152 5.25357 111.145 5.39735L110.934 9.98978C111.664 10.359 112.371 10.7721 113.052 11.2269L116.928 8.79083C117.051 8.71466 117.195 8.68239 117.339 8.69933C117.482 8.71627 117.615 8.7814 117.716 8.88404L120.936 12.1462C121.038 12.2488 121.103 12.3833 121.118 12.5274C121.133 12.6715 121.099 12.8165 121.021 12.9384L118.547 16.7979C118.993 17.4855 119.396 18.2 119.754 18.9374L124.347 18.7849C124.491 18.7802 124.632 18.8246 124.747 18.9108C124.863 18.997 124.946 19.1199 124.982 19.2594L126.139 23.695C126.175 23.8344 126.163 23.982 126.104 24.1136C126.046 24.2452 125.944 24.3531 125.817 24.4195L121.737 26.5378C121.788 27.356 121.788 28.1767 121.737 28.995L125.787 31.1556C125.913 31.2246 126.012 31.3339 126.069 31.4659C126.126 31.598 126.137 31.7453 126.1 31.8843L124.885 36.3072C124.845 36.4458 124.76 36.567 124.643 36.6515C124.526 36.736 124.385 36.7789 124.241 36.7733L119.652 36.5614C119.283 37.2928 118.869 38.0003 118.411 38.6797L120.839 42.5816C120.915 42.704 120.947 42.8487 120.93 42.9919C120.913 43.1351 120.848 43.2683 120.745 43.3696L117.483 46.5894C117.381 46.6907 117.247 46.7542 117.104 46.7696C116.961 46.785 116.817 46.7513 116.695 46.6741L112.832 44.2C112.145 44.647 111.43 45.0503 110.692 45.4074L110.845 49.9998C110.85 50.144 110.806 50.2857 110.72 50.4014C110.633 50.517 110.51 50.5995 110.37 50.6353L105.913 51.7791C105.865 51.7915 105.815 51.7986 105.765 51.8003ZM103.465 46.081C103.581 46.0802 103.696 46.1118 103.795 46.1725C103.895 46.2331 103.975 46.3202 104.028 46.4241L106.095 50.4234L109.553 49.5211L109.4 45.0218C109.395 44.897 109.428 44.7736 109.494 44.6672C109.559 44.5609 109.655 44.4764 109.769 44.4245C110.707 43.9936 111.607 43.4833 112.459 42.8993C112.562 42.8299 112.684 42.7929 112.808 42.7929C112.933 42.7929 113.054 42.8299 113.158 42.8993L116.928 45.3311L119.47 42.8273L117.089 39.0144C117.021 38.9106 116.985 38.7891 116.985 38.6649C116.985 38.5406 117.021 38.4191 117.089 38.3154C117.683 37.4728 118.205 36.5813 118.648 35.6506C118.704 35.5385 118.791 35.4449 118.898 35.381C119.006 35.3171 119.129 35.2857 119.254 35.2905L123.749 35.5023L124.698 32.058L120.733 29.9397C120.622 29.8814 120.531 29.7915 120.471 29.6814C120.412 29.5712 120.386 29.4458 120.398 29.3212C120.483 28.2934 120.483 27.2605 120.398 26.2327C120.388 26.1079 120.416 25.983 120.477 25.8737C120.538 25.7645 120.63 25.6756 120.741 25.6184L124.741 23.551L123.838 20.0982L119.339 20.2465C119.214 20.2494 119.092 20.2161 118.986 20.1507C118.88 20.0853 118.795 19.9905 118.742 19.8779C118.31 18.9421 117.801 18.0437 117.221 17.1919C117.15 17.0881 117.113 16.9656 117.113 16.8403C117.113 16.7149 117.15 16.5924 117.221 16.4886L119.648 12.7054L117.14 10.1635L113.327 12.5444C113.221 12.6105 113.098 12.6438 112.972 12.64C112.847 12.6363 112.726 12.5956 112.624 12.5232C111.779 11.9324 110.888 11.411 109.959 10.9642C109.847 10.9094 109.754 10.8235 109.69 10.7167C109.626 10.6099 109.595 10.4869 109.599 10.3626L109.811 5.86337L106.367 4.91862L104.248 8.88404C104.19 8.99451 104.1 9.08521 103.99 9.14474C103.88 9.20428 103.754 9.23002 103.63 9.21872C102.602 9.13179 101.569 9.13179 100.541 9.21872C100.417 9.22822 100.293 9.2012 100.184 9.14099C100.074 9.08077 99.9853 8.98999 99.9271 8.8798L97.8596 4.88049L94.4068 5.78288L94.5551 10.2779C94.5594 10.4032 94.5268 10.5271 94.4613 10.6341C94.3957 10.741 94.3002 10.8264 94.1865 10.8795C93.2504 11.3106 92.3519 11.8194 91.5006 12.4004C91.3964 12.4696 91.274 12.5065 91.1489 12.5065C91.0238 12.5065 90.9015 12.4696 90.7973 12.4004L87.0141 9.97707L84.4721 12.4851L86.8531 16.298C86.9194 16.4034 86.9528 16.5263 86.949 16.6507C86.9452 16.7752 86.9044 16.8958 86.8319 16.997C86.241 17.8417 85.7196 18.7329 85.2728 19.6618C85.2176 19.7732 85.1316 19.8664 85.0249 19.9302C84.9183 19.9941 84.7955 20.0259 84.6712 20.0219L80.172 19.8143L79.2273 23.2544L83.1927 25.3727C83.3025 25.4311 83.3927 25.5205 83.4522 25.6297C83.5117 25.7388 83.5378 25.8631 83.5274 25.987C83.4404 27.0147 83.4404 28.0478 83.5274 29.0755C83.538 29.1999 83.5114 29.3247 83.4511 29.434C83.3908 29.5434 83.2994 29.6324 83.1884 29.6898L79.223 31.7318L80.1254 35.1888L84.6204 35.0363C84.7457 35.0325 84.8693 35.0654 84.9762 35.1309C85.083 35.1963 85.1685 35.2916 85.222 35.4049C85.6522 36.3415 86.161 37.2401 86.7429 38.0908C86.8121 38.195 86.8491 38.3174 86.8491 38.4425C86.8491 38.5676 86.8121 38.6899 86.7429 38.7941L84.3069 42.5774L86.8149 45.1193L90.6278 42.7383C90.7345 42.6733 90.8577 42.6406 90.9826 42.6444C91.1075 42.6482 91.2286 42.6882 91.3311 42.7595C92.1737 43.3513 93.0635 43.8728 93.9917 44.3186C94.1048 44.3728 94.1993 44.4592 94.2634 44.567C94.3275 44.6748 94.3582 44.7992 94.3518 44.9244L94.1442 49.4194L97.5843 50.3684L99.7025 46.3987C99.7602 46.2886 99.8496 46.1983 99.9591 46.1394C100.069 46.0805 100.193 46.0557 100.317 46.0683C101.345 46.1531 102.378 46.1531 103.405 46.0683L103.465 46.081ZM101.995 40.0735C98.9682 40.0746 96.0452 38.9727 93.7727 36.9741C91.5002 34.9754 90.034 32.2171 89.6486 29.2154C89.2632 26.2137 89.985 23.1744 91.6788 20.6665C93.3727 18.1586 95.9225 16.354 98.851 15.5905C100.561 15.1446 102.347 15.0682 104.089 15.3663C105.831 15.6645 107.49 16.3303 108.954 17.3196C110.419 18.3088 111.656 19.5988 112.583 21.1035C113.51 22.6082 114.106 24.2932 114.331 26.0462C114.557 27.7992 114.406 29.5801 113.889 31.2703C113.372 32.9604 112.501 34.521 111.333 35.8482C110.166 37.1753 108.73 38.2386 107.119 38.9672C105.509 39.6958 103.762 40.0729 101.995 40.0735ZM99.173 16.8191C96.671 17.4715 94.4727 18.9713 92.9525 21.0628C91.4324 23.1544 90.6845 25.7083 90.8362 28.2895C90.988 30.8707 92.0301 33.3193 93.7848 35.2183C95.5396 37.1173 97.8986 38.3491 100.46 38.7038C103.021 39.0586 105.626 38.5143 107.831 37.1637C110.036 35.8131 111.704 33.7398 112.551 31.2971C113.399 28.8543 113.373 26.1932 112.479 23.7673C111.584 21.3413 109.877 19.3005 107.646 17.9926C105.089 16.4946 102.041 16.0726 99.173 16.8191Z" fill="black"/>
<path d="M1.24536 74.3861L3.22807 81.9822L11.7944 81.6942C12.558 83.3526 13.4593 84.944 14.4888 86.4518L9.86675 93.6539L15.3743 99.242L22.6527 94.7089C24.1435 95.759 25.7193 96.683 27.3637 97.4711L26.9655 106.033L34.532 108.113L38.5525 100.568C40.3717 100.729 42.2012 100.738 44.0218 100.593L47.9576 108.219L55.5495 106.237L55.2657 97.6702C56.9236 96.9057 58.515 96.0044 60.0233 94.9757L67.2254 99.5978L72.8092 94.0903L68.2761 86.8119C69.3263 85.3211 70.2502 83.7453 71.0383 82.1009L79.6047 82.4991L81.6848 74.9326L74.1395 70.8825C74.3006 69.0632 74.3091 67.2337 74.1649 65.4131L81.7907 61.4773L79.8122 53.8854L71.2459 54.1693C70.4814 52.5113 69.5802 50.9199 68.5515 49.4116L73.1693 42.2095L67.6618 36.6257L60.3834 41.1588C58.8926 40.1087 57.3168 39.1847 55.6724 38.3966L56.0706 29.8303L48.5041 27.7501L44.4836 35.2997C42.6658 35.1386 40.8377 35.1301 39.0185 35.2742L35.0827 27.6484L27.4696 29.6566L27.7577 38.2229C26.0984 38.9863 24.5068 39.8891 23.0001 40.9216L15.7979 36.2995L10.2099 41.807L14.743 49.0854C13.691 50.5788 12.7656 52.1574 11.9766 53.8049L3.41448 53.3813L1.33433 60.952L8.89658 64.9852C8.73196 66.8028 8.72204 68.6311 8.86692 70.4503L1.24536 74.3861ZM36.4088 48.3864C40.2753 47.377 44.3544 47.5369 48.1302 48.8458C51.9059 50.1548 55.2086 52.5541 57.6207 55.7402C60.0328 58.9263 61.4458 62.7562 61.6812 66.7454C61.9165 70.7346 60.9636 74.7041 58.9429 78.1517C56.9222 81.5994 53.9245 84.3703 50.3289 86.1142C46.7333 87.8581 42.7013 88.4965 38.7429 87.9488C34.7844 87.401 31.0773 85.6917 28.0903 83.037C25.1033 80.3823 22.9707 76.9014 21.9621 73.0346C21.2924 70.4659 21.1356 67.7904 21.5006 65.161C21.8656 62.5317 22.7452 60 24.0893 57.7109C25.4334 55.4217 27.2155 53.4199 29.3337 51.82C31.4519 50.22 33.8647 49.0532 36.4342 48.3864H36.4088Z" fill="#99B9FF"/>
<path d="M51.304 110.795C51.1878 110.794 51.0739 110.762 50.9747 110.701C50.8754 110.641 50.7944 110.555 50.7406 110.452L46.9955 103.207C45.4195 103.312 43.8381 103.305 42.2632 103.186L38.4291 110.388C38.3618 110.516 38.2528 110.617 38.1202 110.674C37.9876 110.731 37.8395 110.74 37.7005 110.702L30.134 108.621C29.9954 108.582 29.8742 108.497 29.7897 108.38C29.7053 108.263 29.6624 108.121 29.668 107.977L30.0492 99.8306C28.6353 99.13 27.2721 98.3316 25.9694 97.4411L19.0639 101.737C18.9414 101.813 18.7967 101.845 18.6535 101.828C18.5103 101.812 18.3771 101.746 18.2759 101.644L12.7683 96.06C12.668 95.9562 12.6052 95.822 12.5899 95.6785C12.5745 95.535 12.6075 95.3904 12.6836 95.2678L17.0812 88.413C16.1991 87.1026 15.4119 85.7307 14.7256 84.3078L6.57873 84.5832C6.43086 84.5902 6.28517 84.5454 6.16683 84.4564C6.04849 84.3675 5.96492 84.24 5.93054 84.096L3.96054 76.4999C3.92416 76.3605 3.93621 76.2129 3.99471 76.0813C4.05321 75.9496 4.15469 75.8418 4.28252 75.7754L11.527 72.0218C11.4217 70.4459 11.4288 68.8645 11.5482 67.2896L4.34607 63.4767C4.21892 63.4088 4.11862 63.2997 4.06166 63.1673C4.00469 63.0349 3.99443 62.887 4.03256 62.748L6.11271 55.1815C6.15175 55.0426 6.23662 54.921 6.35352 54.8363C6.47043 54.7517 6.6125 54.7092 6.75667 54.7155L14.9036 55.0968C15.6041 53.6829 16.4025 52.3196 17.293 51.017L12.9971 44.0817C12.9209 43.9593 12.8887 43.8146 12.9056 43.6714C12.9226 43.5282 12.9877 43.395 13.0903 43.2937L18.6741 37.7862C18.7798 37.6815 18.9184 37.6163 19.0665 37.6016C19.2146 37.5869 19.3633 37.6237 19.4875 37.7057L26.3211 42.0948C27.6363 41.2194 29.0124 40.4393 30.439 39.7605L30.1636 31.6136C30.1599 31.4691 30.2053 31.3277 30.2922 31.2123C30.3791 31.097 30.5025 31.0144 30.6424 30.9781L38.2343 28.9954C38.376 28.9547 38.5275 28.9646 38.6628 29.0233C38.798 29.082 38.9086 29.186 38.9757 29.3173L42.7208 36.5619C44.2962 36.4495 45.8776 36.4495 47.453 36.5619L51.2659 29.3597C51.3332 29.232 51.4423 29.1313 51.5748 29.0742C51.7074 29.0172 51.8556 29.0073 51.9946 29.0462L59.5611 31.1264C59.6996 31.1661 59.8208 31.2511 59.9053 31.3679C59.9898 31.4846 60.0327 31.6263 60.0271 31.7703L59.65 39.9172C61.0621 40.6187 62.4238 41.4171 63.7256 42.3066L70.6481 37.9938C70.7706 37.9176 70.9153 37.8854 71.0585 37.9023C71.2017 37.9192 71.3348 37.9844 71.4361 38.087L76.9437 43.6708C77.044 43.7746 77.1068 43.9089 77.1221 44.0524C77.1375 44.1959 77.1045 44.3404 77.0284 44.463L72.6308 51.3178C73.5062 52.633 74.2863 54.0091 74.9652 55.4357L83.1121 55.1646C83.2565 55.1583 83.3986 55.2021 83.5144 55.2886C83.6302 55.375 83.7125 55.4989 83.7476 55.6391L85.7303 63.231C85.7666 63.3703 85.7546 63.5179 85.6961 63.6496C85.6376 63.7812 85.5361 63.889 85.4083 63.9554L78.1638 67.7005C78.2691 69.2764 78.262 70.8579 78.1426 72.4328L85.3447 76.2668C85.4719 76.3347 85.5722 76.4438 85.6292 76.5763C85.6861 76.7087 85.6964 76.8565 85.6582 76.9955L83.5781 84.562C83.5384 84.7005 83.4534 84.8218 83.3366 84.9062C83.2199 84.9907 83.0781 85.0336 82.9341 85.028L74.7872 84.651C74.0858 86.063 73.2874 87.4248 72.3978 88.7265L76.7106 95.6491C76.7868 95.7715 76.8191 95.9162 76.8021 96.0594C76.7852 96.2026 76.7201 96.3358 76.6174 96.4371L71.0337 101.945C70.9307 102.046 70.7962 102.11 70.6524 102.125C70.5085 102.141 70.3636 102.107 70.2414 102.029L63.3782 97.6741C62.063 98.5495 60.6869 99.3296 59.2603 100.008L59.5357 108.155C59.5396 108.299 59.4949 108.44 59.4088 108.556C59.3227 108.671 59.2002 108.754 59.0612 108.791L51.465 110.774C51.4124 110.787 51.3583 110.794 51.304 110.795ZM47.3683 101.898C47.4846 101.898 47.5987 101.93 47.698 101.991C47.7974 102.051 47.8782 102.138 47.9317 102.241L51.6345 109.401L58.2477 107.677L57.9766 99.6272C57.972 99.5023 58.0046 99.3789 58.0702 99.2726C58.1358 99.1662 58.2315 99.0818 58.3452 99.0298C59.9703 98.2816 61.5293 97.3972 63.0054 96.3862C63.1096 96.317 63.2319 96.2801 63.357 96.2801C63.4821 96.2801 63.6045 96.317 63.7087 96.3862L70.4872 100.729L75.3507 95.9287L71.0887 89.0824C71.0206 88.9778 70.9843 88.8556 70.9843 88.7308C70.9843 88.6059 71.0206 88.4837 71.0887 88.3791C72.1166 86.9154 73.022 85.3695 73.7959 83.7571C73.8507 83.6453 73.9366 83.5519 74.0434 83.488C74.1501 83.4241 74.2731 83.3924 74.3975 83.397L82.4469 83.774L84.3068 77.1862L77.2021 73.3945C77.0912 73.3362 77.0002 73.2463 76.9406 73.1361C76.881 73.026 76.8555 72.9006 76.8674 72.7759C77.0243 70.9933 77.0328 69.2007 76.8928 67.4167C76.8826 67.2918 76.9098 67.1667 76.9709 67.0573C77.032 66.9479 77.1243 66.8591 77.236 66.8024L84.3958 63.0996L82.6715 56.4864L74.622 56.7575C74.4973 56.7615 74.3741 56.7287 74.2678 56.6632C74.1616 56.5976 74.077 56.5022 74.0247 56.3889C73.2748 54.7646 72.3905 53.2058 71.3811 51.7287C71.3129 51.6241 71.2766 51.5019 71.2766 51.3771C71.2766 51.2522 71.3129 51.1301 71.3811 51.0255L75.7278 44.247L70.8896 39.4003L64.0433 43.6369C63.9396 43.7052 63.8181 43.7417 63.6938 43.7417C63.5696 43.7417 63.4481 43.7052 63.3443 43.6369C61.8812 42.6082 60.3352 41.7027 58.7222 40.9297C58.6098 40.8758 58.5157 40.7901 58.4517 40.6831C58.3877 40.5761 58.3565 40.4527 58.3621 40.3282L58.7392 32.2787L52.1513 30.4443L48.3596 37.549C48.3014 37.6598 48.2114 37.7508 48.1013 37.8104C47.9911 37.87 47.8658 37.8955 47.7411 37.8837C45.9528 37.7258 44.1546 37.7173 42.3649 37.8582C42.2399 37.8691 42.1146 37.8421 42.0051 37.781C41.8956 37.7198 41.8069 37.6272 41.7506 37.5151L38.0479 30.3553L31.4515 32.0796L31.7227 40.129C31.7286 40.2558 31.6962 40.3814 31.6297 40.4895C31.5632 40.5975 31.4657 40.6831 31.3499 40.7349C29.7264 41.4864 28.1677 42.3706 26.6897 43.3785C26.5851 43.4467 26.4629 43.483 26.338 43.483C26.2132 43.483 26.091 43.4467 25.9864 43.3785L19.2079 39.0318L14.3443 43.8445L18.6105 50.6908C18.6799 50.7941 18.717 50.9158 18.717 51.0403C18.717 51.1648 18.6799 51.2864 18.6105 51.3898C17.5818 52.8529 16.6763 54.3989 15.9034 56.0119C15.8495 56.1243 15.7637 56.2184 15.6567 56.2824C15.5498 56.3464 15.4263 56.3776 15.3018 56.372L7.25235 55.9949L5.4391 62.5828L12.5438 66.3745C12.6547 66.4328 12.7457 66.5227 12.8053 66.6328C12.8649 66.743 12.8904 66.8684 12.8785 66.993C12.7216 68.7757 12.7131 70.5682 12.8531 72.3523C12.8639 72.4772 12.837 72.6026 12.7758 72.7121C12.7146 72.8216 12.622 72.9102 12.5099 72.9666L5.32048 76.682L7.04475 83.2953L15.0942 83.0241C15.2193 83.0184 15.3432 83.0505 15.4498 83.1163C15.5563 83.182 15.6406 83.2784 15.6916 83.3927C16.4398 85.0179 17.3242 86.5768 18.3352 88.0529C18.4034 88.1575 18.4397 88.2797 18.4397 88.4046C18.4397 88.5294 18.4034 88.6516 18.3352 88.7562L13.9885 95.5347L18.8097 100.407L25.6559 96.1405C25.7618 96.0753 25.8844 96.0425 26.0086 96.0463C26.1329 96.0501 26.2533 96.0902 26.355 96.1617C27.8193 97.1886 29.3651 98.094 30.977 98.8689C31.0895 98.9228 31.1835 99.0085 31.2476 99.1155C31.3116 99.2225 31.3428 99.3459 31.3372 99.4704L30.9601 107.52L37.5479 109.333L41.3608 102.228C41.4191 102.118 41.509 102.027 41.6192 101.967C41.7293 101.907 41.8547 101.882 41.9794 101.894C43.762 102.051 45.5546 102.059 47.3386 101.919L47.3683 101.898ZM44.8518 90.7135C39.7827 90.716 34.8865 88.8709 31.0799 85.5235C27.2733 82.1762 24.8172 77.5561 24.1715 72.5284C23.5258 67.5006 24.7348 62.4099 27.5721 58.2093C30.4094 54.0087 34.6805 50.9863 39.5857 49.7079C42.45 48.9614 45.4405 48.8336 48.358 49.3331C51.2755 49.8326 54.0531 50.9479 56.506 52.6047C58.9588 54.2614 61.0306 56.4217 62.5833 58.9417C64.1361 61.4617 65.1342 64.2836 65.5112 67.2194C65.8883 70.1553 65.6355 73.1377 64.7699 75.9683C63.9043 78.7989 62.4456 81.4125 60.491 83.6354C58.5364 85.8582 56.1307 87.6391 53.434 88.8595C50.7374 90.08 47.8117 90.712 44.8518 90.7135ZM39.9077 50.9534C35.5265 52.0958 31.677 54.722 29.0152 58.3846C26.3533 62.0473 25.044 66.5196 25.3101 71.0394C25.5763 75.5593 27.4016 79.847 30.4749 83.1718C33.5482 86.4967 37.6794 88.653 42.1644 89.2732C46.6494 89.8934 51.2107 88.9392 55.071 86.5731C58.9312 84.2071 61.8516 80.5756 63.3344 76.2976C64.8172 72.0196 64.7707 67.3598 63.2027 63.1123C61.6348 58.8648 58.6424 55.2924 54.7356 53.0039C50.2595 50.3841 44.9269 49.6467 39.9077 50.9534Z" fill="black"/>
<path d="M332.628 351.37H245.779C244.558 351.368 243.353 351.095 242.251 350.57C241.149 350.045 240.177 349.281 239.407 348.334C238.636 347.387 238.086 346.281 237.796 345.095C237.506 343.909 237.483 342.674 237.729 341.478L250.905 277.43C251.442 274.818 252.863 272.472 254.928 270.786C256.993 269.099 259.576 268.177 262.242 268.173H336.738L332.628 351.37Z" fill="#5479F7"/>
<path d="M332.628 352.006H245.779C244.463 352.006 243.163 351.713 241.974 351.148C240.785 350.583 239.737 349.761 238.905 348.741C238.073 347.721 237.479 346.529 237.165 345.251C236.851 343.972 236.825 342.64 237.09 341.351L250.266 277.303C250.847 274.555 252.352 272.089 254.53 270.316C256.709 268.543 259.429 267.569 262.238 267.559H336.738C336.824 267.559 336.909 267.577 336.988 267.611C337.067 267.646 337.138 267.696 337.197 267.758C337.256 267.821 337.302 267.895 337.331 267.975C337.361 268.056 337.374 268.142 337.369 268.228L333.264 351.417C333.252 351.577 333.18 351.727 333.062 351.836C332.944 351.946 332.789 352.006 332.628 352.006ZM262.242 268.813C259.724 268.824 257.286 269.699 255.334 271.29C253.382 272.881 252.034 275.093 251.515 277.557L238.34 341.609C238.113 342.714 238.136 343.855 238.405 344.949C238.674 346.044 239.183 347.065 239.896 347.939C240.608 348.812 241.506 349.516 242.525 350C243.543 350.483 244.656 350.735 245.783 350.735H332.023L336.068 268.813H262.242Z" fill="black"/>
<path d="M343.749 351.371H326.896C325.675 351.369 324.47 351.096 323.368 350.57C322.266 350.045 321.294 349.282 320.524 348.335C319.753 347.388 319.203 346.281 318.913 345.096C318.623 343.91 318.6 342.674 318.847 341.479L333.361 270.936C333.52 270.155 333.945 269.454 334.563 268.951C335.181 268.449 335.954 268.175 336.75 268.178H341.042C341.908 268.178 342.742 268.504 343.379 269.091C344.015 269.678 344.407 270.484 344.478 271.347L350.409 344.118C350.485 345.04 350.369 345.967 350.069 346.842C349.769 347.717 349.292 348.521 348.666 349.202C348.04 349.883 347.281 350.427 346.434 350.801C345.588 351.174 344.674 351.368 343.749 351.371Z" fill="#99B9FF"/>
<path d="M343.749 352.006H326.896C325.58 352.006 324.28 351.713 323.091 351.148C321.902 350.584 320.854 349.762 320.022 348.741C319.19 347.721 318.596 346.529 318.282 345.251C317.968 343.973 317.942 342.641 318.207 341.351L332.721 270.804C332.914 269.885 333.416 269.059 334.144 268.465C334.872 267.871 335.781 267.545 336.721 267.542H341.042C342.066 267.548 343.052 267.936 343.805 268.63C344.558 269.324 345.025 270.275 345.113 271.296L351.045 344.067C351.128 345.078 351 346.095 350.67 347.055C350.34 348.014 349.815 348.895 349.127 349.641C348.44 350.387 347.605 350.983 346.676 351.39C345.746 351.797 344.743 352.007 343.728 352.006H343.749ZM336.721 268.813C336.073 268.815 335.446 269.04 334.945 269.449C334.444 269.859 334.098 270.429 333.967 271.063L319.436 341.61C319.209 342.714 319.232 343.855 319.501 344.95C319.77 346.044 320.279 347.065 320.992 347.939C321.704 348.812 322.602 349.517 323.621 350C324.639 350.484 325.752 350.735 326.879 350.735H343.732C344.571 350.734 345.4 350.56 346.167 350.223C346.935 349.886 347.625 349.394 348.193 348.778C348.761 348.161 349.196 347.434 349.469 346.642C349.743 345.849 349.849 345.008 349.782 344.173L343.851 271.401C343.791 270.698 343.47 270.042 342.951 269.563C342.432 269.084 341.752 268.817 341.046 268.813H336.721Z" fill="black"/>
<path d="M315.915 302.434H254.769C254.6 302.434 254.439 302.367 254.319 302.248C254.2 302.129 254.133 301.967 254.133 301.799C254.133 301.63 254.2 301.469 254.319 301.35C254.439 301.23 254.6 301.163 254.769 301.163H315.915C316.751 301.166 317.564 300.886 318.221 300.367C318.877 299.848 319.338 299.123 319.529 298.308L325.523 273.003C325.562 272.839 325.665 272.697 325.808 272.609C325.951 272.52 326.124 272.492 326.288 272.531C326.452 272.569 326.594 272.672 326.683 272.815C326.771 272.959 326.799 273.131 326.761 273.295L320.766 298.6C320.51 299.694 319.891 300.668 319.01 301.365C318.129 302.061 317.038 302.438 315.915 302.434Z" fill="black"/>
<path d="M294.55 301.799L292.648 309.484C292.499 310.115 292.14 310.677 291.631 311.079C291.122 311.481 290.492 311.7 289.844 311.7H276.376C276.035 311.697 275.7 311.616 275.397 311.463C275.093 311.311 274.828 311.09 274.623 310.818C274.418 310.547 274.279 310.231 274.215 309.897C274.152 309.563 274.166 309.219 274.257 308.891L276.223 301.799H294.55Z" fill="white"/>
<path d="M289.844 312.335H276.376C275.936 312.334 275.503 312.232 275.109 312.037C274.716 311.842 274.372 311.558 274.106 311.208C273.84 310.859 273.659 310.452 273.575 310.021C273.492 309.59 273.509 309.145 273.626 308.721L275.6 301.642C275.637 301.508 275.717 301.39 275.827 301.306C275.937 301.222 276.072 301.176 276.21 301.176H294.55C294.647 301.176 294.742 301.199 294.828 301.241C294.915 301.284 294.991 301.345 295.05 301.421C295.11 301.497 295.152 301.585 295.173 301.679C295.193 301.773 295.192 301.87 295.169 301.964L293.262 309.649C293.08 310.417 292.642 311.1 292.021 311.588C291.401 312.076 290.633 312.339 289.844 312.335ZM276.71 302.434L274.867 309.06C274.802 309.295 274.792 309.542 274.838 309.781C274.884 310.021 274.985 310.247 275.132 310.441C275.28 310.635 275.471 310.792 275.689 310.9C275.908 311.008 276.149 311.064 276.392 311.064H289.86C290.367 311.066 290.858 310.896 291.256 310.582C291.653 310.268 291.931 309.828 292.047 309.335L293.741 302.434H276.71Z" fill="black"/>
<path d="M323.121 267.749L324.688 259.725C325.409 254.697 322.752 251.888 318.922 251.888H283.797C279.984 251.888 276.345 255.895 275.701 259.725L274.134 267.749H279.772L281.137 260.92C281.641 257.954 283.458 256.434 286.436 256.434H316.016C318.982 256.434 319.346 257.942 318.846 260.92L317.482 267.749H323.121Z" fill="white"/>
<path d="M323.121 268.385H317.482C317.388 268.385 317.295 268.364 317.21 268.323C317.125 268.283 317.05 268.224 316.99 268.151C316.931 268.078 316.888 267.993 316.865 267.901C316.843 267.81 316.841 267.714 316.86 267.622L318.224 260.797C318.508 259.102 318.457 258.145 318.037 257.653C317.707 257.259 317.046 257.069 316.017 257.069H286.437C283.743 257.069 282.2 258.365 281.777 261.026L280.408 267.872C280.38 268.016 280.302 268.146 280.189 268.24C280.075 268.333 279.933 268.384 279.786 268.385H274.134C274.04 268.384 273.948 268.364 273.863 268.323C273.778 268.283 273.703 268.225 273.644 268.152C273.584 268.08 273.541 267.995 273.518 267.904C273.496 267.813 273.493 267.718 273.511 267.626L275.075 259.602C275.74 255.662 279.485 251.252 283.798 251.252H318.923C319.845 251.22 320.763 251.389 321.613 251.747C322.463 252.106 323.225 252.645 323.846 253.328C325.193 254.883 325.701 257.141 325.316 259.814L323.744 267.863C323.718 268.01 323.641 268.142 323.528 268.237C323.414 268.333 323.27 268.385 323.121 268.385ZM318.258 267.114H322.6L324.062 259.602C324.392 257.323 323.986 255.429 322.884 254.158C322.384 253.612 321.77 253.182 321.085 252.9C320.401 252.617 319.663 252.489 318.923 252.523H283.798C280.226 252.523 276.909 256.382 276.324 259.831L274.905 267.114H279.252L280.523 260.797C281.074 257.535 283.124 255.798 286.454 255.798H316.034C317.478 255.798 318.427 256.128 319.025 256.831C319.872 257.848 319.757 259.45 319.491 261.026L318.258 267.114Z" fill="black"/>
<path d="M316.588 250.562H286.886C286.279 250.58 285.697 250.805 285.235 251.198C284.774 251.592 284.459 252.131 284.344 252.726L283.92 255.323C283.862 255.589 283.865 255.865 283.93 256.129C283.994 256.393 284.118 256.639 284.293 256.848C284.467 257.057 284.686 257.223 284.935 257.334C285.183 257.445 285.453 257.498 285.725 257.488H315.423C316.03 257.47 316.613 257.246 317.075 256.852C317.537 256.459 317.851 255.919 317.965 255.323L318.389 252.726C318.447 252.461 318.444 252.186 318.38 251.922C318.315 251.658 318.192 251.412 318.018 251.204C317.844 250.995 317.625 250.828 317.378 250.717C317.13 250.606 316.86 250.553 316.588 250.562Z" fill="#99B9FF"/>
<path d="M315.419 258.124H285.717C285.357 258.132 285.001 258.06 284.673 257.913C284.344 257.767 284.053 257.549 283.819 257.277C283.584 256.994 283.415 256.663 283.323 256.307C283.232 255.951 283.22 255.579 283.289 255.218L283.713 252.621C283.849 251.877 284.238 251.202 284.814 250.711C285.389 250.22 286.117 249.943 286.873 249.926H316.576C316.936 249.919 317.293 249.991 317.621 250.138C317.95 250.284 318.243 250.501 318.478 250.774C318.712 251.057 318.881 251.388 318.972 251.744C319.063 252.1 319.073 252.472 319.003 252.833L318.58 255.425C318.443 256.17 318.055 256.845 317.479 257.336C316.903 257.828 316.176 258.106 315.419 258.124ZM286.886 251.197C286.431 251.218 285.997 251.391 285.651 251.687C285.306 251.983 285.07 252.387 284.979 252.833L284.556 255.425C284.518 255.604 284.521 255.79 284.563 255.968C284.606 256.146 284.687 256.312 284.801 256.455C284.917 256.586 285.06 256.69 285.221 256.758C285.381 256.827 285.555 256.86 285.729 256.853H315.432C315.886 256.832 316.321 256.659 316.666 256.363C317.012 256.067 317.248 255.664 317.338 255.218L317.762 252.621C317.8 252.443 317.798 252.258 317.757 252.081C317.715 251.904 317.634 251.738 317.52 251.595C317.404 251.465 317.26 251.361 317.099 251.293C316.938 251.224 316.763 251.191 316.588 251.197H286.886Z" fill="black"/>
<path d="M326.735 341.889C326.596 341.888 326.46 341.842 326.35 341.756C326.239 341.671 326.16 341.551 326.125 341.416C326.089 341.281 326.099 341.138 326.152 341.009C326.206 340.88 326.301 340.773 326.422 340.703L337.742 334.263V277.574C337.742 277.405 337.809 277.244 337.928 277.125C338.047 277.005 338.209 276.938 338.378 276.938C338.546 276.938 338.708 277.005 338.827 277.125C338.946 277.244 339.013 277.405 339.013 277.574V334.615C339.013 334.728 338.983 334.838 338.927 334.936C338.87 335.033 338.789 335.114 338.691 335.17L327.062 341.8C326.964 341.86 326.85 341.891 326.735 341.889Z" fill="#CADDFF"/>
</svg>
