<svg width="2463" height="907" viewBox="0 0 2463 907" fill="none" xmlns="http://www.w3.org/2000/svg">
<path d="M537.7 313.5C537.7 266.467 517.3 226.8 476.5 194.5C440.233 166.167 397.733 152 349 152C287.8 152 238.5 172.4 201.1 213.2C173.9 243.233 160.3 276.667 160.3 313.5C160.3 363.933 194.583 406.15 263.15 440.15C276.183 446.383 316.133 462.533 383 488.6C437.967 510.133 470.267 530.533 479.9 549.8C483.3 556.033 485 562.267 485 568.5C485 599.667 466.583 624.6 429.75 643.3C404.817 655.767 377.9 662 349 662C303.1 662 266.267 648.967 238.5 622.9C222.067 606.467 213.567 588.333 213 568.5H145C145 612.7 165.117 650.95 205.35 683.25C245.583 714.417 293.467 730 349 730C413.033 730 465.733 709.6 507.1 668.8C537.133 638.2 552.433 604.767 553 568.5C553 517.5 518.717 474.717 450.15 440.15C436.55 433.917 396.033 417.483 328.6 390.85C274.2 369.883 242.183 350.05 232.55 331.35C229.717 325.117 228.3 319.167 228.3 313.5C228.3 280.633 245.583 255.133 280.15 237C301.683 225.667 324.633 220 349 220C390.933 220 424.083 233.317 448.45 259.95C462.617 275.817 469.7 293.667 469.7 313.5H537.7Z" fill="black"/>
<path d="M637.635 441C637.635 523.167 663.701 592.583 715.835 649.25C765.701 702.517 824.635 729.433 892.635 730C960.635 730 1019.28 703.367 1068.58 650.1C1121.28 592.867 1147.63 523.167 1147.63 441C1147.63 358.833 1121.57 289.417 1069.43 232.75C1019.57 179.483 960.635 152.567 892.635 152C824.635 152 765.985 178.633 716.685 231.9C663.985 289.133 637.635 358.833 637.635 441ZM705.635 441C705.635 375.833 726.318 321.15 767.685 276.95C803.385 239.55 845.035 220.567 892.635 220C947.601 220 993.501 243.8 1030.33 291.4C1063.2 334.467 1079.63 384.333 1079.63 441C1079.63 506.167 1058.95 560.85 1017.58 605.05C981.885 642.45 940.235 661.433 892.635 662C837.668 662 791.768 638.2 754.935 590.6C722.068 547.533 705.635 497.667 705.635 441Z" fill="black"/>
<path d="M1283.1 709.6L1472.65 271.85L1662.2 709.6L1671.55 730H1745.5L1725.1 682.4L1516.25 172.4L1523.75 152H1450.55L1441.2 172.4L1220.2 682.4L1199.8 730H1273.75L1283.1 709.6Z" fill="black"/>
<path d="M2150.95 460.55C2195.72 441.283 2226.04 410.4 2241.9 367.9C2248.7 350.333 2252.1 332.483 2252.1 314.35C2252.1 265.617 2232.27 225.1 2192.6 192.8C2159.74 165.6 2121.2 152 2077 152L1861.95 152.85H1827.95V186.85L1827.1 441V730H1895.1V475H2065.95C2093.72 495.967 2116.67 525.433 2134.8 563.4C2150.1 596.267 2167.1 643.583 2185.8 705.35L2192.6 730H2264L2250.4 686.65C2216.97 574.45 2183.82 499.083 2150.95 460.55ZM1969.9 407.85H1895.1V220H2077C2114.97 220 2144.44 233.6 2165.4 260.8C2177.87 277.233 2184.1 295.083 2184.1 314.35C2184.1 347.783 2168.24 373.567 2136.5 391.7C2118.37 401.9 2098.82 407 2077.85 407H1969.05L1969.9 407.85Z" fill="black"/>
<path d="M1561.22 64.897L1625.58 92.9646L1333.73 734.117L1271 730.385L1561.22 64.897Z" fill="#FCFCFC"/>
<path d="M1561.39 65.8716C1562.49 63.3405 1565.44 62.1835 1567.97 63.2876L1622.97 87.2753C1625.5 88.3793 1626.65 91.3262 1625.55 93.8573L1599.56 153.437L1535.4 125.451L1561.39 65.8716Z" fill="#F05146"/>
</svg>
