<?xml version="1.0" encoding="utf-8"?>
<!-- Generator: Adobe Illustrator 23.0.1, SVG Export Plug-In . SVG Version: 6.00 Build 0)  -->
<svg version="1.1" id="Layer_1" xmlns="http://www.w3.org/2000/svg" xmlns:xlink="http://www.w3.org/1999/xlink" x="0px" y="0px"
	 viewBox="0 0 128.2 49" style="enable-background:new 0 0 128.2 49;" xml:space="preserve">
<style type="text/css">
	.st0{clip-path:url(#SVGID_2_);fill:#5479F7;}
	.st1{clip-path:url(#SVGID_2_);fill:#E9A820;}
	.st2{clip-path:url(#SVGID_2_);fill:#6ECADC;}
	.st3{clip-path:url(#SVGID_2_);fill:#65851C;}
	.st4{clip-path:url(#SVGID_2_);fill:#1B937D;}
	.st5{clip-path:url(#SVGID_2_);fill:#E01563;}
	.st6{clip-path:url(#SVGID_2_);fill:#360F38;}
	.st7{clip-path:url(#SVGID_2_);fill:#CD0E0C;}
	.st8{font-family:'Candara';}
	.st9{font-size:36px;}
	.st10{letter-spacing:-1;}
</style>
<g>
	<defs>
		<rect id="SVGID_1_" x="-93.1" y="-123.2" width="240" height="240"/>
	</defs>
	<clipPath id="SVGID_2_">
		<use xlink:href="#SVGID_1_"  style="overflow:visible;"/>
	</clipPath>
	<path class="st0" d="M23.7,9c0.6-0.4,1.5-0.1,1.8,0.5c0.4,0.6,0.1,1.5-0.5,1.8l-12.8,7.4c-0.6,0.4-1.5,0.1-1.8-0.5
		c-0.4-0.6-0.1-1.5,0.5-1.8L23.7,9z"/>
	<path class="st1" d="M30.7,22c0.5-0.5,1.4-0.6,1.9,0c0.5,0.5,0.6,1.4,0,1.9l-15,15.6c-0.5,0.5-1.4,0.6-1.9,0
		c-0.5-0.5-0.6-1.4,0-1.9L30.7,22z"/>
	<path class="st2" d="M23.2,10.8C22.8,10.2,23,9.3,23.7,9c0.6-0.4,1.5-0.1,1.8,0.5l7.4,12.8c0.4,0.6,0.1,1.5-0.5,1.8
		c-0.6,0.4-1.5,0.1-1.8-0.5L23.2,10.8z"/>
	<path class="st3" d="M32.8,22.2L32.8,22.2c0.4,0.7,0.2,1.5-0.5,1.9c-0.6,0.4-1.5,0.1-1.8-0.5L30,22.7l0.7-0.7
		c0.5-0.5,1.4-0.6,1.9,0C32.7,22,32.8,22.1,32.8,22.2"/>
	<path class="st4" d="M23.2,10.8C22.8,10.2,23,9.3,23.7,9c0.6-0.4,1.5-0.1,1.8,0.5c0.4,0.6,0.1,1.5-0.5,1.8L23.8,12L23.2,10.8z"/>
	<path class="st5" d="M10.2,17.9c-0.2-0.7,0.3-1.5,1-1.6c0.7-0.2,1.5,0.3,1.6,1l5.2,21c0.2,0.7-0.3,1.5-1,1.6
		c-0.7,0.2-1.5-0.3-1.6-1L10.2,17.9z"/>
	<path class="st6" d="M10.9,16.3c0.1,0,0.2-0.1,0.3-0.1c0.7-0.2,1.5,0.3,1.6,1l0.2,1l-0.9,0.5c-0.6,0.4-1.5,0.1-1.8-0.5
		C10,17.6,10.2,16.7,10.9,16.3L10.9,16.3z"/>
	<path class="st7" d="M17.4,35.8l0.6,2.4c0.1,0.5,0,0.9-0.3,1.2l0,0c-0.4,0.4-1,0.5-1.5,0.3l0,0c0,0,0,0-0.1,0l0,0l0,0l0,0l0,0l0,0
		c-0.1-0.1-0.2-0.1-0.3-0.2c-0.5-0.5-0.6-1.4,0-1.9L17.4,35.8z"/>
</g>
<text transform="matrix(1 0 0 1 37.4434 39.0589)"><tspan x="0" y="0" class="st8 st9 st10">S</tspan><tspan x="16.6" y="0" class="st8 st9 st10">O</tspan><tspan x="39.8" y="0" class="st8 st9 st10">A</tspan><tspan x="60.2" y="0" class="st8 st9">R</tspan></text>
</svg>
