<svg width="512" height="512" viewBox="0 0 512 512" fill="none" xmlns="http://www.w3.org/2000/svg">
<path d="M448 0H64V512H448V0Z" fill="#E8EBF0"/>
<path d="M288 440H96V448H288V440Z" fill="#474E5D"/>
<path d="M416 420H96V428H416V420Z" fill="#474E5D"/>
<path d="M416 400H96V408H416V400Z" fill="#474E5D"/>
<path d="M416 380H96V388H416V380Z" fill="#474E5D"/>
<path d="M120 257H96L108 273L120 257Z" fill="#474E5D"/>
<path d="M112 211H104V257H112V211Z" fill="#474E5D"/>
<path d="M120 211H96L108 195L120 211Z" fill="#474E5D"/>
<path d="M345.71 241.27C345.903 238.87 346 236.447 346 234C346 231.553 345.903 229.13 345.71 226.73L333.53 225.42C333.043 220.963 332.17 216.556 330.92 212.25L341.68 206.38C340.186 201.778 338.323 197.303 336.11 193L324.35 196.46C322.191 192.529 319.691 188.795 316.88 185.3L324.57 175.76C321.419 172.069 317.981 168.631 314.29 165.48L304.75 173.17C301.254 170.361 297.52 167.861 293.59 165.7L297.05 153.94C292.731 151.724 288.24 149.861 283.62 148.37L277.75 159.13C273.444 157.88 269.037 157.007 264.58 156.52L263.27 144.34C260.87 144.153 258.447 144.057 256 144.05C253.553 144.043 251.13 144.14 248.73 144.34L247.42 156.52C242.963 157.007 238.556 157.88 234.25 159.13L228.38 148.37C223.779 149.848 219.305 151.694 215 153.89L218.46 165.65C214.53 167.811 210.796 170.311 207.3 173.12L197.76 165.43C194.069 168.581 190.631 172.019 187.48 175.71L195.17 185.25C192.359 188.745 189.859 192.479 187.7 196.41L175.89 193C173.674 197.319 171.811 201.81 170.32 206.43L181.08 212.3C179.83 216.606 178.957 221.013 178.47 225.47L166.29 226.78C166.097 229.18 166 231.603 166 234.05C166 236.497 166.097 238.92 166.29 241.32L178.47 242.63C178.957 247.087 179.83 251.494 181.08 255.8L170.32 261.67C171.811 266.29 173.674 270.781 175.89 275.1L187.65 271.64C189.809 275.571 192.309 279.306 195.12 282.8L187.43 292.34C190.581 296.031 194.019 299.469 197.71 302.62L207.25 294.93C210.746 297.739 214.48 300.239 218.41 302.4L215 314.11C219.319 316.326 223.81 318.189 228.43 319.68L234.3 308.92C238.606 310.17 243.013 311.043 247.47 311.53L248.78 323.71C251.18 323.903 253.603 324 256.05 324C258.497 324 260.92 323.903 263.32 323.71L264.63 311.53C269.087 311.043 273.494 310.17 277.8 308.92L283.67 319.68C288.29 318.189 292.781 316.326 297.1 314.11L293.64 302.35C297.57 300.189 301.304 297.689 304.8 294.88L314.34 302.57C318.031 299.419 321.469 295.981 324.62 292.29L316.93 282.75C319.741 279.255 322.241 275.521 324.4 271.59L336.16 275.05C338.376 270.731 340.239 266.24 341.73 261.62L330.97 255.75C332.22 251.444 333.093 247.037 333.58 242.58L345.71 241.27ZM256 281C246.704 281 237.617 278.244 229.888 273.079C222.159 267.915 216.135 260.574 212.578 251.986C209.02 243.398 208.09 233.948 209.903 224.831C211.717 215.714 216.193 207.339 222.766 200.766C229.339 194.193 237.714 189.717 246.831 187.903C255.948 186.09 265.398 187.02 273.986 190.578C282.574 194.135 289.915 200.159 295.079 207.888C300.243 215.617 303 224.704 303 234C303 246.465 298.048 258.42 289.234 267.234C280.42 276.048 268.465 281 256 281Z" fill="#24B3C9"/>
<path d="M256 179C245.122 179 234.488 182.226 225.444 188.269C216.399 194.313 209.349 202.902 205.187 212.952C201.024 223.002 199.935 234.061 202.057 244.73C204.179 255.399 209.417 265.199 217.109 272.891C224.801 280.583 234.601 285.821 245.27 287.943C255.939 290.065 266.998 288.976 277.048 284.813C287.098 280.651 295.687 273.601 301.731 264.556C307.774 255.512 311 244.878 311 234C311 219.413 305.205 205.424 294.891 195.109C284.576 184.795 270.587 179 256 179ZM256 281C246.704 281 237.617 278.244 229.888 273.079C222.159 267.915 216.135 260.574 212.578 251.986C209.02 243.398 208.09 233.948 209.903 224.831C211.717 215.714 216.193 207.339 222.766 200.766C229.339 194.193 237.714 189.717 246.831 187.903C255.948 186.09 265.398 187.02 273.986 190.578C282.574 194.135 289.915 200.159 295.079 207.888C300.244 215.617 303 224.704 303 234C303 246.465 298.048 258.42 289.234 267.234C280.42 276.048 268.465 281 256 281Z" fill="#474E5D"/>
<path d="M416 308H392L404 324L416 308Z" fill="#474E5D"/>
<path d="M408 160H400V308H408V160Z" fill="#474E5D"/>
<path d="M416 160H392L404 144L416 160Z" fill="#474E5D"/>
<path d="M416 324H256V332H416V324Z" fill="#474E5D"/>
<path d="M256 273H96V281H256V273Z" fill="#474E5D"/>
<path d="M256 187H96V195H256V187Z" fill="#474E5D"/>
<path d="M416 136H256V144H416V136Z" fill="#474E5D"/>
<path d="M288 80H96V88H288V80Z" fill="#474E5D"/>
<path d="M416 60H96V68H416V60Z" fill="#474E5D"/>
<path d="M416 32H96V48H416V32Z" fill="#F93B2A"/>
<path d="M512 96H480V72C480 69.8783 480.843 67.8434 482.343 66.3431C483.843 64.8428 485.878 64 488 64H504C506.122 64 508.157 64.8428 509.657 66.3431C511.157 67.8434 512 69.8783 512 72V96Z" fill="#474E5D"/>
<path d="M512 96H504V64C506.122 64 508.157 64.8428 509.657 66.3431C511.157 67.8434 512 69.8783 512 72V96Z" fill="#2E3544"/>
<path d="M512 96H480V128H512V96Z" fill="#E8EBF0"/>
<path d="M512 96H504V128H512V96Z" fill="#D8DBE1"/>
<path d="M512 128H480V384H512V128Z" fill="#24B3C9"/>
<path d="M512 128H504V384H512V128Z" fill="#0399AF"/>
<path d="M488 416L480 384H512L504 416H488Z" fill="#E8EBF0"/>
<path d="M504 416H500L504 384H512L504 416Z" fill="#D8DBE1"/>
<path d="M496 448L488 416H504L496 448Z" fill="#474E5D"/>
<path d="M504 416L496 448L500 416H504Z" fill="#2E3544"/>
<path d="M488 68C486.939 68 485.922 68.4214 485.172 69.1716C484.421 69.9217 484 70.9391 484 72V96H490V68H488Z" fill="#606776"/>
<path d="M490 96H484V128H490V96Z" fill="white"/>
<path d="M490 384V128H484V384H490Z" fill="#3DCCE2"/>
<path d="M493 416L490 384H484L490 416H493Z" fill="white"/>
<path d="M496 448L493 416H490L496 448Z" fill="#606776"/>
<path d="M82 184C82 186.122 81.1572 188.157 79.6569 189.657C78.1566 191.157 76.1217 192 74 192H54C51.8783 192 49.8434 191.157 48.3431 189.657C46.8428 188.157 46 186.122 46 184H82Z" fill="#ABB2C1"/>
<path d="M90 176C90 178.122 89.1572 180.157 87.6569 181.657C86.1566 183.157 84.1217 184 82 184H46C43.8783 184 41.8434 183.157 40.3431 181.657C38.8428 180.157 38 178.122 38 176H90Z" fill="#2E3544"/>
<path d="M90 176C90 173.878 89.1572 171.843 87.6569 170.343C86.1566 168.843 84.1217 168 82 168H46C43.8783 168 41.8434 168.843 40.3431 170.343C38.8428 171.843 38 173.878 38 176H90Z" fill="#474E5D"/>
<path d="M90 160C90 162.122 89.1572 164.157 87.6569 165.657C86.1566 167.157 84.1217 168 82 168H46C43.8783 168 41.8434 167.157 40.3431 165.657C38.8428 164.157 38 162.122 38 160H90Z" fill="#2E3544"/>
<path d="M90 160C90 157.878 89.1572 155.843 87.6569 154.343C86.1566 152.843 84.1217 152 82 152H46C43.8783 152 41.8434 152.843 40.3431 154.343C38.8428 155.843 38 157.878 38 160H90Z" fill="#474E5D"/>
<path d="M90 144C90 146.122 89.1572 148.157 87.6569 149.657C86.1566 151.157 84.1217 152 82 152H46C43.8783 152 41.8434 151.157 40.3431 149.657C38.8428 148.157 38 146.122 38 144C38 108.4 0 112.15 0 64C0 47.0261 6.74284 30.7475 18.7452 18.7452C30.7475 6.74285 47.0261 0 64 0C80.9739 0 97.2525 6.74285 109.255 18.7452C121.257 30.7475 128 47.0261 128 64C128 112.35 90 108.11 90 144Z" fill="#FFA200"/>
<path d="M46 148C44.9391 148 43.9217 147.579 43.1716 146.828C42.4214 146.078 42 145.061 42 144C42 106 4 110.28 4 64C4 48.087 10.3214 32.8258 21.5736 21.5736C32.8258 10.3214 48.087 4 64 4C79.913 4 95.1742 10.3214 106.426 21.5736C117.679 32.8258 124 48.087 124 64C124 110.48 86 105.68 86 144C86 145.061 85.5786 146.078 84.8284 146.828C84.0783 147.579 83.0609 148 82 148H46Z" fill="#FFCA10"/>
<path d="M12 64C12 105 47.34 101.36 49.87 140H54.22C52.46 101.36 28 105 28 64C28 35.33 44.15 12 64 12C50.2136 12.0159 36.9964 17.4995 27.248 27.248C17.4995 36.9964 12.0159 50.2136 12 64Z" fill="#FFFF74"/>
<path d="M64 1.90738e-06C61.3255 -0.00065105 58.6536 0.166343 56 0.500002C71.4664 2.44859 85.6899 9.97509 96.0007 21.6667C106.311 33.3584 112 48.4113 112 64C112 112.35 74 108.11 74 144C74 146.122 73.1572 148.157 71.6569 149.657C70.1566 151.157 68.1217 152 66 152H82C84.1217 152 86.1566 151.157 87.6569 149.657C89.1572 148.157 90 146.122 90 144C90 108.11 128 112.35 128 64C128 47.0261 121.257 30.7475 109.255 18.7452C97.2525 6.74285 80.9739 1.90738e-06 64 1.90738e-06Z" fill="#FFA200"/>
</svg>
