<svg width="305" height="496" viewBox="0 0 305 496" fill="none" xmlns="http://www.w3.org/2000/svg">
<path d="M166.73 117C155.85 117.01 145.211 113.793 136.16 107.755C127.108 101.718 120.051 93.1313 115.881 83.0822C111.71 73.0332 110.614 61.973 112.73 51.3007C114.847 40.6285 120.081 30.8238 127.771 23.1269C135.461 15.43 145.261 10.1867 155.931 8.0605C166.602 5.93426 177.663 7.0205 187.716 11.1818C197.769 15.3432 206.361 22.3927 212.407 31.4384C218.453 40.4842 221.68 51.1199 221.68 62C221.68 76.5782 215.892 90.5602 205.588 100.873C195.285 111.186 181.308 116.987 166.73 117V117Z" stroke="#5479F7" stroke-width="12.17" stroke-linecap="round" stroke-linejoin="round"/>
<path d="M102.86 302.92V462.49C102.86 477.11 112.25 488.96 126.57 488.96C140.89 488.96 152.51 477.11 152.51 462.49V357.69C152.51 353.919 154.009 350.302 156.675 347.635C159.342 344.968 162.959 343.47 166.73 343.47V343.47C170.5 343.473 174.114 344.972 176.779 347.638C179.443 350.305 180.94 353.92 180.94 357.69V462.49C180.94 477.11 192.56 488.96 206.88 488.96C221.2 488.96 230.59 477.11 230.59 462.49V339.79" stroke="#5479F7" stroke-width="12.17" stroke-linecap="round" stroke-linejoin="round"/>
<path d="M272.89 271.26L264.44 312.94H141.83L149.28 276.23" stroke="#5479F7" stroke-width="12.17" stroke-linecap="round" stroke-linejoin="round"/>
<path d="M157.61 235.17L176.05 144.26H298.65L280.57 233.41" stroke="#5479F7" stroke-width="12.17" stroke-linecap="round" stroke-linejoin="round"/>
<path d="M263.85 249.49C261.14 260.87 268.51 269.49 277.85 274.39C279.072 275.061 280.433 275.439 281.826 275.494C283.218 275.549 284.605 275.28 285.876 274.708C287.147 274.136 288.268 273.277 289.15 272.198C290.032 271.118 290.652 269.849 290.96 268.49L296.51 243.4C296.803 242.046 296.78 240.642 296.441 239.299C296.103 237.956 295.46 236.709 294.561 235.655C293.662 234.601 292.532 233.769 291.258 233.224C289.985 232.678 288.603 232.434 287.22 232.51C276.8 233 266.7 237.47 263.85 249.49Z" stroke="#5479F7" stroke-width="12.17" stroke-linecap="round" stroke-linejoin="round"/>
<path d="M148.71 144.25H112.63C97.7778 144.25 83.534 150.15 73.032 160.652C62.5299 171.154 56.6299 185.398 56.6299 200.25V244.66C56.6299 253.176 60.0131 261.343 66.0349 267.365C72.0567 273.387 80.2239 276.77 88.74 276.77H143.6C157.13 276.77 168.1 268.07 168.1 254.82C168.031 248.389 165.412 242.249 160.818 237.749C156.224 233.248 150.031 230.756 143.6 230.82H108.84C107.249 230.82 105.723 230.188 104.597 229.063C103.472 227.938 102.84 226.411 102.84 224.82V203" stroke="#5479F7" stroke-width="12.17" stroke-linecap="round" stroke-linejoin="round"/>
<path d="M9.15991 139.84L7 137.68" stroke="#5479F7" stroke-width="12.17" stroke-linecap="round" stroke-linejoin="round"/>
<path d="M40.02 170.7L37.8599 168.54" stroke="#5479F7" stroke-width="12.17" stroke-linecap="round" stroke-linejoin="round"/>
<path d="M9.15991 168.54L7 170.7" stroke="#5479F7" stroke-width="12.17" stroke-linecap="round" stroke-linejoin="round"/>
<path d="M40.02 137.68L37.8599 139.84" stroke="#5479F7" stroke-width="12.17" stroke-linecap="round" stroke-linejoin="round"/>
<path d="M41.7903 35.8401L40.2803 34.3301" stroke="#5479F7" stroke-width="12.17" stroke-linecap="round" stroke-linejoin="round"/>
<path d="M63.3398 57.3899L61.8398 55.8799" stroke="#5479F7" stroke-width="12.17" stroke-linecap="round" stroke-linejoin="round"/>
<path d="M41.7903 55.8799L40.2803 57.3899" stroke="#5479F7" stroke-width="12.17" stroke-linecap="round" stroke-linejoin="round"/>
<path d="M63.3398 34.3301L61.8398 35.8401" stroke="#5479F7" stroke-width="12.17" stroke-linecap="round" stroke-linejoin="round"/>
</svg>
