<svg xmlns="http://www.w3.org/2000/svg" viewBox="0 0 510 631.94"><defs><style>.cls-1{fill:#f05146;}.cls-2{fill:#99b9ff;}.cls-3{fill:#0028af;}</style></defs><title>Asset 1</title><g id="Layer_2" data-name="Layer 2"><g id="Layer_1-2" data-name="Layer 1"><path class="cls-1" d="M311.59,199.24c-16.36-12.58-32.72-25.35-49.3-38-10.25-7.83-20.73-15.42-31.12-23.08-17.07-12.61-42.43-12.2-52.6,7.45-4.88,9.44-5.45,21.69-5.89,32.74-.76,24.1-.33,48.28,0,72.41a316.61,316.61,0,0,0,2,37.06c2,15.31,11.42,26.47,23.34,35.69,18.32,14.19,36.68,28.39,54.78,42.85A53.18,53.18,0,0,1,262,376.82c4.56,6.14,1.83,11.85-2.72,16.1-8.18,7.67-17.1,14.74-25.85,21.84-8.19,6.68-16.37,13.37-25.17,19.37a9.51,9.51,0,0,1-8.84,0c-39.46-30-78.62-60.36-117.91-90.55-19.67-15.09-39.3-30.21-59.18-45-29.32-21.83-30-66.43-1-88.37Q83.81,162.81,145.87,115L284.62,8.7C295.89,0,308.38-3.28,321.77,4a34.66,34.66,0,0,1,19.08,32.74c-.16,38.21,0,76.42,0,114.62a47,47,0,0,1-19.08,38.21C318,192.58,314.65,196.3,311.59,199.24Z"/><path class="cls-2" d="M198.41,432.74c16.36,12.58,32.72,25.38,49.3,38,10.26,7.83,20.73,15.44,31.12,23.11,17.07,12.61,42.43,12.12,52.6-7.5,4.88-9.45,5.45-21.84,5.89-32.75.76-24.12.33-48.28,0-72.4a316.83,316.83,0,0,0-2.05-37.08c-2-15.29-11.39-26.45-23.34-35.7-18.32-14.19-36.68-28.35-54.78-42.82A54.13,54.13,0,0,1,248,255.14c-4.56-6.14-1.83-11.87,2.72-16.12,8.18-7.67,17.1-14.71,25.86-21.84,8.18-6.66,16.36-13.34,25.17-19.37a9.49,9.49,0,0,1,8.83,0c39.46,30,78.62,60.33,117.92,90.54,19.66,15.09,39.29,30.19,59.17,45,29.32,21.83,30,66.4,1,88.34-41.64,31.52-83,63.39-124.51,95.13Q294.73,570,225.38,623.25c-11.29,8.59-23.78,12-37.14,4.72a34.65,34.65,0,0,1-19.09-32.75c.16-38.2,0-76.41,0-114.61a46.93,46.93,0,0,1,19.09-38.07C192.05,439.34,195.35,435.66,198.41,432.74Z"/><path class="cls-3" d="M200.43,435.22c17.51-12.13,32.4-22.69,46.48-34,21.47-17.28,19.11-22-4.37-41.78-18.33-15.51-37.9-28.86-55.59-45.13-3.62-3.64-8.9-8.27-10.78-13.14s-2.55-13.28-2.35-18.53c-3.71-41.43-4.38-80.51,0-122.61,0-16.83,21.55-37.9,38.4-34.7,15.59,2.8,31,19.71,42.78,28.63,17.25,13.05,50.53,39.75,50.53,39.75s6.06,3.71,2,6.48l-34.51,27.77c-4.27,3.42-8.64,6.73-12.83,10.24-12.1,10.21-10.28,20.45,1.85,30.29,16.1,12.91,37.13,28.84,53.23,41.44,20.21,15.81,22,33,21.72,57.91a817.67,817.67,0,0,1-.91,106.23c0,23.59-30.24,41.26-51.44,24.82Z"/></g></g></svg>