<svg width="1454" height="789" viewBox="0 0 1454 789" fill="none" xmlns="http://www.w3.org/2000/svg">
<g clip-path="url(#clip0)">
<path d="M374.593 271.243C358.231 258.662 341.87 245.89 325.289 233.254C315.036 225.422 304.564 217.835 294.174 210.166C277.104 197.558 251.743 197.967 241.571 217.617C236.69 227.059 236.117 239.313 235.681 250.365C234.917 274.463 235.353 298.643 235.681 322.768C235.638 335.15 236.32 347.525 237.726 359.828C239.744 375.138 249.152 386.3 261.069 395.524C279.394 409.715 297.747 423.907 315.854 438.371C319.358 441.44 322.447 444.954 325.044 448.823C329.598 454.963 326.871 460.667 322.317 464.924C314.136 472.593 305.219 479.661 296.465 486.757C288.284 493.443 280.103 500.129 271.295 506.133C269.931 506.846 268.416 507.218 266.877 507.218C265.339 507.218 263.823 506.846 262.46 506.133C223 476.114 183.841 445.766 144.545 415.583C124.883 400.491 105.249 385.372 85.3691 370.581C56.054 348.748 55.3723 304.155 84.3874 282.214C126.001 250.611 167.397 218.763 208.874 186.997C255.124 151.573 301.374 116.141 347.623 80.6997C358.886 72.0213 371.375 68.7191 384.765 76.0057C390.781 79.0189 395.791 83.7206 399.181 89.5364C402.571 95.3522 404.194 102.03 403.854 108.754C403.69 146.961 403.854 185.168 403.854 223.375C403.919 230.801 402.222 238.136 398.904 244.777C395.585 251.419 390.74 257.179 384.765 261.582C380.947 264.584 377.648 268.295 374.593 271.243Z" fill="#F05146"/>
<path d="M261.407 504.741C277.769 517.321 294.131 530.12 310.711 542.727C320.965 550.559 331.436 558.173 341.826 565.841C358.897 578.449 384.258 577.957 394.429 558.336C399.311 548.894 399.883 536.505 400.32 525.59C401.083 501.466 400.647 477.315 400.32 453.191C400.363 440.8 399.68 428.417 398.274 416.106C396.256 400.824 386.876 389.662 374.931 380.411C356.606 366.221 338.254 352.058 320.146 337.595C316.65 334.518 313.561 331.005 310.957 327.143C306.402 321.003 309.129 315.272 313.684 311.015C321.864 303.347 330.782 296.306 339.535 289.184C347.716 282.525 355.897 275.839 364.705 269.809C366.069 269.096 367.585 268.724 369.123 268.724C370.661 268.724 372.177 269.096 373.541 269.809C413 299.827 452.16 330.145 491.455 360.354C511.117 375.445 530.751 390.536 550.631 405.354C579.946 427.185 580.628 471.748 551.612 493.689C509.971 525.207 468.576 557.081 427.099 588.818C380.849 624.24 334.609 659.716 288.377 695.246C277.087 703.842 264.598 707.253 251.236 699.967C245.217 696.957 240.206 692.256 236.816 686.44C233.425 680.624 231.803 673.945 232.147 667.22C232.31 629.015 232.147 590.81 232.147 552.606C232.106 545.204 233.814 537.897 237.131 531.282C240.448 524.666 245.281 518.929 251.236 514.537C255.053 511.345 258.353 507.661 261.407 504.741Z" fill="#99B9FF"/>
<path d="M263.428 507.218C280.944 495.091 295.826 484.528 309.914 473.196C331.382 455.917 329.016 451.172 305.535 431.425C287.207 415.914 267.638 402.556 249.954 386.287C246.328 382.653 241.052 378.019 239.174 373.149C237.296 368.28 236.616 359.868 236.816 354.622C233.111 313.189 232.437 274.114 236.817 232.007C236.817 215.177 258.366 194.113 275.218 197.31C290.81 200.115 306.192 217.023 317.999 225.943C335.254 238.986 368.527 265.692 368.527 265.692C368.527 265.692 374.591 269.398 370.557 272.171L336.047 299.941C331.78 303.363 327.406 306.673 323.22 310.179C311.117 320.389 312.943 330.629 325.073 340.474C341.174 353.377 362.195 369.313 378.296 381.908C398.507 397.717 400.29 414.889 400.022 439.825C401.876 473.196 401.876 509.576 399.11 546.05C399.11 569.64 368.866 587.312 347.667 570.874L263.428 507.218Z" fill="#0028AF"/>
<path d="M820.316 450.262C820.316 463.136 817.183 474.188 810.917 483.416C804.651 492.531 795.365 499.48 783.061 504.266C770.87 508.937 756.002 511.272 738.456 511.272C721.708 511.272 707.353 508.709 695.39 503.582C683.427 498.455 674.597 492.075 668.9 484.441C663.204 476.694 660.355 468.947 660.355 461.199C660.355 456.072 662.178 451.686 665.824 448.04C669.47 444.394 674.084 442.571 679.667 442.571C684.566 442.571 688.326 443.768 690.946 446.16C693.567 448.553 696.073 451.914 698.466 456.243C703.251 464.56 708.948 470.77 715.556 474.871C722.278 478.973 731.392 481.023 742.899 481.023C752.242 481.023 759.875 478.973 765.8 474.871C771.838 470.656 774.857 465.87 774.857 460.516C774.857 452.312 771.724 446.331 765.458 442.571C759.306 438.812 749.109 435.223 734.867 431.805C718.803 427.817 705.701 423.659 695.561 419.329C685.535 414.886 677.502 409.075 671.464 401.897C665.425 394.72 662.406 385.89 662.406 375.408C662.406 366.066 665.198 357.236 670.78 348.919C676.363 340.602 684.566 333.994 695.39 329.095C706.327 324.082 719.486 321.575 734.867 321.575C746.944 321.575 757.768 322.828 767.338 325.335C777.022 327.841 785.054 331.202 791.435 335.418C797.929 339.633 802.828 344.305 806.132 349.432C809.55 354.559 811.259 359.572 811.259 364.471C811.259 369.826 809.436 374.212 805.79 377.63C802.258 381.048 797.188 382.757 790.58 382.757C785.795 382.757 781.693 381.39 778.275 378.655C774.971 375.921 771.155 371.819 766.825 366.351C763.293 361.793 759.135 358.147 754.35 355.413C749.564 352.679 743.07 351.312 734.867 351.312C726.436 351.312 719.429 353.134 713.847 356.78C708.264 360.312 705.473 364.756 705.473 370.11C705.473 375.009 707.523 379.054 711.625 382.244C715.727 385.32 721.252 387.884 728.202 389.935C735.152 391.985 744.722 394.492 756.913 397.454C771.382 400.986 783.174 405.201 792.289 410.101C801.518 415 808.467 420.81 813.139 427.532C817.924 434.14 820.316 441.717 820.316 450.262ZM1034.45 416.424C1034.45 430.324 1032.29 443.141 1027.96 454.876C1023.63 466.611 1017.36 476.694 1009.16 485.125C1000.96 493.556 991.158 500.05 979.765 504.607C968.371 509.051 955.554 511.272 941.312 511.272C927.185 511.272 914.481 508.994 903.202 504.437C891.923 499.879 882.125 493.385 873.808 484.954C865.604 476.409 859.338 466.383 855.009 454.876C850.793 443.255 848.686 430.438 848.686 416.424C848.686 402.296 850.85 389.365 855.18 377.63C859.509 365.895 865.718 355.869 873.808 347.552C881.897 339.235 891.695 332.854 903.202 328.411C914.709 323.854 927.413 321.575 941.312 321.575C955.44 321.575 968.257 323.854 979.765 328.411C991.272 332.968 1001.13 339.463 1009.33 347.894C1017.53 356.325 1023.74 366.351 1027.96 377.972C1032.29 389.593 1034.45 402.41 1034.45 416.424ZM987.626 416.424C987.626 397.397 983.41 382.586 974.979 371.99C966.662 361.395 955.44 356.097 941.312 356.097C932.198 356.097 924.166 358.489 917.216 363.274C910.266 367.946 904.911 374.896 901.151 384.124C897.392 393.353 895.512 404.119 895.512 416.424C895.512 428.615 897.335 439.267 900.98 448.382C904.74 457.496 910.038 464.503 916.874 469.402C923.824 474.188 931.97 476.58 941.312 476.58C955.44 476.58 966.662 471.282 974.979 460.687C983.41 449.977 987.626 435.223 987.626 416.424ZM1189.29 484.954C1178.01 493.727 1167.07 500.335 1156.47 504.778C1145.99 509.108 1134.2 511.272 1121.1 511.272C1109.13 511.272 1098.6 508.937 1089.48 504.266C1080.48 499.48 1073.53 493.043 1068.63 484.954C1063.73 476.865 1061.28 468.092 1061.28 458.636C1061.28 445.875 1065.33 434.995 1073.42 425.994C1081.51 416.993 1092.61 410.955 1106.74 407.879C1109.7 407.195 1117.05 405.657 1128.79 403.265C1140.52 400.872 1150.55 398.707 1158.87 396.771C1167.3 394.72 1176.41 392.27 1186.21 389.422C1185.64 377.117 1183.13 368.117 1178.69 362.42C1174.36 356.609 1165.3 353.704 1151.52 353.704C1139.67 353.704 1130.72 355.356 1124.69 358.66C1118.76 361.964 1113.64 366.92 1109.31 373.528C1105.09 380.136 1102.07 384.523 1100.25 386.688C1098.54 388.738 1094.78 389.764 1088.97 389.764C1083.73 389.764 1079.17 388.112 1075.3 384.808C1071.54 381.39 1069.66 377.06 1069.66 371.819C1069.66 363.616 1072.56 355.641 1078.37 347.894C1084.18 340.146 1093.24 333.766 1105.55 328.753C1117.85 323.74 1133.17 321.233 1151.52 321.233C1172.03 321.233 1188.15 323.683 1199.88 328.582C1211.62 333.367 1219.88 341.001 1224.66 351.482C1229.56 361.964 1232.01 375.864 1232.01 393.182C1232.01 404.119 1231.95 413.405 1231.84 421.038C1231.84 428.672 1231.78 437.16 1231.67 446.502C1231.67 455.275 1233.09 464.446 1235.94 474.017C1238.9 483.473 1240.38 489.568 1240.38 492.303C1240.38 497.088 1238.11 501.474 1233.55 505.462C1229.11 509.336 1224.04 511.272 1218.34 511.272C1213.55 511.272 1208.83 509.051 1204.15 504.607C1199.48 500.05 1194.53 493.499 1189.29 484.954ZM1186.21 417.449C1179.37 419.956 1169.4 422.633 1156.3 425.481C1143.31 428.216 1134.31 430.267 1129.3 431.634C1124.29 432.887 1119.5 435.451 1114.95 439.324C1110.39 443.084 1108.11 448.382 1108.11 455.218C1108.11 462.282 1110.79 468.32 1116.14 473.333C1121.5 478.232 1128.5 480.682 1137.16 480.682C1146.39 480.682 1154.88 478.688 1162.63 474.7C1170.49 470.599 1176.24 465.358 1179.89 458.978C1184.1 451.914 1186.21 440.293 1186.21 424.114V417.449ZM1325.83 443.938V482.903C1325.83 492.36 1323.61 499.48 1319.17 504.266C1314.73 508.937 1309.09 511.272 1302.25 511.272C1295.53 511.272 1290 508.88 1285.67 504.095C1281.34 499.31 1279.18 492.246 1279.18 482.903V353.021C1279.18 332.057 1286.76 321.575 1301.91 321.575C1309.66 321.575 1315.24 324.025 1318.66 328.924C1322.07 333.823 1323.95 341.058 1324.3 350.628C1329.88 341.058 1335.58 333.823 1341.39 328.924C1347.31 324.025 1355.17 321.575 1364.97 321.575C1374.77 321.575 1384.28 324.025 1393.51 328.924C1402.74 333.823 1407.35 340.317 1407.35 348.406C1407.35 354.103 1405.36 358.831 1401.37 362.591C1397.5 366.237 1393.28 368.06 1388.72 368.06C1387.02 368.06 1382.86 367.034 1376.25 364.983C1369.75 362.819 1364 361.736 1358.99 361.736C1352.15 361.736 1346.57 363.559 1342.24 367.205C1337.91 370.737 1334.55 376.035 1332.16 383.099C1329.76 390.162 1328.11 398.593 1327.2 408.392C1326.29 418.076 1325.83 429.925 1325.83 443.938Z" fill="black"/>
</g>
<defs>
<clipPath id="clip0">
<rect width="1454" height="789" fill="white"/>
</clipPath>
</defs>
</svg>
