<?xml version="1.0" encoding="UTF-8"?>
<svg width="406px" height="406px" viewBox="0 0 406 406" version="1.1" xmlns="http://www.w3.org/2000/svg" xmlns:xlink="http://www.w3.org/1999/xlink">
    <!-- Generator: Sketch 64 (93537) - https://sketch.com -->
    <title>Path</title>
    <desc>Created with Sketch.</desc>
    <g id="Page-1" stroke="none" stroke-width="1" fill="none" fill-rule="evenodd">
        <path d="M373.333,266.88 C348.33,266.88 323.84,262.976 300.629,255.317 C289.301,251.413 276.437,254.421 268.992,262.016 L222.976,296.768 C170.176,268.587 136.384,234.816 108.587,182.4 L142.4,137.472 C150.912,128.96 153.963,116.501 150.315,104.832 C142.592,81.472 138.667,56.96 138.667,32 C138.667,14.357 124.31,2.27373675e-13 106.667,2.27373675e-13 L32,2.27373675e-13 C14.357,2.27373675e-13 0,14.357 0,32 C0,237.845 167.488,405.333 373.333,405.333 C390.976,405.333 405.333,390.976 405.333,373.333 L405.333,298.88 C405.333,281.237 390.976,266.88 373.333,266.88 Z" id="Path" fill="#D4D4D4" fill-rule="nonzero"></path>
    </g>
</svg>