<svg width="512" height="513" viewBox="0 0 512 513" fill="none" xmlns="http://www.w3.org/2000/svg">
<path d="M512 457.14C490.29 339.59 484.87 364.91 351 340L336 300H176L161 340C27 364.93 21.66 339.55 0 457V512H512V457.14Z" fill="#E8EBF0"/>
<path d="M266 342.5L243.5 365L256.83 378.33L250.3 512H281.7L275.17 378.33L288.5 365L266 342.5Z" fill="#D8DBE1"/>
<path d="M256 342.5L233.5 365L246.83 378.33L240.3 512H271.7L265.17 378.33L278.5 365L256 342.5Z" fill="#F93B2A"/>
<path d="M256 342.5L288.77 375.26L350.11 337.63L336 300H331L256 342.5Z" fill="#E8EBF0"/>
<path d="M512 456.86C490.29 339.18 484.87 364.86 351 340L336 300H331L314.73 309.22L331 349.39L288.77 375.27L298.51 377.58L351.51 347.58C478.57 367.39 473.41 392.07 486.51 512.04H512V456.86Z" fill="#D8DBE1"/>
<path d="M181 240V300L256 342.5L331 300V240H181Z" fill="#EFC2A3"/>
<path d="M311 311.33L331 300V240H311V311.33Z" fill="#E6AB91"/>
<path d="M376 120C376 44.74 326 0 256 0C190 0 136.45 40.95 136 118.95V120C136 198.82 189.84 285 256 285C322.35 285 376 198.5 376 120Z" fill="#EFC2A3"/>
<path d="M256 0C250.94 0 245.95 0.239971 241.06 0.719971C303.06 6.71997 346 50.25 346 120C346 192.49 300.25 271.79 241 283.51C245.939 284.499 250.963 284.998 256 285C322.35 285 376 198.5 376 120C376 44.74 326 0 256 0Z" fill="#E6AB91"/>
<path d="M256 0C190 0 136.47 40.9399 136 118.91C162.057 133.958 192.817 138.668 222.183 132.106C251.548 125.544 277.377 108.188 294.55 83.48C301.815 98.8033 313.256 111.766 327.558 120.88C341.859 129.993 358.442 134.887 375.4 135C381.83 48.51 329 0 256 0Z" fill="#474E5D"/>
<path d="M375.4 135C381.83 48.52 329 0 256 0C251 0 246.05 0.26999 241.19 0.73999C306.41 7.11999 349.83 54.74 345.7 129.74C355.234 133.153 365.274 134.931 375.4 135Z" fill="#2E3544"/>
<path d="M189.28 100C232.321 84 279.679 84 322.72 100L296.64 161C283.905 155.098 270.037 152.041 256 152.041C241.963 152.041 228.095 155.098 215.36 161L189.28 100Z" fill="#E8EBF0"/>
<path d="M424 152C424 164.658 420.246 177.032 413.214 187.556C406.181 198.081 396.186 206.284 384.492 211.128C372.797 215.972 359.929 217.24 347.514 214.77C335.099 212.301 323.696 206.205 314.745 197.255C305.794 188.304 299.699 176.901 297.23 164.486C294.76 152.071 296.027 139.203 300.871 127.508C305.715 115.814 313.918 105.818 324.443 98.7859C334.968 91.7535 347.342 88 360 88C368.407 87.9908 376.733 89.64 384.502 92.8531C392.271 96.0661 399.33 100.78 405.275 106.725C411.22 112.669 415.934 119.728 419.147 127.497C422.36 135.266 424.009 143.593 424 152Z" fill="#D8DBE1"/>
<path d="M412 152C412 162.285 408.95 172.338 403.236 180.89C397.523 189.441 389.401 196.106 379.899 200.042C370.398 203.978 359.943 205.007 349.856 203.001C339.769 200.994 330.503 196.042 323.231 188.77C315.958 181.497 311.006 172.232 308.999 162.145C306.993 152.058 308.023 141.602 311.959 132.1C315.894 122.599 322.559 114.478 331.11 108.764C339.662 103.05 349.715 100 360 100C373.791 100 387.018 105.479 396.77 115.23C406.521 124.982 412 138.209 412 152Z" fill="#24B3C9"/>
<path d="M324 152C324.005 141.026 328.11 130.45 335.51 122.346C342.91 114.243 353.072 109.198 364 108.2C362.68 108.08 361.35 108.01 360 108.01C354.039 107.975 348.134 109.152 342.642 111.469C337.15 113.786 332.186 117.194 328.051 121.488C323.916 125.781 320.696 130.87 318.588 136.445C316.48 142.021 315.526 147.967 315.785 153.922C316.044 159.877 317.511 165.717 320.095 171.088C322.68 176.46 326.329 181.25 330.821 185.168C335.313 189.086 340.555 192.05 346.227 193.882C351.9 195.713 357.885 196.372 363.82 195.82C352.92 194.78 342.8 189.713 335.437 181.61C328.073 173.507 323.995 162.949 324 152Z" fill="#3DCCE2"/>
<path d="M360 100C357.321 99.9982 354.646 100.206 352 100.62C364.253 102.546 375.415 108.789 383.469 118.222C391.524 127.655 395.941 139.656 395.924 152.06C395.907 164.464 391.457 176.453 383.377 185.864C375.297 195.275 364.118 201.487 351.86 203.38C356.683 204.127 361.587 204.198 366.43 203.59C379.545 201.934 391.536 195.345 399.966 185.163C408.396 174.982 412.632 161.972 411.813 148.778C410.995 135.585 405.182 123.199 395.558 114.138C385.933 105.077 373.219 100.022 360 100Z" fill="#0399AF"/>
<path d="M216 152C216 164.658 212.246 177.032 205.214 187.556C198.181 198.081 188.186 206.284 176.492 211.128C164.797 215.972 151.929 217.24 139.514 214.77C127.099 212.301 115.696 206.205 106.745 197.255C97.7944 188.304 91.6993 176.901 89.2299 164.486C86.7604 152.071 88.0275 139.203 92.8715 127.508C97.7155 115.814 105.918 105.818 116.443 98.7859C126.968 91.7535 139.342 88 152 88C168.974 88 185.252 94.7428 197.255 106.745C209.257 118.747 216 135.026 216 152Z" fill="#D8DBE1"/>
<path d="M204 152C204 162.285 200.95 172.338 195.236 180.89C189.523 189.441 181.401 196.106 171.899 200.042C162.398 203.978 151.943 205.007 141.856 203.001C131.769 200.994 122.503 196.042 115.231 188.77C107.958 181.497 103.006 172.232 100.999 162.145C98.9927 152.058 100.023 141.602 103.959 132.1C107.894 122.599 114.559 114.478 123.11 108.764C131.662 103.05 141.715 100 152 100C165.791 100 179.018 105.479 188.77 115.23C198.521 124.982 204 138.209 204 152Z" fill="#24B3C9"/>
<path d="M116 152C116.005 141.026 120.11 130.45 127.51 122.346C134.91 114.243 145.072 109.198 156 108.2C154.68 108.08 153.35 108.01 152 108.01C146.039 107.975 140.134 109.152 134.642 111.469C129.15 113.786 124.186 117.194 120.051 121.488C115.916 125.781 112.696 130.87 110.588 136.445C108.48 142.021 107.526 147.967 107.785 153.922C108.044 159.877 109.511 165.717 112.095 171.088C114.68 176.46 118.329 181.25 122.821 185.168C127.313 189.086 132.555 192.05 138.227 193.882C143.9 195.713 149.885 196.372 155.82 195.82C144.92 194.78 134.8 189.713 127.437 181.61C120.073 173.507 115.995 162.949 116 152Z" fill="#3DCCE2"/>
<path d="M152 100C149.321 99.9982 146.646 100.206 144 100.62C156.253 102.546 167.415 108.789 175.469 118.222C183.524 127.655 187.941 139.656 187.924 152.06C187.907 164.464 183.457 176.453 175.377 185.864C167.297 195.275 156.118 201.487 143.86 203.38C148.683 204.127 153.587 204.198 158.43 203.59C171.545 201.934 183.536 195.345 191.966 185.163C200.396 174.982 204.632 161.972 203.813 148.778C202.995 135.585 197.182 123.199 187.558 114.138C177.933 105.077 165.219 100.022 152 100Z" fill="#0399AF"/>
<path d="M256 136C264.837 136 272 128.837 272 120C272 111.163 264.837 104 256 104C247.163 104 240 111.163 240 120C240 128.837 247.163 136 256 136Z" fill="#D8DBE1"/>
</svg>
