<svg width="18" height="13" viewBox="0 0 18 13" fill="none" xmlns="http://www.w3.org/2000/svg">
<path d="M16.0714 0H1.92857C1.41708 0 0.926543 0.203188 0.564866 0.564866C0.203188 0.926543 0 1.41708 0 1.92857V10.9286C0 11.4401 0.203188 11.9306 0.564866 12.2923C0.926543 12.654 1.41708 12.8571 1.92857 12.8571H16.0714C16.5829 12.8571 17.0735 12.654 17.4351 12.2923C17.7968 11.9306 18 11.4401 18 10.9286V1.92857C18 1.41708 17.7968 0.926543 17.4351 0.564866C17.0735 0.203188 16.5829 0 16.0714 0ZM15.7179 1.28571L9 7.48286L2.28214 1.28571H15.7179ZM16.0714 11.5714H1.92857C1.75808 11.5714 1.59456 11.5037 1.474 11.3831C1.35344 11.2626 1.28571 11.0991 1.28571 10.9286V2.115L8.56286 8.82643C8.68173 8.93668 8.83787 8.99794 9 8.99794C9.16213 8.99794 9.31827 8.93668 9.43714 8.82643L16.7143 2.115V10.9286C16.7143 11.0991 16.6466 11.2626 16.526 11.3831C16.4054 11.5037 16.2419 11.5714 16.0714 11.5714Z" fill="white"/>
</svg>
