<svg width="18" height="18" viewBox="0 0 18 18" fill="none" xmlns="http://www.w3.org/2000/svg">
<path d="M3.51534 0.000230016C4.15721 0.00914479 4.7559 0.363507 5.31141 1.13025L5.36503 1.20574L7.22393 3.88362C7.78259 4.68556 7.85599 5.6375 7.13311 6.4025L7.08589 6.45107L6.3865 7.15965C6.17485 7.3713 6.16564 7.54615 6.28528 7.7578C6.6227 8.28923 7.23076 8.99852 7.88265 9.65883L8.06135 9.83753C8.74233 10.5185 9.7454 11.3927 10.2423 11.7056C10.4341 11.8277 10.6094 11.8258 10.8073 11.6453L10.8405 11.6136L11.5491 10.905C12.306 10.1571 13.2482 10.2033 14.0646 10.7412L14.1166 10.7762L16.7945 12.635C17.6135 13.2056 18 13.8221 18 14.4847C18 15.0422 17.7618 15.6251 17.2526 16.2173L17.1902 16.2884C17.1258 16.362 17.0521 16.4448 16.9785 16.5184C16.0491 17.5675 14.9908 18 13.3804 18C10.7577 18 7.54601 16.362 4.59202 13.408C1.61963 10.4357 0 7.23327 0 4.6014C0 3.00939 0.432515 1.95113 1.4816 1.01249L1.71166 0.810036C2.32822 0.257896 2.93558 -0.00897232 3.51534 0.000230016ZM3.51534 1.57383C3.24847 1.57383 2.95399 1.70266 2.67791 1.94192C2.6135 1.98793 2.56748 2.03395 2.50307 2.08916C1.78528 2.71492 1.42638 3.58914 1.40798 4.6014C1.36196 6.94799 3.24847 10.0584 5.65031 12.451C8.03374 14.8252 11.0429 16.6289 13.3896 16.5828C14.411 16.5644 15.2853 16.2147 15.911 15.497C15.9663 15.4325 16.0031 15.3865 16.0583 15.3221C16.2975 15.0461 16.4264 14.7516 16.4264 14.4847C16.4264 14.2249 16.3367 14.0058 16.096 13.8275L16.0491 13.7945L13.3712 12.0093C13.0885 11.8326 12.7888 11.8086 12.5129 12.0593L12.4785 12.0921L11.6687 12.9019C11.0337 13.5369 10.2607 13.4909 9.64417 13.0307C8.92638 12.497 7.81288 11.5031 7.1135 10.7946C6.40491 10.0952 5.49386 9.06453 4.96932 8.35595C4.52016 7.75407 4.46562 7.00312 5.05396 6.37702L5.09816 6.33144L5.90798 5.52163C6.18184 5.24777 6.17583 4.93999 6.00394 4.66341L5.98159 4.629L4.19632 1.95113C4.02147 1.67506 3.78221 1.57383 3.51534 1.57383Z" fill="white"/>
</svg>
