<svg width="2463" height="907" viewBox="0 0 2463 907" fill="none" xmlns="http://www.w3.org/2000/svg">
<path d="M561.7 325.5C561.7 278.467 541.3 238.8 500.5 206.5C464.233 178.167 421.733 164 373 164C311.8 164 262.5 184.4 225.1 225.2C197.9 255.233 184.3 288.667 184.3 325.5C184.3 375.933 218.583 418.15 287.15 452.15C300.183 458.383 340.133 474.533 407 500.6C461.967 522.133 494.267 542.533 503.9 561.8C507.3 568.033 509 574.267 509 580.5C509 611.667 490.583 636.6 453.75 655.3C428.817 667.767 401.9 674 373 674C327.1 674 290.267 660.967 262.5 634.9C246.067 618.467 237.567 600.333 237 580.5H169C169 624.7 189.117 662.95 229.35 695.25C269.583 726.417 317.467 742 373 742C437.033 742 489.733 721.6 531.1 680.8C561.133 650.2 576.433 616.767 577 580.5C577 529.5 542.717 486.717 474.15 452.15C460.55 445.917 420.033 429.483 352.6 402.85C298.2 381.883 266.183 362.05 256.55 343.35C253.717 337.117 252.3 331.167 252.3 325.5C252.3 292.633 269.583 267.133 304.15 249C325.683 237.667 348.633 232 373 232C414.933 232 448.083 245.317 472.45 271.95C486.617 287.817 493.7 305.667 493.7 325.5H561.7Z" fill="white"/>
<path d="M661.635 453C661.635 535.167 687.701 604.583 739.835 661.25C789.701 714.517 848.635 741.433 916.635 742C984.635 742 1043.28 715.367 1092.58 662.1C1145.28 604.867 1171.63 535.167 1171.63 453C1171.63 370.833 1145.57 301.417 1093.43 244.75C1043.57 191.483 984.635 164.567 916.635 164C848.635 164 789.985 190.633 740.685 243.9C687.985 301.133 661.635 370.833 661.635 453ZM729.635 453C729.635 387.833 750.318 333.15 791.685 288.95C827.385 251.55 869.035 232.567 916.635 232C971.601 232 1017.5 255.8 1054.33 303.4C1087.2 346.467 1103.63 396.333 1103.63 453C1103.63 518.167 1082.95 572.85 1041.58 617.05C1005.88 654.45 964.235 673.433 916.635 674C861.668 674 815.768 650.2 778.935 602.6C746.068 559.533 729.635 509.667 729.635 453Z" fill="white"/>
<path d="M1307.1 721.6L1496.65 283.85L1686.2 721.6L1695.55 742H1769.5L1749.1 694.4L1540.25 184.4L1547.75 164H1474.55L1465.2 184.4L1244.2 694.4L1223.8 742H1297.75L1307.1 721.6Z" fill="white"/>
<path d="M2174.95 472.55C2219.72 453.283 2250.04 422.4 2265.9 379.9C2272.7 362.333 2276.1 344.483 2276.1 326.35C2276.1 277.617 2256.27 237.1 2216.6 204.8C2183.74 177.6 2145.2 164 2101 164L1885.95 164.85H1851.95V198.85L1851.1 453V742H1919.1V487H2089.95C2117.72 507.967 2140.67 537.433 2158.8 575.4C2174.1 608.267 2191.1 655.583 2209.8 717.35L2216.6 742H2288L2274.4 698.65C2240.97 586.45 2207.82 511.083 2174.95 472.55ZM1993.9 419.85H1919.1V232H2101C2138.97 232 2168.44 245.6 2189.4 272.8C2201.87 289.233 2208.1 307.083 2208.1 326.35C2208.1 359.783 2192.24 385.567 2160.5 403.7C2142.37 413.9 2122.82 419 2101.85 419H1993.05L1993.9 419.85Z" fill="white"/>
<path d="M1585.21 76.897L1649.58 104.965L1357.73 746.117L1295 742.385L1585.21 76.897Z" fill="#CADDFF"/>
<path d="M1585.39 77.8716C1586.49 75.3405 1589.44 74.1835 1591.97 75.2876L1646.97 99.2753C1649.5 100.379 1650.65 103.326 1649.55 105.857L1623.56 165.437L1559.4 137.451L1585.39 77.8716Z" fill="#F05146"/>
</svg>
